<svg xmlns="http://www.w3.org/2000/svg" version="1.1" width="101" height="101" viewBox="0 0 130 130"><rect x="0" y="0" width="130" height="130" fill="#ffffff"></rect><g transform="scale(4.483)"><g transform="translate(0,0)"><path fill-rule="evenodd" d="M10 0L10 2L11 2L11 0ZM12 0L12 1L13 1L13 2L12 2L12 4L15 4L15 3L16 3L16 2L17 2L17 1L20 1L20 2L19 2L19 3L17 3L17 4L16 4L16 5L14 5L14 8L12 8L12 7L13 7L13 5L11 5L11 6L10 6L10 4L11 4L11 3L8 3L8 4L9 4L9 5L8 5L8 7L9 7L9 8L6 8L6 9L5 9L5 8L0 8L0 9L2 9L2 10L1 10L1 11L0 11L0 13L1 13L1 14L0 14L0 21L1 21L1 18L2 18L2 19L3 19L3 20L2 20L2 21L3 21L3 20L6 20L6 21L7 21L7 20L6 20L6 19L7 19L7 18L6 18L6 17L7 17L7 16L11 16L11 14L12 14L12 15L13 15L13 14L14 14L14 16L13 16L13 17L14 17L14 19L19 19L19 18L21 18L21 17L18 17L18 16L17 16L17 15L18 15L18 14L20 14L20 12L23 12L23 11L25 11L25 13L22 13L22 14L21 14L21 15L20 15L20 16L21 16L21 15L23 15L23 14L24 14L24 16L23 16L23 17L22 17L22 18L23 18L23 19L22 19L22 20L21 20L21 19L20 19L20 20L19 20L19 21L18 21L18 20L13 20L13 19L12 19L12 21L11 21L11 19L9 19L9 18L12 18L12 17L9 17L9 18L8 18L8 19L9 19L9 20L8 20L8 23L9 23L9 24L8 24L8 29L10 29L10 27L11 27L11 26L12 26L12 28L13 28L13 29L15 29L15 28L17 28L17 29L18 29L18 28L17 28L17 27L16 27L16 26L14 26L14 25L15 25L15 24L17 24L17 25L18 25L18 27L19 27L19 29L20 29L20 28L21 28L21 27L22 27L22 29L27 29L27 28L28 28L28 26L29 26L29 25L28 25L28 23L27 23L27 22L29 22L29 20L28 20L28 19L27 19L27 16L28 16L28 15L27 15L27 14L25 14L25 13L27 13L27 12L28 12L28 11L27 11L27 12L26 12L26 11L25 11L25 9L26 9L26 8L25 8L25 9L24 9L24 8L23 8L23 9L22 9L22 8L21 8L21 9L19 9L19 10L17 10L17 9L18 9L18 8L17 8L17 6L18 6L18 7L19 7L19 8L20 8L20 7L21 7L21 4L20 4L20 3L21 3L21 0L16 0L16 1L15 1L15 2L14 2L14 1L13 1L13 0ZM8 1L8 2L9 2L9 1ZM13 2L13 3L14 3L14 2ZM16 5L16 6L15 6L15 8L16 8L16 6L17 6L17 5ZM18 5L18 6L19 6L19 7L20 7L20 5ZM9 6L9 7L10 7L10 6ZM11 6L11 7L12 7L12 6ZM10 8L10 9L9 9L9 10L8 10L8 9L6 9L6 10L8 10L8 11L9 11L9 12L7 12L7 11L5 11L5 10L4 10L4 9L3 9L3 11L1 11L1 12L3 12L3 13L4 13L4 12L7 12L7 13L5 13L5 14L3 14L3 15L4 15L4 16L2 16L2 18L3 18L3 19L4 19L4 18L5 18L5 17L6 17L6 16L7 16L7 15L8 15L8 13L9 13L9 15L10 15L10 14L11 14L11 13L12 13L12 14L13 14L13 13L12 13L12 12L14 12L14 14L16 14L16 13L15 13L15 12L18 12L18 13L19 13L19 11L23 11L23 10L19 10L19 11L17 11L17 10L16 10L16 9L15 9L15 10L14 10L14 9L13 9L13 10L12 10L12 9L11 9L11 8ZM27 8L27 9L28 9L28 10L29 10L29 9L28 9L28 8ZM10 9L10 11L11 11L11 9ZM13 10L13 11L14 11L14 12L15 12L15 11L16 11L16 10L15 10L15 11L14 11L14 10ZM3 11L3 12L4 12L4 11ZM9 12L9 13L11 13L11 12ZM28 13L28 14L29 14L29 13ZM5 14L5 16L6 16L6 15L7 15L7 14ZM25 15L25 16L24 16L24 17L25 17L25 21L26 21L26 20L27 20L27 19L26 19L26 17L25 17L25 16L27 16L27 15ZM16 16L16 17L15 17L15 18L16 18L16 17L17 17L17 18L18 18L18 17L17 17L17 16ZM28 17L28 18L29 18L29 17ZM23 19L23 20L24 20L24 19ZM9 20L9 23L11 23L11 24L10 24L10 25L9 25L9 27L10 27L10 25L11 25L11 24L14 24L14 22L16 22L16 21L12 21L12 22L10 22L10 20ZM19 21L19 22L20 22L20 21ZM21 21L21 24L24 24L24 21ZM12 22L12 23L13 23L13 22ZM17 22L17 24L18 24L18 25L19 25L19 27L21 27L21 26L25 26L25 25L26 25L26 24L27 24L27 23L25 23L25 25L21 25L21 26L20 26L20 24L19 24L19 23L18 23L18 22ZM22 22L22 23L23 23L23 22ZM12 25L12 26L13 26L13 28L14 28L14 26L13 26L13 25ZM27 25L27 26L28 26L28 25ZM23 27L23 28L24 28L24 27ZM26 27L26 28L27 28L27 27ZM0 0L0 7L7 7L7 0ZM1 1L1 6L6 6L6 1ZM2 2L2 5L5 5L5 2ZM22 0L22 7L29 7L29 0ZM23 1L23 6L28 6L28 1ZM24 2L24 5L27 5L27 2ZM0 22L0 29L7 29L7 22ZM1 23L1 28L6 28L6 23ZM2 24L2 27L5 27L5 24Z" fill="#000000"></path></g></g></svg>