<svg xmlns="http://www.w3.org/2000/svg" version="1.1" width="112" height="130" viewBox="0 0 130 130"><rect x="0" y="0" width="130" height="130" fill="#ffffff"></rect><g transform="scale(4.483)"><g transform="translate(0,0)"><path fill-rule="evenodd" d="M8 0L8 1L10 1L10 0ZM14 0L14 2L11 2L11 4L10 4L10 3L9 3L9 2L8 2L8 5L9 5L9 6L8 6L8 7L9 7L9 8L8 8L8 9L7 9L7 8L6 8L6 9L7 9L7 10L5 10L5 11L4 11L4 8L0 8L0 9L1 9L1 10L0 10L0 11L1 11L1 10L3 10L3 11L2 11L2 12L1 12L1 14L0 14L0 16L1 16L1 18L0 18L0 19L1 19L1 18L2 18L2 19L4 19L4 21L7 21L7 20L5 20L5 19L4 19L4 18L2 18L2 17L3 17L3 16L4 16L4 17L5 17L5 18L6 18L6 19L7 19L7 18L6 18L6 17L8 17L8 16L9 16L9 18L8 18L8 19L9 19L9 18L11 18L11 19L12 19L12 20L11 20L11 21L12 21L12 22L10 22L10 20L9 20L9 21L8 21L8 22L10 22L10 23L14 23L14 22L15 22L15 21L16 21L16 23L18 23L18 24L17 24L17 26L16 26L16 25L15 25L15 24L14 24L14 26L13 26L13 24L12 24L12 25L11 25L11 24L10 24L10 25L11 25L11 28L12 28L12 29L13 29L13 28L12 28L12 26L13 26L13 27L14 27L14 29L15 29L15 28L16 28L16 29L17 29L17 27L18 27L18 26L19 26L19 28L18 28L18 29L23 29L23 27L24 27L24 28L25 28L25 29L26 29L26 27L27 27L27 29L28 29L28 27L29 27L29 25L28 25L28 27L27 27L27 26L26 26L26 25L27 25L27 24L29 24L29 23L28 23L28 22L29 22L29 21L27 21L27 18L28 18L28 15L29 15L29 13L27 13L27 12L25 12L25 11L24 11L24 12L25 12L25 13L26 13L26 15L27 15L27 17L26 17L26 16L25 16L25 15L24 15L24 17L23 17L23 19L21 19L21 20L20 20L20 22L19 22L19 20L18 20L18 19L17 19L17 18L16 18L16 17L15 17L15 19L16 19L16 20L15 20L15 21L14 21L14 20L13 20L13 18L14 18L14 17L12 17L12 16L14 16L14 15L15 15L15 16L16 16L16 15L15 15L15 14L17 14L17 15L18 15L18 18L19 18L19 15L20 15L20 18L22 18L22 16L21 16L21 15L20 15L20 14L23 14L23 13L20 13L20 12L21 12L21 11L22 11L22 10L25 10L25 9L27 9L27 8L24 8L24 9L22 9L22 8L21 8L21 5L20 5L20 3L21 3L21 2L20 2L20 3L19 3L19 1L21 1L21 0L16 0L16 2L18 2L18 3L15 3L15 4L13 4L13 5L12 5L12 3L14 3L14 2L15 2L15 0ZM17 4L17 5L15 5L15 9L13 9L13 7L14 7L14 5L13 5L13 7L12 7L12 5L10 5L10 6L9 6L9 7L10 7L10 8L9 8L9 9L8 9L8 10L7 10L7 11L5 11L5 12L4 12L4 13L6 13L6 14L3 14L3 15L6 15L6 16L7 16L7 15L6 15L6 14L7 14L7 13L8 13L8 15L9 15L9 16L10 16L10 17L11 17L11 18L12 18L12 17L11 17L11 16L12 16L12 14L13 14L13 15L14 15L14 14L15 14L15 13L17 13L17 12L18 12L18 13L19 13L19 12L20 12L20 10L18 10L18 9L17 9L17 10L18 10L18 11L17 11L17 12L12 12L12 14L11 14L11 15L9 15L9 14L10 14L10 13L11 13L11 11L14 11L14 10L15 10L15 11L16 11L16 6L17 6L17 7L18 7L18 6L17 6L17 5L19 5L19 4ZM10 6L10 7L11 7L11 8L12 8L12 7L11 7L11 6ZM19 6L19 7L20 7L20 6ZM20 8L20 9L21 9L21 8ZM28 8L28 10L26 10L26 11L28 11L28 12L29 12L29 11L28 11L28 10L29 10L29 8ZM9 9L9 10L10 10L10 9ZM18 11L18 12L19 12L19 11ZM6 12L6 13L7 13L7 12ZM9 12L9 13L10 13L10 12ZM13 13L13 14L14 14L14 13ZM1 14L1 15L2 15L2 14ZM18 14L18 15L19 15L19 14ZM24 17L24 18L25 18L25 19L24 19L24 20L26 20L26 18L25 18L25 17ZM1 20L1 21L3 21L3 20ZM21 21L21 24L24 24L24 21ZM18 22L18 23L19 23L19 24L18 24L18 25L19 25L19 26L20 26L20 27L21 27L21 28L22 28L22 27L23 27L23 25L22 25L22 26L21 26L21 25L20 25L20 23L19 23L19 22ZM22 22L22 23L23 23L23 22ZM26 22L26 24L25 24L25 25L26 25L26 24L27 24L27 22ZM8 25L8 29L10 29L10 26L9 26L9 25ZM14 26L14 27L16 27L16 26ZM24 26L24 27L26 27L26 26ZM0 0L0 7L7 7L7 0ZM1 1L1 6L6 6L6 1ZM2 2L2 5L5 5L5 2ZM22 0L22 7L29 7L29 0ZM23 1L23 6L28 6L28 1ZM24 2L24 5L27 5L27 2ZM0 22L0 29L7 29L7 22ZM1 23L1 28L6 28L6 23ZM2 24L2 27L5 27L5 24Z" fill="#000000"></path></g></g></svg>