<svg xmlns="http://www.w3.org/2000/svg" width="20" height="20" viewBox="0 0 20 20" fill="none">
<path d="M6.25 9.375V10.625C6.25 10.9705 5.97047 11.25 5.625 11.25H4.375C4.02953 11.25 3.75 10.9705 3.75 10.625V9.375C3.75 9.02953 4.02953 8.75 4.375 8.75H5.625C5.97047 8.75 6.25 9.02953 6.25 9.375ZM5.625 13.75H4.375C4.02953 13.75 3.75 14.0295 3.75 14.375V15.625C3.75 15.9705 4.02953 16.25 4.375 16.25H5.625C5.97047 16.25 6.25 15.9705 6.25 15.625V14.375C6.25 14.0295 5.97047 13.75 5.625 13.75ZM10.625 8.75H9.375C9.02953 8.75 8.75 9.02953 8.75 9.375V10.625C8.75 10.9705 9.02953 11.25 9.375 11.25H10.625C10.9705 11.25 11.25 10.9705 11.25 10.625V9.375C11.25 9.02953 10.9705 8.75 10.625 8.75ZM10.625 13.75H9.375C9.02953 13.75 8.75 14.0295 8.75 14.375V15.625C8.75 15.9705 9.02953 16.25 9.375 16.25H10.625C10.9705 16.25 11.25 15.9705 11.25 15.625V14.375C11.25 14.0295 10.9705 13.75 10.625 13.75ZM15.625 8.75H14.375C14.0295 8.75 13.75 9.02953 13.75 9.375V10.625C13.75 10.9705 14.0295 11.25 14.375 11.25H15.625C15.9705 11.25 16.25 10.9705 16.25 10.625V9.375C16.25 9.02953 15.9705 8.75 15.625 8.75ZM15.625 13.75H14.375C14.0295 13.75 13.75 14.0295 13.75 14.375V15.625C13.75 15.9705 14.0295 16.25 14.375 16.25H15.625C15.9705 16.25 16.25 15.9705 16.25 15.625V14.375C16.25 14.0295 15.9705 13.75 15.625 13.75ZM4.375 3.75H5.625C5.97047 3.75 6.25 3.47047 6.25 3.125V0.625C6.25 0.279531 5.97047 0 5.625 0H4.375C4.02953 0 3.75 0.279531 3.75 0.625V3.125C3.75 3.47047 4.02953 3.75 4.375 3.75ZM20 5V17.5C20 18.8806 18.8806 20 17.5 20H2.5C1.11937 20 0 18.8806 0 17.5V5C0 3.61937 1.11937 2.5 2.5 2.5H3.125V3.125C3.125 3.81348 3.6859 4.375 4.375 4.375H5.625C6.3141 4.375 6.875 3.81348 6.875 3.125V2.5H13.125V3.125C13.125 3.81348 13.6865 4.375 14.375 4.375H15.625C16.3135 4.375 16.875 3.81348 16.875 3.125V2.5H17.5C18.8806 2.5 20 3.61937 20 5ZM18.75 7.5C18.75 6.81152 18.1897 6.25 17.5 6.25H2.5C1.8109 6.25 1.25 6.81152 1.25 7.5V17.5C1.25 18.1897 1.8109 18.75 2.5 18.75H17.5C18.1897 18.75 18.75 18.1897 18.75 17.5V7.5ZM14.375 3.75H15.625C15.9705 3.75 16.25 3.47047 16.25 3.125V0.625C16.25 0.279531 15.9705 0 15.625 0H14.375C14.0295 0 13.75 0.279531 13.75 0.625V3.125C13.75 3.47047 14.0295 3.75 14.375 3.75Z" fill="#F69904"/>
</svg>
