<svg xmlns="http://www.w3.org/2000/svg" width="30" height="26" viewBox="0 0 30 26" fill="none">
<g clip-path="url(#clip0_603_378)">
<path d="M0.390531 26C0.264533 25.7615 0.0629374 25.5355 0.0251381 25.2844C-0.0378606 24.8324 0.0251381 24.3679 -6.1387e-05 23.916C-0.0126611 23.5017 0.163735 23.2883 0.592127 23.3008C0.718124 23.3008 0.844122 23.3008 0.970119 23.3008C10.3317 23.3008 19.6807 23.3008 29.0424 23.3134C29.3574 23.3134 29.6723 23.4389 29.9873 23.5017C29.9873 24.3303 29.9873 25.1714 29.9873 26C20.1343 26 10.2561 26 0.390531 26Z" fill="#FFFFFF"/>
<path d="M15.0315 10.6461C18.3957 10.6461 21.7598 10.6461 25.1365 10.6461C27.0391 10.6461 27.9715 11.5877 27.9841 13.4959C27.9841 13.521 27.9841 13.5336 27.9841 13.5587C28.2109 14.6635 27.6943 15.2912 26.7115 15.718C25.7161 16.1449 24.7585 16.2328 23.8892 15.492C23.4608 15.128 23.108 14.6886 22.7552 14.2492C22.289 13.6842 21.848 13.6717 21.3692 14.2241C21.0542 14.5881 20.7392 14.9522 20.3864 15.2661C19.391 16.1574 18.2949 16.2579 17.1735 15.5423C16.6695 15.2159 16.2159 14.8016 15.7749 14.3873C15.1701 13.8223 14.9055 13.8223 14.3133 14.4124C13.9731 14.7513 13.6204 15.0778 13.2298 15.354C11.9068 16.3081 10.7098 16.2453 9.47504 15.1907C9.28604 15.0275 9.10965 14.8518 8.94585 14.6635C8.10167 13.6968 7.92527 13.6968 7.08109 14.7011C5.93451 16.057 4.48554 16.3583 2.87277 15.6301C2.24278 15.3414 2.00339 14.902 2.06639 14.2492C2.10419 13.9353 2.14199 13.6215 2.10419 13.3201C1.88999 11.776 3.13737 10.621 4.75013 10.6335C8.16467 10.6712 11.5918 10.6461 15.0315 10.6461Z" fill="#FFFFFF"/>
<path d="M27.7321 21.606C19.2525 21.606 10.8107 21.606 2.33105 21.606C2.33105 20.2878 2.33105 18.9696 2.33105 17.6012C4.43521 18.3042 6.27478 17.8522 7.78675 16.2327C10.3067 18.6432 12.625 18.3168 15.0568 16.1574C18.0681 18.7687 20.2353 18.1661 22.2891 16.1198C22.982 16.8605 23.738 17.5384 24.7712 17.802C25.7918 18.0657 26.7494 17.8522 27.7573 17.4254C27.7321 18.8315 27.7321 20.1874 27.7321 21.606Z" fill="#FFFFFF"/>
<path d="M13.2297 9.46596C13.2297 8.22308 13.2171 7.00531 13.2423 5.77499C13.2549 5.37325 13.5447 5.13472 13.9605 5.13472C14.6535 5.12217 15.3465 5.12217 16.0269 5.13472C16.5056 5.13472 16.7828 5.41092 16.7828 5.87542C16.808 7.05553 16.7954 8.24819 16.7954 9.46596C15.5985 9.46596 14.4393 9.46596 13.2297 9.46596Z" fill="#FFFFFF"/>
<path d="M15.0188 0C15.3212 0.55239 15.674 1.18011 16.0142 1.82038C16.1654 2.10913 16.367 2.39788 16.4552 2.71173C16.6442 3.40222 16.3418 4.15548 15.8 4.45678C15.2582 4.75809 14.4266 4.67021 13.9856 4.26847C13.5194 3.82907 13.3682 2.98793 13.6958 2.37277C14.1242 1.54418 14.5904 0.740705 15.0188 0Z" fill="#FFFFFF"/>
</g>
<defs>
<clipPath id="clip0_603_378">
<rect width="30" height="26" fill="white"/>
</clipPath>
</defs>
</svg>
