<svg xmlns="http://www.w3.org/2000/svg" width="26" height="20" viewBox="0 0 26 20" fill="none">
<g clip-path="url(#clip0_603_396)">
<path d="M13.025 -0.000469008C16.3358 -0.000469008 19.6399 -0.0071379 22.9507 0.00619988C23.3837 0.00619988 23.8233 0.0528821 24.243 0.146247C24.9958 0.319638 25.5154 0.799798 25.8418 1.49336C26.1282 2.10023 26.035 2.43368 25.4754 2.78713C24.7493 3.24728 24.0165 3.70076 23.2904 4.16092C20.1195 6.18159 16.9486 8.18893 13.7911 10.2229C13.2182 10.5964 12.7652 10.5831 12.1923 10.2163C8.34859 7.74211 4.48489 5.3013 0.627859 2.84715C0.54792 2.7938 0.46132 2.74711 0.388043 2.69376C0.00833517 2.43368 -0.0649418 2.22694 0.068289 1.79346C0.394705 0.72644 1.20741 0.106233 2.39983 0.0395443C2.87946 0.0128688 3.35909 0.0128688 3.83206 0.00619988C6.89637 0.00619988 9.96068 0.00619988 13.025 -0.000469008C13.025 0.00619988 13.025 -0.000469008 13.025 -0.000469008Z" fill="#FFFFFF"/>
<path d="M12.9702 20C9.60609 20 6.24868 20.0067 2.8846 19.9934C2.46492 19.9934 2.03192 19.9467 1.62557 19.8333C0.806196 19.5999 0.299919 19.0197 0.0534418 18.2128C-0.0731275 17.7926 0.000149465 17.5859 0.379857 17.3458C3.48414 15.3918 6.58842 13.4378 9.69269 11.4838C10.0191 11.2771 10.3655 11.2771 10.6919 11.4705C11.2781 11.8173 11.851 12.1774 12.4239 12.5442C12.8969 12.851 13.0967 12.8576 13.5564 12.5575C14.1626 12.1641 14.7755 11.7839 15.3817 11.3905C15.7081 11.1771 16.0012 11.2438 16.3009 11.4372C17.2935 12.0774 18.2861 12.7109 19.2853 13.3445C21.3237 14.6382 23.3688 15.9187 25.4073 17.2124C26.0335 17.6059 26.1334 17.9327 25.827 18.5929C25.4073 19.4865 24.6479 19.8666 23.7219 19.98C23.4887 20.0067 23.2556 20.0067 23.0224 20.0067C19.6717 20 16.3209 20 12.9702 20Z" fill="#FFFFFF"/>
<path d="M0.0471191 15.3651C0.0471191 11.7773 0.0471191 8.24942 0.0471191 4.66156C2.85829 6.45549 5.62949 8.21608 8.44733 10.01C5.63616 11.8039 2.86495 13.5712 0.0471191 15.3651Z" fill="#FFFFFF"/>
<path d="M17.5732 10.01C20.3778 8.22275 23.149 6.45549 25.9601 4.66156C25.9601 8.23608 25.9601 11.7573 25.9601 15.3518C23.1556 13.5712 20.3844 11.8039 17.5732 10.01Z" fill="#FFFFFF"/>
</g>
<defs>
<clipPath id="clip0_603_396">
<rect width="26" height="20" fill="white"/>
</clipPath>
</defs>
</svg>
