<svg width="20" height="20" viewBox="0 0 22 18" fill="none" xmlns="http://www.w3.org/2000/svg">
                                                    <g clip-path="url(#clip0_4578_1323)">
                                                        <path d="M11.0213 0.666245C13.7803 0.666245 16.5337 0.660688 19.2927 0.671803C19.6536 0.671803 20.0199 0.710705 20.3697 0.788508C20.997 0.933001 21.43 1.33313 21.702 1.9111C21.9407 2.41683 21.863 2.6947 21.3967 2.98924C20.7916 3.3727 20.1809 3.75061 19.5758 4.13407C16.9334 5.81796 14.291 7.49074 11.6597 9.18575C11.1823 9.49697 10.8048 9.48585 10.3274 9.18019C7.12431 7.11839 3.90456 5.08438 0.69037 3.03926C0.623755 2.9948 0.551588 2.9559 0.490524 2.91144C0.174101 2.6947 0.113037 2.52242 0.224062 2.16119C0.496075 1.272 1.17333 0.755164 2.16701 0.69959C2.5667 0.67736 2.9664 0.67736 3.36054 0.671803C5.91413 0.671803 8.46772 0.671803 11.0213 0.666245C11.0213 0.671803 11.0213 0.666245 11.0213 0.666245Z" fill="#a98345"></path>
                                                        <path d="M10.9746 17.3333C8.17122 17.3333 5.37337 17.3389 2.56997 17.3278C2.22024 17.3278 1.8594 17.2889 1.52078 17.1944C0.837968 16.9999 0.41607 16.5164 0.210673 15.8439C0.105198 15.4938 0.166262 15.3216 0.482686 15.1215C3.06958 13.4932 5.65648 11.8648 8.24338 10.2365C8.5154 10.0642 8.80406 10.0642 9.07608 10.2254C9.56459 10.5144 10.042 10.8145 10.5194 11.1201C10.9136 11.3758 11.0801 11.3813 11.4631 11.1313C11.9683 10.8034 12.479 10.4866 12.9842 10.1587C13.2562 9.98088 13.5004 10.0365 13.7503 10.1976C14.5774 10.7311 15.4045 11.2591 16.2372 11.787C17.9359 12.8652 19.6402 13.9322 21.3389 15.0103C21.8607 15.3382 21.944 15.6105 21.6886 16.1607C21.3389 16.9054 20.706 17.2222 19.9344 17.3167C19.7401 17.3389 19.5458 17.3389 19.3515 17.3389C16.5592 17.3333 13.7669 17.3333 10.9746 17.3333Z" fill="#a98345"></path>
                                                        <path d="M0.206055 13.4709C0.206055 10.4811 0.206055 7.54118 0.206055 4.5513C2.5487 6.04624 4.85803 7.5134 7.20623 9.00834C4.86358 10.5033 2.55425 11.976 0.206055 13.4709Z" fill="#a98345"></path>
                                                        <path d="M14.8115 9.00834C17.1486 7.51896 19.458 6.04624 21.8006 4.5513C21.8006 7.53007 21.8006 10.4644 21.8006 13.4598C19.4635 11.976 17.1542 10.5033 14.8115 9.00834Z" fill="#a98345"></path>
                                                    </g>
                                                    <defs>
                                                        <clipPath id="clip0_4578_1323">
                                                            <rect width="21.6667" height="16.6667" fill="white" transform="translate(0.166992 0.666656)"></rect>
                                                        </clipPath>
                                                    </defs>
                                                </svg>