<svg xmlns="http://www.w3.org/2000/svg" version="1.1" width="101" height="130" viewBox="0 0 130 130"><rect x="0" y="0" width="130" height="130" fill="#ffffff"></rect><g transform="scale(4.483)"><g transform="translate(0,0)"><path fill-rule="evenodd" d="M9 0L9 1L8 1L8 2L9 2L9 3L8 3L8 4L10 4L10 7L11 7L11 4L12 4L12 5L13 5L13 6L12 6L12 9L13 9L13 8L14 8L14 9L16 9L16 10L15 10L15 11L14 11L14 12L15 12L15 13L12 13L12 11L13 11L13 10L11 10L11 11L10 11L10 9L11 9L11 8L6 8L6 9L8 9L8 10L4 10L4 9L5 9L5 8L0 8L0 10L1 10L1 11L0 11L0 12L1 12L1 11L2 11L2 12L3 12L3 13L4 13L4 16L5 16L5 17L3 17L3 16L0 16L0 21L1 21L1 17L3 17L3 18L2 18L2 20L3 20L3 21L8 21L8 23L10 23L10 25L9 25L9 24L8 24L8 29L9 29L9 26L10 26L10 25L11 25L11 23L10 23L10 22L11 22L11 21L12 21L12 22L13 22L13 23L12 23L12 25L13 25L13 24L14 24L14 25L16 25L16 26L15 26L15 27L14 27L14 28L15 28L15 29L16 29L16 28L17 28L17 29L18 29L18 28L17 28L17 26L19 26L19 24L20 24L20 26L21 26L21 27L19 27L19 29L20 29L20 28L21 28L21 27L22 27L22 29L27 29L27 28L28 28L28 26L29 26L29 25L28 25L28 24L29 24L29 23L28 23L28 24L26 24L26 25L25 25L25 23L27 23L27 22L29 22L29 20L28 20L28 19L27 19L27 16L28 16L28 15L27 15L27 14L25 14L25 13L27 13L27 12L28 12L28 11L27 11L27 12L26 12L26 11L25 11L25 9L26 9L26 8L25 8L25 9L24 9L24 8L23 8L23 9L22 9L22 8L21 8L21 9L19 9L19 10L17 10L17 9L18 9L18 8L17 8L17 6L18 6L18 7L19 7L19 8L20 8L20 7L21 7L21 4L20 4L20 3L21 3L21 0L15 0L15 1L20 1L20 2L19 2L19 3L17 3L17 2L16 2L16 3L17 3L17 5L16 5L16 4L12 4L12 2L13 2L13 1L11 1L11 2L10 2L10 0ZM14 2L14 3L15 3L15 2ZM10 3L10 4L11 4L11 3ZM8 5L8 7L9 7L9 5ZM18 5L18 6L19 6L19 7L20 7L20 5ZM13 6L13 7L14 7L14 8L15 8L15 7L16 7L16 6L15 6L15 7L14 7L14 6ZM16 8L16 9L17 9L17 8ZM27 8L27 9L28 9L28 10L29 10L29 9L28 9L28 8ZM2 9L2 11L4 11L4 12L5 12L5 11L4 11L4 10L3 10L3 9ZM8 10L8 11L9 11L9 10ZM16 10L16 11L17 11L17 12L18 12L18 13L17 13L17 15L16 15L16 17L14 17L14 16L15 16L15 15L14 15L14 16L13 16L13 17L12 17L12 15L13 15L13 14L12 14L12 13L11 13L11 12L10 12L10 13L11 13L11 14L9 14L9 13L8 13L8 14L7 14L7 13L5 13L5 14L7 14L7 15L6 15L6 16L7 16L7 17L6 17L6 18L7 18L7 19L4 19L4 18L3 18L3 20L7 20L7 19L8 19L8 18L13 18L13 19L12 19L12 21L15 21L15 22L16 22L16 21L15 21L15 20L14 20L14 19L15 19L15 18L16 18L16 19L17 19L17 20L18 20L18 21L19 21L19 22L17 22L17 23L14 23L14 24L18 24L18 23L19 23L19 22L20 22L20 21L19 21L19 20L20 20L20 19L21 19L21 20L22 20L22 19L23 19L23 20L24 20L24 19L23 19L23 18L22 18L22 17L23 17L23 16L24 16L24 17L25 17L25 21L26 21L26 20L27 20L27 19L26 19L26 17L25 17L25 16L27 16L27 15L25 15L25 16L24 16L24 14L23 14L23 15L21 15L21 14L22 14L22 13L25 13L25 11L23 11L23 10L19 10L19 11L23 11L23 12L20 12L20 14L18 14L18 13L19 13L19 12L18 12L18 11L17 11L17 10ZM6 11L6 12L7 12L7 11ZM1 13L1 14L0 14L0 15L1 15L1 14L2 14L2 15L3 15L3 14L2 14L2 13ZM15 13L15 14L16 14L16 13ZM28 13L28 14L29 14L29 13ZM10 15L10 16L9 16L9 17L11 17L11 15ZM20 15L20 16L21 16L21 15ZM17 16L17 17L16 17L16 18L17 18L17 17L18 17L18 19L19 19L19 18L21 18L21 17L18 17L18 16ZM28 17L28 18L29 18L29 17ZM9 19L9 20L10 20L10 21L11 21L11 20L10 20L10 19ZM21 21L21 24L24 24L24 21ZM22 22L22 23L23 23L23 22ZM21 25L21 26L25 26L25 25ZM11 26L11 29L12 29L12 27L13 27L13 26ZM23 27L23 28L24 28L24 27ZM26 27L26 28L27 28L27 27ZM0 0L0 7L7 7L7 0ZM1 1L1 6L6 6L6 1ZM2 2L2 5L5 5L5 2ZM22 0L22 7L29 7L29 0ZM23 1L23 6L28 6L28 1ZM24 2L24 5L27 5L27 2ZM0 22L0 29L7 29L7 22ZM1 23L1 28L6 28L6 23ZM2 24L2 27L5 27L5 24Z" fill="#000000"></path></g></g></svg>