<svg xmlns="http://www.w3.org/2000/svg" width="21" height="20" viewBox="0 0 21 20" fill="none">
<g clip-path="url(#clip0_1035_433)">
<path d="M0.827829 9.35231C1.66621 9.47548 2.47552 9.61343 3.28967 9.7169C4.38005 9.84993 5.46558 9.98788 6.56081 10.0618C7.87896 10.1505 9.20195 10.2145 10.5249 10.2195C12.6282 10.2293 14.7169 10.0618 16.7571 9.5149C16.9558 9.4607 17.1545 9.39172 17.3435 9.30304C16.9703 9.35231 16.5972 9.42621 16.224 9.45084C15.0997 9.52475 13.9754 9.59865 12.8511 9.63314C11.1259 9.68734 9.40064 9.59865 7.67542 9.48041C5.58673 9.3326 3.5029 9.1503 1.44329 8.75122C1.2446 8.7118 1.04591 8.6576 0.85206 8.60341C0.76483 8.57877 0.682445 8.5295 0.595215 8.49009C0.595215 8.47038 0.595215 8.44574 0.595215 8.42604C0.682445 8.4014 0.774522 8.36199 0.866598 8.34721C1.6856 8.23881 2.50944 8.15013 3.32844 8.02695C4.83558 7.80524 6.32335 7.47021 7.79173 7.06127C7.92257 7.02678 8.00011 7.04156 8.09703 7.14996C8.59618 7.73134 9.25526 8.03188 9.97733 8.17969C11.3633 8.46545 12.5652 8.11071 13.5392 7.04649C13.6216 6.9578 13.6846 6.85434 13.7622 6.7558C14.1935 6.89375 14.6248 7.04156 15.0609 7.17459C16.3791 7.56875 17.7263 7.82495 19.0881 8.02203C19.3158 8.05652 19.5485 8.11564 19.7665 8.19447C20.3238 8.4014 20.6146 8.79063 20.5952 9.38679C20.5807 9.82529 20.5177 10.2736 20.4159 10.7023C19.8586 13.0377 19.4903 15.4026 19.0881 17.7676C19.0687 17.8957 19.0396 18.0188 19.0202 18.1469C18.9427 18.615 18.6616 18.8761 18.2109 18.95C17.6294 19.0436 17.0478 19.1372 16.4663 19.2062C13.7331 19.5265 10.995 19.5117 8.25696 19.3097C6.17312 19.152 4.10866 18.881 2.0539 18.482C1.89398 18.4524 1.82613 18.3982 1.82129 18.2208C1.7486 16.4028 1.58867 14.5897 1.34637 12.7815C1.20098 11.7074 1.02167 10.6382 0.856906 9.56909C0.856906 9.50011 0.842368 9.43114 0.827829 9.35231ZM1.78252 15.0528C1.85521 16.0136 1.9279 16.9398 1.99575 17.871C2.06359 17.8858 2.13144 17.9006 2.19444 17.9055C4.5012 18.1962 6.81765 18.4228 9.1438 18.5066C11.3488 18.5904 13.5538 18.5657 15.7539 18.3194C16.3209 18.2553 16.5245 18.0779 16.6408 17.5409C16.7377 17.0876 16.8346 16.6393 16.9364 16.1909C17.0721 15.5898 16.8782 15.378 16.2676 15.442C15.2257 15.5455 14.1789 15.6687 13.1322 15.713C9.72533 15.8559 6.33789 15.6046 2.96013 15.2006C2.57728 15.1513 2.18959 15.1021 1.78252 15.0528ZM1.3609 11.5251C1.3609 11.5744 1.35606 11.599 1.3609 11.6236C1.45783 12.3775 1.55475 13.1313 1.64198 13.89C1.65652 14.0083 1.70498 14.0378 1.81159 14.0526C3.67251 14.2349 5.53343 14.4566 7.39434 14.6044C10.0549 14.8114 12.7154 14.8262 15.3711 14.5552C15.7733 14.5158 16.1755 14.4271 16.5729 14.3384C16.8104 14.2842 17.043 14.1462 17.1157 13.8999C17.2805 13.3481 17.421 12.7913 17.5422 12.2247C17.5858 12.0178 17.4695 11.9094 17.2514 11.8946C17.0915 11.8848 16.9267 11.8897 16.7668 11.9143C15.5455 12.1065 14.3146 12.2099 13.0789 12.2543C9.57026 12.3824 6.08104 12.1213 2.60151 11.6877C2.19929 11.6335 1.79221 11.5793 1.3609 11.5251Z" fill="#EB0029"/>
<path d="M12.4492 4.14452C11.9888 4.11496 11.6738 3.85383 11.3298 3.64197C11.2377 3.58285 11.2134 3.51387 11.2134 3.40548C11.2086 3.11479 11.2134 2.81917 11.1601 2.5334C11.0341 1.87319 10.6174 1.4544 10.0116 1.21791C9.45915 1.00112 8.87761 0.961705 8.29608 1.00112C8.17977 1.01097 8.06346 1.06024 7.95685 1.11444C7.82115 1.18342 7.72908 1.12922 7.70485 1.01097C7.67577 0.843458 7.68062 0.666087 7.69515 0.493644C7.7 0.454228 7.79208 0.390178 7.84054 0.395105C8.35907 0.429593 8.88246 0.449301 9.3913 0.53306C9.75961 0.592183 10.1328 0.705503 10.4671 0.868093C11.2522 1.2524 11.6351 1.93232 11.7223 2.79946C11.7417 3.0261 11.7514 3.25767 11.7659 3.47445C12.0082 3.48923 12.2214 3.48923 12.4347 3.52372C13.2149 3.65182 13.622 4.20857 13.5299 5.00674C13.3991 6.13008 12.5413 7.17953 11.4994 7.47514C9.96799 7.90379 8.29123 6.9184 8.17492 5.00181C8.10708 3.88339 8.97453 3.19362 10.0746 3.46953C10.3654 3.54343 10.6368 3.69617 10.9081 3.83412C11.1795 3.97208 11.4315 4.15437 11.7078 4.2874C11.9452 4.41057 12.1972 4.37609 12.4492 4.14452Z" fill="#EB0029"/>
</g>
<defs>
<clipPath id="clip0_1035_433">
<rect width="20" height="19.0476" fill="white" transform="translate(0.600098 0.400024)"/>
</clipPath>
</defs>
</svg>
