<svg xmlns="http://www.w3.org/2000/svg" width="21" height="16" viewBox="0 0 21 16" fill="none">
<g clip-path="url(#clip0_1035_422)">
<path d="M20.3999 2.83808C20.3999 2.70366 20.3999 2.57287 20.3999 2.43845C20.3726 2.31493 20.353 2.19141 20.314 2.07152C20.1343 1.48662 19.8062 1.01797 19.1304 0.865381C18.9077 0.81452 18.6655 0.803621 18.4351 0.803621C13.0796 0.799988 7.72412 0.799988 2.36865 0.799988C2.25146 0.799988 2.13428 0.799988 2.01709 0.810887C1.66553 0.83995 1.35303 0.963471 1.07568 1.17055C0.696777 1.45392 0.493652 1.82448 0.395996 2.2568C0.395996 2.40212 0.395996 2.54744 0.395996 2.69276C0.474121 3.05969 0.567871 3.42298 0.76709 3.75358C1.17334 4.42205 1.74365 4.94156 2.41553 5.37388C4.3999 6.65995 6.38428 7.94965 8.37256 9.23208C8.7085 9.45006 9.06006 9.64624 9.41553 9.83515C10.0679 10.1803 10.7319 10.1766 11.3843 9.83152C11.6733 9.67893 11.9624 9.52635 12.2358 9.35197C14.3062 8.01867 16.3765 6.68538 18.4272 5.33028C19.3726 4.70542 20.146 3.94613 20.3999 2.83808Z" fill="#EB0029"/>
<path d="M20.3999 5.52649C19.1851 6.62364 17.6929 7.36113 16.3413 8.2839C16.0444 8.48735 15.7319 8.67626 15.4155 8.87608C15.4507 8.91604 15.478 8.94874 15.5054 8.9778C17.1147 10.4746 18.7202 11.9677 20.3257 13.4609C20.3491 13.4827 20.3765 13.5008 20.3999 13.519C20.3999 10.856 20.3999 8.18945 20.3999 5.52649Z" fill="#EB0029"/>
<path d="M0.399893 13.519C0.458487 13.4681 0.517081 13.4209 0.571768 13.37C2.12646 11.9241 3.68506 10.4782 5.23975 9.02866C5.28662 8.98507 5.32959 8.94147 5.38428 8.88698C5.32178 8.84338 5.26709 8.80342 5.2124 8.76709C4.10303 8.05866 2.98193 7.36477 1.88427 6.63818C1.36864 6.29668 0.895988 5.89705 0.399893 5.52286C0.399893 8.18945 0.399893 10.856 0.399893 13.519Z" fill="#EB0029"/>
<path d="M6.69287 9.74072C4.80225 11.4991 2.92334 13.2465 1.03271 15.0049C1.29443 15.2374 1.61865 15.3609 1.98193 15.4009C2.0835 15.4118 2.18896 15.4118 2.29443 15.4118C7.69678 15.4118 13.0991 15.4118 18.5015 15.4154C18.9741 15.4154 19.3999 15.3137 19.7437 15.0303C17.8569 13.2756 15.9741 11.5245 14.0796 9.76252C13.6733 10.0314 13.2476 10.3256 12.8062 10.6017C12.2593 10.9469 11.6694 11.2121 11.0249 11.3574C10.353 11.51 9.71631 11.3865 9.0835 11.143C8.3335 10.856 7.70068 10.4019 7.04834 9.97323C6.92725 9.90057 6.81396 9.82065 6.69287 9.74072Z" fill="#EB0029"/>
</g>
<defs>
<clipPath id="clip0_1035_422">
<rect width="20" height="14.6154" fill="white" transform="matrix(-1 0 0 1 20.3999 0.799988)"/>
</clipPath>
</defs>
</svg>
