<svg xmlns="http://www.w3.org/2000/svg" width="16" height="21" viewBox="0 0 16 21" fill="none">
<g clip-path="url(#clip0_1035_450)">
<path d="M8.00241 16.8234C7.41555 16.1354 6.86603 15.5104 6.33252 14.8643C4.97207 13.2047 3.67564 11.4977 2.6673 9.60174C2.25116 8.81918 1.87237 8.01561 1.74433 7.13325C1.56827 5.91477 1.85103 4.76981 2.42189 3.69313C3.61695 1.45048 6.0551 0.184724 8.67464 0.431573C11.1501 0.662665 13.3162 2.45363 14.0471 4.82758C14.5112 6.35069 14.2552 7.76876 13.5563 9.16056C12.628 10.9935 11.4382 12.6532 10.1578 14.2551C9.46957 15.1059 8.74933 15.9358 8.00241 16.8234ZM11.1448 6.06708C11.1288 4.31287 9.71498 2.94208 7.94373 2.96309C6.23649 2.98409 4.82269 4.39691 4.84403 6.06708C4.86537 7.80552 6.2685 9.16582 8.03442 9.16056C9.73632 9.15006 11.1608 7.73199 11.1448 6.06708Z" fill="#EB0029"/>
<path d="M5.50584 14.6858C5.02034 14.7698 4.52418 14.8381 4.04401 14.9379C3.1904 15.1164 2.34745 15.3423 1.60053 15.8045C1.37646 15.941 1.17372 16.1196 1.003 16.3139C0.757586 16.5975 0.757586 16.9442 1.003 17.2278C1.18439 17.4326 1.40847 17.6217 1.64855 17.7635C2.46482 18.2362 3.37179 18.4673 4.29476 18.6196C7.12237 19.0923 9.94465 19.0923 12.7349 18.378C13.3271 18.2257 13.8873 17.9316 14.4582 17.7005C14.5062 17.6795 14.5489 17.6427 14.5915 17.6112C15.3598 17.0807 15.3705 16.482 14.6075 15.9358C13.898 15.4263 13.0657 15.1847 12.2227 14.9956C11.6519 14.8696 11.0757 14.7803 10.4088 14.6542C10.5422 14.5807 10.6169 14.4914 10.6916 14.4967C12.068 14.5965 13.4445 14.7015 14.7196 15.274C15.029 15.4105 15.3224 15.6206 15.5625 15.857C16.0427 16.3244 16.1227 16.9809 15.8186 17.5744C15.6052 17.9998 15.2744 18.3255 14.8903 18.6038C13.8019 19.3811 12.5589 19.7961 11.2624 20.0534C8.54685 20.5944 5.85262 20.4998 3.21174 19.6385C2.36345 19.3601 1.54718 19.0082 0.880293 18.4042C0.592197 18.1469 0.330777 17.8265 0.154718 17.4851C-0.160053 16.8601 0.0213404 16.1984 0.554852 15.7309C1.09903 15.2582 1.76059 15.0166 2.45415 14.8906C3.37179 14.7225 4.3001 14.6227 5.22307 14.5019C5.31911 14.4914 5.42581 14.5545 5.53251 14.586C5.52184 14.6227 5.51117 14.6542 5.50584 14.6858Z" fill="#EB0029"/>
</g>
<defs>
<clipPath id="clip0_1035_450">
<rect width="16" height="20" fill="white" transform="translate(0 0.400024)"/>
</clipPath>
</defs>
</svg>
