<svg xmlns="http://www.w3.org/2000/svg" width="17" height="17" viewBox="0 0 17 17" fill="none">
<g clip-path="url(#clip0_1035_442)">
<path d="M2.99987 0.199959C3.61143 0.199959 4.21699 0.193958 4.82856 0.199959C5.45211 0.205957 5.79986 0.529958 5.80586 1.15996C5.81785 2.32996 5.81186 3.49996 5.79986 4.66996C5.79986 4.78995 5.72192 4.93996 5.63798 5.02996C4.96046 5.71996 4.27695 6.40995 3.58145 7.08195C3.38359 7.26795 3.34762 7.44795 3.47952 7.65796C3.76132 8.11395 4.01914 8.59395 4.3549 9.01395C5.56603 10.55 6.94505 11.924 8.51592 13.1C8.83969 13.346 9.21143 13.532 9.56517 13.736C9.76903 13.85 9.93691 13.814 10.1168 13.628C10.7823 12.938 11.4658 12.26 12.1493 11.594C12.2573 11.492 12.4371 11.408 12.587 11.402C13.7082 11.384 14.8234 11.39 15.9446 11.396C16.6881 11.396 16.9999 11.72 16.9999 12.458C16.9999 13.628 16.9999 14.798 16.9999 15.968C16.9999 16.658 16.6641 17 15.9686 16.994C14.8234 16.988 13.6722 17.066 12.5391 16.796C10.5185 16.316 8.73777 15.344 7.09494 14.114C4.70265 12.32 2.73006 10.154 1.38102 7.46595C0.595583 5.90596 0.157896 4.26196 0.217853 2.49796C0.229844 2.05996 0.217853 1.61596 0.223848 1.17796C0.217853 0.541958 0.559609 0.205957 1.20115 0.199959C1.80072 0.193958 2.40029 0.199959 2.99987 0.199959Z" fill="#EB0029"/>
</g>
<defs>
<clipPath id="clip0_1035_442">
<rect width="16.8" height="16.8" fill="white" transform="translate(0.200195 17) rotate(-90)"/>
</clipPath>
</defs>
</svg>
