<svg xmlns="http://www.w3.org/2000/svg" version="1.1" width="111" height="130" viewBox="0 0 130 130"><rect x="0" y="0" width="130" height="130" fill="#ffffff"></rect><g transform="scale(4.483)"><g transform="translate(0,0)"><path fill-rule="evenodd" d="M10 0L10 2L11 2L11 0ZM12 0L12 1L13 1L13 2L12 2L12 4L13 4L13 3L14 3L14 4L15 4L15 5L17 5L17 6L16 6L16 8L17 8L17 9L18 9L18 10L17 10L17 11L16 11L16 9L12 9L12 7L13 7L13 5L11 5L11 6L10 6L10 4L11 4L11 3L8 3L8 4L9 4L9 5L8 5L8 7L9 7L9 8L6 8L6 9L5 9L5 8L0 8L0 9L1 9L1 10L2 10L2 9L3 9L3 11L4 11L4 12L6 12L6 13L7 13L7 12L6 12L6 11L7 11L7 10L6 10L6 9L8 9L8 10L9 10L9 9L10 9L10 11L11 11L11 9L12 9L12 10L13 10L13 11L12 11L12 13L13 13L13 12L14 12L14 13L16 13L16 14L15 14L15 15L14 15L14 16L15 16L15 17L12 17L12 15L13 15L13 14L11 14L11 15L10 15L10 14L9 14L9 13L11 13L11 12L9 12L9 11L8 11L8 12L9 12L9 13L8 13L8 14L9 14L9 16L8 16L8 15L7 15L7 14L5 14L5 13L3 13L3 12L1 12L1 13L3 13L3 14L1 14L1 15L2 15L2 16L1 16L1 17L0 17L0 21L1 21L1 18L2 18L2 16L4 16L4 17L3 17L3 18L5 18L5 16L6 16L6 17L8 17L8 18L6 18L6 19L5 19L5 20L3 20L3 19L2 19L2 21L5 21L5 20L6 20L6 21L8 21L8 23L9 23L9 24L8 24L8 29L11 29L11 28L9 28L9 26L10 26L10 25L12 25L12 26L13 26L13 27L12 27L12 29L13 29L13 28L14 28L14 29L18 29L18 28L17 28L17 27L16 27L16 26L19 26L19 24L20 24L20 26L21 26L21 27L19 27L19 29L20 29L20 28L21 28L21 27L22 27L22 29L27 29L27 28L28 28L28 26L29 26L29 25L28 25L28 24L29 24L29 23L27 23L27 22L29 22L29 20L28 20L28 19L27 19L27 16L28 16L28 15L27 15L27 14L25 14L25 13L27 13L27 12L28 12L28 11L27 11L27 12L26 12L26 11L25 11L25 9L26 9L26 8L25 8L25 9L24 9L24 8L23 8L23 9L22 9L22 8L21 8L21 9L18 9L18 8L17 8L17 6L18 6L18 7L19 7L19 8L20 8L20 7L21 7L21 4L20 4L20 3L21 3L21 0L17 0L17 1L16 1L16 0ZM8 1L8 2L9 2L9 1ZM17 1L17 2L16 2L16 4L17 4L17 3L19 3L19 2L20 2L20 1ZM14 2L14 3L15 3L15 2ZM18 5L18 6L19 6L19 7L20 7L20 5ZM9 6L9 7L10 7L10 6ZM11 6L11 7L12 7L12 6ZM14 6L14 8L15 8L15 6ZM10 8L10 9L11 9L11 8ZM27 8L27 9L28 9L28 10L29 10L29 9L28 9L28 8ZM4 9L4 11L5 11L5 9ZM19 10L19 11L17 11L17 12L16 12L16 13L17 13L17 12L18 12L18 13L19 13L19 11L23 11L23 12L20 12L20 14L19 14L19 16L18 16L18 14L16 14L16 15L15 15L15 16L18 16L18 17L17 17L17 19L16 19L16 21L14 21L14 20L15 20L15 19L14 19L14 20L13 20L13 21L12 21L12 19L13 19L13 18L12 18L12 17L9 17L9 19L6 19L6 20L10 20L10 22L9 22L9 23L10 23L10 22L13 22L13 23L12 23L12 25L15 25L15 26L16 26L16 25L17 25L17 24L18 24L18 23L19 23L19 22L20 22L20 21L19 21L19 20L20 20L20 19L21 19L21 20L22 20L22 19L23 19L23 20L24 20L24 19L23 19L23 18L22 18L22 17L23 17L23 16L24 16L24 17L25 17L25 21L26 21L26 20L27 20L27 19L26 19L26 17L25 17L25 16L27 16L27 15L25 15L25 16L24 16L24 14L23 14L23 15L21 15L21 14L22 14L22 13L25 13L25 11L23 11L23 10ZM14 11L14 12L15 12L15 11ZM28 13L28 14L29 14L29 13ZM3 14L3 15L5 15L5 14ZM6 15L6 16L7 16L7 15ZM20 15L20 16L21 16L21 15ZM15 17L15 18L16 18L16 17ZM18 17L18 18L21 18L21 17ZM28 17L28 18L29 18L29 17ZM10 18L10 19L11 19L11 18ZM17 20L17 21L16 21L16 22L15 22L15 23L14 23L14 24L15 24L15 25L16 25L16 24L15 24L15 23L18 23L18 22L19 22L19 21L18 21L18 20ZM17 21L17 22L18 22L18 21ZM21 21L21 24L24 24L24 21ZM22 22L22 23L23 23L23 22ZM25 23L25 25L21 25L21 26L25 26L25 25L26 25L26 24L27 24L27 23ZM9 24L9 25L10 25L10 24ZM14 27L14 28L16 28L16 27ZM23 27L23 28L24 28L24 27ZM26 27L26 28L27 28L27 27ZM0 0L0 7L7 7L7 0ZM1 1L1 6L6 6L6 1ZM2 2L2 5L5 5L5 2ZM22 0L22 7L29 7L29 0ZM23 1L23 6L28 6L28 1ZM24 2L24 5L27 5L27 2ZM0 22L0 29L7 29L7 22ZM1 23L1 28L6 28L6 23ZM2 24L2 27L5 27L5 24Z" fill="#000000"></path></g></g></svg>