<svg xmlns="http://www.w3.org/2000/svg" width="50" height="50" viewBox="0 0 50 50" fill="none">
<g clip-path="url(#clip0_9394_937)">
<mask id="mask0_9394_937" style="mask-type:luminance" maskUnits="userSpaceOnUse" x="0" y="0" width="50" height="50">
<path d="M50 0H0V50H50V0Z" fill="white"/>
</mask>
<g mask="url(#mask0_9394_937)">
<mask id="path-2-inside-1_9394_937" fill="white">
<path d="M24.1531 0L24.0795 0.070125H22.9014L22.8277 0.14025H22.165L22.0914 0.210375H21.5758L21.5022 0.2805H21.1341L21.0604 0.350635H20.6922L20.6185 0.42076H20.2504L20.1768 0.490885H19.8822L19.8085 0.56101H19.514L19.4403 0.631135H19.2195L19.1458 0.70126H18.9249L18.8512 0.771385H18.6303L18.5567 0.84151H18.3358L18.2622 0.911646H18.1149L18.0412 0.981771H17.8203L17.7467 1.0519H17.5994L17.5257 1.12202H17.3785L17.3049 1.19215H17.1576L17.084 1.26227H16.9367L16.863 1.3324H16.7157L16.6421 1.40252H16.5684L16.4949 1.47265H16.3476L16.274 1.54278H16.1267L16.053 1.61291H15.9794L15.9057 1.68303H15.7584L15.6848 1.75316H15.6111L15.5376 1.82328H15.464L15.3903 1.89341H15.243L15.1694 1.96353H15.0957L15.0221 2.03366H14.9484L14.8748 2.10379H14.8011L14.7275 2.17392H14.5803L14.5067 2.24404H14.433L14.3594 2.31417H14.2857L14.2121 2.38429H14.1384L14.0648 2.45442H13.9911L13.9175 2.52454H13.8439L13.7702 2.59467H13.6966L13.623 2.66479H13.5494L13.4757 2.73493H13.4021L13.2548 2.87518H13.1811L13.1075 2.9453H13.0339L12.9602 3.01543H12.8866L12.7393 3.15568H12.6657L12.5921 3.2258H12.5184L12.3711 3.36606H12.2975L12.2239 3.43619H12.1502L12.0029 3.57644H11.9293L11.7821 3.71669H11.7084L11.5611 3.85694H11.4875L11.3402 3.9972H11.2666L11.1193 4.13745H11.0456L10.8248 4.34782H10.7511L10.5302 4.55821H10.4566L10.2356 4.76858H10.162L9.79385 5.11922H9.72021L9.35199 5.46984H9.27835L8.61561 6.10098H8.54197L7.51104 7.08275V7.15287L6.8483 7.78401V7.85414L6.48011 8.20477V8.2749L6.18556 8.5554V8.62553L5.96466 8.83591V8.90603L5.74374 9.11641V9.18653L5.52282 9.39687V9.46708L5.37555 9.60729V9.6774L5.22828 9.81771V9.88781L5.00736 10.0982V10.1683L4.86009 10.3085V10.3786L4.78645 10.4489V10.519L4.63918 10.6592V10.7293L4.56554 10.7995V10.8696L4.41826 11.0098V11.0799L4.27099 11.2202V11.2903L4.19735 11.3604V11.4306L4.12371 11.5007V11.5708L4.05007 11.6409V11.711L3.9028 11.8514V11.9215L3.82916 11.9916V12.0617L3.75552 12.1319V12.202L3.68189 12.2721V12.3422L3.60825 12.4123V12.4825L3.53461 12.5526V12.6227L3.46097 12.6928V12.8331L3.38733 12.9032V12.9733L3.3137 13.0434V13.1136L3.24006 13.1837V13.2539L3.16642 13.324V13.3941L3.09278 13.4643V13.6045L3.01915 13.6746V13.7448L2.94551 13.8149V13.885L2.87187 13.9551V14.0954L2.79823 14.1655V14.2356L2.72459 14.3057V14.446L2.65096 14.5161V14.5862L2.57732 14.6564V14.7967L2.50368 14.8668V15.007L2.43004 15.0772V15.2174L2.35641 15.2875V15.4278L2.28277 15.4979V15.6381L2.20914 15.7082V15.8485L2.13549 15.9186V16.059L2.06185 16.1291V16.2693L1.98822 16.3394V16.5498L1.91458 16.6199V16.8303L1.84094 16.9004V17.1108L1.7673 17.1809V17.3914L1.69367 17.4615V17.6718L1.62003 17.742V18.0224L1.5464 18.0926V18.373L1.47275 18.4432V18.7939L1.39911 18.864V19.2146L1.32548 19.2847V19.7756L1.25184 19.8457V20.4068L1.17821 20.4769V21.2482L1.10456 21.3183V23.8429L1.17821 23.913V24.6845L1.25184 24.7546V25.3155L1.32548 25.3857V25.8065L1.39911 25.8766V26.2272L1.47275 26.2973V26.6479L1.5464 26.7181V26.9986L1.62003 27.0687V27.3493L1.69367 27.4194V27.6297L1.7673 27.6999V27.9102L1.84094 27.9804V28.1907L1.91458 28.2608V28.4712L1.98822 28.5414V28.7518L2.06185 28.8219V28.9621L2.13549 29.0323V29.1725L2.20914 29.2426V29.3829L2.28277 29.453V29.5231L1.7673 30.0141V30.0842L1.47275 30.3647V30.4348L1.25184 30.6452V30.7153L1.10456 30.8555V30.9256L0.957292 31.0659V31.136L0.883656 31.2061V31.2762L0.81001 31.3465V31.4166L0.736375 31.4867V31.5568L0.66274 31.627V31.6971L0.589104 31.7672V31.8373L0.515469 31.9074V32.0477L0.441823 32.1178V32.1879L0.368187 32.258V32.3983L0.294552 32.4684V32.6086L0.220917 32.6789V32.8892L0.147271 32.9594V33.2398L0.0736355 33.31V33.6606L0 33.7307V35.2033L0.0736355 35.2735V35.6943L0.147271 35.7644V35.9748L0.220917 36.0449V36.2552L0.294552 36.3254V36.4656L0.368187 36.5357V36.676L0.441823 36.7461V36.8162L0.515469 36.8864V37.0267L0.589104 37.0968V37.1669L0.66274 37.237V37.3072L0.736375 37.3773V37.4474L0.883656 37.5877V37.6578L0.957292 37.7279V37.798L1.17821 38.0084V38.0785L1.47275 38.3591V38.4292L1.91458 38.8499L1.47275 39.2707V39.3408L1.17821 39.6214V39.6915L1.03093 39.8317V39.9019L0.883656 40.0421V40.1122L0.81001 40.1823V40.2525L0.736375 40.3226V40.3927L0.66274 40.4628V40.5329L0.589104 40.6031V40.6732L0.515469 40.7433V40.8134L0.441823 40.8835V41.0239L0.368187 41.094V41.2343L0.294552 41.3044V41.4446L0.220917 41.5147V41.655L0.147271 41.7251V42.0056L0.0736355 42.0757V42.3562L0 42.4264V44.0393L0.0736355 44.1094V44.46L0.147271 44.5302V44.8106L0.220917 44.8808V45.021L0.294552 45.0911V45.3016L0.368187 45.3717V45.4418L0.441823 45.5119V45.6522L0.515469 45.7223V45.7924L0.589104 45.8626V46.0028L0.66274 46.0729V46.143L0.736375 46.2132V46.2833L0.81001 46.3534V46.4235L0.883656 46.4936V46.5639L1.03093 46.7041V46.7742L1.17821 46.9145V46.9846L1.32548 47.1248V47.195L1.62003 47.4754V47.5456L2.35641 48.2469H2.43004L2.72459 48.5274H2.79823L3.01915 48.7377H3.09278L3.24006 48.878H3.3137L3.38733 48.9481H3.46097L3.60825 49.0883H3.68189L3.75552 49.1584H3.82916L3.9028 49.2286H4.05007L4.19735 49.3689H4.34462L4.41826 49.439H4.4919L4.56554 49.5092H4.71281L4.78645 49.5793H4.93373L5.00736 49.6494H5.15464L5.22828 49.7195H5.37555L5.44919 49.7896H5.6701L5.74374 49.8598H6.03829L6.11193 49.9299H6.55376L6.6274 50H8.24743L8.32106 49.9299H8.76289L8.83652 49.8598H9.13107L9.20471 49.7896H9.42562L9.49927 49.7195H9.64656L9.72021 49.6494H9.8675L9.94104 49.5793H10.0883L10.162 49.5092H10.3093L10.3829 49.439H10.4566L10.5302 49.3689H10.6775L10.7511 49.2987H10.8248L10.8983 49.2286H10.972L11.0456 49.1584H11.1193L11.1929 49.0883H11.2666L11.4139 48.9481H11.4875L11.5611 48.878H11.6348L11.7821 48.7377H11.8556L12.0766 48.5274H12.1502L12.5184 48.1768H12.5921L13.1811 47.6157V47.5456L13.4757 47.2651V47.195L13.6966 46.9846V46.9145L13.8439 46.7742V46.7041L13.9175 46.634V46.5639L14.0648 46.4235V46.3534L14.1384 46.2833V46.2132L14.2121 46.143V46.0028L14.2857 45.9327V45.8626L14.3594 45.7924V45.6522L14.433 45.5821V45.4418L14.5067 45.3717V45.2315L14.5803 45.1613V45.021V45H35.3461V45.2315L35.4197 45.3016V45.3717L35.4933 45.4418V45.5821L35.567 45.6522V45.7223L35.6406 45.7924V45.8626L35.7143 45.9327V46.0729L35.7879 46.143V46.2132L35.8616 46.2833V46.3534L35.9352 46.4235V46.4936L36.0825 46.634V46.7041L36.1561 46.7742V46.8444L36.377 47.0547V47.1248L36.5979 47.3352V47.4053L37.6289 48.3871H37.7025L37.9234 48.5975H37.9971L38.1444 48.7377H38.218L38.3652 48.878H38.4389L38.5861 49.0182H38.6598L38.7334 49.0883H38.8071L38.8807 49.1584H38.9544L39.028 49.2286H39.1017L39.1752 49.2987H39.2489L39.3225 49.3689H39.3961L39.4698 49.439H39.6171L39.6907 49.5092H39.7644L39.838 49.5793H39.9853L40.059 49.6494H40.2061L40.2798 49.7195H40.5007L40.5744 49.7896H40.7953L40.869 49.8598H41.1634L41.2371 49.9299H41.679L41.7526 50H43.3726L43.4463 49.9299H43.888L43.9617 49.8598H44.1826L44.2562 49.7896H44.5508L44.6245 49.7195H44.7718L44.8453 49.6494H44.9926L45.0662 49.5793H45.2135L45.2872 49.5092H45.4345L45.5081 49.439H45.5818L45.6554 49.3689H45.7291L45.8026 49.2987H45.9499L46.0235 49.2286H46.0972L46.1708 49.1584H46.2445L46.3918 49.0182H46.4654L46.5391 48.9481H46.6127L46.7599 48.8078H46.8335L46.9808 48.6676H47.0545L47.2018 48.5274H47.2754L47.6436 48.1768H47.7172L48.3064 47.6157V47.5456L48.6008 47.2651V47.195L48.8218 46.9846V46.9145L48.9691 46.7742V46.7041L49.1164 46.5639V46.4936L49.19 46.4235V46.3534L49.2636 46.2833V46.2132L49.3373 46.143V46.0028L49.4109 45.9327V45.8626L49.4846 45.7924V45.7223L49.5581 45.6522V45.5119L49.6318 45.4418V45.3016L49.7054 45.2315V45.0911L49.7791 45.021V44.8106L49.8527 44.7405V44.46L49.9263 44.3899V44.0393L50 43.9692V42.5667L49.9263 42.4965V42.1458L49.8527 42.0757V41.8653L49.7791 41.7952V41.5849L49.7054 41.5147V41.3745L49.6318 41.3044V41.1641L49.5581 41.094V40.9538L49.4846 40.8835V40.8134L49.4109 40.7433V40.6732L49.3373 40.6031V40.4628L49.2636 40.3927V40.3226L49.1164 40.1823V40.1122L49.0427 40.0421V39.972L48.8954 39.8317V39.7616L48.6008 39.481V39.4109L48.0118 38.8499L48.6008 38.289V38.2187L48.8218 38.0084V37.9383L48.9691 37.798V37.7279L49.1164 37.5877V37.5175L49.19 37.4474V37.3773L49.3373 37.237V37.1669L49.4109 37.0968V36.9566L49.4846 36.8864V36.8162L49.5581 36.7461V36.6059L49.6318 36.5357V36.3955L49.7054 36.3254V36.1851L49.7791 36.115V35.9046L49.8527 35.8345V35.6242L49.9263 35.554V35.1332L50 35.0631V33.9411L49.9263 33.8709V33.4502L49.8527 33.3801V33.0996L49.7791 33.0295V32.8191L49.7054 32.749V32.6086L49.6318 32.5385V32.3983L49.5581 32.3282V32.1879L49.4846 32.1178V32.0477L49.4109 31.9776V31.8373L49.3373 31.7672V31.6971L49.2636 31.627V31.5568L49.19 31.4867V31.4166L49.1164 31.3465V31.2762L49.0427 31.2061V31.136L48.8954 30.9958V30.9256L48.8218 30.8555V30.7854L48.6008 30.575V30.5049L48.38 30.2946V30.2244L47.7172 29.5932V29.3829L47.7908 29.3128V29.1725L47.8645 29.1024V28.9621L47.9381 28.892V28.6817L48.0118 28.6115V28.4712L48.0854 28.4011V28.1907L48.1591 28.1206V27.9102L48.2327 27.8401V27.5596L48.3064 27.4895V27.2791L48.38 27.209V26.9284L48.4536 26.8583V26.5077L48.5273 26.4376V26.087L48.6008 26.0169V25.596L48.6745 25.5259V25.0351L48.7481 24.9649V24.3339L48.8218 24.2636V20.9677L48.7481 20.8976V20.1964L48.6745 20.1262V19.6353L48.6008 19.5652V19.1445L48.5273 19.0744V18.6535L48.4536 18.5834V18.3029L48.38 18.2328V17.9523L48.3064 17.8822V17.6017L48.2327 17.5316V17.3211L48.1591 17.251V17.0406L48.0854 16.9705V16.7602L48.0118 16.69V16.5498L47.9381 16.4797V16.2693L47.8645 16.1992V16.059L47.7908 15.9887V15.8485L47.7172 15.7784V15.568L47.6436 15.4979V15.3576L47.57 15.2875V15.1473L47.4964 15.0772V15.007L47.4227 14.9369V14.7967L47.3491 14.7265V14.5862L47.2754 14.5161V14.446L47.2018 14.3758V14.2356L47.1281 14.1655V14.0954L47.0545 14.0252V13.885L46.9808 13.8149V13.7448L46.9072 13.6746V13.6045L46.8335 13.5344V13.3941L46.7599 13.324V13.2539L46.6864 13.1837V13.1136L46.6127 13.0434V12.9733L46.5391 12.9032V12.763L46.3918 12.6227V12.4825L46.3181 12.4123V12.3422L46.2445 12.2721V12.202L46.1708 12.1319V12.0617L46.0972 11.9916V11.9215L46.0235 11.8514V11.7812L45.8762 11.6409V11.5708L45.8026 11.5007V11.4306L45.7291 11.3604V11.2903L45.5818 11.1501V11.0799L45.5081 11.0098V10.9397L45.4345 10.8696V10.7995L45.2872 10.6592V10.5891L45.1399 10.4489V10.3786L44.9926 10.2384V10.1683L44.8453 10.028V9.95792L44.6981 9.81771V9.7475L44.5508 9.60729V9.53719L44.4035 9.39687V9.32679L44.1826 9.11641V9.04628L43.888 8.76578V8.69566L43.6672 8.48527V8.41514L43.299 8.06452V7.99439L42.8572 7.57364V7.50351L40.9426 5.68023H40.869L40.4271 5.25947H40.3534L40.059 4.97896H39.9853L39.6907 4.69846H39.6171L39.3961 4.48808H39.3225L39.1017 4.2777H39.028L38.8071 4.06732H38.7334L38.5861 3.92707H38.5125L38.3652 3.78681H38.2916L38.1444 3.64656H38.0707L37.9234 3.50631H37.8498L37.7761 3.43619H37.7025L37.5552 3.29594H37.4816L37.3343 3.15568H37.2607L37.1871 3.08555H37.1134L37.0398 3.01543H36.9661L36.8189 2.87518H36.7452L36.6716 2.80505H36.5979L36.5243 2.73493H36.4506L36.3034 2.59467H36.1561L36.0089 2.45442H35.9352L35.8616 2.38429H35.7879L35.7143 2.31417H35.567L35.4197 2.17392H35.2725L35.1252 2.03366H34.9779L34.9043 1.96353H34.8306L34.757 1.89341H34.6097L34.536 1.82328H34.4624L34.3889 1.75316H34.3152L34.2416 1.68303H34.0943L34.0206 1.61291H33.947L33.8733 1.54278H33.726L33.6524 1.47265H33.5051L33.4316 1.40252H33.3579L33.2843 1.3324H33.137L33.0633 1.26227H32.916L32.8424 1.19215H32.6951L32.6215 1.12202H32.4743L32.4006 1.0519H32.2533L32.1797 0.981771H31.9587L31.8851 0.911646H31.7378L31.6642 0.84151H31.4433L31.3697 0.771385H31.2224L31.1487 0.70126H30.9278L30.8542 0.631135H30.5597L30.486 0.56101H30.2651L30.1915 0.490885H29.8969L29.8232 0.42076H29.4551L29.3815 0.350635H29.0132L28.9396 0.2805H28.5715L28.4978 0.210375H27.9823L27.9086 0.14025H27.2459L27.1723 0.070125H26.1414L26.0677 0H24.1531Z"/>
</mask>
<path d="M24.1531 0L24.0795 0.070125H22.9014L22.8277 0.14025H22.165L22.0914 0.210375H21.5758L21.5022 0.2805H21.1341L21.0604 0.350635H20.6922L20.6185 0.42076H20.2504L20.1768 0.490885H19.8822L19.8085 0.56101H19.514L19.4403 0.631135H19.2195L19.1458 0.70126H18.9249L18.8512 0.771385H18.6303L18.5567 0.84151H18.3358L18.2622 0.911646H18.1149L18.0412 0.981771H17.8203L17.7467 1.0519H17.5994L17.5257 1.12202H17.3785L17.3049 1.19215H17.1576L17.084 1.26227H16.9367L16.863 1.3324H16.7157L16.6421 1.40252H16.5684L16.4949 1.47265H16.3476L16.274 1.54278H16.1267L16.053 1.61291H15.9794L15.9057 1.68303H15.7584L15.6848 1.75316H15.6111L15.5376 1.82328H15.464L15.3903 1.89341H15.243L15.1694 1.96353H15.0957L15.0221 2.03366H14.9484L14.8748 2.10379H14.8011L14.7275 2.17392H14.5803L14.5067 2.24404H14.433L14.3594 2.31417H14.2857L14.2121 2.38429H14.1384L14.0648 2.45442H13.9911L13.9175 2.52454H13.8439L13.7702 2.59467H13.6966L13.623 2.66479H13.5494L13.4757 2.73493H13.4021L13.2548 2.87518H13.1811L13.1075 2.9453H13.0339L12.9602 3.01543H12.8866L12.7393 3.15568H12.6657L12.5921 3.2258H12.5184L12.3711 3.36606H12.2975L12.2239 3.43619H12.1502L12.0029 3.57644H11.9293L11.7821 3.71669H11.7084L11.5611 3.85694H11.4875L11.3402 3.9972H11.2666L11.1193 4.13745H11.0456L10.8248 4.34782H10.7511L10.5302 4.55821H10.4566L10.2356 4.76858H10.162L9.79385 5.11922H9.72021L9.35199 5.46984H9.27835L8.61561 6.10098H8.54197L7.51104 7.08275V7.15287L6.8483 7.78401V7.85414L6.48011 8.20477V8.2749L6.18556 8.5554V8.62553L5.96466 8.83591V8.90603L5.74374 9.11641V9.18653L5.52282 9.39687V9.46708L5.37555 9.60729V9.6774L5.22828 9.81771V9.88781L5.00736 10.0982V10.1683L4.86009 10.3085V10.3786L4.78645 10.4489V10.519L4.63918 10.6592V10.7293L4.56554 10.7995V10.8696L4.41826 11.0098V11.0799L4.27099 11.2202V11.2903L4.19735 11.3604V11.4306L4.12371 11.5007V11.5708L4.05007 11.6409V11.711L3.9028 11.8514V11.9215L3.82916 11.9916V12.0617L3.75552 12.1319V12.202L3.68189 12.2721V12.3422L3.60825 12.4123V12.4825L3.53461 12.5526V12.6227L3.46097 12.6928V12.8331L3.38733 12.9032V12.9733L3.3137 13.0434V13.1136L3.24006 13.1837V13.2539L3.16642 13.324V13.3941L3.09278 13.4643V13.6045L3.01915 13.6746V13.7448L2.94551 13.8149V13.885L2.87187 13.9551V14.0954L2.79823 14.1655V14.2356L2.72459 14.3057V14.446L2.65096 14.5161V14.5862L2.57732 14.6564V14.7967L2.50368 14.8668V15.007L2.43004 15.0772V15.2174L2.35641 15.2875V15.4278L2.28277 15.4979V15.6381L2.20914 15.7082V15.8485L2.13549 15.9186V16.059L2.06185 16.1291V16.2693L1.98822 16.3394V16.5498L1.91458 16.6199V16.8303L1.84094 16.9004V17.1108L1.7673 17.1809V17.3914L1.69367 17.4615V17.6718L1.62003 17.742V18.0224L1.5464 18.0926V18.373L1.47275 18.4432V18.7939L1.39911 18.864V19.2146L1.32548 19.2847V19.7756L1.25184 19.8457V20.4068L1.17821 20.4769V21.2482L1.10456 21.3183V23.8429L1.17821 23.913V24.6845L1.25184 24.7546V25.3155L1.32548 25.3857V25.8065L1.39911 25.8766V26.2272L1.47275 26.2973V26.6479L1.5464 26.7181V26.9986L1.62003 27.0687V27.3493L1.69367 27.4194V27.6297L1.7673 27.6999V27.9102L1.84094 27.9804V28.1907L1.91458 28.2608V28.4712L1.98822 28.5414V28.7518L2.06185 28.8219V28.9621L2.13549 29.0323V29.1725L2.20914 29.2426V29.3829L2.28277 29.453V29.5231L1.7673 30.0141V30.0842L1.47275 30.3647V30.4348L1.25184 30.6452V30.7153L1.10456 30.8555V30.9256L0.957292 31.0659V31.136L0.883656 31.2061V31.2762L0.81001 31.3465V31.4166L0.736375 31.4867V31.5568L0.66274 31.627V31.6971L0.589104 31.7672V31.8373L0.515469 31.9074V32.0477L0.441823 32.1178V32.1879L0.368187 32.258V32.3983L0.294552 32.4684V32.6086L0.220917 32.6789V32.8892L0.147271 32.9594V33.2398L0.0736355 33.31V33.6606L0 33.7307V35.2033L0.0736355 35.2735V35.6943L0.147271 35.7644V35.9748L0.220917 36.0449V36.2552L0.294552 36.3254V36.4656L0.368187 36.5357V36.676L0.441823 36.7461V36.8162L0.515469 36.8864V37.0267L0.589104 37.0968V37.1669L0.66274 37.237V37.3072L0.736375 37.3773V37.4474L0.883656 37.5877V37.6578L0.957292 37.7279V37.798L1.17821 38.0084V38.0785L1.47275 38.3591V38.4292L1.91458 38.8499L1.47275 39.2707V39.3408L1.17821 39.6214V39.6915L1.03093 39.8317V39.9019L0.883656 40.0421V40.1122L0.81001 40.1823V40.2525L0.736375 40.3226V40.3927L0.66274 40.4628V40.5329L0.589104 40.6031V40.6732L0.515469 40.7433V40.8134L0.441823 40.8835V41.0239L0.368187 41.094V41.2343L0.294552 41.3044V41.4446L0.220917 41.5147V41.655L0.147271 41.7251V42.0056L0.0736355 42.0757V42.3562L0 42.4264V44.0393L0.0736355 44.1094V44.46L0.147271 44.5302V44.8106L0.220917 44.8808V45.021L0.294552 45.0911V45.3016L0.368187 45.3717V45.4418L0.441823 45.5119V45.6522L0.515469 45.7223V45.7924L0.589104 45.8626V46.0028L0.66274 46.0729V46.143L0.736375 46.2132V46.2833L0.81001 46.3534V46.4235L0.883656 46.4936V46.5639L1.03093 46.7041V46.7742L1.17821 46.9145V46.9846L1.32548 47.1248V47.195L1.62003 47.4754V47.5456L2.35641 48.2469H2.43004L2.72459 48.5274H2.79823L3.01915 48.7377H3.09278L3.24006 48.878H3.3137L3.38733 48.9481H3.46097L3.60825 49.0883H3.68189L3.75552 49.1584H3.82916L3.9028 49.2286H4.05007L4.19735 49.3689H4.34462L4.41826 49.439H4.4919L4.56554 49.5092H4.71281L4.78645 49.5793H4.93373L5.00736 49.6494H5.15464L5.22828 49.7195H5.37555L5.44919 49.7896H5.6701L5.74374 49.8598H6.03829L6.11193 49.9299H6.55376L6.6274 50H8.24743L8.32106 49.9299H8.76289L8.83652 49.8598H9.13107L9.20471 49.7896H9.42562L9.49927 49.7195H9.64656L9.72021 49.6494H9.8675L9.94104 49.5793H10.0883L10.162 49.5092H10.3093L10.3829 49.439H10.4566L10.5302 49.3689H10.6775L10.7511 49.2987H10.8248L10.8983 49.2286H10.972L11.0456 49.1584H11.1193L11.1929 49.0883H11.2666L11.4139 48.9481H11.4875L11.5611 48.878H11.6348L11.7821 48.7377H11.8556L12.0766 48.5274H12.1502L12.5184 48.1768H12.5921L13.1811 47.6157V47.5456L13.4757 47.2651V47.195L13.6966 46.9846V46.9145L13.8439 46.7742V46.7041L13.9175 46.634V46.5639L14.0648 46.4235V46.3534L14.1384 46.2833V46.2132L14.2121 46.143V46.0028L14.2857 45.9327V45.8626L14.3594 45.7924V45.6522L14.433 45.5821V45.4418L14.5067 45.3717V45.2315L14.5803 45.1613V45.021V45H35.3461V45.2315L35.4197 45.3016V45.3717L35.4933 45.4418V45.5821L35.567 45.6522V45.7223L35.6406 45.7924V45.8626L35.7143 45.9327V46.0729L35.7879 46.143V46.2132L35.8616 46.2833V46.3534L35.9352 46.4235V46.4936L36.0825 46.634V46.7041L36.1561 46.7742V46.8444L36.377 47.0547V47.1248L36.5979 47.3352V47.4053L37.6289 48.3871H37.7025L37.9234 48.5975H37.9971L38.1444 48.7377H38.218L38.3652 48.878H38.4389L38.5861 49.0182H38.6598L38.7334 49.0883H38.8071L38.8807 49.1584H38.9544L39.028 49.2286H39.1017L39.1752 49.2987H39.2489L39.3225 49.3689H39.3961L39.4698 49.439H39.6171L39.6907 49.5092H39.7644L39.838 49.5793H39.9853L40.059 49.6494H40.2061L40.2798 49.7195H40.5007L40.5744 49.7896H40.7953L40.869 49.8598H41.1634L41.2371 49.9299H41.679L41.7526 50H43.3726L43.4463 49.9299H43.888L43.9617 49.8598H44.1826L44.2562 49.7896H44.5508L44.6245 49.7195H44.7718L44.8453 49.6494H44.9926L45.0662 49.5793H45.2135L45.2872 49.5092H45.4345L45.5081 49.439H45.5818L45.6554 49.3689H45.7291L45.8026 49.2987H45.9499L46.0235 49.2286H46.0972L46.1708 49.1584H46.2445L46.3918 49.0182H46.4654L46.5391 48.9481H46.6127L46.7599 48.8078H46.8335L46.9808 48.6676H47.0545L47.2018 48.5274H47.2754L47.6436 48.1768H47.7172L48.3064 47.6157V47.5456L48.6008 47.2651V47.195L48.8218 46.9846V46.9145L48.9691 46.7742V46.7041L49.1164 46.5639V46.4936L49.19 46.4235V46.3534L49.2636 46.2833V46.2132L49.3373 46.143V46.0028L49.4109 45.9327V45.8626L49.4846 45.7924V45.7223L49.5581 45.6522V45.5119L49.6318 45.4418V45.3016L49.7054 45.2315V45.0911L49.7791 45.021V44.8106L49.8527 44.7405V44.46L49.9263 44.3899V44.0393L50 43.9692V42.5667L49.9263 42.4965V42.1458L49.8527 42.0757V41.8653L49.7791 41.7952V41.5849L49.7054 41.5147V41.3745L49.6318 41.3044V41.1641L49.5581 41.094V40.9538L49.4846 40.8835V40.8134L49.4109 40.7433V40.6732L49.3373 40.6031V40.4628L49.2636 40.3927V40.3226L49.1164 40.1823V40.1122L49.0427 40.0421V39.972L48.8954 39.8317V39.7616L48.6008 39.481V39.4109L48.0118 38.8499L48.6008 38.289V38.2187L48.8218 38.0084V37.9383L48.9691 37.798V37.7279L49.1164 37.5877V37.5175L49.19 37.4474V37.3773L49.3373 37.237V37.1669L49.4109 37.0968V36.9566L49.4846 36.8864V36.8162L49.5581 36.7461V36.6059L49.6318 36.5357V36.3955L49.7054 36.3254V36.1851L49.7791 36.115V35.9046L49.8527 35.8345V35.6242L49.9263 35.554V35.1332L50 35.0631V33.9411L49.9263 33.8709V33.4502L49.8527 33.3801V33.0996L49.7791 33.0295V32.8191L49.7054 32.749V32.6086L49.6318 32.5385V32.3983L49.5581 32.3282V32.1879L49.4846 32.1178V32.0477L49.4109 31.9776V31.8373L49.3373 31.7672V31.6971L49.2636 31.627V31.5568L49.19 31.4867V31.4166L49.1164 31.3465V31.2762L49.0427 31.2061V31.136L48.8954 30.9958V30.9256L48.8218 30.8555V30.7854L48.6008 30.575V30.5049L48.38 30.2946V30.2244L47.7172 29.5932V29.3829L47.7908 29.3128V29.1725L47.8645 29.1024V28.9621L47.9381 28.892V28.6817L48.0118 28.6115V28.4712L48.0854 28.4011V28.1907L48.1591 28.1206V27.9102L48.2327 27.8401V27.5596L48.3064 27.4895V27.2791L48.38 27.209V26.9284L48.4536 26.8583V26.5077L48.5273 26.4376V26.087L48.6008 26.0169V25.596L48.6745 25.5259V25.0351L48.7481 24.9649V24.3339L48.8218 24.2636V20.9677L48.7481 20.8976V20.1964L48.6745 20.1262V19.6353L48.6008 19.5652V19.1445L48.5273 19.0744V18.6535L48.4536 18.5834V18.3029L48.38 18.2328V17.9523L48.3064 17.8822V17.6017L48.2327 17.5316V17.3211L48.1591 17.251V17.0406L48.0854 16.9705V16.7602L48.0118 16.69V16.5498L47.9381 16.4797V16.2693L47.8645 16.1992V16.059L47.7908 15.9887V15.8485L47.7172 15.7784V15.568L47.6436 15.4979V15.3576L47.57 15.2875V15.1473L47.4964 15.0772V15.007L47.4227 14.9369V14.7967L47.3491 14.7265V14.5862L47.2754 14.5161V14.446L47.2018 14.3758V14.2356L47.1281 14.1655V14.0954L47.0545 14.0252V13.885L46.9808 13.8149V13.7448L46.9072 13.6746V13.6045L46.8335 13.5344V13.3941L46.7599 13.324V13.2539L46.6864 13.1837V13.1136L46.6127 13.0434V12.9733L46.5391 12.9032V12.763L46.3918 12.6227V12.4825L46.3181 12.4123V12.3422L46.2445 12.2721V12.202L46.1708 12.1319V12.0617L46.0972 11.9916V11.9215L46.0235 11.8514V11.7812L45.8762 11.6409V11.5708L45.8026 11.5007V11.4306L45.7291 11.3604V11.2903L45.5818 11.1501V11.0799L45.5081 11.0098V10.9397L45.4345 10.8696V10.7995L45.2872 10.6592V10.5891L45.1399 10.4489V10.3786L44.9926 10.2384V10.1683L44.8453 10.028V9.95792L44.6981 9.81771V9.7475L44.5508 9.60729V9.53719L44.4035 9.39687V9.32679L44.1826 9.11641V9.04628L43.888 8.76578V8.69566L43.6672 8.48527V8.41514L43.299 8.06452V7.99439L42.8572 7.57364V7.50351L40.9426 5.68023H40.869L40.4271 5.25947H40.3534L40.059 4.97896H39.9853L39.6907 4.69846H39.6171L39.3961 4.48808H39.3225L39.1017 4.2777H39.028L38.8071 4.06732H38.7334L38.5861 3.92707H38.5125L38.3652 3.78681H38.2916L38.1444 3.64656H38.0707L37.9234 3.50631H37.8498L37.7761 3.43619H37.7025L37.5552 3.29594H37.4816L37.3343 3.15568H37.2607L37.1871 3.08555H37.1134L37.0398 3.01543H36.9661L36.8189 2.87518H36.7452L36.6716 2.80505H36.5979L36.5243 2.73493H36.4506L36.3034 2.59467H36.1561L36.0089 2.45442H35.9352L35.8616 2.38429H35.7879L35.7143 2.31417H35.567L35.4197 2.17392H35.2725L35.1252 2.03366H34.9779L34.9043 1.96353H34.8306L34.757 1.89341H34.6097L34.536 1.82328H34.4624L34.3889 1.75316H34.3152L34.2416 1.68303H34.0943L34.0206 1.61291H33.947L33.8733 1.54278H33.726L33.6524 1.47265H33.5051L33.4316 1.40252H33.3579L33.2843 1.3324H33.137L33.0633 1.26227H32.916L32.8424 1.19215H32.6951L32.6215 1.12202H32.4743L32.4006 1.0519H32.2533L32.1797 0.981771H31.9587L31.8851 0.911646H31.7378L31.6642 0.84151H31.4433L31.3697 0.771385H31.2224L31.1487 0.70126H30.9278L30.8542 0.631135H30.5597L30.486 0.56101H30.2651L30.1915 0.490885H29.8969L29.8232 0.42076H29.4551L29.3815 0.350635H29.0132L28.9396 0.2805H28.5715L28.4978 0.210375H27.9823L27.9086 0.14025H27.2459L27.1723 0.070125H26.1414L26.0677 0H24.1531Z" fill="#EC9244" stroke="#EC9244" stroke-width="2" mask="url(#path-2-inside-1_9394_937)"/>
<path d="M7 22.5C7 12.835 15.0588 5 25 5C34.9412 5 43 12.835 43 22.5V40H7V22.5Z" fill="#F9E7CB"/>
</g>
</g>
<defs>
<clipPath id="clip0_9394_937">
<rect width="50" height="50" fill="white"/>
</clipPath>
</defs>
</svg>
