<svg width="326" height="343" viewBox="0 0 326 343" fill="none" xmlns="http://www.w3.org/2000/svg">
<path fill-rule="evenodd" clip-rule="evenodd" d="M230.001 199.913C250.054 197.801 269.561 187.262 286.414 168.82C289.062 165.654 289.569 162.483 289.062 158.799C311.723 131.395 325.422 93.9646 325.422 64.9612C325.422 20.1573 304.355 15.42 268.508 8.03539V7.51146C265.86 3.28697 261.641 0.65625 256.38 0.65625C249.006 0.65625 243.188 6.4581 243.188 13.3132C243.188 20.1629 249.006 25.9536 256.38 25.9536C259.54 25.9536 262.193 24.9002 264.3 22.7935L264.807 23.3174C299.607 30.702 308.579 32.2903 308.579 64.9612C308.579 90.275 295.939 124.529 275.892 149.319C272.732 149.319 269.572 150.372 266.914 153.003C256.921 164.071 240.585 177.252 221.586 177.252C202.079 177.252 186.284 164.077 176.252 153.532C173.605 150.896 170.44 149.319 167.279 149.319C147.266 124.529 134.079 90.275 134.079 64.9612C134.079 32.2903 143.559 30.702 178.354 23.3174V22.7935C180.466 24.9002 183.62 25.9536 186.781 25.9536C194.154 25.9536 199.967 20.1574 199.967 13.3132C199.967 6.4581 194.154 0.65625 186.781 0.65625C181.001 0.65625 176.788 3.29248 174.653 7.51146H174.14C138.839 15.42 117.225 19.6334 117.225 64.9667C117.225 93.9701 130.914 131.4 154.093 159.328C153.58 162.488 154.093 166.184 156.746 168.825C173.605 186.743 192.599 197.283 212.105 199.919L211.554 256.839C211.554 295.847 177.306 327.486 135.64 327.486C94.0127 327.486 60.2719 295.852 60.2719 256.839V206.774C84.5323 203.079 102.986 184.107 102.986 160.382C102.986 134.026 79.7785 112.942 51.3046 112.942C23.3711 112.942 0.197266 134.026 0.197266 160.382C0.197266 184.107 19.1578 203.079 42.8668 206.774V256.839C42.8668 304.296 84.5326 342.774 135.635 342.774C187.321 342.774 228.943 304.296 228.943 256.839V199.919H230.001V199.913Z" fill="#EC9245"/>
<path fill-rule="evenodd" clip-rule="evenodd" d="M50.7931 136.65C64.4813 136.65 75.5611 147.195 75.5611 160.371C75.5611 173.551 64.4813 184.62 50.7931 184.62C36.5533 184.62 26.0254 173.551 26.0254 160.371C26.0254 147.195 36.5533 136.65 50.7931 136.65Z" fill="#F9E7CB"/>
</svg>
