<svg width="26" height="26" viewBox="0 0 26 26" fill="none" xmlns="http://www.w3.org/2000/svg">
<path d="M5.24289 11.2533C7.37861 15.3496 10.4119 18.4566 14.4203 20.5898C14.5905 20.6825 14.9929 20.5743 15.1631 20.4197C16.0762 19.5541 16.9738 18.673 17.8405 17.761C18.3203 17.2509 18.8465 17.1736 19.5119 17.2973C21.0905 17.5755 22.6846 17.8537 24.2786 18.0392C25.5477 18.1938 25.9965 18.6112 25.9965 19.9096C25.9965 21.3008 25.9965 22.6766 25.9965 24.0678C25.9965 25.5672 25.5167 26.0309 23.9846 26C13.0893 25.8145 3.33932 18.0856 0.770274 7.48157C0.321464 5.61118 0.182179 3.64804 0.0119405 1.71581C-0.0963928 0.571938 0.538131 0.0154578 1.68337 0.0154578C3.20004 0 4.7167 0 6.23337 0C7.34766 0 7.81194 0.510107 7.95123 1.62307C8.16789 3.26159 8.46194 4.90012 8.77146 6.52319C8.89527 7.21879 8.77147 7.77527 8.26075 8.26992C7.23932 9.25922 6.24885 10.2485 5.24289 11.2533Z" fill="#FE624C"/>
</svg>
