<svg width="62" height="62" viewBox="0 0 62 62" fill="none" xmlns="http://www.w3.org/2000/svg">
<path fill-rule="evenodd" clip-rule="evenodd" d="M34.8774 61.5577C33.1123 61.5577 31.4101 61.4317 29.7711 61.1795C29.2037 61.1795 29.0146 60.8013 28.8255 60.423V60.0448C28.6364 57.5862 28.4473 56.2623 27.6908 53.9929C25.2322 53.4255 22.2063 52.2908 19.9368 51.3452H19.5586C18.0456 52.8582 16.7218 54.182 14.8306 56.2624C14.4523 56.6406 13.885 56.6406 13.5067 56.2624C10.1025 53.6147 7.26573 50.2105 5.56364 46.239C5.37452 45.8607 5.56363 45.4825 5.94188 45.1042C6.88748 44.3477 7.83309 43.4021 8.77869 42.2674C9.34605 41.5109 10.1025 40.7544 11.0481 39.8088C9.78733 36.909 8.9678 34.0721 8.58956 31.2984C7.83307 31.2984 7.0766 31.2354 6.32011 31.1093C4.80715 31.1093 3.29417 31.1093 1.40296 30.9202C0.835594 30.731 0.646484 30.3528 0.646484 29.9746C0.646484 25.0574 2.34857 19.9512 5.75274 15.034C5.94187 14.6558 6.50924 14.4666 6.88748 14.6557C8.40045 15.4122 9.53516 15.9796 10.859 16.547C11.9937 17.1143 13.1285 17.6817 14.4523 18.249C16.1544 16.3578 18.0456 14.4666 20.1259 12.5754L20.5042 12.1972C19.7477 10.1169 18.9912 8.22566 18.4238 5.57797C18.2347 5.19973 18.4239 4.63235 18.8021 4.44323C22.5845 2.55202 26.9343 1.22816 31.8514 0.47168C32.2297 0.47168 32.797 0.84991 32.797 1.22815C33.5535 4.00193 34.1209 6.83874 34.4991 9.73859C37.2729 9.99076 40.0467 10.6212 42.8205 11.6298C44.7117 9.54947 46.792 7.46917 49.0615 5.38884C49.4397 5.01059 50.0071 5.01059 50.3853 5.38884C53.1591 7.91045 55.6176 10.6842 57.761 13.7101C58.2653 14.5927 58.7697 15.4753 59.274 16.3578C59.6522 16.7361 60.0305 17.3035 60.0305 17.8708C59.9044 18.2491 59.7783 18.5012 59.6522 18.6273C58.5175 19.5729 57.761 20.1403 56.8154 20.7076C56.0589 21.4641 55.1133 22.0315 53.9786 22.9771C54.1047 23.8596 54.2307 24.8052 54.3568 25.8139C54.5459 27.8942 54.9242 30.1637 55.1133 31.8658C55.8698 32.4331 56.6263 32.8113 57.5719 33.1896C58.7066 33.7569 60.0305 34.3243 61.7326 35.4591C61.9217 35.8373 62.1108 36.0264 61.9217 36.4047C61.1652 40.7544 59.4631 44.3477 57.1936 47.7519C57.0045 47.941 56.4372 48.1302 56.0589 47.941C55.4285 47.815 54.7981 47.6258 54.1677 47.3736C52.8439 46.9954 51.7092 46.6172 50.0071 46.239C48.305 48.5084 46.0355 50.5887 43.7661 52.2908C44.1443 53.8038 44.1443 54.9385 44.1443 56.2624C44.3334 57.208 44.3334 58.3427 44.5225 59.4774C44.5225 60.0448 44.1443 60.423 43.7661 60.6121C40.7401 61.2425 37.7772 61.5577 34.8774 61.5577ZM30.7167 59.4774C34.4991 59.9818 38.4076 59.7926 42.4422 58.91C42.3161 57.9014 42.2531 57.0819 42.2531 56.4515C42.2531 54.9385 42.2531 53.8038 41.8749 52.2908C41.6857 51.9126 41.8749 51.3452 42.2531 51.1561C44.7117 49.454 47.1702 46.9954 48.8723 44.5368C49.0614 44.3477 49.4397 44.1586 49.8179 44.1586C52.0874 44.5369 53.2221 45.1042 54.7351 45.6716C55.1133 45.7977 55.5546 45.9238 56.0589 46.0498C57.9501 43.213 59.274 40.1871 60.0305 36.5938C58.8957 35.8373 57.761 35.4591 56.8154 34.8917C55.6807 34.5135 54.7351 33.9461 53.6003 33.1896C53.3482 33.0635 53.2221 32.8744 53.2221 32.6222C53.033 30.9202 52.6547 28.2725 52.4656 26.1921C52.2765 24.8683 52.0874 23.7335 52.0874 22.7879C51.9613 22.4097 52.0243 22.0945 52.2765 21.8423C53.7895 20.7076 54.7351 19.9511 55.6807 19.1946C56.4372 18.6273 57.1937 18.2491 57.9501 17.6817C57.8241 17.5556 57.761 17.4295 57.761 17.3034C57.2567 16.5469 56.6893 15.7274 56.0589 14.8449C54.1677 12.0711 52.0243 9.5495 49.6288 7.28004C47.5485 9.36038 45.6573 11.4407 43.7661 13.3319C43.5769 13.7101 43.1987 13.7101 42.8205 13.7101C39.7945 12.4493 36.7055 11.6928 33.5535 11.4407C32.9862 11.4407 32.6079 11.0624 32.6079 10.6842C32.3558 7.91042 31.9145 5.19971 31.2841 2.55202C27.1234 3.18242 23.5301 4.25408 20.5042 5.76704C21.0715 8.03649 21.6389 9.73861 22.3954 11.8189L22.5845 12.1972C22.7736 12.3863 22.5845 12.9537 22.3954 13.1428L21.4498 14.0884C19.1803 15.9796 17.1 18.0599 15.3979 20.1402C15.0197 20.5185 14.6414 20.5185 14.2632 20.3294C12.7502 19.5729 11.4264 19.0055 10.1025 18.4382C9.09389 17.9338 8.02221 17.3665 6.88748 16.7361C4.11371 20.8968 2.66377 24.9944 2.53769 29.029C4.05066 29.2181 5.1854 29.2181 6.50925 29.2181C7.45485 29.4072 8.40044 29.4072 9.53516 29.4072C9.91341 29.4072 10.2917 29.7854 10.2917 30.1637C10.6699 33.1896 11.5525 36.4046 12.9393 39.8088C13.1285 39.9979 13.1285 40.5653 12.7502 40.7544C11.8046 41.7 10.859 42.6456 10.1025 43.5912C9.34605 44.5368 8.58956 45.2934 7.64395 46.239C8.9678 49.2649 11.2373 52.1017 14.0741 54.3711C15.5871 52.6691 16.9109 51.3452 18.613 49.454C18.9912 49.2649 19.3695 49.0757 19.7477 49.2649L20.5042 49.6431C22.9628 50.5887 26.1778 51.9126 28.6364 52.1017C29.0146 52.1017 29.2037 52.48 29.3929 52.8582C30.3385 55.5059 30.5276 57.0189 30.7167 59.4774ZM32.6079 41.7C30.9058 41.7 28.8255 41.1327 25.6104 39.0523C24.4757 38.2959 22.2063 36.0264 21.828 32.8114C21.3237 29.7854 22.2063 26.8225 24.4757 23.9227C26.3669 21.4641 29.7711 20.1403 32.6079 20.5185C36.0121 21.0859 38.0924 21.8424 39.6054 23.3553C42.4422 25.6248 43.5769 29.7854 42.8205 33.3787C41.8749 36.972 39.2272 39.8088 35.6339 41.1327C34.6883 41.5109 33.7426 41.7 32.6079 41.7ZM31.4732 22.4097C29.3929 22.4097 27.3125 23.3553 25.9887 25.2465C23.9714 27.6421 23.1519 30.0376 23.5301 32.4331C24.0975 34.8917 25.6105 36.7829 26.7452 37.5394C31.4732 40.5653 33.1753 39.998 35.0665 39.4306C37.9033 38.2959 40.1728 35.8373 40.9293 33.0005C41.6857 29.9746 40.551 26.7595 38.4707 24.6791C37.1468 23.5444 35.2556 22.9771 32.4188 22.4097C32.1666 22.4097 31.8514 22.4097 31.4732 22.4097Z" fill="#FE816F"/>
<g opacity="0.13">
<path d="M39.0375 54.3717C39.0375 54.3717 38.9744 54.3717 38.8484 54.3717C38.4701 54.5608 37.9028 54.5608 37.7136 54.5608C37.5876 54.5608 37.4615 54.6238 37.3354 54.7499C35.6333 54.7499 34.1203 54.7499 32.6074 54.5608C31.8509 54.3717 31.2835 54.1825 30.527 54.5608C28.0685 55.5064 28.2576 59.4779 30.9053 60.0453C33.553 60.4235 36.3898 60.8018 39.0375 60.4235C39.2266 60.2344 39.794 60.2344 39.9831 60.2344C41.3069 60.2344 42.8199 59.667 43.3873 58.3432C44.522 55.5064 41.4961 53.2369 39.0375 54.3717Z" fill="#FE816F"/>
</g>
<g opacity="0.13">
<path d="M61.1645 36.408C60.5971 33.0038 56.0582 33.3821 55.68 36.7863C55.68 37.0384 55.6169 37.2275 55.4908 37.3536C55.3017 37.5427 55.3017 37.921 55.1126 38.1101C54.5452 39.2448 53.7887 40.3795 53.0323 41.3252C52.4649 42.2708 51.5193 42.8381 50.952 43.7837C49.8172 46.4314 53.2214 48.7008 55.3017 46.6205C57.1929 44.5402 58.895 42.2707 60.2189 39.8122C60.5971 38.6774 61.3536 37.5427 61.1645 36.408Z" fill="#FE816F"/>
</g>
</svg>
