<svg width="68" height="82" viewBox="0 0 68 82" fill="none" xmlns="http://www.w3.org/2000/svg">
<g clip-path="url(#clip0_637_19)">
<path d="M13.62 80.6102C13.2876 80.6464 12.9523 80.6464 12.62 80.6102L12.67 80.2702C13.74 80.4102 14.43 80.2701 14.67 79.7001L14.99 79.8401C14.8552 80.0826 14.6558 80.283 14.4139 80.4189C14.172 80.5549 13.8972 80.6211 13.62 80.6102ZM0.259995 81.3502L0 81.1302C0.54 80.4802 1.09 79.8702 1.64 79.3202L1.89 79.5702C1.34 80.1102 0.799995 80.7102 0.259995 81.3502ZM10.26 79.9402C9.48952 79.655 8.73799 79.3209 8.00999 78.9402L8.17 78.6402C8.88406 79.0213 9.62229 79.3554 10.38 79.6402L10.26 79.9402ZM14.26 77.5202C13.8354 76.8629 13.2364 76.3366 12.53 76.0002L12.68 75.6902C13.4446 76.0549 14.0948 76.6221 14.56 77.3302L14.26 77.5202ZM3.68999 77.9702L3.48 77.7001C3.9921 77.294 4.53358 76.9263 5.09999 76.6002C4.89621 76.2606 4.72543 75.9023 4.59 75.5302L4.92 75.4102C5.0441 75.7596 5.205 76.0948 5.39999 76.4102L5.53 76.3401L5.7 76.6501L5.59 76.7001C5.67 76.8201 5.76 76.9202 5.84 77.0202C5.94265 77.1341 6.05291 77.241 6.17 77.3401L5.95 77.6102C5.81958 77.4977 5.69602 77.3774 5.57999 77.2502C5.47999 77.1302 5.37999 77.0102 5.28999 76.8802C4.73374 77.2087 4.19929 77.5727 3.68999 77.9702ZM7.92999 75.7502L7.84 75.4102C8.63719 75.188 9.46258 75.0835 10.29 75.1002V75.4501C9.49263 75.4292 8.69676 75.5304 7.92999 75.7502ZM22.17 72.0901C21.9236 72.1054 21.6764 72.1054 21.43 72.0901V71.7402C21.6629 71.7602 21.8971 71.7602 22.13 71.7402C22.369 71.6704 22.5919 71.5541 22.7858 71.3979C22.9797 71.2417 23.1409 71.0488 23.26 70.8302L23.58 70.9602C23.4423 71.2272 23.2515 71.4634 23.0194 71.6543C22.7873 71.8451 22.5187 71.9866 22.23 72.0702L22.17 72.0901ZM4.53999 73.0901H4.18999C4.17478 72.2675 4.25194 71.4456 4.42 70.6402L4.75 70.7001C4.58372 71.4824 4.50324 72.2805 4.50999 73.0802L4.53999 73.0901ZM19.03 71.5002C18.2717 71.1775 17.548 70.7788 16.87 70.3102L17.07 70.0202C17.7244 70.4784 18.4249 70.8672 19.16 71.1801L19.03 71.5002ZM22.8 68.7402C22.3318 68.0941 21.7842 67.5095 21.17 67.0002L21.4 66.7402C22.0392 67.2679 22.6073 67.8763 23.09 68.5502L22.8 68.7402ZM14.97 68.7402C14.3768 68.1735 13.8285 67.5617 13.33 66.9102L13.6 66.7001C14.0911 67.3362 14.6293 67.9346 15.21 68.4902L14.97 68.7402ZM5.45 68.4001L5.12999 68.2702C5.44011 67.5084 5.82889 66.7812 6.28999 66.1002L6.57999 66.2901C6.11994 66.9541 5.73114 67.6647 5.42 68.4102L5.45 68.4001ZM19.23 65.5702C18.5508 65.1382 17.8424 64.7539 17.11 64.4202L17.26 64.1102C18.0026 64.4532 18.7239 64.8406 19.42 65.2702L19.23 65.5702ZM30.16 63.5702C29.4632 63.5965 28.7721 63.4342 28.16 63.1002L28.31 62.7901C28.8729 63.098 29.509 63.2467 30.15 63.2202H30.2H30.55L30.61 63.5602L30.24 63.6102L30.16 63.5702ZM11.93 64.8701C11.5348 64.1492 11.2003 63.3966 10.93 62.6201L11.26 62.5002C11.5263 63.2621 11.861 63.9985 12.26 64.7002L11.93 64.8701ZM8.09 64.5101L7.92999 64.2502C8.38799 63.8481 8.89953 63.5116 9.45 63.2502C9.65797 63.1565 9.87174 63.0763 10.09 63.0101L10.19 63.3502C9.98429 63.4069 9.78362 63.4805 9.59 63.5702C9.05239 63.8076 8.55348 64.1245 8.10999 64.5101H8.09ZM14.81 63.5802C14.0448 63.3492 13.2569 63.2017 12.46 63.1402V62.7901C13.2972 62.856 14.1252 63.0102 14.93 63.2502L14.81 63.5802ZM32.45 62.0101L32.12 61.9301C32.1514 61.6945 32.1514 61.4558 32.12 61.2202C32.0612 60.6871 31.9265 60.1651 31.72 59.6702L32.04 59.5401C32.2628 60.0657 32.4044 60.622 32.46 61.1902C32.5096 61.461 32.5129 61.7382 32.47 62.0101H32.45ZM26.09 61.7002C25.4945 61.1373 24.9367 60.536 24.42 59.9001L24.69 59.6801C25.1967 60.306 25.7445 60.8973 26.33 61.4502L26.09 61.7002ZM10.4 60.2502C10.4 60.0302 10.34 59.8102 10.33 59.5902C10.28 58.9912 10.28 58.3891 10.33 57.7902H10.68C10.635 58.3693 10.635 58.951 10.68 59.5302C10.68 59.7502 10.68 59.9602 10.75 60.1702L10.4 60.2502ZM30.67 57.5702C30.28 56.9302 29.82 56.2702 29.3 55.5702L29.58 55.3702C30.1 56.0602 30.58 56.7402 30.97 57.3702L30.67 57.5702ZM22.97 57.9702C22.44 57.2102 21.97 56.5102 21.64 55.9702L21.93 55.7802C22.29 56.3602 22.73 57.0502 23.26 57.7802L22.97 57.9702ZM11.12 55.4602L10.79 55.3702C11.0173 54.5805 11.3256 53.8164 11.71 53.0902L12.02 53.2602C11.6501 53.9525 11.3487 54.6793 11.12 55.4302V55.4602ZM27.78 53.6902C27.22 53.0502 26.66 52.4402 26.13 51.9202L26.38 51.6702C26.91 52.2002 27.48 52.8202 28.04 53.4602L27.78 53.6902ZM20.4 53.8202C20.01 53.1002 19.64 52.3702 19.3 51.6402L19.61 51.4902C19.95 52.2102 20.32 52.9402 20.71 53.6502L20.4 53.8202ZM13.4 51.3102L13.14 51.0702C13.699 50.4605 14.3462 49.938 15.06 49.5202L15.24 49.8202C14.5556 50.202 13.932 50.684 13.39 51.2502L13.4 51.3102ZM24.29 50.4102C23.6053 50.0052 22.8817 49.6702 22.13 49.4102L22.25 49.0901C23.0251 49.3689 23.7691 49.7275 24.47 50.1602L24.29 50.4102ZM18.35 49.4102C18.29 49.2402 18.22 49.0602 18.15 48.8802C17.92 48.8802 17.68 48.9402 17.44 48.9902L17.38 48.6502L18.03 48.5402C17.86 48.0602 17.71 47.5402 17.57 47.1002L17.9 47.0002C18.05 47.5002 18.21 48.0002 18.39 48.5102C18.8758 48.4702 19.3641 48.4702 19.85 48.5102V48.8602C19.4174 48.8252 18.9826 48.8252 18.55 48.8602L18.72 49.3002L18.35 49.4102ZM35.71 46.5402L35.42 46.2302L34.02 44.7802L34.27 44.5402L35.67 45.9902L35.96 46.3002L35.71 46.5402ZM16.93 44.6702C16.7659 43.8711 16.649 43.063 16.58 42.2502H16.92C16.9947 43.0524 17.1115 43.8502 17.27 44.6402L16.93 44.6702ZM32.26 43.0102C31.66 42.4202 31.06 41.8502 30.5 41.3302L30.73 41.0802C31.3 41.6002 31.9 42.1702 32.5 42.7602L32.26 43.0102ZM28.68 39.7202C28.04 39.1602 27.4 38.6502 26.8 38.1902L27.02 37.9102C27.62 38.3802 28.26 38.9102 28.91 39.4502L28.68 39.7202ZM16.86 39.8202H16.52C16.5426 38.9967 16.6566 38.1784 16.86 37.3802L17.19 37.4702C17.0191 38.2419 16.932 39.0298 16.93 39.8202H16.86ZM24.86 36.8202C24.1908 36.3743 23.4888 35.9798 22.76 35.6402L22.93 35.2502C23.6711 35.6023 24.3862 36.0066 25.07 36.4602L24.86 36.8202ZM18.35 35.4902L18.13 35.2302C18.4631 34.9587 18.8507 34.7619 19.2665 34.6532C19.6823 34.5445 20.1166 34.5264 20.54 34.6002V34.9402C20.1605 34.8683 19.7701 34.8775 19.3944 34.9671C19.0187 35.0567 18.6662 35.2247 18.36 35.4602L18.35 35.4902Z" fill="#CF331D"/>
<path d="M58.6299 24.3501C53.1799 29.1701 47.6299 33.8901 42.1899 38.6601C42.3599 42.4601 42.6599 46.2401 43.1899 49.9701L43.3999 49.8201C49.4699 45.3601 59.1699 27.5401 58.6299 24.3501Z" fill="#CF331D"/>
<path d="M43.72 10.8999C39.39 16.7399 35.18 22.6499 30.91 28.5199C27.1 28.6799 23.31 28.7199 19.55 28.5199L19.69 28.2899C23.6 21.8599 40.5 10.6399 43.72 10.8999Z" fill="#CF331D"/>
<path d="M67.5199 0.250039C64.7599 -0.399961 60.8599 0.390036 57.1799 1.70004L66.9299 10.75C67.8599 6.80004 68.2499 2.77004 67.5199 0.250039Z" fill="#CF331D"/>
<path d="M65.2401 16.3502C65.9266 14.5288 66.4945 12.6649 66.9401 10.7702L57.2101 1.7002C55.6374 2.25777 54.0982 2.90551 52.6001 3.6402C41.1701 9.7502 34.8901 16.7602 29.6001 28.6402L42.1101 40.2502C53.5401 34.1402 59.9301 28.1802 65.2401 16.3502Z" fill="#FE816F"/>
<path d="M54.0699 17.4998C55.313 18.0726 56.7323 18.1301 58.0177 17.6598C59.3031 17.1895 60.3501 16.2296 60.9299 14.9898C61.4801 13.6965 61.5013 12.2391 60.989 10.9304C60.4767 9.62166 59.4718 8.56592 58.1899 7.98975C56.9353 7.3961 55.4974 7.32034 54.1874 7.77885C52.8773 8.23737 51.8005 9.19329 51.1899 10.4398C50.6646 11.7606 50.671 13.2336 51.208 14.5498C51.7449 15.866 52.7706 16.9232 54.0699 17.4998Z" fill="#FFF5F3"/>
<path opacity="0.7" d="M57.4301 9.33994C55.7701 8.56994 54.8901 8.58995 53.9101 9.19995C53.4301 9.49995 53.6101 10.5299 54.1001 10.9199C55.2125 11.4667 56.4884 11.5807 57.6801 11.2399C58.2701 11.0099 58.6201 9.87994 57.4301 9.33994Z" fill="white"/>
<path d="M29.6 28.6001L42.29 40.1701L40.76 43.3301L27.01 30.4401L29.6 28.6001Z" fill="#FFF5F3"/>
<path d="M49.4 19.5298L37.43 38.7398L29.52 41.3998L31.75 33.6698L49.4 19.5298Z" fill="#CF331D"/>
</g>
<defs>
<clipPath id="clip0_637_19">
<rect width="67.9" height="81.36" fill="white"/>
</clipPath>
</defs>
</svg>
