<svg width="38" height="68" viewBox="0 0 38 68" fill="none" xmlns="http://www.w3.org/2000/svg">
<g clip-path="url(#clip0_637_111)">
<path fill-rule="evenodd" clip-rule="evenodd" d="M38.0001 48.7649C38.0001 52.5675 36.887 56.2847 34.8017 59.4465C32.7163 62.6082 29.7523 65.0725 26.2844 66.5277C22.8165 67.9829 19.0006 68.3636 15.3191 67.6218C11.6377 66.8799 8.25606 65.0488 5.60188 62.3599C2.9477 59.6711 1.14017 56.2453 0.407881 52.5158C-0.324406 48.7862 0.0514531 44.9204 1.48789 41.4073C2.92432 37.8941 5.35681 34.8914 8.4778 32.7788C11.5988 30.6662 15.2681 29.5386 19.0216 29.5386C24.055 29.5386 28.8823 31.5642 32.4414 35.1698C36.0006 38.7755 38.0001 43.6658 38.0001 48.7649Z" fill="#FFE5E1"/>
<path d="M17.8916 38.5053C18.1935 37.946 18.8664 37.7712 19.3236 37.3779H19.4789C19.6859 37.0983 19.8153 36.74 20.2812 36.7312C20.2812 36.6351 20.2812 36.539 20.4364 36.5652C20.6323 36.2356 20.9048 35.9596 21.2301 35.7612C21.9217 34.9996 22.3672 34.0422 22.5068 33.0171V32.6937C22.3343 32.6937 22.2653 32.5189 22.1877 32.3703C22.0928 32.3703 21.9978 32.3703 22.0323 32.213H20.4364C20.376 32.5713 19.5738 32.3703 19.6428 32.047C19.6428 31.8897 19.5134 31.8547 19.4789 31.7236C19.1825 31.4324 18.8653 31.1637 18.5299 30.9196H17.5724C17.3852 30.9156 17.2025 30.9781 17.056 31.0962C16.9095 31.2143 16.8084 31.3806 16.7701 31.5663C16.5545 31.6625 16.7701 32.1868 16.451 32.213V32.8597C16.3216 33.3142 16.6839 33.2792 16.6149 33.6637C16.8995 33.6113 16.8995 34.5377 16.451 34.3104C16.3138 34.588 16.0934 34.8145 15.8212 34.9572C15.5883 36.3991 16.1749 37.3342 15.9765 38.6713C16.3475 38.715 16.5717 38.9248 17.0893 38.8286C17.5983 38.9685 17.5897 38.5752 17.8916 38.5053Z" fill="#FE816F"/>
<path d="M5.80576 46.9558C5.57285 46.8771 5.48662 46.6587 5.2537 46.5887V46.5101C5.2537 46.3178 5.05529 46.2392 4.98628 46.0819C4.91727 45.9246 4.77061 45.9595 4.71023 45.8547H4.6412C4.54207 45.8369 4.43998 45.8588 4.35651 45.9158C4.2875 46.143 4.46005 46.143 4.48593 46.2741C4.7091 46.4838 4.8932 46.7325 5.0294 47.0082V47.0781C5.17606 47.1393 5.19331 47.3316 5.29683 47.4452C5.61974 47.5165 5.94986 47.5487 6.28027 47.5413C6.29752 47.1743 6.06456 47.017 5.80576 46.9558Z" fill="#FE816F"/>
<path d="M25.828 41.0918H26.1472C26.1472 40.9869 26.1472 40.8995 26.3111 40.9257C26.6389 40.3489 27.2515 40.0518 27.5793 39.475V39.1517C27.0789 39.1517 26.8805 38.7846 26.3111 38.8283C25.7332 39.1692 25.4485 39.7984 25.0344 40.279C24.9654 40.8995 25.414 40.9956 25.828 41.0918Z" fill="#FE816F"/>
<path d="M8.97162 63.202C9.25629 63.202 6.09893 58.6838 8.33321 55.6163C9.11823 55.1706 9.19591 53.3354 8.48853 52.7062C8.21248 52.566 7.98852 52.3391 7.85012 52.0595C6.93307 51.5032 5.97569 51.0182 4.98615 50.6088C4.58933 50.2155 2.82946 50.6088 2.67419 50.6088C2.24286 50.7311 1.38888 50.8622 1.31986 50.8972H1.16454C1.10084 50.9513 1.02769 50.9927 0.948875 51.0195L0.0258789 49.6475C0.1525 52.3288 0.831954 54.9536 2.02056 57.3529C3.20917 59.7521 4.88058 61.8726 6.92713 63.5778C7.97094 64.0847 8.80771 64.1371 8.97162 63.202Z" fill="#FE816F"/>
<path d="M1.81496e-05 48.765C1.81496e-05 48.9136 1.81496e-05 49.0622 1.81496e-05 49.202C0.349531 49.2469 0.703506 49.1665 1.00068 48.9748C2.15664 48.1533 3.09694 45.4354 3.21771 43.6875C3.25595 43.6975 3.29108 43.7172 3.31975 43.7447C3.34842 43.7722 3.3697 43.8067 3.38162 43.8448H4.1753C4.58937 43.8448 4.73602 44.1333 4.97756 44.3255H5.1242C5.36053 44.4834 5.64903 44.54 5.92646 44.4828H6.08173C6.27752 44.2014 6.49072 43.9328 6.72009 43.6788C6.86218 43.3143 6.96907 42.9368 7.03927 42.5514C7.22693 42.0767 7.5634 41.6775 7.99686 41.4153C8.16076 40.9434 8.71284 40.856 9.10966 40.6113C8.99752 40.3492 9.86017 40.3492 9.74802 40.6113C10.2742 40.6113 10.5417 40.8822 11.1801 40.7774H11.8184C11.9548 40.8073 12.0959 40.808 12.2326 40.7794C12.3693 40.7508 12.4985 40.6936 12.612 40.6113C12.8087 40.2794 13.0845 40.0029 13.4143 39.8073C13.8745 39.1481 14.0996 38.3499 14.0527 37.5439C14.1562 36.5738 13.837 35.1843 14.208 34.4764C14.208 33.9695 14.5703 33.7685 14.5272 33.1917C14.5381 32.9869 14.603 32.7888 14.7153 32.6182C14.8276 32.4475 14.9831 32.3106 15.1655 32.2217C15.1655 31.8983 15.5969 32.0119 15.4847 31.5749C15.5616 31.4579 15.615 31.3266 15.6416 31.1887C15.6683 31.0507 15.6677 30.9087 15.64 30.7709C15.571 30.0805 15.0189 30.3952 14.6824 30.6049C14.1137 31.373 13.4122 32.0304 12.612 32.545H12.4568C12.2066 32.982 11.5251 32.545 11.4992 32.2217V31.0681C8.08209 32.5525 5.17057 35.021 3.12625 38.1671C1.08194 41.3133 -0.00512268 44.9984 1.81496e-05 48.765Z" fill="#FE816F"/>
<path d="M33.7472 36.6173C33.633 36.5118 33.493 36.4394 33.3418 36.4075H30.633C30.4432 36.4075 30.1845 36.4075 30.1586 36.2502H29.8394C29.2442 36.3638 29.4943 35.6297 29.0371 35.6035C28.7834 35.6692 28.556 35.8128 28.3861 36.0147C28.2162 36.2165 28.1121 36.4667 28.0882 36.7309V37.4038C28.0105 37.9107 28.485 37.8582 28.7265 38.0505C28.8559 38.0505 28.8732 38.1117 28.8818 38.2078H29.0371C31.7027 40.2965 26.3284 41.8521 25.3449 43.6786C25.0934 43.6975 24.849 43.7721 24.6289 43.897L23.0934 43.6961L22.3084 45.3478L23.2401 46.143L23.7145 45.942H23.7922C24.905 45.6274 27.5361 44.8496 28.2521 46.0993C28.4505 48.3978 24.8532 46.8509 23.7922 47.8472C23.7922 47.9433 23.7922 48.0395 23.6369 48.0132C23.6369 48.424 23.3436 48.5725 23.1538 48.8172V48.9833L22.5154 49.6737L20.5313 49.8922C20.5313 49.8922 17.5379 53.1694 17.6069 54.5589C17.6586 55.5727 20.0741 57.7051 20.0741 57.7051H24.1545V57.6264C27.1306 57.9847 28.0019 59.8811 28.7093 63.0185C28.5195 63.2632 28.2435 63.4118 28.2262 63.8312V63.9886C28.3901 63.9886 31.2369 62.1446 31.2541 61.7251C31.6164 58.9373 34.8169 59.4179 34.6012 56.5689C34.5322 55.6164 33.5488 54.69 33.6437 53.6588C33.7213 52.7849 34.9031 52.0071 34.9204 51.0807C34.9894 47.6811 30.219 50.0932 29.339 47.2005C29.4771 46.2129 30.4346 46.0556 30.2966 44.7797C31.5302 44.8322 32.1513 45.4876 33.1692 45.7498C33.2469 49.5601 37.1892 46.4839 37.4825 49.6213C37.586 50.7399 35.2569 53.9909 37.1029 54.6026C37.2065 54.2763 37.3014 53.9443 37.3876 53.6063C37.3737 53.4098 37.4221 53.2138 37.5256 53.047C37.5256 52.8722 37.6033 52.6887 37.6378 52.5139C37.6301 52.3342 37.6625 52.1549 37.7327 51.9896C37.7327 51.841 37.7844 51.6837 37.8017 51.5264C37.8189 51.3691 37.8017 51.1506 37.8621 51.0982C37.8621 50.7224 37.9397 50.3379 37.9656 49.9621V47.5151C37.9134 46.7475 37.8213 45.9832 37.6895 45.2254C37.6623 45.1494 37.6449 45.07 37.6378 44.9894C37.0378 41.9179 35.7017 39.0428 33.7472 36.6173Z" fill="#FE816F"/>
<path d="M16.8477 0C8.46267 0 1.06104 7.29726 1.06104 15.7918C1.06104 20.3275 3.64903 23.9892 6.6942 26.8032C7.11691 27.1878 10.1448 29.6173 11.0075 30.3601C13.3752 32.378 15.3501 34.8262 16.8304 37.5787C18.3167 34.8277 20.294 32.3801 22.662 30.3601C23.5246 29.6173 26.5612 27.1878 26.9753 26.8032C30.0636 23.9892 32.4186 21.3849 32.0045 15.3723C31.4352 6.90401 25.2241 0 16.8477 0ZM16.8477 8.43337C18.2026 8.44201 19.5246 8.85702 20.6469 9.62606C21.7692 10.3951 22.6415 11.4837 23.1537 12.7545C23.6659 14.0252 23.7951 15.4212 23.5249 16.7663C23.2547 18.1114 22.5974 19.3452 21.6357 20.3122C20.674 21.2791 19.4511 21.9358 18.1214 22.1993C16.7917 22.4629 15.4147 22.3215 14.1642 21.7931C12.9137 21.2646 11.8458 20.3728 11.0951 19.23C10.3444 18.0873 9.94476 16.745 9.94643 15.3723C9.94641 14.4567 10.1252 13.55 10.4727 12.7047C10.8201 11.8594 11.3293 11.0922 11.9709 10.4471C12.6124 9.80209 13.3736 9.29205 14.2106 8.94644C15.0476 8.60082 15.9438 8.42645 16.8477 8.43337Z" fill="#303030"/>
<path d="M16.839 8.38953C18.1515 8.3878 19.4349 8.78048 20.5269 9.51789C21.619 10.2553 22.4706 11.3043 22.974 12.5321C23.4775 13.76 23.6101 15.1115 23.3551 16.4157C23.1001 17.72 22.4689 18.9182 21.5415 19.859C20.6141 20.7997 19.4321 21.4407 18.145 21.7007C16.858 21.9607 15.5237 21.8281 14.311 21.3197C13.0983 20.8113 12.0618 19.95 11.3324 18.8446C10.6031 17.7392 10.2138 16.4395 10.2138 15.11C10.2161 13.3298 10.9146 11.6231 12.1563 10.3636C13.398 9.10397 15.0818 8.39415 16.839 8.38953ZM16.839 6.9126C15.2386 6.9126 13.6742 7.39336 12.3435 8.29411C11.0129 9.19485 9.97569 10.4751 9.36325 11.973C8.75081 13.4709 8.59058 15.1191 8.9028 16.7092C9.21502 18.2994 9.98566 19.76 11.1173 20.9064C12.249 22.0529 13.6908 22.8336 15.2604 23.1499C16.8301 23.4662 18.457 23.3038 19.9356 22.6834C21.4141 22.063 22.6779 21.0123 23.5671 19.6642C24.4562 18.3162 24.9308 16.7313 24.9308 15.11C24.9308 12.9359 24.0782 10.8509 22.5607 9.31357C21.0432 7.77626 18.9851 6.9126 16.839 6.9126Z" fill="#303030"/>
<path d="M17.2703 23.832C12.4653 23.832 7.92773 19.4624 7.92773 14.7956C7.92773 10.6794 10.6365 6.51954 15.8124 6.51954C16.3063 6.51892 16.7994 6.55689 17.2875 6.63314C21.5491 7.26236 26.0521 10.225 25.8365 15.2413C25.7741 17.5527 24.8493 19.7542 23.2485 21.4025C21.6508 22.9806 19.5016 23.854 17.2703 23.832ZM15.8124 6.81667C10.809 6.81667 8.19516 10.8367 8.19516 14.8218C8.19516 19.3313 12.6033 23.5611 17.2703 23.5611C21.9373 23.5611 25.3707 20.0653 25.5777 15.2151C25.7847 10.3648 21.4024 7.49833 17.2444 6.88659C16.7693 6.82921 16.2908 6.80585 15.8124 6.81667Z" fill="white"/>
</g>
<defs>
<clipPath id="clip0_637_111">
<rect width="38" height="68" fill="white"/>
</clipPath>
</defs>
</svg>
