<svg width="172" height="20" viewBox="0 0 172 20" fill="none" xmlns="http://www.w3.org/2000/svg">
<g clip-path="url(#clip0_637_172)">
<path d="M0 19.3468H11.2879V14.7501H5.51788V12.1735H10.9727V7.57346H5.51788V5.14346H11.2879V0.543457H0V19.3468Z" fill="#FE816F"/>
<path d="M19.6295 11.0669H12.9768V14.5502H19.6295V11.0669Z" fill="#FE816F"/>
<path d="M31.6573 0.156658C29.2764 0.135559 26.9602 0.934327 25.0942 2.41999C23.9471 3.31831 23.0191 4.46767 22.3807 5.78062C21.7424 7.09356 21.4106 8.53548 21.4106 9.99666C21.4106 11.4578 21.7424 12.8998 22.3807 14.2127C23.0191 15.5256 23.9471 16.675 25.0942 17.5733C26.9456 19.0551 29.247 19.854 31.6141 19.8367C33.1658 19.8038 34.6985 19.4864 36.1366 18.9L36.349 18.8167V12.0333L35.765 12.7267C35.3978 13.1853 34.9544 13.5766 34.4544 13.8833C33.6584 14.3551 32.7506 14.6026 31.8265 14.6C30.7123 14.6219 29.6248 14.2569 28.7474 13.5667C28.2325 13.127 27.819 12.5802 27.5354 11.964C27.2517 11.3479 27.1048 10.6772 27.1048 9.99832C27.1048 9.31949 27.2517 8.64878 27.5354 8.03263C27.819 7.41649 28.2325 6.86965 28.7474 6.42999C29.6244 5.73882 30.712 5.37268 31.8265 5.39332C32.7509 5.39185 33.6587 5.64056 34.4544 6.11332C34.9546 6.41974 35.3981 6.81111 35.765 7.26999L36.349 7.96666V1.17666L36.1333 1.09665C34.7091 0.517569 33.1932 0.19922 31.6573 0.156658Z" fill="#FE816F"/>
<path d="M48.5826 0C45.2215 0 42.5106 1.10334 40.5331 3.28334C39.7099 4.20104 39.066 5.26626 38.6352 6.42333C38.1817 7.56264 37.9421 8.77641 37.9284 10.0033C37.9119 12.4946 38.8492 14.8969 40.5464 16.7133C42.5372 18.8933 45.2281 19.9967 48.5826 19.9967C51.9372 19.9967 54.6546 18.8933 56.6355 16.7133C58.3165 14.8849 59.2501 12.4873 59.2501 9.99833C59.2501 7.50933 58.3165 5.11173 56.6355 3.28334C54.6546 1.10334 51.9471 0 48.5826 0ZM43.9374 8.36333C44.2866 7.43302 44.9195 6.63737 45.7457 6.09C46.5864 5.52394 47.5773 5.22541 48.5893 5.23333C49.3054 5.21421 50.017 5.35361 50.6736 5.64164C51.3301 5.92967 51.9156 6.35927 52.3884 6.9C53.1653 7.73854 53.5866 8.84804 53.563 9.99333C53.5782 11.1348 53.1566 12.2385 52.3851 13.0767C51.9165 13.6217 51.3323 14.0543 50.6754 14.3428C50.0186 14.6312 49.3057 14.7681 48.5893 14.7433C47.8737 14.7674 47.1621 14.6284 46.5076 14.3369C45.8531 14.0454 45.2727 13.6088 44.81 13.06C44.0491 12.2191 43.6279 11.1231 43.6288 9.98667C43.6317 9.43175 43.734 8.88187 43.9308 8.36333H43.9374Z" fill="#FE816F"/>
<path d="M76.6796 0.543457L72.917 9.66012L69.36 0.543457H64.0578L60.7697 19.3468H66.2875L67.7375 9.80012L71.6694 19.3468H74.0351L78.1528 9.80346L79.4137 19.3468H84.9448L82.025 0.543457H76.6796Z" fill="#FE816F"/>
<path d="M102.315 0.543457L98.5554 9.66012L94.9952 0.543457H89.693L86.4048 19.3468H91.9227L93.3726 9.80012L97.3045 19.3468H99.6703L103.788 9.80346L105.049 19.3468H110.58L107.66 0.543457H102.315Z" fill="#FE816F"/>
<path d="M112.939 19.3468H124.227V14.7501H118.457V12.1735H123.912V7.57346H118.457V5.14346H124.227V0.543457H112.939V19.3468Z" fill="#FE816F"/>
<path d="M139.454 10.5368C140.499 9.52012 141.03 8.14679 141.03 6.45679C141.051 5.04589 140.569 3.67398 139.669 2.59012C138.551 1.23346 136.819 0.543457 134.52 0.543457H126.639V19.3468H132.157V13.1468L136.285 19.3468H143.176L137.204 11.7701C138.043 11.5497 138.815 11.1263 139.454 10.5368ZM132.154 4.79679H132.728C133.654 4.79679 134.324 4.97679 134.719 5.33346C134.916 5.50433 135.074 5.71687 135.181 5.95596C135.288 6.19505 135.34 6.45482 135.336 6.71679C135.34 6.98097 135.287 7.24291 135.18 7.4842C135.072 7.72548 134.914 7.94026 134.715 8.11345C134.334 8.47012 133.667 8.65012 132.725 8.65012H132.151L132.154 4.79679Z" fill="#FE816F"/>
<path d="M153.608 0.156658C151.227 0.135559 148.911 0.934327 147.045 2.41999C145.898 3.31831 144.97 4.46767 144.332 5.78062C143.693 7.09356 143.362 8.53548 143.362 9.99666C143.362 11.4578 143.693 12.8998 144.332 14.2127C144.97 15.5256 145.898 16.675 147.045 17.5733C148.897 19.0551 151.198 19.854 153.565 19.8367C155.117 19.8038 156.649 19.4864 158.088 18.9L158.3 18.8167V12.0333L157.716 12.7267C157.344 13.1868 156.895 13.5782 156.389 13.8833C155.593 14.3551 154.685 14.6026 153.761 14.6C152.646 14.6213 151.557 14.2564 150.678 13.5667C150.165 13.1264 149.752 12.5793 149.469 11.9633C149.186 11.3472 149.039 10.6768 149.039 9.99832C149.039 9.31985 149.186 8.64945 149.469 8.03339C149.752 7.41733 150.165 6.87028 150.678 6.42999C151.557 5.73907 152.645 5.37301 153.761 5.39332C154.516 5.38543 155.263 5.5503 155.945 5.87545C156.628 6.20059 157.228 6.67748 157.699 7.26999L158.3 7.96332V1.17666L158.084 1.09665C156.66 0.517569 155.144 0.19922 153.608 0.156658Z" fill="#FE816F"/>
<path d="M172 5.14346V0.543457H160.712V19.3468H172V14.7501H166.23V12.1735H171.685V7.57346H166.23V5.14346H172Z" fill="#FE816F"/>
</g>
<defs>
<clipPath id="clip0_637_172">
<rect width="172" height="20" fill="white"/>
</clipPath>
</defs>
</svg>
