<svg width="98" height="113" viewBox="0 0 98 113" fill="none" xmlns="http://www.w3.org/2000/svg">
<g clip-path="url(#clip0_637_38)">
<path d="M21.0904 74.1698C21.1704 68.2498 22.5204 60.7098 26.0904 58.9298C28.6104 57.6598 30.8604 57.4498 32.7704 58.3098C37.0304 60.2298 38.8204 66.9798 39.7704 70.6098C39.8804 71.0198 39.9804 71.3998 40.0704 71.7198L40.7104 71.5398C40.6171 71.2198 40.5171 70.8498 40.4104 70.4298C39.4104 66.6998 37.5704 59.7498 33.0204 57.6998C30.9204 56.7598 28.4804 56.9698 25.7704 58.3298C20.7704 60.8598 20.4404 72.8098 20.4204 74.1598L21.0904 74.1698Z" fill="#FE816F"/>
<path d="M21.54 74.98L50.71 71.98C50.71 71.98 54.18 101.08 52.71 106.84C52.2 108.9 23.25 113.21 23.25 113.21L21.54 74.98Z" fill="#FE816F"/>
<g filter="url(#filter0_i_637_38)">
<path d="M16.6901 73.0298C16.6901 72.7998 21.5401 75.0298 21.5401 75.0298L23.2701 113.22L14.0601 109.71C14.0601 109.71 15.3601 81.0998 16.6901 73.0298Z" fill="#FE816F"/>
</g>
<path d="M16.6904 73.0199L45.0905 69.3599L50.7204 71.9399L21.5404 74.9799L16.6904 73.0199Z" fill="#F5F7F9"/>
<path d="M25.8401 76.1701C25.9101 70.8901 27.2802 59.3801 31.0502 57.4901C31.9155 56.9691 32.8907 56.658 33.8979 56.5816C34.905 56.5052 35.9161 56.6656 36.8502 57.0501C41.3502 59.1601 43.2901 67.4001 44.3301 71.8301C44.5201 72.6501 44.6901 73.3701 44.8401 73.8901L45.4802 73.7101C45.3302 73.2001 45.1702 72.4901 44.9802 71.7101C43.9102 67.1701 41.9301 58.7101 37.1301 56.4801C36.1058 56.05 34.9947 55.8667 33.8865 55.9448C32.7783 56.023 31.7039 56.3605 30.7501 56.9301C26.3801 59.1201 25.2402 71.9301 25.1802 76.1901L25.8401 76.1701Z" fill="#FE816F"/>
<path d="M30.8405 57.1399C33.2405 50.7599 36.2405 38.8199 37.8405 30.8199L37.1904 30.6899C35.5804 38.6899 32.5904 50.5599 30.1904 56.9099L30.8405 57.1399Z" fill="#303030"/>
<path d="M30.0902 57.1399L30.7202 56.9099C29.4102 53.3199 27.4902 48.9099 25.4602 44.1899C23.4302 39.4699 21.4002 34.7899 19.8402 30.6299L19.2202 30.8699C20.7802 35.0399 22.8502 39.8699 24.8502 44.4499C26.8502 49.0299 28.8402 53.5699 30.0902 57.1399Z" fill="#303030"/>
<path d="M46.58 25.8C42.28 25.8 38.69 28.04 37.58 31.08C36.45 28.08 32.87 25.8 28.58 25.8C24.29 25.8 20.69 28.04 19.58 31.08C18.45 28.08 14.87 25.8 10.58 25.8C6.29002 25.8 2.50003 28.14 1.47003 31.3C1.16759 30.1406 1.00969 28.9482 1 27.75C1 16.84 13.36 8 28.61 8C43.86 8 56.21 16.84 56.21 27.75C56.206 28.9486 56.048 30.1417 55.7401 31.3C54.6601 28.15 50.99 25.8 46.58 25.8Z" fill="#FE816F"/>
<path d="M59.4508 78.1839C59.5508 78.1839 59.4508 78.4339 59.4508 78.4339C63.9808 76.5939 95.2608 75.3739 96.2608 82.2839C97.8708 93.4339 99.4908 101.204 91.0308 104.554C85.5908 106.704 73.6308 106.134 65.9308 105.424L59.7608 109.964L59.9008 104.684L59.1408 104.564C50.7308 102.964 45.9608 77.9639 59.4508 78.1839Z" fill="#303030"/>
<path d="M57.3908 85.214C57.3848 85.1742 57.3848 85.1337 57.3908 85.094C57.3983 85.0457 57.393 84.9963 57.3755 84.9507C57.3579 84.905 57.3287 84.8648 57.2908 84.834H57.2308C57.131 84.7109 57.0168 84.6001 56.8908 84.504C56.7754 84.4124 56.6516 84.332 56.5208 84.2639L56.2508 84.114C56.1694 84.0742 56.0812 84.0505 55.9908 84.0439H55.2908L55.0708 84.124C55.024 84.1313 54.9817 84.1559 54.9521 84.1929C54.9225 84.2299 54.9078 84.2767 54.9108 84.3239C54.9108 84.3239 54.9108 84.394 54.9108 84.554C54.9013 84.6871 54.9013 84.8208 54.9108 84.9539C54.9243 85.1304 54.9243 85.3075 54.9108 85.4839C54.9108 85.6939 54.9108 85.874 54.9108 86.034C54.9108 86.194 54.9108 86.344 54.9108 86.594C54.9108 86.844 54.9108 87.104 54.9108 87.364C54.9108 87.624 54.9108 87.994 54.9108 88.494C54.9108 88.994 54.9108 89.494 54.9108 89.964C54.9108 90.184 54.9108 90.424 54.9108 90.694V91.494C54.9108 91.754 54.9108 92.004 54.9108 92.244V92.864C54.8681 93.306 54.8481 93.7499 54.8508 94.194C54.8508 94.694 54.8508 95.114 54.8508 95.464C54.8508 95.814 54.8508 96.074 54.8508 96.334C54.8508 96.594 54.8508 96.8239 55.0008 96.8239H55.1508C55.1776 96.8091 55.2011 96.7891 55.2199 96.765C55.2388 96.741 55.2527 96.7134 55.2608 96.684C55.2742 96.5844 55.2742 96.4835 55.2608 96.384C55.2608 96.244 55.2608 96.0339 55.2608 95.7639C55.2608 95.4939 55.2608 95.124 55.2608 94.664V93.854C55.2608 93.584 55.2608 93.324 55.2608 93.084C55.2608 92.844 55.2608 92.644 55.2608 92.464C55.2608 92.284 55.2608 92.1639 55.2608 92.0739C55.2608 91.9839 55.2608 91.874 55.2608 91.714C55.2608 91.554 55.2608 91.354 55.2608 91.144C55.2608 90.934 55.2608 90.6939 55.2608 90.4539C55.2608 90.2139 55.2608 89.964 55.2608 89.724V87.5739C55.2608 87.4539 55.2608 87.234 55.2608 86.934C55.2608 86.634 55.2608 86.344 55.3508 86.054C55.4408 85.764 55.3508 85.5039 55.3508 85.2639C55.3508 85.0239 55.3508 84.854 55.3508 84.784C55.3508 84.714 55.3508 84.634 55.3508 84.634C55.4065 84.6027 55.4676 84.5823 55.5309 84.5739H55.8808H56.0909C56.1639 84.5917 56.2345 84.6186 56.3008 84.654C56.4008 84.704 56.4308 84.744 56.4308 84.754V84.854H56.6408C56.6719 84.9048 56.7088 84.9518 56.7508 84.994C56.7949 85.038 56.8321 85.0886 56.8608 85.144L56.9908 85.354C57.0237 85.4283 57.0505 85.5052 57.0708 85.584C57.0788 85.6604 57.0788 85.7375 57.0708 85.814C57.0858 85.9033 57.0858 85.9946 57.0708 86.084C57.085 86.2269 57.085 86.371 57.0708 86.5139C57.0797 86.6505 57.0797 86.7874 57.0708 86.924C57.0596 87.0307 57.0326 87.1351 56.9908 87.2339C56.9908 87.2939 56.9908 87.374 56.9908 87.464C56.9786 87.5535 56.9786 87.6444 56.9908 87.7339C57.0006 87.7835 57.0006 87.8344 56.9908 87.884C56.9876 87.9306 56.9876 87.9773 56.9908 88.024C56.9048 88.1836 56.8441 88.3557 56.8109 88.534C56.7702 88.6453 56.7129 88.7498 56.6408 88.844C56.6124 88.8449 56.5844 88.8515 56.5587 88.8636C56.5329 88.8756 56.5098 88.8927 56.4908 88.914C56.4678 88.9336 56.4496 88.9582 56.4374 88.9859C56.4253 89.0136 56.4196 89.0437 56.4208 89.0739H56.3208C56.265 89.0742 56.2114 89.0957 56.1708 89.134C56.1418 89.161 56.121 89.1956 56.1108 89.2339L55.8508 89.394L55.5909 89.4839C55.5909 89.4839 55.4508 89.544 55.4208 89.624L55.3409 89.7039C55.3027 89.7486 55.2814 89.8052 55.2809 89.864C55.2808 89.8845 55.285 89.9049 55.2931 89.9238C55.3013 89.9426 55.3132 89.9597 55.3282 89.9737C55.3433 89.9878 55.361 89.9986 55.3804 90.0056C55.3997 90.0125 55.4203 90.0153 55.4408 90.0139C55.5494 90.0391 55.6623 90.0391 55.7708 90.0139L56.0508 89.864C56.1382 89.8288 56.2219 89.7852 56.3008 89.7339C56.3608 89.6739 56.4208 89.634 56.4408 89.604C56.467 89.5967 56.4947 89.5967 56.5208 89.604C56.5996 89.5934 56.673 89.5584 56.7308 89.504C56.8055 89.4564 56.8673 89.3911 56.9108 89.314C57.0008 89.2087 57.075 89.0907 57.1308 88.964C57.1996 88.8268 57.2532 88.6827 57.2908 88.534C57.3561 88.4174 57.4065 88.2931 57.4408 88.164C57.4546 88.0846 57.4546 88.0034 57.4408 87.924C57.4408 87.924 57.4408 87.864 57.4408 87.694C57.4408 87.524 57.5009 87.444 57.5309 87.314C57.5736 87.1329 57.6037 86.9491 57.6209 86.7639C57.6351 86.5609 57.6351 86.357 57.6209 86.154C57.6337 85.9642 57.6337 85.7737 57.6209 85.584C57.6129 85.5089 57.5881 85.4367 57.5482 85.3726C57.5084 85.3085 57.4546 85.2543 57.3908 85.214Z" fill="white"/>
<path d="M65.5609 95.7141C65.5405 95.5821 65.5104 95.4518 65.4709 95.3241L65.3809 94.9541C65.3646 94.8838 65.3376 94.8164 65.3009 94.7542C65.2665 94.6268 65.2463 94.496 65.2409 94.3641C65.2377 94.2426 65.2209 94.1219 65.1909 94.0042C65.1703 93.9068 65.1367 93.8126 65.0909 93.7242C65.0988 93.631 65.0988 93.5373 65.0909 93.4442C65.0838 93.3576 65.0838 93.2707 65.0909 93.1841C65.0909 93.0741 65.0109 92.9241 64.9409 92.7041C64.8709 92.4841 64.8109 92.2741 64.7409 92.0641C64.6709 91.8541 64.6109 91.6441 64.5609 91.4341C64.513 91.2849 64.4828 91.1305 64.4709 90.9742C64.485 90.8579 64.485 90.7404 64.4709 90.6241V90.4142V90.3241H64.4109C64.4109 90.3241 64.4109 90.3241 64.4109 90.2641C64.3967 90.1536 64.3664 90.0458 64.3209 89.9442C64.3209 89.7742 64.2009 89.5741 64.1409 89.3441C64.0809 89.1141 64.0509 88.8542 64.0009 88.6042C63.9509 88.3542 63.9009 88.1941 63.8609 88.0941C63.8704 87.9476 63.8704 87.8007 63.8609 87.6541C63.8421 87.5294 63.805 87.4081 63.7509 87.2941C63.7102 87.1933 63.6768 87.0897 63.6509 86.9841L63.5409 86.5441C63.5409 86.4041 63.4709 86.2741 63.4409 86.1441C63.4214 86.0494 63.3803 85.9605 63.3209 85.8842C63.2945 85.8031 63.2778 85.7192 63.2709 85.6342C63.2582 85.5189 63.2348 85.405 63.2009 85.2941C63.1972 85.1661 63.1804 85.0388 63.1509 84.9142C63.1209 84.7833 63.0629 84.6605 62.9809 84.5541C62.9809 84.4541 62.9009 84.3241 62.8409 84.1541C62.7109 84.0041 62.6909 84.0041 62.6709 83.9941H62.6209C62.5125 84.0141 62.4158 84.075 62.3509 84.1642C62.3509 84.2342 62.2709 84.3141 62.2209 84.4041C62.1758 84.4919 62.1454 84.5865 62.1309 84.6841C62.1309 84.7841 62.0709 84.9542 61.9509 85.1942C61.8621 85.4301 61.7854 85.6704 61.7209 85.9142C61.6071 86.131 61.5069 86.3548 61.4209 86.5841C61.3309 86.8141 61.2709 86.9741 61.2309 87.0441C61.1824 87.1906 61.1257 87.3341 61.0609 87.4742C60.9784 87.6537 60.9147 87.8414 60.8709 88.0341C60.8709 88.2041 60.7909 88.3841 60.7409 88.5641L60.6009 88.9941C60.5582 89.1118 60.4937 89.2203 60.4109 89.3141C60.4109 89.3141 60.4109 89.3741 60.2909 89.5741C60.1914 89.7681 60.1143 89.9728 60.0609 90.1841C59.9609 90.3941 59.8609 90.6041 59.7709 90.8141C59.7106 90.9423 59.6637 91.0764 59.6309 91.2141C59.6253 91.2971 59.605 91.3783 59.5709 91.4541L59.4409 91.7141C59.3854 91.7928 59.3447 91.8809 59.3209 91.9742C59.3209 92.0842 59.2509 92.1941 59.2209 92.2941C59.1711 92.4063 59.1342 92.5237 59.1109 92.6441C59.1109 92.7941 59.0409 92.9441 59.0109 93.0741C58.9809 93.2041 58.9409 93.3542 58.9109 93.4742C58.9044 93.5607 58.9044 93.6476 58.9109 93.7341C58.9183 93.8039 58.9183 93.8743 58.9109 93.9442C58.9109 94.0642 58.8509 94.1941 58.8209 94.3341C58.7847 94.4774 58.7379 94.6178 58.6809 94.7542C58.6492 94.838 58.609 94.9184 58.5609 94.9941C58.515 95.0974 58.4781 95.2045 58.4509 95.3141C58.4509 95.4441 58.3809 95.5741 58.3509 95.7141C58.3103 95.8252 58.2769 95.9388 58.2509 96.0541C58.2278 96.1327 58.2111 96.2129 58.2009 96.2941C58.1916 96.3392 58.1922 96.3858 58.2025 96.4307C58.2129 96.4756 58.2328 96.5177 58.2609 96.5541C58.2835 96.5626 58.3084 96.5626 58.3309 96.5541C58.3431 96.5672 58.3578 96.5776 58.3741 96.5847C58.3905 96.5918 58.4081 96.5954 58.4259 96.5954C58.4437 96.5954 58.4614 96.5918 58.4777 96.5847C58.4941 96.5776 58.5088 96.5672 58.5209 96.5541L58.6409 96.4541C58.703 96.3936 58.7478 96.3177 58.7709 96.2341C58.8136 96.133 58.8503 96.0295 58.8809 95.9241C58.8725 95.8544 58.8725 95.7839 58.8809 95.7141C58.8872 95.6476 58.8872 95.5806 58.8809 95.5141C58.8775 95.4642 58.8775 95.4141 58.8809 95.3641C58.8809 95.2741 58.9409 95.2342 58.9609 95.2242C59.0117 95.1299 59.0488 95.0289 59.0709 94.9241C59.0709 94.8041 59.1409 94.6941 59.1809 94.5841C59.2209 94.4741 59.2609 94.2841 59.3209 94.0941C59.3809 93.9041 59.4209 93.7442 59.4509 93.6042L59.5509 93.2041C59.5827 93.1004 59.5996 92.9927 59.6009 92.8842C59.5938 92.8077 59.5938 92.7306 59.6009 92.6541L59.6909 92.3641L59.8109 92.1342H60.0909H60.7409H61.7409H63.7409C63.9608 92.1219 64.1811 92.1219 64.4009 92.1342C64.4134 92.128 64.427 92.1248 64.4409 92.1248C64.4548 92.1248 64.4685 92.128 64.4809 92.1342C64.5026 92.323 64.5497 92.508 64.6209 92.6841C64.6909 92.9641 64.7609 93.2941 64.8209 93.6841C64.8209 93.8241 64.8909 93.9642 64.9209 94.1042C64.9286 94.1873 64.9286 94.271 64.9209 94.3542C64.9133 94.4507 64.9133 94.5476 64.9209 94.6441C64.9209 94.7941 64.9709 94.9641 65.0009 95.1441C65.0309 95.3241 65.0709 95.4841 65.1109 95.6541C65.1509 95.8241 65.1709 95.9341 65.1909 96.0141C65.2109 96.0941 65.3209 96.3741 65.3609 96.4641C65.4009 96.5541 65.4709 96.6441 65.5609 96.6441C65.6037 96.6543 65.6482 96.6543 65.6909 96.6441C65.7609 96.6441 65.7909 96.5541 65.7909 96.4641C65.8303 96.3796 65.8507 96.2874 65.8507 96.1942C65.8507 96.1009 65.8303 96.0087 65.7909 95.9241C65.7257 95.8426 65.6481 95.7717 65.5609 95.7141ZM61.1109 88.2441C61.1039 88.171 61.1039 88.0973 61.1109 88.0241C61.1358 87.9456 61.1658 87.8687 61.2009 87.7941C61.259 87.6811 61.3091 87.5642 61.3509 87.4442L61.5509 86.9442C61.6209 86.7742 61.7109 86.5441 61.8109 86.2641C61.9109 85.9841 62.0109 85.7242 62.1209 85.4742C62.2309 85.2242 62.2809 84.9741 62.3309 84.8441C62.334 84.8941 62.334 84.9442 62.3309 84.9941C62.3395 85.0973 62.3395 85.201 62.3309 85.3041C62.3328 85.433 62.353 85.561 62.3909 85.6841C62.4277 85.8108 62.4816 85.9319 62.5509 86.0441C62.5509 86.1441 62.6109 86.2441 62.6409 86.3641C62.6514 86.4538 62.6514 86.5445 62.6409 86.6342C62.6461 86.7357 62.6628 86.8364 62.6909 86.9341C62.7104 87.0382 62.744 87.1392 62.7909 87.2341C62.8301 87.3355 62.8635 87.439 62.8909 87.5441C62.9158 87.6696 62.9492 87.7932 62.9909 87.9142C62.9768 88.0237 62.9768 88.1346 62.9909 88.2441C62.9909 88.3941 62.9909 88.4341 62.9909 88.4541C62.9801 88.5103 62.9801 88.568 62.9909 88.6241V88.7341C62.9909 88.7341 62.9909 88.7841 63.0709 88.9241C63.1509 89.0641 63.1409 89.1741 63.1809 89.3141L63.2709 89.7141C63.2816 89.8072 63.2816 89.9011 63.2709 89.9941C63.3061 90.0415 63.33 90.0962 63.3409 90.1541C63.3562 90.2435 63.3562 90.3348 63.3409 90.4241C63.3278 90.5137 63.3278 90.6046 63.3409 90.6942C63.3493 90.7639 63.3493 90.8344 63.3409 90.9041C63.3278 90.9937 63.3278 91.0846 63.3409 91.1741C63.3489 91.2506 63.3489 91.3277 63.3409 91.4041V91.5441H63.1209H62.7209C62.5317 91.5685 62.3401 91.5685 62.1509 91.5441H61.3909C61.1009 91.5441 60.8309 91.5442 60.6009 91.6042H59.9709C59.8211 91.5942 59.6708 91.5942 59.5209 91.6042L59.2309 91.5441C59.2216 91.5081 59.2216 91.4702 59.2309 91.4341C59.2414 91.3813 59.2414 91.327 59.2309 91.2741C59.2585 91.1394 59.3022 91.0085 59.3609 90.8842L59.5009 90.5441C59.5583 90.4001 59.6084 90.2533 59.6509 90.1042C59.7347 89.9682 59.8114 89.828 59.8809 89.6841C59.9564 89.5269 60.0167 89.3629 60.0609 89.1942L60.2509 88.8141C60.3067 88.7231 60.3409 88.6204 60.3509 88.5141C60.4343 88.3962 60.5521 88.307 60.6881 88.2587C60.8242 88.2104 60.9719 88.2053 61.1109 88.2441Z" fill="white"/>
<path d="M69.641 84.0538C69.541 84.0538 69.471 84.1538 69.411 84.2738C69.351 84.3938 69.291 84.5038 69.221 84.6338C69.151 84.7638 69.091 84.8938 69.031 85.0038C68.9961 85.0806 68.9408 85.1463 68.871 85.1938L68.771 85.3938C68.7383 85.4481 68.721 85.5103 68.721 85.5738L68.671 85.6438L68.551 85.7838L68.441 85.8638C68.3839 85.8974 68.3412 85.9507 68.321 86.0138C68.221 86.2338 68.131 86.3938 68.071 86.5238C67.9684 86.6728 67.8781 86.83 67.801 86.9938V87.0638V86.9038C67.7641 86.7723 67.7138 86.645 67.651 86.5238C67.5849 86.325 67.5047 86.1311 67.411 85.9438C67.312 85.7337 67.1841 85.5384 67.031 85.3638C66.9142 85.2073 66.8073 85.0437 66.711 84.8738L66.431 84.3738C66.3636 84.2749 66.3034 84.1713 66.251 84.0638C66.171 83.9238 66.101 83.8638 66.031 83.8638H65.901C65.8637 83.8836 65.8332 83.9143 65.8135 83.9518C65.7939 83.9893 65.786 84.0318 65.791 84.0738C65.791 84.0738 65.791 84.1738 65.791 84.2738C65.8116 84.3852 65.8559 84.491 65.921 84.5838C65.9566 84.6837 66 84.7807 66.051 84.8738C66.0879 84.9382 66.1315 84.9985 66.181 85.0538C66.1975 85.1159 66.2324 85.1717 66.281 85.2138L66.471 85.4138C66.5167 85.4626 66.5569 85.5162 66.591 85.5738C66.6382 85.6358 66.6785 85.7029 66.711 85.7738C66.7123 85.8434 66.7294 85.9118 66.761 85.9738C66.7773 86.0198 66.8091 86.0587 66.851 86.0838L66.961 86.3638C67.041 86.5238 67.111 86.7138 67.191 86.9238C67.2747 87.0785 67.3385 87.2431 67.381 87.4138C67.381 87.4738 67.381 87.5038 67.381 87.5238V87.5738C67.3359 87.6679 67.3088 87.7697 67.301 87.8738C67.3055 87.9379 67.3261 87.9998 67.361 88.0538C67.3851 88.1009 67.4154 88.1446 67.451 88.1838C67.4465 88.2537 67.4465 88.3238 67.451 88.3938C67.451 88.5038 67.451 88.6438 67.451 88.8138C67.451 88.9838 67.451 89.2038 67.451 89.6138C67.451 90.0238 67.451 90.4138 67.451 90.8038C67.451 91.0138 67.451 91.2338 67.451 91.4738C67.451 91.7138 67.451 91.9538 67.451 92.1838C67.451 92.4138 67.451 92.6538 67.451 92.8638C67.451 93.0738 67.451 93.2538 67.451 93.4038C67.451 93.7338 67.451 94.1138 67.451 94.5238C67.451 94.9338 67.451 95.2838 67.451 95.5238C67.4341 95.7768 67.4341 96.0307 67.451 96.2838C67.4612 96.3933 67.5029 96.4974 67.571 96.5838H67.641C67.6813 96.5866 67.7215 96.5765 67.7557 96.5549C67.7898 96.5333 67.8162 96.5014 67.831 96.4638C67.8782 96.405 67.9123 96.3368 67.931 96.2638C67.9471 96.1611 67.9471 96.0565 67.931 95.9538C67.9499 95.7445 67.9261 95.5336 67.861 95.3338C67.861 95.3338 67.861 95.1938 67.861 94.9138C67.861 94.6338 67.861 94.3438 67.861 93.9138V92.9638C67.8592 92.6595 67.8391 92.3556 67.801 92.0538C67.801 91.8238 67.801 91.4638 67.801 91.0038C67.801 90.5438 67.801 90.0838 67.801 89.6538V88.2738C67.801 88.1338 67.801 88.0738 67.801 88.0438C67.7975 88.0273 67.7975 88.0103 67.801 87.9938C67.8686 87.9173 67.932 87.8372 67.991 87.7538C68.081 87.6338 68.171 87.5038 68.281 87.3738L68.641 86.9638C68.698 86.8679 68.7386 86.7631 68.761 86.6538C68.8234 86.5571 68.8801 86.457 68.931 86.3538C69.0126 86.1943 69.086 86.0307 69.151 85.8638C69.2632 85.6804 69.3633 85.49 69.451 85.2938L69.681 84.8038C69.7791 84.6527 69.8533 84.4875 69.901 84.3138C69.8968 84.254 69.8721 84.1974 69.831 84.1538C69.8113 84.1216 69.7832 84.0953 69.7497 84.0777C69.7163 84.0601 69.6787 84.0518 69.641 84.0538Z" fill="white"/>
<path d="M77.221 86.0539C77.2092 85.9075 77.2092 85.7603 77.221 85.6139C77.2159 85.4695 77.1992 85.3257 77.171 85.1839C77.171 85.0239 77.111 84.8639 77.071 84.7039L76.921 84.2639C76.9052 84.2163 76.8791 84.1728 76.8446 84.1365C76.81 84.1002 76.7678 84.072 76.721 84.0539H76.491C76.4296 84.0739 76.3721 84.1043 76.321 84.1439L76.221 84.2639C76.1983 84.2859 76.1804 84.3124 76.1683 84.3416C76.1563 84.3709 76.1504 84.4023 76.151 84.4339V84.8039C76.1439 84.8661 76.127 84.9269 76.101 84.9839C76.101 85.0939 76.031 85.2239 76.001 85.3739C75.957 85.5268 75.9335 85.6848 75.931 85.8439C75.9339 85.8905 75.9339 85.9373 75.931 85.9839C75.9274 86.05 75.9103 86.1146 75.881 86.1739C75.8272 86.2915 75.7902 86.416 75.771 86.5439C75.7406 86.7022 75.7238 86.8628 75.721 87.0239C75.7288 87.1571 75.7288 87.2907 75.721 87.4239C75.721 87.6239 75.661 87.8339 75.621 88.0539C75.581 88.2739 75.561 88.4839 75.521 88.6739C75.481 88.8639 75.461 88.9739 75.451 89.0139C75.441 89.0539 75.371 89.2139 75.311 89.3739C75.2532 89.5309 75.2227 89.6966 75.221 89.8639C75.2205 89.9988 75.2037 90.1331 75.171 90.2639C75.1495 90.3662 75.1194 90.4666 75.081 90.5639C75.011 90.7339 74.991 90.7939 75.001 90.8339C74.9665 90.9712 74.9197 91.1051 74.861 91.2339C74.8118 91.3506 74.7717 91.471 74.741 91.5939C74.741 91.7439 74.671 91.8739 74.631 91.9839C74.627 92.0987 74.6103 92.2128 74.581 92.3239C74.5618 92.4171 74.5316 92.5078 74.491 92.5939C74.4433 92.6615 74.4155 92.7412 74.411 92.8239C74.3951 92.9026 74.3717 92.9797 74.341 93.0539C74.341 93.1539 74.341 93.2639 74.341 93.3639C74.3354 93.4468 74.3151 93.5281 74.281 93.6039C74.2367 93.7308 74.2032 93.8613 74.181 93.9939C74.1539 94.1257 74.1372 94.2595 74.131 94.3939C74.1187 94.3522 74.1019 94.312 74.081 94.2739C74.0527 94.2037 74.0359 94.1294 74.031 94.0539C74.0275 93.994 74.0275 93.9339 74.031 93.8739C74.0322 93.7944 74.0151 93.7157 73.981 93.6439V93.5739C73.981 93.5739 73.981 93.5739 73.901 93.3239C73.885 93.1576 73.885 92.9902 73.901 92.8239C73.9133 92.5874 73.9133 92.3504 73.901 92.1139C73.901 91.8239 73.901 91.5639 73.901 91.3439C73.9119 91.1341 73.9119 90.9238 73.901 90.7139C73.8929 90.6041 73.8929 90.4938 73.901 90.3839C73.9094 90.2908 73.9094 90.1971 73.901 90.1039V89.9339C73.9 89.8221 73.8831 89.711 73.851 89.6039C73.825 89.482 73.7916 89.3618 73.751 89.2439L73.641 88.8739C73.641 88.7439 73.571 88.6139 73.531 88.4939C73.4836 88.3731 73.4436 88.2495 73.411 88.1239C73.3754 87.9463 73.3148 87.7746 73.231 87.6139L73.131 87.0439C73.091 86.8439 73.051 86.6639 73.011 86.5039C73.011 86.4039 72.941 86.2639 72.901 86.1039C72.861 85.9439 72.831 85.8039 72.791 85.6939L72.641 85.2639C72.5804 85.0912 72.5336 84.914 72.501 84.7339C72.4371 84.6037 72.3804 84.4702 72.331 84.3339C72.3084 84.2502 72.2634 84.1741 72.201 84.1139C72.1323 84.0372 72.0428 83.9822 71.9434 83.9555C71.8439 83.9289 71.7389 83.9318 71.641 83.9639H71.591C71.5609 83.9634 71.531 83.9694 71.5034 83.9815C71.4758 83.9936 71.4511 84.0114 71.431 84.0339C71.4113 84.0498 71.3949 84.0695 71.3829 84.0918C71.3709 84.1142 71.3634 84.1387 71.361 84.1639C71.3161 84.2278 71.2822 84.2988 71.261 84.3739C71.2237 84.4867 71.2068 84.6052 71.211 84.7239C71.2215 84.8203 71.2215 84.9175 71.211 85.0139C71.2001 85.0902 71.2001 85.1676 71.211 85.2439C71.211 85.2939 71.211 85.4339 71.211 85.8339C71.211 86.2339 71.211 86.5239 71.211 86.9339C71.211 87.1439 71.211 87.4139 71.211 87.7739C71.211 88.1339 71.211 88.5139 71.211 88.9539C71.211 89.3939 71.211 89.8339 71.211 90.3039C71.211 90.7739 71.211 91.2339 71.211 91.6839C71.211 92.1339 71.211 92.5939 71.211 93.0639C71.211 93.5339 71.211 93.9639 71.161 94.3639V95.3639C71.161 95.6239 71.161 95.7639 71.161 95.7739C71.1733 95.8568 71.1733 95.941 71.161 96.0239C71.1512 96.1337 71.1512 96.2441 71.161 96.3539C71.1189 96.4668 71.1189 96.591 71.161 96.7039C71.173 96.7401 71.1957 96.7719 71.226 96.7951C71.2563 96.8183 71.2929 96.8318 71.331 96.8339C71.4323 96.8297 71.53 96.7948 71.611 96.7339V96.5639C71.6242 96.471 71.6242 96.3768 71.611 96.2839C71.611 96.2839 71.611 96.1939 71.611 96.1039C71.6171 96.0286 71.6339 95.9545 71.661 95.8839C71.661 95.8839 71.661 95.7239 71.661 95.4939C71.661 95.2639 71.661 94.9839 71.711 94.6539C71.761 94.3239 71.711 93.9639 71.761 93.5839C71.811 93.2039 71.761 92.8239 71.761 92.4739C71.761 92.1239 71.761 91.8339 71.761 91.5239C71.761 91.2139 71.761 90.9539 71.761 90.7239C71.761 90.4939 71.761 90.2439 71.761 89.9639V85.9639C71.745 85.7976 71.745 85.6302 71.761 85.4639C71.761 85.4639 71.761 85.3939 71.761 85.3639C71.761 85.3339 71.841 85.5939 71.891 85.7339C71.9357 85.8561 71.9627 85.9841 71.971 86.1139C71.971 86.2239 72.051 86.3839 72.111 86.6139C72.171 86.8439 72.221 87.0639 72.261 87.2939C72.301 87.5239 72.391 87.7139 72.441 87.8739C72.4566 87.9729 72.498 88.066 72.561 88.1439C72.557 88.2005 72.557 88.2573 72.561 88.3139L72.661 88.6339C72.7054 88.765 72.7422 88.8986 72.771 89.0339C72.771 89.1939 72.851 89.3239 72.881 89.4339C72.8723 89.5537 72.8723 89.6741 72.881 89.7939C72.892 89.8936 72.892 89.9942 72.881 90.0939C72.8703 90.1635 72.8703 90.2343 72.881 90.3039C72.8899 90.3803 72.8899 90.4575 72.881 90.5339C72.8721 90.6504 72.8721 90.7674 72.881 90.8839C72.8973 91.0869 72.8973 91.2909 72.881 91.4939C72.881 91.7139 72.881 91.9739 72.881 92.2739C72.8933 92.5071 72.8933 92.7407 72.881 92.9739C72.8641 93.1402 72.8641 93.3077 72.881 93.4739C72.887 93.5538 72.887 93.634 72.881 93.7139C72.931 93.7839 72.931 93.8039 72.931 93.8039C72.9433 93.9218 72.9633 94.0387 72.991 94.1539C72.991 94.3439 73.061 94.5239 73.091 94.7139C73.121 94.9039 73.171 95.0939 73.231 95.2839C73.2683 95.4047 73.2951 95.5285 73.311 95.6539C73.311 95.6539 73.311 95.6539 73.371 95.8339C73.3775 95.8655 73.3919 95.8949 73.4129 95.9194C73.4339 95.9439 73.4608 95.9627 73.491 95.9739C73.5356 96.0161 73.5947 96.0396 73.656 96.0396C73.7174 96.0396 73.7765 96.0161 73.821 95.9739C73.8646 95.9181 73.9238 95.8763 73.991 95.8539H74.071V95.7139C74.071 95.5739 74.071 95.5439 74.071 95.5439C74.06 95.4442 74.06 95.3436 74.071 95.2439C74.0818 95.0941 74.0818 94.9437 74.071 94.7939C74.0603 94.6608 74.0603 94.527 74.071 94.3939C74.071 94.2139 74.071 94.1539 74.071 94.1339C74.0674 94.0673 74.0674 94.0005 74.071 93.9339C74.0814 93.8388 74.1015 93.7449 74.131 93.6539C74.1707 93.5584 74.1944 93.4571 74.201 93.3539V93.0939C74.2053 93.0151 74.2222 92.9374 74.251 92.8639C74.2783 92.7847 74.3117 92.7079 74.351 92.6339C74.3931 92.5745 74.4206 92.506 74.431 92.4339C74.431 92.3139 74.431 92.2739 74.481 92.2739C74.4714 92.2109 74.4714 92.1469 74.481 92.0839C74.4907 91.9975 74.4907 91.9103 74.481 91.8239C74.4919 91.7095 74.5223 91.5979 74.571 91.4939L74.781 90.8839C74.781 90.7039 74.861 90.4939 74.911 90.2839C74.9562 90.117 74.9863 89.9463 75.001 89.7739C75.001 89.6639 75.071 89.5139 75.111 89.3239C75.151 89.1339 75.181 88.9639 75.221 88.8239C75.261 88.6839 75.221 88.7039 75.311 88.3939L75.451 87.6539L75.601 86.8639C75.651 86.6039 75.681 86.4039 75.701 86.2639C75.721 86.1239 75.781 85.7639 75.831 85.5139C75.8683 85.3756 75.8984 85.2354 75.921 85.0939C75.921 85.0939 75.921 85.0939 75.921 85.1539L76.021 85.6539C76.021 85.7739 76.021 85.9739 76.021 86.2739C76.021 86.5739 76.021 86.8939 76.021 87.2739V88.2739C76.021 88.6139 76.021 88.8939 76.021 89.0939C76.021 89.6739 76.021 90.1439 76.021 90.4739C76.0152 90.7448 75.9952 91.0151 75.961 91.2839L75.861 91.7139C75.8514 91.827 75.8514 91.9408 75.861 92.0539C75.8679 92.1671 75.8679 92.2807 75.861 92.3939C75.861 92.5939 75.861 92.8339 75.861 93.0739C75.861 93.3139 75.861 93.6439 75.801 93.9739C75.741 94.3039 75.801 94.6039 75.801 94.8639V95.9639C75.7694 96.0509 75.7493 96.1417 75.741 96.2339C75.741 96.3339 75.741 96.4239 75.741 96.5039C75.7703 96.5288 75.7941 96.5594 75.811 96.5939C75.8379 96.6253 75.8719 96.6499 75.9101 96.6655C75.9484 96.6812 75.9899 96.6875 76.031 96.6839C76.161 96.6039 76.211 96.5339 76.211 96.4639C76.211 96.3939 76.211 96.2539 76.211 95.9339C76.211 95.6139 76.211 95.2339 76.211 94.8239C76.211 94.4139 76.211 94.0139 76.211 93.6039C76.211 93.1939 76.211 92.9139 76.211 92.7539C76.2144 92.553 76.2311 92.3526 76.261 92.1539C76.2834 91.9622 76.3168 91.7718 76.361 91.5839C76.361 91.4039 76.431 91.1439 76.461 90.8439C76.491 90.5439 76.511 90.1239 76.511 89.6439C76.511 89.4639 76.511 89.2139 76.511 88.9039L76.561 87.9539C76.561 87.6439 76.561 87.3539 76.611 87.0939C76.6287 86.921 76.6287 86.7468 76.611 86.5739C77.261 86.4239 77.241 86.2539 77.221 86.0539Z" fill="white"/>
<path d="M83.7309 96.234H83.5309C83.4696 96.2373 83.4106 96.2581 83.3609 96.294C83.285 96.3099 83.2067 96.3099 83.1309 96.294H82.5509C82.3681 96.3137 82.1837 96.3137 82.0009 96.294C81.8924 96.2797 81.7854 96.2563 81.6809 96.224L81.3209 96.144C81.0278 96.1266 80.7339 96.1266 80.4409 96.144C80.3313 96.1576 80.2205 96.1576 80.1109 96.144H79.8609L79.7309 96.094C79.6629 96.004 79.6121 95.9023 79.5809 95.794C79.5668 95.6777 79.5668 95.5602 79.5809 95.444V94.984C79.5809 94.904 79.5809 94.774 79.5809 94.584C79.5903 94.4008 79.5903 94.2172 79.5809 94.034C79.5809 93.844 79.5809 93.644 79.5809 93.444C79.5809 93.244 79.5809 93.074 79.5809 92.964C79.5705 92.8676 79.5705 92.7704 79.5809 92.674C79.5882 92.6042 79.5882 92.5338 79.5809 92.464C79.5809 92.414 79.5809 92.344 79.5809 92.244C79.5908 92.1275 79.5908 92.0104 79.5809 91.894V91.224V91.074H79.7109C79.7701 91.0603 79.8316 91.0603 79.8909 91.074C79.9705 91.0636 80.0512 91.0636 80.1309 91.074H81.6409C81.6926 91.0923 81.7491 91.0923 81.8009 91.074C81.8365 91.0447 81.864 91.0069 81.8809 90.964C81.9261 90.9026 81.9538 90.83 81.9609 90.754V90.654H81.1609H80.6309H79.6409C79.6343 90.5441 79.6343 90.4339 79.6409 90.324C79.6409 90.124 79.6409 89.894 79.6409 89.634C79.6409 89.374 79.6409 89.074 79.7009 88.684V88.634C79.7112 88.5778 79.7112 88.5202 79.7009 88.464C79.7009 88.464 79.7009 88.324 79.7009 88.044C79.7009 87.764 79.7009 87.554 79.7009 87.274C79.7009 86.994 79.7009 86.634 79.7009 86.274C79.7009 85.914 79.7009 85.654 79.7009 85.464C79.7009 85.274 79.7009 85.054 79.7009 84.904C79.6934 84.861 79.6934 84.817 79.7009 84.774C79.8005 84.7615 79.9012 84.7615 80.0009 84.774L80.3509 84.864L80.6709 84.944L80.9209 85.014L81.3109 85.084L81.7109 85.144L82.0009 85.194L82.3609 85.304C82.3892 85.3122 82.4139 85.3299 82.4309 85.354C82.4169 85.3893 82.4169 85.4286 82.4309 85.464H82.4809C82.4809 85.464 82.5509 85.464 82.6909 85.304C82.7526 85.2418 82.8095 85.175 82.8609 85.104C82.8731 85.0683 82.8731 85.0296 82.8609 84.994C82.847 84.955 82.8228 84.9204 82.7909 84.894C82.7256 84.8327 82.6403 84.7972 82.5509 84.794C82.4214 84.7782 82.2904 84.7782 82.1609 84.794L81.7809 84.704C81.6309 84.704 81.5909 84.654 81.5909 84.644H81.4209H81.1709H80.9009H80.6909C80.6148 84.6574 80.537 84.6574 80.4609 84.644H80.3909V84.584H80.6409H80.5709C80.5211 84.5773 80.4706 84.5773 80.4209 84.584C80.4209 84.584 80.4209 84.584 80.3509 84.584L80.1809 84.474C80.1183 84.438 80.051 84.411 79.9809 84.394C79.9182 84.381 79.8535 84.381 79.7909 84.394H79.7109C79.6845 84.3974 79.6598 84.4088 79.6402 84.4267C79.6205 84.4446 79.6068 84.4681 79.6009 84.494C79.5708 84.5357 79.5503 84.5835 79.5409 84.634C79.5409 84.684 79.5409 84.724 79.5409 84.764C79.5409 84.804 79.5409 84.864 79.5409 85.274C79.5409 85.684 79.5409 85.964 79.5409 86.384C79.5409 86.804 79.5409 87.244 79.5409 87.594C79.5409 87.944 79.5409 88.184 79.5409 88.304C79.5482 88.4139 79.5482 88.5241 79.5409 88.634C79.5231 88.7624 79.4964 88.8893 79.4609 89.014C79.4609 89.124 79.4609 89.294 79.4609 89.534C79.4609 89.774 79.4609 89.994 79.4609 90.194V92.194C79.4699 92.3472 79.4699 92.5008 79.4609 92.654C79.453 92.7939 79.453 92.9341 79.4609 93.074C79.4197 93.2549 79.3929 93.4388 79.3809 93.624C79.3809 93.874 79.3809 94.134 79.3809 94.384C79.3809 94.634 79.3809 94.824 79.3809 95.044C79.3809 95.264 79.3809 95.394 79.3809 95.454C79.3809 95.514 79.3809 95.684 79.3809 95.884C79.3955 96.0392 79.4223 96.193 79.4609 96.344C79.4609 96.484 79.4609 96.624 79.4609 96.754C79.467 96.8406 79.467 96.9274 79.4609 97.014C79.4559 97.0672 79.4559 97.1208 79.4609 97.174C79.4609 97.274 79.5209 97.314 79.5609 97.324C79.603 97.3384 79.6487 97.3384 79.6909 97.324C79.7481 97.3211 79.8019 97.296 79.8409 97.254C79.8752 97.2067 79.9053 97.1565 79.9309 97.104C79.9458 97.0415 79.9458 96.9765 79.9309 96.914H80.0009C80.0873 96.9045 80.1745 96.9045 80.2609 96.914C80.5509 96.914 80.8709 96.914 81.1609 96.964H81.5809H81.9209L82.3509 97.044L82.7109 97.104C82.7784 97.1302 82.8533 97.1302 82.9209 97.104H83.0909C83.2073 97.0928 83.3245 97.0928 83.4409 97.104H83.5509C83.8009 97.104 83.9409 97.104 83.9809 97.004C84.0165 96.9579 84.0374 96.9021 84.0409 96.844C84.0499 96.8045 84.0499 96.7635 84.0409 96.724C84.1058 96.6829 84.1518 96.6176 84.1687 96.5426C84.1856 96.4676 84.172 96.3889 84.1309 96.324C84.0898 96.259 84.0245 96.213 83.9495 96.1961C83.8745 96.1793 83.7958 96.1929 83.7309 96.234Z" fill="white"/>
<path d="M89.2312 86.0538C89.2312 85.7338 89.2312 85.4638 89.2312 85.2238C89.2312 84.9838 89.2312 84.8438 89.2312 84.7638C89.2312 84.6838 89.2312 84.4338 89.2312 84.3038C89.2363 84.215 89.2116 84.127 89.1611 84.0538C89.1499 84.041 89.136 84.0308 89.1205 84.0238C89.105 84.0168 89.0882 84.0132 89.0712 84.0132C89.0541 84.0132 89.0373 84.0168 89.0218 84.0238C89.0063 84.0308 88.9924 84.041 88.9812 84.0538H88.8912C88.8524 84.0927 88.8188 84.1364 88.7912 84.1838C88.7491 84.2493 88.7282 84.3261 88.7312 84.4038C88.7312 84.4038 88.7312 84.5338 88.7312 84.6738C88.7312 84.8138 88.7312 84.9838 88.7312 85.1738C88.7312 85.3638 88.7312 85.5738 88.7312 85.7938C88.7312 86.0138 88.7312 86.2238 88.7312 86.4138C88.7312 86.6038 88.7312 86.8338 88.7312 87.0738C88.7312 87.3138 88.7312 87.5338 88.7312 87.7738C88.7312 88.0138 88.7312 88.2338 88.7312 88.4538C88.7312 88.6738 88.7312 88.8538 88.7312 89.0138C88.7312 89.3438 88.7312 89.6938 88.7312 90.0638C88.7388 90.3385 88.7187 90.6132 88.6712 90.8838C88.6712 91.1038 88.6512 91.3138 88.6112 91.5138C88.6112 91.7038 88.6112 91.8438 88.6112 91.9038C88.6112 91.9638 88.6112 92.1538 88.6112 92.3238C88.6005 92.4948 88.5804 92.665 88.5512 92.8338C88.5512 92.9738 88.4711 93.1738 88.4111 93.4238C88.3585 93.6399 88.3316 93.8614 88.3312 94.0838C88.3312 94.1738 88.3312 94.3038 88.3312 94.4738V95.4738V95.3938C88.3312 95.3938 88.3312 95.3138 88.3312 95.1838C88.3312 95.0538 88.3312 94.9238 88.2812 94.7738C88.2312 94.6238 88.2812 94.4638 88.2312 94.3138C88.1812 94.1638 88.2312 94.0538 88.2312 93.9838C88.2466 93.8409 88.2466 93.6967 88.2312 93.5538C88.225 93.4773 88.225 93.4003 88.2312 93.3238C88.187 93.2228 88.1633 93.114 88.1611 93.0038C88.1541 92.8738 88.1272 92.7456 88.0812 92.6238C88.0875 92.5373 88.0875 92.4504 88.0812 92.3638C88.0812 92.2238 88.0212 92.0738 87.9912 91.9038C87.9998 91.7473 87.9998 91.5904 87.9912 91.4338C87.9792 91.3041 87.9792 91.1735 87.9912 91.0438C87.9462 90.9411 87.9127 90.8338 87.8912 90.7238C87.8912 90.5838 87.8212 90.4538 87.7812 90.3438C87.7896 90.2139 87.7896 90.0837 87.7812 89.9538C87.7711 89.8474 87.7711 89.7402 87.7812 89.6338C87.7909 89.5508 87.7909 89.4669 87.7812 89.3838C87.7744 89.2973 87.7744 89.2103 87.7812 89.1238C87.7733 88.9841 87.7463 88.8462 87.7012 88.7138C87.6449 88.5338 87.6015 88.35 87.5712 88.1638C87.471 87.9323 87.3842 87.6952 87.3112 87.4538C87.2112 87.1138 87.1011 86.7738 87.0011 86.4538C86.9011 86.1338 86.8411 85.8138 86.7511 85.5238C86.6989 85.3434 86.6355 85.1663 86.5612 84.9938C86.5612 84.8838 86.4912 84.7638 86.4612 84.6438C86.4507 84.5541 86.4507 84.4635 86.4612 84.3738C86.439 84.2781 86.3945 84.1889 86.3312 84.1138C86.3115 84.0869 86.286 84.0648 86.2565 84.0493C86.2271 84.0337 86.1945 84.025 86.1611 84.0238H85.9812C85.9812 84.0738 85.9012 84.1438 85.8912 84.4338C85.8812 84.7238 85.8912 84.9238 85.8912 85.3238C85.8912 85.7238 85.8912 85.9038 85.8912 86.2038C85.8912 86.5038 85.8912 86.7238 85.8912 86.8338C85.9021 86.9936 85.9021 87.154 85.8912 87.3138C85.8912 87.5338 85.8912 87.7138 85.8912 87.8638C85.9083 88.01 85.9083 88.1576 85.8912 88.3038C85.8912 88.4938 85.8912 88.5538 85.8912 88.5738C85.8975 88.6804 85.8975 88.7872 85.8912 88.8938C85.8766 89.0802 85.8766 89.2674 85.8912 89.4538C85.903 89.6803 85.903 89.9073 85.8912 90.1338C85.8912 90.4138 85.8212 90.6638 85.7912 90.8738C85.7612 91.0838 85.7212 91.2938 85.6812 91.5738C85.6412 91.8538 85.6012 92.0738 85.5712 92.2738C85.5799 92.4337 85.5799 92.5939 85.5712 92.7538C85.5596 92.9036 85.5596 93.054 85.5712 93.2038V94.9438C85.5712 95.0638 85.5712 95.2238 85.5712 95.4338C85.5835 95.6103 85.5835 95.7874 85.5712 95.9638C85.5712 96.1438 85.5712 96.2938 85.5712 96.4238C85.566 96.5126 85.5907 96.6006 85.6412 96.6738C85.6515 96.6864 85.6645 96.6965 85.6792 96.7034C85.6939 96.7104 85.7099 96.714 85.7262 96.714C85.7424 96.714 85.7585 96.7104 85.7732 96.7034C85.7879 96.6965 85.8009 96.6864 85.8112 96.6738H85.9111C85.9626 96.6465 86.0062 96.6064 86.0378 96.5573C86.0693 96.5083 86.0877 96.452 86.0912 96.3938C86.0912 96.2838 86.0912 96.0938 86.0912 95.7938C86.1052 95.6007 86.1052 95.4069 86.0912 95.2138C86.0782 95.0474 86.0782 94.8802 86.0912 94.7138C86.1003 94.5873 86.1003 94.4603 86.0912 94.3338C86.078 94.2175 86.078 94.1001 86.0912 93.9838C86.0912 93.8738 86.0912 93.7438 86.0912 93.5838C86.0993 93.4358 86.1193 93.2886 86.1512 93.1438C86.1359 92.9775 86.1359 92.8101 86.1512 92.6438C86.1609 92.524 86.1609 92.4036 86.1512 92.2838C86.1445 92.2173 86.1445 92.1503 86.1512 92.0838C86.1618 92.0042 86.1618 91.9235 86.1512 91.8438C86.1431 91.7707 86.1431 91.6969 86.1512 91.6238C86.1754 91.5558 86.1921 91.4854 86.2012 91.4138C86.2012 91.3438 86.2012 91.2138 86.2012 91.0138C86.2123 90.7906 86.2123 90.567 86.2012 90.3438L86.2912 89.6138C86.3062 89.4408 86.3062 89.2668 86.2912 89.0938C86.2811 89.0007 86.2811 88.9069 86.2912 88.8138C86.3003 88.6906 86.3003 88.567 86.2912 88.4438C86.2791 88.3074 86.2791 88.1702 86.2912 88.0338C86.3014 87.8573 86.3014 87.6803 86.2912 87.5038C86.2912 87.3638 86.2912 87.1638 86.2912 86.9138C86.3056 86.674 86.3056 86.4336 86.2912 86.1938V85.9138L86.3612 86.1238L86.4711 86.5138C86.5077 86.6831 86.5545 86.8501 86.6112 87.0138C86.6712 87.2038 86.7212 87.3438 86.7612 87.4538C86.8311 87.5823 86.8817 87.7205 86.9111 87.8638L87.0312 88.3138C87.0312 88.4138 87.1011 88.5438 87.1311 88.6938C87.1432 88.8202 87.1432 88.9474 87.1311 89.0738L87.2312 89.4638C87.2432 89.5902 87.2432 89.7174 87.2312 89.8438C87.2312 89.9538 87.2912 90.0738 87.3212 90.2138C87.3474 90.2949 87.3642 90.3788 87.3712 90.4638C87.3668 90.5471 87.3668 90.6305 87.3712 90.7138C87.3668 90.7917 87.3879 90.8689 87.4312 90.9338C87.4386 91.0483 87.4553 91.162 87.4812 91.2738C87.4812 91.4438 87.5412 91.6338 87.5812 91.8538C87.6212 92.0738 87.6412 92.2638 87.6712 92.4438C87.6835 92.5568 87.6835 92.6708 87.6712 92.7838C87.6712 92.7838 87.6712 92.7838 87.6712 92.9138C87.6756 92.9904 87.6756 93.0672 87.6712 93.1438C87.671 93.2737 87.6947 93.4025 87.7412 93.5238C87.7354 93.5903 87.7354 93.6573 87.7412 93.7238C87.7565 93.8199 87.7565 93.9177 87.7412 94.0138C87.7339 94.1203 87.7339 94.2273 87.7412 94.3338C87.7412 94.4838 87.7412 94.6438 87.7412 94.8138C87.7412 94.9838 87.7412 95.1538 87.7912 95.3038C87.8412 95.4538 87.7912 95.5638 87.7912 95.5938C87.787 95.7158 87.8039 95.8376 87.8412 95.9538C87.8412 95.9538 87.9012 96.0938 87.9912 96.1138C88.0192 96.1327 88.0523 96.1428 88.0862 96.1428C88.12 96.1428 88.1531 96.1327 88.1812 96.1138C88.2037 96.1054 88.2286 96.1054 88.2511 96.1138C88.2161 96.1783 88.1978 96.2504 88.1978 96.3238C88.1978 96.3971 88.2161 96.4694 88.2511 96.5338C88.2567 96.5636 88.2711 96.591 88.2926 96.6124C88.314 96.6338 88.3414 96.6483 88.3712 96.6538H88.6412C88.6739 96.6472 88.7035 96.6298 88.7252 96.6044C88.7469 96.5791 88.7596 96.5472 88.7612 96.5138C88.8038 96.3674 88.8273 96.2162 88.8312 96.0638C88.8205 95.904 88.8205 95.7436 88.8312 95.5838C88.8448 95.3807 88.8448 95.1769 88.8312 94.9738V93.6138C88.8312 93.4838 88.8312 93.4038 88.8312 93.3938V93.3338H88.9012V93.1038C88.8953 93.0339 88.8953 92.9637 88.9012 92.8938C88.9153 92.7776 88.9153 92.66 88.9012 92.5438C88.9452 92.3909 88.9687 92.2329 88.9711 92.0738V91.5138C88.9617 91.3706 88.9617 91.227 88.9711 91.0838C88.9711 90.9038 88.9711 90.8338 88.9711 90.8038C89.0247 90.5137 89.0481 90.2188 89.0412 89.9238C89.0412 89.4638 89.0412 88.8238 89.0412 88.0338C89.0412 87.6938 89.0412 87.3338 89.0412 86.9738C89.0412 86.6138 89.2412 86.3738 89.2312 86.0538Z" fill="white"/>
<path d="M94.1011 84.674C94.1011 84.494 93.8411 84.484 93.7511 84.484H93.4111C93.086 84.4421 92.7671 84.3615 92.4612 84.244L92.0411 84.164C91.9012 84.1603 91.7619 84.1841 91.6311 84.234H91.4811L91.2711 84.154C91.2615 84.135 91.2473 84.1187 91.2299 84.1065C91.2124 84.0943 91.1923 84.0866 91.1711 84.084H91.0811C90.9937 84.0971 90.9148 84.1437 90.8611 84.214C90.8237 84.2589 90.8032 84.3155 90.8032 84.374C90.8032 84.4325 90.8237 84.4891 90.8611 84.534C90.909 84.5838 90.9726 84.6156 91.0411 84.624C91.1406 84.6391 91.2417 84.6391 91.3412 84.624L91.8511 84.514V84.704V86.704C91.8511 86.774 91.8511 86.864 91.8511 86.974C91.8417 87.0905 91.8417 87.2075 91.8511 87.324C91.8511 87.394 91.8511 87.544 91.8511 87.764C91.8511 87.984 91.8511 88.234 91.8511 88.494C91.8511 88.754 91.8511 89.094 91.8511 89.494C91.8511 89.894 91.8511 90.314 91.8511 90.674C91.8511 91.034 91.8511 91.304 91.8511 91.574C91.8511 91.844 91.8511 91.954 91.8511 92.034C91.8397 92.1069 91.8397 92.1811 91.8511 92.254C91.8511 92.374 91.8511 92.494 91.8511 92.604C91.8425 92.7539 91.8425 92.9041 91.8511 93.054C91.8511 93.194 91.8511 93.284 91.8511 93.344C91.8545 93.4039 91.8545 93.464 91.8511 93.524C91.843 93.5971 91.843 93.6709 91.8511 93.744C91.8577 93.7804 91.8577 93.8176 91.8511 93.854C91.8468 93.9139 91.8468 93.9741 91.8511 94.034C91.8086 94.1071 91.7846 94.1895 91.7812 94.274C91.7654 94.4236 91.7654 94.5744 91.7812 94.724C91.7812 94.874 91.7812 95.064 91.7812 95.284C91.7812 95.504 91.7812 95.694 91.7812 95.854C91.7812 96.014 91.7812 96.284 91.7812 96.364C91.7812 96.444 91.7811 96.534 91.8911 96.554C91.9404 96.5663 91.9919 96.5663 92.0411 96.554C92.0939 96.5532 92.1442 96.5317 92.1812 96.494C92.2156 96.4598 92.2428 96.419 92.2611 96.374C92.276 96.3392 92.2837 96.3018 92.2837 96.264C92.2837 96.2262 92.276 96.1888 92.2611 96.154C92.2686 96.0742 92.2686 95.9938 92.2611 95.914C92.2611 95.814 92.2611 95.724 92.2611 95.654C92.2611 95.584 92.2611 95.434 92.2611 95.304C92.2496 95.1876 92.2496 95.0704 92.2611 94.954C92.2611 94.854 92.2611 94.754 92.2611 94.644C92.2691 94.5441 92.2691 94.4438 92.2611 94.344C92.2518 94.2409 92.2518 94.1371 92.2611 94.034C92.2611 93.924 92.3111 93.824 92.3311 93.754C92.364 93.6334 92.3808 93.509 92.3811 93.384C92.3811 93.224 92.3811 93.084 92.3811 92.954C92.3811 92.824 92.3811 92.674 92.3811 92.484C92.3811 92.294 92.4311 92.104 92.4511 91.944C92.4594 91.7841 92.4594 91.6239 92.4511 91.464C92.4511 91.314 92.4511 91.214 92.4511 91.164C92.4398 91.0777 92.4398 90.9903 92.4511 90.904C92.4511 90.754 92.4511 90.624 92.4511 90.494C92.4511 90.364 92.4511 90.144 92.4511 89.894C92.4511 89.644 92.4511 89.424 92.4511 89.214C92.4511 89.004 92.4511 88.774 92.4511 88.504C92.4511 88.234 92.4511 88.014 92.4511 87.834C92.4511 87.654 92.4511 87.494 92.4511 87.284C92.4511 87.074 92.4511 86.884 92.4511 86.774C92.4511 86.664 92.4511 86.444 92.4511 86.174C92.4511 85.904 92.4511 85.654 92.4511 85.424V84.574L92.7611 84.684C92.8958 84.7387 93.037 84.7756 93.1812 84.794C93.2605 84.8084 93.3418 84.8084 93.4211 84.794H93.6011C93.6336 84.7833 93.6687 84.7833 93.7011 84.794C93.7125 84.8318 93.7367 84.8644 93.7696 84.8863C93.8024 84.9082 93.8419 84.918 93.8811 84.914C93.9617 84.8913 94.0322 84.8419 94.0811 84.774C94.0916 84.7415 94.0983 84.708 94.1011 84.674Z" fill="white"/>
</g>
<defs>
<filter id="filter0_i_637_38" x="14.0601" y="73.0132" width="9.20996" height="44.2065" filterUnits="userSpaceOnUse" color-interpolation-filters="sRGB">
<feFlood flood-opacity="0" result="BackgroundImageFix"/>
<feBlend mode="normal" in="SourceGraphic" in2="BackgroundImageFix" result="shape"/>
<feColorMatrix in="SourceAlpha" type="matrix" values="0 0 0 0 0 0 0 0 0 0 0 0 0 0 0 0 0 0 127 0" result="hardAlpha"/>
<feOffset dy="40"/>
<feGaussianBlur stdDeviation="2"/>
<feComposite in2="hardAlpha" operator="arithmetic" k2="-1" k3="1"/>
<feColorMatrix type="matrix" values="0 0 0 0 0 0 0 0 0 0 0 0 0 0 0 0 0 0 0.25 0"/>
<feBlend mode="normal" in2="shape" result="effect1_innerShadow_637_38"/>
</filter>
<clipPath id="clip0_637_38">
<rect width="98" height="113" fill="white"/>
</clipPath>
</defs>
</svg>
