<svg width="63" height="50" viewBox="0 0 63 50" fill="none" xmlns="http://www.w3.org/2000/svg">
<g clip-path="url(#clip0_637_59)">
<path d="M28.9958 22.9526L26.5437 14.1162L15.6933 10.749L8.95007 17.7889L0 42.7461L20.5545 49.9998L28.9958 22.9526ZM18.5132 20.001C18.1596 19.8725 17.8352 19.6752 17.5587 19.4208C17.2821 19.1663 17.059 18.8597 16.9022 18.5187C16.7454 18.1776 16.6581 17.809 16.6452 17.434C16.6324 17.0591 16.6943 16.6854 16.8274 16.3344C17.373 14.8617 19.1078 13.8534 20.579 14.3973C21.3371 14.752 21.9453 15.3621 22.2963 16.1201C22.6473 16.8781 22.7187 17.7352 22.4978 18.5405C21.9461 20.0377 19.9783 20.5449 18.5071 20.001H18.5132Z" fill="#FE816F"/>
<path d="M11.8313 31.3921C11.2879 31.1913 10.8466 30.7839 10.6041 30.2592C10.3616 29.7346 10.3378 29.1354 10.5379 28.5932C10.7391 28.031 11.1481 27.5666 11.6814 27.2951C12.2147 27.0236 12.8319 26.9655 13.4068 27.1327C13.983 27.3961 14.4456 27.8564 14.7109 28.4303C14.9763 29.0041 15.0269 29.6537 14.8535 30.2615C14.4244 31.4226 12.9164 31.7893 11.8313 31.3921ZM13.1984 27.6949C12.7726 27.5822 12.3199 27.6335 11.9302 27.8384C11.5406 28.0434 11.2427 28.387 11.0957 28.801C10.9511 29.1941 10.9686 29.6283 11.1443 30.0085C11.3201 30.3888 11.6399 30.6841 12.0336 30.8299C12.8551 31.1354 13.9953 30.8665 14.2957 30.0599C14.4143 29.6 14.3699 29.1134 14.1699 28.6824C13.97 28.2514 13.6267 27.9026 13.1984 27.6949Z" fill="white"/>
<path d="M15.9385 40.2956C15.3962 40.0936 14.9563 39.6857 14.715 39.1612C14.4737 38.6366 14.4508 38.0381 14.6512 37.4967C14.851 36.9338 15.2602 36.4689 15.7942 36.1983C16.3281 35.9276 16.946 35.8718 17.5201 36.0423C18.0971 36.3047 18.5605 36.7649 18.826 37.3391C19.0915 37.9133 19.1415 38.5633 18.9668 39.1711C18.5316 40.3322 17.0236 40.6928 15.9385 40.2956ZM17.3117 36.5984C16.8859 36.4857 16.4331 36.537 16.0435 36.7419C15.6539 36.9469 15.356 37.2905 15.209 37.7045C15.0658 38.0985 15.0839 38.5329 15.2594 38.9137C15.435 39.2945 15.7538 39.5911 16.1469 39.7395C16.9684 40.0389 18.1025 39.77 18.4028 38.9634C18.5243 38.5042 18.4819 38.0172 18.2829 37.5858C18.0838 37.1543 17.7405 36.8053 17.3117 36.5984Z" fill="white"/>
<path d="M8.4843 38.7315L8.11035 38.2732C10.2375 36.5499 12.4505 35.071 14.7923 33.5005C16.8459 32.1194 18.9669 30.6956 21.0757 29.0762L21.4374 29.5467C19.3164 31.1783 17.183 32.6022 15.1233 33.9955C12.7938 35.566 10.6054 37.0327 8.4843 38.7315Z" fill="white"/>
<path d="M20.0702 20.2031L19.7514 20.2337C18.4151 17.9848 18.1392 15.8643 19.0219 14.0188C22.087 7.53505 38.3137 5.07844 50.1511 3.28792C56.1035 2.3835 62.0743 1.56463 62.4115 0.507434C62.4544 0.372992 62.3072 0.208001 62.1785 0.0918921L62.2276 0.0307786C62.9938 -0.134218 63.0735 0.440218 62.9999 0.684657C62.5953 2.0474 58.4759 2.64628 50.2675 3.89292C38.565 5.6651 22.5346 8.09116 19.6166 14.2816C18.8197 15.9621 19.1445 18.2232 20.4871 20.142C20.3508 20.1776 20.211 20.198 20.0702 20.2031Z" fill="#303030"/>
</g>
<defs>
<clipPath id="clip0_637_59">
<rect width="63" height="50" fill="white"/>
</clipPath>
</defs>
</svg>
