<svg width="54" height="64" viewBox="0 0 54 64" fill="none" xmlns="http://www.w3.org/2000/svg">
<g clip-path="url(#clip0_637_65)">
<path d="M36.2156 5.04527L36.2993 4.03168C36.4058 2.71552 36.5123 1.35776 36.6797 0L37.0373 0.0453857C36.8661 1.39558 36.7558 2.74956 36.6569 4.06193L36.5732 5.07552L36.2156 5.04527Z" fill="#FE816F"/>
<path d="M30.285 6.11914L29.5774 5.3892C28.653 4.4399 27.6982 3.45657 26.7852 2.43163L27.0591 2.19336C27.9606 3.21452 28.9155 4.19407 29.8361 5.13958L30.5437 5.86952L30.285 6.11914Z" fill="#FE816F"/>
<path d="M43.3711 9.10317L43.2456 8.76657L44.2042 8.41862C45.4482 7.96477 46.734 7.4958 48.0084 6.96631L48.1492 7.29913C46.8786 7.82862 45.589 8.29759 44.345 8.75144L43.3711 9.10317Z" fill="#FE816F"/>
<path d="M36.341 20.3514L27.8235 17.3485L31.232 9.0166L38.9506 13.0369L36.341 20.3514Z" fill="#FE816F"/>
<path d="M44.8473 30.2869L42.9871 26.936L48.7428 23.9746L49.7432 27.5978L44.8473 30.2869Z" fill="#FE816F"/>
<path d="M49.1003 29.4432L45.9695 23.8042L51.7822 20.9487L54.0001 26.7542L49.1003 29.4432Z" fill="#FE816F"/>
<path d="M47.5292 23.0405L45.9695 23.8045L49.1003 29.4436L50.6182 28.6077L47.5292 23.0405Z" fill="#FE816F"/>
<path d="M32.9175 16.9701C28.4434 15.3893 23.5982 15.1632 18.9949 16.3204C14.3915 17.4777 10.2368 19.9662 7.05621 23.4712C3.87561 26.9763 1.81203 31.3404 1.12651 36.0116C0.440984 40.6828 1.16431 45.4512 3.20499 49.7136C5.24567 53.976 8.51202 57.541 12.5909 59.9577C16.6698 62.3743 21.3779 63.5339 26.1198 63.29C30.8617 63.046 35.4242 61.4094 39.2304 58.5871C43.0366 55.7648 45.9154 51.8837 47.5026 47.4346C48.557 44.4822 49.0161 41.3522 48.8537 38.2233C48.6914 35.0945 47.9107 32.0281 46.5564 29.1992C45.202 26.3703 43.3005 23.8343 40.9603 21.7361C38.6201 19.6378 35.8872 18.0183 32.9175 16.9701Z" fill="#FFBAAF"/>
<path d="M33.1039 16.4481C20.3181 11.9436 5.90414 17.8739 1.37339 30.5816C-3.15736 43.2893 3.91076 57.9675 16.6889 62.4719C29.4671 66.9764 44.4859 61.2995 49.0243 48.588C53.5626 35.8765 45.882 20.9525 33.1039 16.4481ZM18.0698 58.6067C14.261 57.2643 10.9381 54.8292 8.52136 51.6093C6.10457 48.3894 4.70243 44.5294 4.49224 40.5172C4.28206 36.5051 5.27328 32.5211 7.34054 29.069C9.40781 25.6169 12.4583 22.8518 16.1062 21.1233C19.7541 19.3949 23.8357 18.7806 27.8347 19.3583C31.8338 19.9361 35.5707 21.6797 38.573 24.3689C41.5753 27.0581 43.7081 30.572 44.7016 34.4662C45.6952 38.3605 45.505 42.4602 44.1549 46.2469C43.2585 48.7613 41.8727 51.0756 40.0767 53.0575C38.2806 55.0395 36.1095 56.6503 33.6872 57.798C31.265 58.9457 28.6391 59.6079 25.9594 59.7466C23.2798 59.8854 20.5989 59.498 18.0698 58.6067Z" fill="#FE816F"/>
<path d="M17.3736 60.649C11.6515 58.5331 6.98115 54.2881 4.34959 48.8114C1.71802 43.3346 1.33145 37.0552 3.27155 31.3003C7.342 19.886 20.4435 14.0465 32.4761 18.29C44.3983 22.4881 51.2458 36.3115 47.1259 47.8657C45.1401 53.4366 40.8642 57.8163 35.0895 60.2027C29.4379 62.501 23.135 62.6597 17.3736 60.649ZM32.3657 18.6001C20.5044 14.4209 7.59307 20.1697 3.58349 31.4137C-0.544024 42.9868 5.82033 56.2392 17.4801 60.3465C29.4479 64.5635 42.8804 58.7996 46.8139 47.7598C50.8768 36.3758 44.1244 22.7377 32.3657 18.6001ZM18.6289 57.1204C15.1168 55.8833 12.0525 53.6386 9.82364 50.6701C7.59476 47.7016 6.3014 44.1426 6.10712 40.4433C5.91284 36.7439 6.82636 33.0704 8.73217 29.8872C10.638 26.7041 13.4505 24.1543 16.8139 22.5604C20.1774 20.9665 23.9408 20.4 27.6281 20.9325C31.3154 21.4651 34.761 23.0729 37.5292 25.5524C40.2974 28.032 42.2639 31.272 43.1798 34.8628C44.0957 38.4535 43.9201 42.2336 42.675 45.725C41.0024 50.4035 37.5309 54.231 33.0227 56.3674C28.5145 58.5039 23.3378 58.7747 18.6289 57.1204ZM31.1066 22.1288C27.6564 20.9126 23.921 20.741 20.3728 21.6356C16.8245 22.5302 13.6228 24.4508 11.1726 27.1546C8.72229 29.8583 7.13353 33.2237 6.6072 36.8252C6.08088 40.4267 6.64063 44.1025 8.21567 47.3877C9.79071 50.6729 12.3103 53.4199 15.4558 55.2814C18.6012 57.1429 22.2313 58.0352 25.8869 57.8455C29.5425 57.6558 33.0594 56.3926 35.9928 54.2156C38.9262 52.0386 41.1444 49.0457 42.3669 45.6153C44.0005 41.016 43.7325 35.9603 41.6215 31.5573C39.5105 27.1542 35.729 23.7634 31.1066 22.1288Z" fill="white"/>
<path d="M16.0232 41.4476C16.3085 41.7842 18.2258 45.1124 18.2486 45.1162C18.416 45.1465 41.0735 32.8586 41.0735 32.8586C41.8344 32.5295 41.8344 32.4804 41.0279 32.7489L40.7996 32.8283C40.7996 32.8283 14.9808 40.2298 16.0232 41.4476Z" fill="#303030"/>
<path d="M31.6658 21.7202L31.3653 22.8056C30.9849 24.2201 30.5741 25.6762 30.1023 27.1172L29.7219 26.9923C30.1898 25.5627 30.5893 24.1104 30.9773 22.7035L31.2816 21.6143L31.6658 21.7202Z" fill="#FE816F"/>
<path d="M20.6755 52.6162L20.3636 53.7016C19.9641 55.1085 19.5495 56.5646 19.0625 58.0018L18.6821 57.8732C19.1615 56.4474 19.5761 54.9951 19.9756 53.5957L20.2875 52.5103L20.6755 52.6162Z" fill="#FE816F"/>
<path d="M43.2799 45.3543L42.1729 45.1009C40.7387 44.7718 39.2589 44.4277 37.7905 44.0154L37.9009 43.6372C39.3578 44.0457 40.8377 44.3936 42.2642 44.7151L43.3712 44.9723L43.2799 45.3543Z" fill="#FE816F"/>
<path d="M11.9184 34.5114L10.8342 34.1786C9.42665 33.755 7.97347 33.3087 6.53931 32.7981L6.67625 32.4199C8.10281 32.9305 9.5522 33.3692 10.9521 33.7966L12.0363 34.1294L11.9184 34.5114Z" fill="#FE816F"/>
<path d="M24.0373 21.2732L23.8086 24.2827L24.1576 24.3089L24.3863 21.2994L24.0373 21.2732Z" fill="#FE816F"/>
<path d="M17.1617 23.1938L16.8452 23.3423L18.1406 26.0718L18.4571 25.9233L17.1617 23.1938Z" fill="#FE816F"/>
<path d="M11.2344 27.1423L11.0415 27.4326L13.5744 29.0962L13.7673 28.8059L11.2344 27.1423Z" fill="#FE816F"/>
<path d="M7.14892 39.2264L7.12109 39.5732L10.1472 39.8132L10.175 39.4663L7.14892 39.2264Z" fill="#FE816F"/>
<path d="M11.7814 45.1493L9.03101 46.4268L9.17914 46.742L11.9295 45.4646L11.7814 45.1493Z" fill="#FE816F"/>
<path d="M14.6697 49.8016L12.9875 52.314L13.2789 52.5068L14.961 49.9944L14.6697 49.8016Z" fill="#FE816F"/>
<path d="M25.7117 53.8089L25.4819 56.8184L25.8309 56.8447L26.0606 53.8353L25.7117 53.8089Z" fill="#FE816F"/>
<path d="M32.7194 54.9343L31.426 52.2037L31.7418 52.0562L33.0352 54.7868L32.7194 54.9343Z" fill="#FE816F"/>
<path d="M38.6464 50.9822L36.1128 49.3181L36.3068 49.0269L38.8404 50.691L38.6464 50.9822Z" fill="#FE816F"/>
<path d="M39.7388 38.3123L39.7112 38.6592L42.7375 38.897L42.765 38.5502L39.7388 38.3123Z" fill="#FE816F"/>
<path d="M40.6986 31.3868L37.9507 32.6694L38.0994 32.9844L40.8474 31.7017L40.6986 31.3868Z" fill="#FE816F"/>
<path d="M36.5977 25.6048L34.9155 28.1172L35.2069 28.31L36.889 25.7976L36.5977 25.6048Z" fill="#FE816F"/>
<path d="M25.621 37.4272C25.2168 37.285 24.7793 37.2651 24.3637 37.3701C23.9481 37.475 23.5732 37.7001 23.2863 38.0169C22.9993 38.3337 22.8133 38.728 22.7517 39.1498C22.6901 39.5717 22.7557 40.0022 22.9402 40.387C23.1247 40.7719 23.4198 41.0937 23.7882 41.3117C24.1566 41.5298 24.5818 41.6345 25.01 41.6124C25.4382 41.5903 25.8502 41.4424 26.1939 41.1876C26.5377 40.9327 26.7977 40.5823 26.9411 40.1806C27.0369 39.9137 27.0788 39.6305 27.0642 39.3475C27.0497 39.0645 26.9791 38.7871 26.8564 38.5312C26.7338 38.2754 26.5615 38.0462 26.3495 37.8567C26.1375 37.6673 25.8899 37.5213 25.621 37.4272Z" fill="#FE6A3C"/>
<path d="M25.8491 39.7342C25.7928 39.8937 25.6901 40.0331 25.554 40.1346C25.418 40.2361 25.2547 40.2952 25.0848 40.3044C24.915 40.3136 24.7462 40.2726 24.5998 40.1864C24.4535 40.1002 24.3361 39.9728 24.2626 39.8203C24.1891 39.6678 24.1628 39.497 24.1869 39.3296C24.2111 39.1622 24.2846 39.0057 24.3983 38.8799C24.5119 38.7541 24.6605 38.6646 24.8253 38.6227C24.9902 38.5809 25.1638 38.5886 25.3242 38.6449C25.5389 38.7203 25.7149 38.8774 25.8133 39.0816C25.9117 39.2858 25.9246 39.5205 25.8491 39.7342Z" fill="#FE816F"/>
<path d="M41.1382 15.1054L27.7285 10.3778L29.3377 7.78711L42.0017 12.6811L41.1382 15.1054Z" fill="#303030"/>
</g>
<defs>
<clipPath id="clip0_637_65">
<rect width="54" height="64" fill="white"/>
</clipPath>
</defs>
</svg>
