<svg width="33" height="33" viewBox="0 0 33 33" fill="none" xmlns="http://www.w3.org/2000/svg">
<g clip-path="url(#clip0_637_29)">
<path d="M32.74 17.42C32.74 25.88 23.74 32.12 15.31 32.12C11.2495 32.12 7.35539 30.507 4.48421 27.6358C1.61303 24.7646 0 20.8705 0 16.81C0 8.35 6.86001 0 15.32 0C23.78 0 32.74 8.97 32.74 17.42Z" fill="#FE816F"/>
<path d="M11.57 12.2298C10.6836 11.9013 9.96358 11.2347 9.56803 10.3761C9.17247 9.51746 9.13361 8.53701 9.45997 7.6498C9.78608 6.7305 10.4515 5.97079 11.3198 5.5264C12.1881 5.08201 13.1936 4.98662 14.13 5.2598C15.0699 5.69084 15.8245 6.44402 16.2574 7.38311C16.6903 8.32219 16.7727 9.38518 16.49 10.3798C15.8 12.2798 13.33 12.8798 11.57 12.2298ZM13.8 6.2298C13.1054 6.0454 12.3669 6.12923 11.7313 6.46462C11.0958 6.8 10.6097 7.36235 10.37 8.0398C10.134 8.68303 10.1626 9.39355 10.4493 10.0158C10.7361 10.638 11.2577 11.1213 11.9 11.3598C13.24 11.8598 15.1 11.4198 15.58 10.0998C15.7912 9.34139 15.7285 8.53284 15.4031 7.81601C15.0776 7.09919 14.51 6.51989 13.8 6.1798V6.2298Z" fill="white"/>
<path d="M18.2699 26.8C17.3853 26.4696 16.6677 25.8021 16.2741 24.9437C15.8805 24.0853 15.843 23.106 16.1699 22.22C16.4981 21.3 17.1654 20.5401 18.0354 20.0958C18.9053 19.6515 19.9122 19.5565 20.8499 19.83C21.7907 20.2595 22.5458 21.013 22.9772 21.9529C23.4086 22.8929 23.4877 23.9566 23.1999 24.95C22.4999 26.86 20.0399 27.45 18.2699 26.8ZM20.5099 20.75C19.8224 20.5796 19.0961 20.6704 18.4717 21.0048C17.8473 21.3391 17.3691 21.8933 17.1299 22.56C16.894 23.2033 16.9225 23.9138 17.2092 24.536C17.496 25.1583 18.0176 25.6415 18.6599 25.88C19.9899 26.38 21.8499 25.94 22.3399 24.62C22.5344 23.8628 22.4579 23.0614 22.1237 22.3546C21.7895 21.6478 21.2186 21.0802 20.5099 20.75Z" fill="white"/>
<path d="M6.13002 24.2399L5.52002 23.4799C8.99002 20.6699 12.6 18.2499 16.42 15.6799C19.77 13.4199 23.23 11.0899 26.67 8.43994L27.26 9.20993C23.8 11.8799 20.32 14.2099 16.96 16.4799C13.13 19.0399 9.55002 21.4599 6.13002 24.2399Z" fill="white"/>
</g>
<defs>
<clipPath id="clip0_637_29">
<rect width="32.74" height="32.12" fill="white"/>
</clipPath>
</defs>
</svg>
