<svg width="80" height="63" viewBox="0 0 80 63" fill="none" xmlns="http://www.w3.org/2000/svg">
<g clip-path="url(#clip0_637_102)">
<path d="M39.9799 0H39.45V7.14H39.9799V0Z" fill="#FE816F"/>
<path d="M66.4299 16.8598C68.038 15.6796 69.5223 14.3394 70.8599 12.8598L70.4499 12.5298C69.1474 13.9701 67.7072 15.2796 66.1499 16.4398L66.4299 16.8598Z" fill="#FE816F"/>
<path d="M73.4699 32.0202C74.3699 31.8902 75.1299 31.7501 75.7999 31.6301C77.1118 31.333 78.4552 31.1986 79.7999 31.2301V30.7001C78.4251 30.6729 77.052 30.8106 75.7099 31.1102C75.0499 31.2302 74.2999 31.3702 73.4099 31.4902L73.4699 32.0202Z" fill="#FE816F"/>
<path d="M15.7599 16.9098L15.9999 16.4398C14.0827 15.5275 12.2374 14.4711 10.4799 13.2798L10.1699 13.7098C11.9488 14.9177 13.8176 15.9874 15.7599 16.9098Z" fill="#FE816F"/>
<path d="M5.56 42.7401V42.2101C4.98 42.2101 3.87 42.11 2.81 42.01C1.75 41.91 0.61 41.8101 0 41.8101V42.3401C0.59 42.3401 1.68998 42.44 2.75998 42.54C3.82998 42.64 4.95 42.7401 5.56 42.7401Z" fill="#FE816F"/>
<path d="M62.4801 42.51C62.4801 54.17 50.1001 62.78 38.4801 62.78C32.8787 62.78 27.5068 60.5549 23.546 56.5941C19.5853 52.6333 17.3601 47.2613 17.3601 41.66C17.3601 30 26.8301 18.48 38.4901 18.48C50.1501 18.48 62.4801 30.86 62.4801 42.51Z" fill="#FE816F"/>
<path d="M39.94 61.5101L38.24 19.5601L40.34 20.0301L41.99 61.0101L39.94 61.5101Z" fill="white"/>
<path d="M47.2099 44.6598C46.2099 42.4098 43.4999 41.7298 41.0899 41.1298C37.7599 40.3098 34.8899 39.5998 34.5899 35.5098H34.5199C34.5199 32.7498 36.1499 28.1499 39.7899 27.7799C40.3038 27.6962 40.8309 27.784 41.2899 28.0299C42.6999 28.8399 43.1099 31.3498 43.3599 32.8498C43.4271 33.4463 43.5613 34.0334 43.7599 34.5998L46.2399 33.9999C46.1053 33.5486 46.0083 33.0871 45.9499 32.6198C45.6199 30.6198 45.1599 27.7898 42.8899 26.4898C41.8367 25.9164 40.6286 25.6923 39.4399 25.8498C33.5799 26.4398 31.6599 32.8498 31.9399 36.1098H32.0299C32.6599 41.1098 37.0299 42.1798 40.2599 42.9798C42.6799 43.5798 44.1899 43.9798 44.7199 45.2598C45.7199 47.6598 45.3899 53.2598 43.2399 54.2598C42.9021 54.4233 42.5342 54.5157 42.1592 54.5312C41.7842 54.5467 41.4101 54.4849 41.0599 54.3498C39.1799 53.7298 36.8299 51.3498 36.0599 47.7298L33.4799 48.0198C34.2299 51.8298 36.8399 55.0899 39.9399 56.1199C40.6157 56.3517 41.3254 56.4699 42.0399 56.4698C42.9369 56.4729 43.8227 56.2711 44.6299 55.8798C48.4599 54.0698 48.2999 47.1898 47.2099 44.6598Z" fill="white"/>
</g>
<defs>
<clipPath id="clip0_637_102">
<rect width="79.79" height="62.78" fill="white"/>
</clipPath>
</defs>
</svg>
