<svg width="49" height="37" viewBox="0 0 49 37" fill="none" xmlns="http://www.w3.org/2000/svg">
<g clip-path="url(#clip0_637_3)">
<path d="M24.09 35.4598C17.18 35.4598 11.55 29.3098 11.55 21.7498C11.55 14.1898 17.18 8.02979 24.09 8.02979C31 8.02979 36.64 14.1898 36.64 21.7498C36.64 29.3098 31.01 35.4598 24.09 35.4598ZM24.09 9.56976C18.02 9.56976 13.09 15.0298 13.09 21.7498C13.09 28.4698 18.03 33.9298 24.09 33.9298C30.15 33.9298 35.09 28.4698 35.09 21.7498C35.09 15.0298 30.16 9.53976 24.09 9.53976V9.56976Z" fill="#FE816F"/>
<path d="M24.09 36.2599C13.55 36.2599 3.92995 30.5399 0.0899506 22.0299L-0.0500488 21.7199L0.0899506 21.4099C3.87995 12.8899 13.5 7.16992 24.09 7.16992C34.68 7.16992 44.26 12.8899 48.09 21.4099L48.2299 21.7199L48.09 22.0299C44.26 30.5399 34.63 36.2599 24.09 36.2599ZM1.67995 21.7199C5.31995 29.5199 14.28 34.7199 24.09 34.7199C33.9 34.7199 42.8599 29.5099 46.5099 21.7199C42.8599 13.9199 33.91 8.71994 24.09 8.71994C14.27 8.71994 5.31995 13.9199 1.67995 21.7199Z" fill="#FE816F"/>
<path d="M31.2999 26.5402C33.8099 18.9602 32.5299 15.5402 27.2999 12.5402C24.7599 11.0802 18.5199 13.2402 16.7299 15.7202C14.1699 19.2602 16.4299 27.3502 19.6499 30.1702C21.9199 32.1602 29.4999 31.9802 31.2999 26.5402Z" fill="#FE816F"/>
<path d="M4.85997 5.92968L3.71655 6.94629L8.88596 12.7605L10.0294 11.7439L4.85997 5.92968Z" fill="#FE816F"/>
<path d="M14.6785 0.316974L13.2893 0.958008L17.1648 9.35698L18.5541 8.71595L14.6785 0.316974Z" fill="#FE816F"/>
<path d="M45.0615 7.2429L39.8992 13.0635L41.0438 14.0787L46.2061 8.25811L45.0615 7.2429Z" fill="#FE816F"/>
<path d="M35.2502 1.64966L32.0752 8.92725L33.4775 9.53905L36.6525 2.26146L35.2502 1.64966Z" fill="#FE816F"/>
<path d="M25.08 0H23.55V7.75H25.08V0Z" fill="#FE816F"/>
</g>
<defs>
<clipPath id="clip0_637_3">
<rect width="48.19" height="36.26" fill="white"/>
</clipPath>
</defs>
</svg>
