<svg width="80" height="85" viewBox="0 0 80 85" fill="none" xmlns="http://www.w3.org/2000/svg">
<g clip-path="url(#clip0_637_293)">
<path d="M64.7501 15.4563L20.2672 34.9829L34.9624 68.4595L79.4453 48.9329L64.7501 15.4563Z" fill="#FE816F"/>
<g style="mix-blend-mode:multiply" opacity="0.5">
<path d="M34.21 66.6998L75.28 47.4598L71.97 31.8398L79.46 48.8998L34.97 68.4298L34.21 66.6998Z" fill="#FE816F"/>
</g>
<path d="M64.5357 7.1081L14.2842 29.167L17.6646 36.8677L67.9161 14.8088L64.5357 7.1081Z" fill="#FE816F"/>
<g style="mix-blend-mode:multiply" opacity="0.5">
<path d="M17.6699 36.8499L67.9199 14.7899L66.7499 12.1299L16.5699 34.3299L17.6699 36.8499Z" fill="#FE816F"/>
</g>
<path d="M42.0787 16.9733L36.722 19.3247L54.5203 59.8702L59.8769 57.5188L42.0787 16.9733Z" fill="#FFBAAF"/>
<path d="M42.0974 16.9315L40.2571 17.7397L58.0624 58.2822L59.9028 57.4739L42.0974 16.9315Z" fill="#FFA192"/>
<path d="M69.6014 26.4963L25.1185 46.0229L27.4699 51.3796L71.9528 31.853L69.6014 26.4963Z" fill="#FFBAAF"/>
<path d="M23.01 18.91L24.33 10.81L35.49 14.72L25.65 3.67L31.58 0L37.16 12.7L36.36 2.44L41.56 2.92L40.27 11.34L45.44 2.14L50.77 5.85L43.27 12.35L52.32 9.38L52.62 12.96L42.01 17.62L26.89 24.26L26.32 21.79L31.58 19.48L23.01 18.91Z" fill="#FFA192"/>
<path d="M27.48 51.3702L71.97 31.8402L70.9 29.4102L26.66 49.4902L27.48 51.3702Z" fill="#FFA192"/>
<path d="M21.1134 50.8209L4.60864 68.6694L22.024 84.7736L38.5287 66.9251L21.1134 50.8209Z" fill="#FE816F"/>
<g style="mix-blend-mode:multiply" opacity="0.3">
<path d="M21.12 50.8398L19.95 52.0998L35.1899 67.1198L20.9799 83.8198L22.03 84.7898L38.5299 66.9398L21.12 50.8398Z" fill="#FE816F"/>
</g>
<path d="M28.2101 57.4L21.4501 64.71L14.3501 58.15L15.4301 56.99C15.4301 56.99 18.0101 48.57 16.1101 46.9C14.4901 45.48 8.96009 48.31 8.22009 50.32C7.48009 52.33 10.9801 57.26 12.3401 59.08C10.4201 57.86 5.2201 54.77 3.2901 55.65C1.3601 56.53 -1.0499 62.29 0.490098 63.79C2.3001 65.55 10.4901 62.32 10.4901 62.32L11.3601 61.38L18.4601 67.9401L11.7101 75.3L14.9301 78.3L21.6901 70.99L28.7901 77.55L31.7901 74.33L24.6901 67.76L31.4501 60.45L28.2101 57.4Z" fill="#FFA192"/>
</g>
<defs>
<clipPath id="clip0_637_293">
<rect width="79.46" height="84.79" fill="white"/>
</clipPath>
</defs>
</svg>
