<svg width="46" height="49" viewBox="0 0 46 49" fill="none" xmlns="http://www.w3.org/2000/svg">
<g clip-path="url(#clip0_637_233)">
<path d="M0 22.5L13.61 38.12C13.61 38.12 15.96 30.18 27.68 25.86C39.4 21.54 39.43 15.62 39.43 15.62L25.82 0C25.82 0 24.5 5.31999 14.5 9.87C1.11 15.96 0 22.5 0 22.5Z" fill="#FE816F"/>
<g style="mix-blend-mode:multiply" opacity="0.5">
<path d="M34.27 19.3701C31.9941 21.2169 29.4068 22.6425 26.63 23.5801C23.1648 24.8078 19.9548 26.662 17.16 29.0501C15.5141 30.463 14.0854 32.1107 12.92 33.9401L2.73999 22.2901C3.67821 20.57 4.94158 19.0485 6.45996 17.8101C9.24945 15.4855 12.3577 13.5727 15.69 12.1301C18.5345 10.8924 21.1826 9.2449 23.55 7.24013C24.6295 6.32156 25.5993 5.28134 26.44 4.14014L36.84 16.0801C36.253 17.3631 35.3727 18.4901 34.27 19.3701Z" fill="#FE816F"/>
</g>
<path d="M24.1301 15.5701C24.8583 16.4091 25.3215 17.445 25.4612 18.547C25.601 19.649 25.411 20.7678 24.9153 21.7619C24.4196 22.756 23.6404 23.5809 22.6761 24.1324C21.7118 24.684 20.6057 24.9373 19.4975 24.8606C18.3893 24.7838 17.3287 24.3804 16.4497 23.7012C15.5707 23.022 14.9126 22.0975 14.5587 21.0445C14.2048 19.9915 14.1709 18.8573 14.4612 17.785C14.7516 16.7128 15.3532 15.7507 16.1901 15.0201C16.7465 14.5327 17.3938 14.1601 18.0948 13.9238C18.7958 13.6875 19.5366 13.5922 20.2745 13.6433C21.0125 13.6944 21.733 13.891 22.3947 14.2216C23.0564 14.5523 23.6462 15.0106 24.1301 15.5701Z" fill="#FE816F"/>
<g style="mix-blend-mode:multiply" opacity="0.5">
<path d="M21.9999 22.4899C21.7751 22.6687 21.5341 22.8261 21.2799 22.9599C21.0933 23.0532 20.8948 23.1205 20.6899 23.1599L20.2099 22.0699C20.3685 22.0482 20.5234 22.0044 20.6699 21.9399C20.873 21.8561 21.0673 21.7522 21.2499 21.6299L19.7399 19.8799C19.5299 19.8799 19.3199 19.9499 19.0999 19.9699C18.8839 19.9949 18.6658 19.9949 18.4499 19.9699C18.2275 19.9165 18.0125 19.8359 17.8099 19.7299C17.5644 19.5961 17.3471 19.4162 17.1699 19.1999C16.8433 18.8662 16.648 18.426 16.6199 17.9599C16.616 17.5327 16.757 17.1167 17.0199 16.7799L16.3799 16.0599L17.1399 15.3999L17.7499 16.0899C17.918 15.951 18.1028 15.8334 18.2999 15.7399C18.4731 15.6561 18.6539 15.5891 18.8399 15.5399L19.2999 16.5899C19.1699 16.6228 19.0428 16.6662 18.9199 16.7199C18.776 16.7892 18.6358 16.866 18.4999 16.9499L19.8599 18.5199L20.5099 18.4399C20.7325 18.4149 20.9572 18.4149 21.1799 18.4399C21.4068 18.4905 21.6279 18.5643 21.8399 18.6599C22.0742 18.7932 22.2838 18.9657 22.4599 19.1699C22.8171 19.5393 23.0391 20.0185 23.0899 20.5299C23.1067 20.9774 22.9729 21.4175 22.7099 21.7799L23.3599 22.5199L22.6099 23.1699L21.9999 22.4899ZM18.0699 17.2899C17.9924 17.3555 17.932 17.4389 17.8936 17.5329C17.8553 17.6269 17.8403 17.7288 17.8499 17.8299C17.8798 18.0016 17.952 18.1631 18.0599 18.2999C18.1906 18.4534 18.3711 18.556 18.5699 18.5899C18.7822 18.62 18.9976 18.62 19.2099 18.5899L18.0699 17.2899ZM21.6699 21.2399C21.8007 21.0839 21.8653 20.8829 21.8499 20.6799C21.8173 20.4688 21.7244 20.2716 21.5825 20.112C21.4406 19.9524 21.2557 19.8371 21.0499 19.7799C20.834 19.7549 20.6158 19.7549 20.3999 19.7799L21.6699 21.2399Z" fill="#FE816F"/>
</g>
<path d="M30.0101 15.8802C29.8505 16.0085 29.6798 16.1222 29.5001 16.2202C29.3728 16.2802 29.2384 16.3239 29.1001 16.3502L28.7601 15.6002C28.8704 15.5851 28.9781 15.5548 29.0801 15.5102C29.2258 15.4508 29.3635 15.3736 29.4901 15.2802L28.4301 14.0802C28.2901 14.0802 28.1401 14.1302 27.9901 14.1402C27.8441 14.1604 27.6961 14.1604 27.5501 14.1402C27.3926 14.1109 27.2407 14.0569 27.1001 13.9802C26.9296 13.8842 26.7772 13.759 26.6501 13.6102C26.4207 13.3769 26.2854 13.0671 26.2701 12.7402C26.2633 12.4454 26.3627 12.1579 26.5501 11.9302L26.1001 11.4202L26.6301 10.9702L27.0501 11.4602C27.1655 11.3561 27.2973 11.2716 27.4401 11.2102C27.56 11.1549 27.6836 11.1081 27.8101 11.0702L28.1301 11.8002L27.8601 11.8902C27.7596 11.9342 27.6654 11.9913 27.5801 12.0602L28.5201 13.1402C28.6686 13.1104 28.8189 13.0904 28.9701 13.0802C29.1231 13.0655 29.2771 13.0655 29.4301 13.0802C29.5888 13.112 29.7432 13.1623 29.8901 13.2302C30.0559 13.3204 30.2021 13.4428 30.3201 13.5902C30.5754 13.8402 30.7317 14.1741 30.7601 14.5302C30.7718 14.8379 30.6803 15.1406 30.5001 15.3902L30.9501 15.9102L30.4201 16.3702L30.0101 15.8802ZM27.2701 12.2802C27.22 12.3275 27.1807 12.385 27.1548 12.4489C27.1289 12.5127 27.1171 12.5814 27.1201 12.6502C27.1407 12.7713 27.1924 12.8851 27.2701 12.9802C27.3602 13.0853 27.4838 13.1559 27.6201 13.1802C27.7661 13.2002 27.9141 13.2002 28.0601 13.1802L27.2701 12.2802ZM29.7801 15.0202C29.8713 14.9114 29.9178 14.772 29.9101 14.6302C29.8823 14.4827 29.8169 14.3449 29.7201 14.2302C29.6215 14.1195 29.493 14.0397 29.3501 14.0002C29.1974 13.9806 29.0428 13.9806 28.8901 14.0002L29.7801 15.0202Z" fill="#FE816F"/>
<path d="M12.65 27.16C12.5009 27.2945 12.3323 27.4057 12.15 27.49C12.0188 27.5514 11.8814 27.5983 11.7401 27.63L11.4 26.87C11.5113 26.8597 11.6197 26.8292 11.72 26.78C11.8665 26.7265 12.0045 26.6524 12.13 26.56L11.13 25.36L10.68 25.42C10.5337 25.4347 10.3863 25.4347 10.2401 25.42C9.88923 25.3563 9.57317 25.1681 9.35004 24.89C9.12223 24.6586 8.984 24.3538 8.96002 24.03C8.95602 23.7326 9.05497 23.4429 9.24005 23.21L8.80005 22.71L9.32004 22.25L9.74005 22.73C9.85877 22.633 9.98992 22.5522 10.13 22.49C10.2508 22.4287 10.3784 22.3817 10.51 22.35L10.82 23.08C10.7285 23.0932 10.6402 23.1238 10.56 23.17C10.4584 23.2138 10.3613 23.2674 10.2701 23.33L11.22 24.42C11.3652 24.3902 11.5122 24.3702 11.66 24.36C11.8161 24.3402 11.974 24.3402 12.13 24.36C12.2867 24.3872 12.4384 24.4378 12.58 24.51C12.7492 24.5952 12.899 24.7144 13.0201 24.86C13.2606 25.1202 13.4143 25.4486 13.46 25.8C13.4696 26.1089 13.3745 26.412 13.19 26.66L13.64 27.19L13.12 27.64L12.65 27.16ZM9.92004 23.56C9.864 23.6047 9.82066 23.6633 9.79434 23.73C9.76802 23.7967 9.75965 23.8691 9.77005 23.94C9.78176 24.0578 9.83491 24.1677 9.92004 24.25C10.003 24.3602 10.1244 24.4351 10.26 24.46C10.4063 24.475 10.5538 24.475 10.7 24.46L9.92004 23.56ZM12.42 26.3C12.5087 26.1859 12.5546 26.0444 12.55 25.9C12.5243 25.7548 12.4585 25.6197 12.36 25.51C12.2664 25.3955 12.1354 25.3176 11.9901 25.29C11.8411 25.2648 11.689 25.2648 11.54 25.29L12.42 26.3Z" fill="#FE816F"/>
<path d="M10.51 26.62L11.42 47.32C11.42 47.32 18.2 42.58 30.07 46.5C41.94 50.42 45.63 45.82 45.63 45.82L44.73 25.12C44.73 25.12 40.38 28.46 29.73 25.78C15.46 22.19 10.51 26.62 10.51 26.62Z" fill="#FE816F"/>
<g style="mix-blend-mode:multiply" opacity="0.5">
<path d="M39.26 45.5301C36.3286 45.5571 33.4161 45.0592 30.66 44.0601C27.1865 42.861 23.5227 42.3086 19.85 42.4301C17.6811 42.5158 15.5358 42.9132 13.48 43.6101L12.8 28.1301C14.6092 27.37 16.5479 26.9659 18.51 26.9401C22.1425 26.8784 25.7654 27.333 29.2701 28.2901C32.2634 29.1014 35.3602 29.4653 38.46 29.3701C39.8755 29.3208 41.2809 29.1129 42.65 28.7501L43.35 44.5701C42.0797 45.2033 40.6794 45.532 39.26 45.5301Z" fill="#FE816F"/>
</g>
<path d="M33.7 36.2298C33.7505 37.343 33.4695 38.4462 32.8926 39.3995C32.3157 40.3529 31.4689 41.1137 30.4594 41.5854C29.4498 42.0572 28.323 42.2188 27.2216 42.0497C26.1202 41.8806 25.0937 41.3885 24.2721 40.6357C23.4506 39.8828 22.8709 38.9031 22.6065 37.8206C22.3422 36.7381 22.405 35.6014 22.787 34.5546C23.1691 33.5079 23.8532 32.598 24.7527 31.9402C25.6522 31.2825 26.7267 30.9065 27.84 30.8598C28.5774 30.8276 29.3139 30.941 30.0075 31.1934C30.7011 31.4458 31.3381 31.8324 31.8823 32.3311C32.4264 32.8297 32.8671 33.4307 33.179 34.0997C33.4908 34.7686 33.6679 35.4925 33.7 36.2298Z" fill="#FE816F"/>
<g style="mix-blend-mode:multiply" opacity="0.5">
<path d="M27.7201 40.2899C27.4314 40.284 27.1437 40.2539 26.8601 40.1999C26.659 40.1536 26.4642 40.0831 26.2801 39.9899L26.5801 38.8299C26.7188 38.9195 26.8706 38.987 27.0301 39.0299C27.2428 39.0869 27.4604 39.1238 27.6801 39.1399L27.5801 36.8299L27.0201 36.5099C26.8408 36.3858 26.6764 36.2415 26.5301 36.0799C26.3824 35.9033 26.2642 35.7041 26.1801 35.4899C26.0705 35.2338 26.0127 34.9585 26.0101 34.6799C25.9568 34.2162 26.078 33.7492 26.3501 33.3699C26.5983 33.0402 26.9507 32.8041 27.3501 32.6999V31.6999L28.3501 31.6499L28.4001 32.5699C28.6188 32.5657 28.8372 32.5892 29.0501 32.6399C29.238 32.6848 29.422 32.745 29.6001 32.8199L29.2901 33.9299C29.1747 33.8722 29.0541 33.8253 28.9301 33.7899C28.7719 33.7554 28.6115 33.732 28.4501 33.7199L28.5301 35.7899C28.7201 35.8899 28.9101 36.0099 29.1001 36.1299C29.2805 36.2564 29.4479 36.4005 29.6001 36.5599C29.7494 36.741 29.8769 36.939 29.9801 37.1499C30.083 37.3976 30.1405 37.6618 30.1501 37.9299C30.2055 38.4406 30.0779 38.9544 29.7901 39.3799C29.5274 39.7426 29.1506 40.0067 28.7201 40.1299V41.1299H27.7201V40.2899ZM27.8901 33.7599C27.7883 33.7649 27.6891 33.7937 27.6005 33.8441C27.5119 33.8945 27.4364 33.965 27.3801 34.0499C27.29 34.2004 27.2481 34.3749 27.2601 34.5499C27.262 34.7495 27.3367 34.9415 27.4701 35.0899C27.6111 35.2484 27.7765 35.3834 27.9601 35.4899L27.8901 33.7599ZM28.2501 39.0999C28.4499 39.0574 28.6256 38.9391 28.7401 38.7699C28.8448 38.5844 28.8934 38.3725 28.8801 38.1599C28.875 37.9458 28.8014 37.739 28.6701 37.5699C28.5144 37.4192 28.3435 37.2852 28.1601 37.1699L28.2501 39.0999Z" fill="#FE816F"/>
</g>
<path d="M38.1 40.1398C37.9006 40.1621 37.6993 40.1621 37.5 40.1398C37.3592 40.1123 37.224 40.0616 37.1 39.9898L37.3 39.1998C37.3973 39.2562 37.5015 39.2999 37.61 39.3298C37.761 39.3666 37.9149 39.3901 38.07 39.3998L37.99 37.8098L37.61 37.5798C37.4852 37.4935 37.3711 37.3928 37.27 37.2798C37.1674 37.1595 37.0831 37.0247 37.02 36.8798C36.9501 36.6973 36.9096 36.5049 36.9 36.3098C36.874 35.9834 36.9623 35.6581 37.15 35.3898C37.3307 35.1591 37.5847 34.9969 37.87 34.9298V34.2598H38.56V34.9098C38.7125 34.8881 38.8674 34.8881 39.02 34.9098L39.39 35.0398L39.19 35.7998L38.93 35.7098H38.6L38.66 37.1498L39.05 37.3798C39.1759 37.4684 39.2931 37.5689 39.4 37.6798C39.5037 37.8048 39.5911 37.9426 39.66 38.0898C39.7359 38.263 39.7735 38.4506 39.77 38.6398C39.8099 38.9896 39.7287 39.3425 39.54 39.6398C39.354 39.8888 39.09 40.0684 38.79 40.1498V40.8398H38.09L38.1 40.1398ZM38.21 35.6198C38.1396 35.6274 38.0716 35.649 38.0098 35.6834C37.9479 35.7177 37.8936 35.7641 37.85 35.8198C37.7978 35.9291 37.7705 36.0486 37.77 36.1698C37.7755 36.3068 37.8285 36.4376 37.92 36.5398C38.0198 36.6484 38.1342 36.7427 38.26 36.8198L38.21 35.6198ZM38.46 39.3298C38.6008 39.2985 38.7254 39.2166 38.81 39.0998C38.8735 38.9655 38.9044 38.8182 38.9 38.6698C38.893 38.521 38.8406 38.3779 38.75 38.2598C38.646 38.1516 38.5283 38.0574 38.4 37.9798L38.46 39.3298Z" fill="#FE816F"/>
<path d="M17.5 38.1499C17.2982 38.1585 17.0962 38.1383 16.9 38.09C16.7572 38.0588 16.6193 38.0083 16.4901 37.9399L16.7001 37.14C16.7953 37.2005 16.9001 37.2444 17.0101 37.2699C17.1565 37.3137 17.3075 37.3406 17.46 37.3499L17.3901 35.7599L17.0101 35.53C16.8853 35.4437 16.7711 35.343 16.6701 35.2299C16.4269 34.9547 16.2981 34.597 16.31 34.2299C16.278 33.9091 16.3594 33.5871 16.5401 33.3199C16.724 33.086 16.981 32.9205 17.2701 32.8499V32.1899H17.97V32.8299C18.1215 32.8295 18.2724 32.8463 18.4201 32.8799C18.5506 32.9112 18.6778 32.9547 18.8001 33.0099L18.6 33.78C18.5148 33.7372 18.4239 33.7069 18.3301 33.6899C18.2229 33.6567 18.1121 33.6366 18 33.6299L18.0701 35.0699L18.46 35.2999C18.5861 35.3922 18.7033 35.496 18.81 35.61C18.9124 35.7324 18.9997 35.8667 19.0701 36.0099C19.1436 36.1808 19.1843 36.364 19.19 36.5499C19.2114 36.8997 19.1278 37.2479 18.9501 37.5499C18.7642 37.797 18.4996 37.9734 18.2001 38.0499V38.75H17.5V38.1499ZM17.6101 33.6199C17.5381 33.6256 17.4684 33.6475 17.4061 33.6838C17.3438 33.7202 17.2904 33.7701 17.25 33.8299C17.1878 33.9318 17.1598 34.051 17.1701 34.17C17.1757 34.3099 17.2286 34.4439 17.3201 34.5499C17.4208 34.6548 17.5351 34.7456 17.66 34.8199L17.6101 33.6199ZM17.85 37.3299C17.9892 37.2947 18.1125 37.2137 18.2001 37.0999C18.2716 36.9683 18.3062 36.8197 18.3001 36.67C18.2981 36.5214 18.2411 36.3789 18.1401 36.2699C18.0452 36.1535 17.93 36.0552 17.8001 35.9799L17.85 37.3299Z" fill="#FE816F"/>
</g>
<defs>
<clipPath id="clip0_637_233">
<rect width="45.63" height="48.08" fill="white"/>
</clipPath>
</defs>
</svg>
