<svg width="83" height="77" viewBox="0 0 83 77" fill="none" xmlns="http://www.w3.org/2000/svg">
<g clip-path="url(#clip0_637_183)">
<path d="M41.4465 41.4375V58.1578C41.4465 58.4563 41.5651 58.7426 41.7762 58.9537C41.9873 59.1648 42.2736 59.2834 42.5722 59.2834L66.9032 59.2327C67.1959 59.2328 67.4773 59.1189 67.6874 58.9151C67.8976 58.7112 68.02 58.4335 68.0288 58.1409V41.4488L41.4465 41.4375Z" fill="#FE816F"/>
<path d="M60.1155 33.795C61.91 33.8657 63.7059 33.6992 65.4567 33.2997C66.1905 33.1026 66.8878 32.7891 67.5223 32.3711C68.5262 31.6697 69.2665 30.6527 69.6255 29.4819C69.9845 28.3111 69.9416 27.0539 69.5035 25.9104C69.0801 24.9152 68.3751 24.0654 67.4751 23.4655C66.5752 22.8656 65.5196 22.5417 64.438 22.5337C64.159 22.538 63.8806 22.5625 63.605 22.6068C61.8715 22.8995 60.442 23.9632 59.215 25.1844C59.3453 24.7713 59.4487 24.3502 59.5245 23.9238C59.6447 23.2508 59.6562 22.563 59.5583 21.8865C59.3853 20.7885 58.842 19.7826 58.0187 19.0357C57.1954 18.2887 56.1415 17.8457 55.0317 17.78C53.922 17.7143 52.8232 18.0299 51.9175 18.6745C51.0118 19.319 50.3536 20.2538 50.0522 21.3237C49.745 22.5941 49.8075 23.9258 50.2323 25.1619C49.011 23.9575 47.5926 22.9108 45.876 22.6294C45.6006 22.5843 45.3221 22.5617 45.043 22.5618C43.9615 22.5698 42.9058 22.8937 42.0059 23.4936C41.106 24.0935 40.401 24.9433 39.9776 25.9385C39.5338 27.0893 39.4907 28.3561 39.8552 29.5344C40.2198 30.7127 40.9707 31.7338 41.9869 32.433C42.6225 32.8462 43.3197 33.1558 44.0525 33.3504C45.8052 33.749 47.6034 33.9118 49.3993 33.8344L60.1155 33.795ZM58.1963 30.3057C58.3989 30.0131 58.6353 29.6754 58.6916 29.6079L59.215 28.9776C60.5489 27.3849 62.2036 25.3982 64.0272 25.0887C64.1629 25.0661 64.3004 25.0548 64.438 25.055C65.0579 25.0353 65.6673 25.2177 66.1744 25.5747C66.6815 25.9317 67.0588 26.4438 67.2494 27.0339C67.4399 27.624 67.4335 28.2601 67.2309 28.8462C67.0284 29.4323 66.6408 29.9366 66.1265 30.2832C65.714 30.5393 65.2639 30.7292 64.7926 30.846C63.2591 31.1797 61.689 31.314 60.1211 31.2456H59.1643C58.6015 31.2456 58.0387 31.2456 57.5209 31.2456L58.1963 30.3057ZM51.2904 31.3075H49.3993C47.832 31.3766 46.2622 31.2461 44.7278 30.9192C44.2558 30.8047 43.8053 30.6147 43.3939 30.3564C42.8799 30.0122 42.4913 29.5106 42.2866 28.9269C42.0818 28.3432 42.0719 27.7088 42.2584 27.1189C42.4449 26.5291 42.8177 26.0157 43.3208 25.6557C43.8239 25.2957 44.4302 25.1086 45.0487 25.1225C45.1863 25.1223 45.3237 25.1336 45.4595 25.1563C47.2831 25.4602 48.9434 27.4412 50.2829 29.0282C50.463 29.2477 50.6375 29.4559 50.8064 29.6473C50.8683 29.7261 51.099 30.0581 51.3073 30.3564C51.5155 30.6546 51.7913 31.043 51.9996 31.33L51.2904 31.3075ZM54.0539 27.8238L53.7556 27.171C53.0014 25.5446 52.0671 23.5186 52.478 22.0159C52.6388 21.5336 52.9446 21.1126 53.3535 20.8105C53.7625 20.5083 54.2547 20.3397 54.763 20.3276H54.8869C55.415 20.378 55.9127 20.5975 56.3061 20.9534C56.6995 21.3093 56.9677 21.7826 57.0706 22.3029C57.1259 22.711 57.1144 23.1254 57.0369 23.5298C56.7318 24.8553 56.257 26.1359 55.6242 27.3399L55.2696 28.1052C55.1064 28.4654 54.9488 28.8087 54.7912 29.1351L54.4197 28.4823C54.2171 28.1446 54.0989 27.9308 54.0539 27.8126V27.8238Z" fill="#FE816F"/>
<path d="M57.1929 35.3411L52.3132 35.3462L52.3383 59.2419L57.218 59.2368L57.1929 35.3411Z" fill="white"/>
<g style="mix-blend-mode:multiply" opacity="0.51">
<path d="M68.0738 41.4375H41.4521V45.377H68.0738V41.4375Z" fill="#FE816F"/>
</g>
<path d="M68.0907 51.5677L68.0851 47.0711L41.4578 47.0542V51.5677H68.0907Z" fill="white"/>
<path d="M39.6343 35.5059C39.6343 36.7891 39.6343 38.6181 39.6343 39.9013C39.635 40.0914 39.6734 40.2796 39.7472 40.4548C39.821 40.6301 39.9287 40.789 40.0642 40.9224C40.1998 41.0558 40.3603 41.1611 40.5367 41.2321C40.7131 41.3032 40.9018 41.3386 41.092 41.3364H68.4228C68.81 41.3349 69.1807 41.1801 69.454 40.9058C69.7272 40.6316 69.8806 40.2602 69.8806 39.8731V35.5059C69.8792 35.3183 69.8401 35.1328 69.7654 34.9606C69.6908 34.7884 69.5821 34.6331 69.4461 34.5038C69.31 34.3746 69.1492 34.2741 68.9734 34.2084C68.7976 34.1427 68.6103 34.1132 68.4228 34.1215H41.092C40.9045 34.1132 40.7173 34.1427 40.5414 34.2084C40.3656 34.2741 40.2049 34.3746 40.0688 34.5038C39.9327 34.6331 39.8241 34.7884 39.7494 34.9606C39.6748 35.1328 39.6356 35.3183 39.6343 35.5059Z" fill="#FFBAAF"/>
<path d="M22.0998 51.2787L17.1072 56.1064L20.8202 59.9457L25.8128 55.118L22.0998 51.2787Z" fill="white"/>
<path d="M45.4763 32.3994C43.3244 30.1738 40.5609 28.6363 37.5351 27.9813C34.5094 27.3263 31.3574 27.5832 28.4776 28.7196C25.5979 29.8559 23.1199 31.8206 21.3569 34.3652C19.5939 36.9099 18.6252 39.9201 18.5733 43.0153C18.5213 46.1105 19.3884 49.1515 21.065 51.7539C22.7416 54.3562 25.1523 56.403 27.9922 57.6353C30.8322 58.8677 33.9738 59.2302 37.0199 58.6771C40.0659 58.124 42.8795 56.6801 45.1048 54.528C48.087 51.6419 49.8013 47.6899 49.8709 43.5406C49.9406 39.3912 48.3599 35.384 45.4763 32.3994ZM42.6002 51.9392C40.8866 53.5952 38.7205 54.706 36.3756 55.1311C34.0308 55.5562 31.6125 55.2766 29.4266 54.3275C27.2407 53.3785 25.3853 51.8026 24.095 49.7992C22.8046 47.7959 22.1374 45.4549 22.1775 43.0723C22.2176 40.6898 22.9634 38.3726 24.3204 36.4138C25.6775 34.455 27.5849 32.9425 29.8016 32.0676C32.0182 31.1927 34.4445 30.9946 36.7737 31.4985C39.1029 32.0023 41.2304 33.1854 42.8872 34.8982C45.1056 37.1978 46.3211 40.2834 46.2673 43.478C46.2135 46.6727 44.8947 49.7156 42.6002 51.9392Z" fill="#303030"/>
<path d="M24.269 36.4793C26.0018 33.9285 28.6466 32.139 31.659 31.4793C34.6714 30.8196 37.8221 31.3398 40.4625 32.9329C43.1029 34.5259 45.032 37.0706 45.8527 40.043C46.6734 43.0153 46.3231 46.1892 44.8741 48.9112C45.7939 47.5572 46.4281 46.03 46.7381 44.4227C47.0481 42.8155 47.0273 41.162 46.6771 39.5631C46.3269 37.9641 45.6545 36.4533 44.7011 35.1228C43.7476 33.7923 42.533 32.67 41.1314 31.8243C39.7299 30.9787 38.1707 30.4275 36.549 30.2043C34.9273 29.9811 33.2772 30.0907 31.6992 30.5263C30.1213 30.9619 28.6487 31.7144 27.3712 32.7379C26.0937 33.7614 25.0382 35.0344 24.269 36.4793Z" fill="#FE816F"/>
<path d="M45.1049 54.5278C46.2616 53.4105 47.2393 52.1216 48.0035 50.7065C47.3676 51.6703 46.6298 52.5628 45.8028 53.3685C43.1159 55.9625 39.5901 57.5108 35.8618 57.7337C32.1335 57.9567 28.4484 56.8397 25.4714 54.5844C22.4944 52.3291 20.4217 49.0839 19.6274 45.4347C18.8331 41.7855 19.3695 37.9726 21.1397 34.6841C19.0224 37.9039 18.1674 41.7915 18.7386 45.6025C19.3097 49.4134 21.2668 52.8797 24.235 55.3375C27.2032 57.7952 30.9738 59.0716 34.8247 58.9222C38.6756 58.7728 42.336 57.2081 45.1049 54.5278Z" fill="#FE816F"/>
<path d="M1.08062 70.393C0.745716 70.7166 0.47787 71.1031 0.292374 71.5303C0.106877 71.9575 0.00736575 72.417 -0.000474163 72.8827C-0.00831408 73.3483 0.0756705 73.811 0.246681 74.2441C0.417692 74.6773 0.672381 75.0726 0.996195 75.4074C1.6497 76.082 2.54418 76.4697 3.48331 76.4856C4.42244 76.5014 5.32948 76.144 6.00535 75.4918L21.2017 60.8256C21.5364 60.5025 21.8041 60.1165 21.9895 59.6898C22.175 59.263 22.2744 58.804 22.2823 58.3388C22.2901 57.8736 22.2062 57.4114 22.0352 56.9787C21.8643 56.5459 21.6097 56.1511 21.2861 55.8169C20.9629 55.4822 20.5769 55.2145 20.1501 55.0291C19.7234 54.8437 19.2642 54.7442 18.799 54.7363C18.3338 54.7285 17.8716 54.8124 17.4388 54.9834C17.006 55.1543 16.6112 55.4088 16.2769 55.7324L1.08062 70.393Z" fill="#FE816F"/>
<mask id="mask0_637_183" style="mask-type:luminance" maskUnits="userSpaceOnUse" x="22" y="31" width="25" height="25">
<path d="M42.6002 51.9393C40.8866 53.5953 38.7205 54.7061 36.3756 55.1312C34.0308 55.5563 31.6125 55.2766 29.4266 54.3276C27.2407 53.3785 25.3853 51.8027 24.0949 49.7993C22.8046 47.7959 22.1374 45.4549 22.1775 43.0724C22.2176 40.6898 22.9634 38.3726 24.3204 36.4138C25.6775 34.455 27.5849 32.9425 29.8015 32.0676C32.0182 31.1927 34.4445 30.9947 36.7737 31.4985C39.1029 32.0023 41.2304 33.1854 42.8872 34.8982C45.1056 37.1979 46.3211 40.2834 46.2673 43.4781C46.2135 46.6727 44.8947 49.7156 42.6002 51.9393Z" fill="white"/>
</mask>
<g mask="url(#mask0_637_183)">
<path d="M30.0491 43.689L30.0885 74.8671C30.0885 75.4328 30.3132 75.9754 30.7132 76.3754C31.1133 76.7754 31.6558 77.0001 32.2216 77.0001L77.3997 76.9438C77.9654 76.9379 78.506 76.7086 78.9034 76.3059C79.3009 75.9032 79.523 75.3598 79.5215 74.794L79.4765 43.689H30.0491Z" fill="#FE816F"/>
<g style="mix-blend-mode:multiply" opacity="0.51">
<path d="M79.4821 43.689H30.0491V51.0051H79.4821V43.689Z" fill="#FE816F"/>
</g>
<path d="M79.5102 62.8235L79.499 54.438L30.0603 54.4268L30.0659 62.8235H79.5102Z" fill="white"/>
<path d="M26.8298 32.8495C26.8298 35.2357 26.8298 38.68 26.8298 41.0662C26.8328 41.7816 27.1195 42.4667 27.6271 42.971C28.1346 43.4754 28.8215 43.7578 29.537 43.7563H80.2815C80.6374 43.7563 80.9899 43.6861 81.3188 43.5497C81.6476 43.4133 81.9463 43.2134 82.1977 42.9614C82.4492 42.7095 82.6485 42.4104 82.7842 42.0813C82.9199 41.7522 82.9894 41.3996 82.9886 41.0436V32.8495C82.9872 32.4968 82.916 32.1478 82.7793 31.8226C82.6426 31.4974 82.4431 31.2024 82.192 30.9546C81.941 30.7067 81.6435 30.5109 81.3166 30.3783C80.9897 30.2457 80.6398 30.179 80.2871 30.1819H29.5427C29.1888 30.1767 28.8373 30.2418 28.5088 30.3735C28.1802 30.5051 27.8811 30.7007 27.6287 30.9489C27.3764 31.197 27.1758 31.4928 27.0387 31.8191C26.9015 32.1454 26.8305 32.4956 26.8298 32.8495Z" fill="#FFBAAF"/>
<path d="M34.2365 40.8748C33.938 40.8748 33.6516 40.7562 33.4405 40.5451C33.2294 40.334 33.1108 40.0478 33.1108 39.7492V30.7447C33.1108 30.4462 33.2294 30.1599 33.4405 29.9488C33.6516 29.7377 33.938 29.6191 34.2365 29.6191C34.535 29.6191 34.8213 29.7377 35.0325 29.9488C35.2436 30.1599 35.3621 30.4462 35.3621 30.7447V39.7492C35.3621 40.0478 35.2436 40.334 35.0325 40.5451C34.8213 40.7562 34.535 40.8748 34.2365 40.8748ZM34.2365 30.1819C34.0872 30.1819 33.9441 30.2412 33.8385 30.3468C33.733 30.4523 33.6737 30.5954 33.6737 30.7447V39.7492C33.6737 39.8985 33.733 40.0416 33.8385 40.1472C33.9441 40.2527 34.0872 40.312 34.2365 40.312C34.3858 40.312 34.5289 40.2527 34.6345 40.1472C34.74 40.0416 34.7993 39.8985 34.7993 39.7492V30.7447C34.7993 30.5954 34.74 30.4523 34.6345 30.3468C34.5289 30.2412 34.3858 30.1819 34.2365 30.1819Z" fill="white"/>
<path d="M34.7993 38.9277L31.4224 41.9049V52.6934H38.1763V41.9049L34.7993 38.9277ZM34.7993 41.5953C34.6268 41.5953 34.4581 41.5442 34.3147 41.4483C34.1712 41.3525 34.0594 41.2162 33.9934 41.0568C33.9273 40.8974 33.91 40.722 33.9437 40.5528C33.9774 40.3836 34.0605 40.2282 34.1825 40.1062C34.3045 39.9842 34.4599 39.9011 34.6291 39.8675C34.7984 39.8338 34.9738 39.8511 35.1332 39.9171C35.2926 39.9831 35.4288 40.0949 35.5247 40.2384C35.6205 40.3818 35.6717 40.5505 35.6717 40.723C35.6717 40.9544 35.5798 41.1762 35.4162 41.3398C35.2526 41.5034 35.0307 41.5953 34.7993 41.5953Z" fill="white"/>
</g>
</g>
<defs>
<clipPath id="clip0_637_183">
<rect width="83" height="77" fill="white"/>
</clipPath>
</defs>
</svg>
