<svg width="62" height="52" viewBox="0 0 62 52" fill="none" xmlns="http://www.w3.org/2000/svg">
<g clip-path="url(#clip0_637_311)">
<path d="M43.5661 10.7531L1.86235 21.5151C0.541482 21.856 -0.252973 23.2031 0.0878898 24.524L3.91844 39.3677C4.25931 40.6886 5.60641 41.483 6.92728 41.1421L48.631 30.3801C49.9519 30.0393 50.7464 28.6922 50.4055 27.3713L46.5749 12.5276C46.2341 11.2067 44.887 10.4122 43.5661 10.7531Z" fill="#FE816F"/>
<mask id="mask0_637_311" style="mask-type:luminance" maskUnits="userSpaceOnUse" x="-1" y="10" width="52" height="32">
<path d="M43.5561 10.7531L1.85234 21.5151C0.531472 21.856 -0.262983 23.2031 0.0778801 24.524L3.90843 39.3677C4.2493 40.6886 5.5964 41.483 6.91727 41.1421L48.621 30.3801C49.9419 30.0393 50.7363 28.6922 50.3955 27.3713L46.5649 12.5276C46.2241 11.2067 44.877 10.4122 43.5561 10.7531Z" fill="white"/>
</mask>
<g mask="url(#mask0_637_311)">
<g style="mix-blend-mode:multiply" opacity="0.5">
<path d="M50.6423 19.399L1.99597 31.9526L4.81954 42.8942L53.4658 30.3406L50.6423 19.399Z" fill="#FE816F"/>
</g>
</g>
<path d="M19.4199 24.0199C19.4899 24.3016 19.5302 24.5898 19.5399 24.8799C19.5585 25.1657 19.5315 25.4526 19.4599 25.7299C19.3924 26.0044 19.2773 26.265 19.1199 26.4999C18.9467 26.7478 18.7257 26.9586 18.4699 27.1199V27.2199C18.7464 27.218 19.022 27.2516 19.2899 27.3199C19.5597 27.3903 19.8117 27.5163 20.0299 27.6899C20.2769 27.8871 20.4897 28.1236 20.6599 28.3899C20.8587 28.7299 21.0069 29.0971 21.0999 29.4799C21.2464 30.0002 21.2772 30.5464 21.1899 31.0799C21.1081 31.5324 20.9233 31.9601 20.6499 32.3299C20.3781 32.6946 20.0386 33.0036 19.6499 33.2399C19.2165 33.496 18.7483 33.688 18.2599 33.8099L17.6799 33.9599C17.4399 34.0199 17.1799 34.0799 16.8999 34.1299C16.6199 34.1799 16.3299 34.2299 16.0299 34.2799C15.7482 34.3187 15.4643 34.3388 15.1799 34.3399L12.2899 23.1499C12.6299 22.9899 13.0599 22.8199 13.5699 22.6399C14.0773 22.4512 14.5947 22.291 15.1199 22.1599C15.5793 22.042 16.0475 21.9617 16.5199 21.9199C16.9437 21.8769 17.3718 21.9177 17.7799 22.0399C18.1636 22.167 18.508 22.3908 18.7799 22.6899C19.0982 23.0746 19.3179 23.5311 19.4199 24.0199ZM16.0099 27.2399C16.149 27.2007 16.2859 27.1539 16.4199 27.0999C16.5441 27.0607 16.6646 27.0105 16.7799 26.9499C17.0662 26.7525 17.2914 26.4788 17.4299 26.1599C17.5909 25.801 17.6157 25.3958 17.4999 25.0199C17.4357 24.7759 17.3346 24.5432 17.1999 24.3299C17.0874 24.1721 16.9404 24.0421 16.7699 23.9499C16.6054 23.8681 16.4236 23.827 16.2399 23.8299C16.0409 23.8246 15.8422 23.8482 15.6499 23.8999C15.3329 23.9697 15.0245 24.0736 14.7299 24.2099L15.5399 27.3599L16.0099 27.2399ZM17.8299 32.0299C18.0374 31.9823 18.233 31.8931 18.4049 31.7676C18.5768 31.6421 18.7214 31.483 18.8299 31.2999C18.9401 31.0854 19.0065 30.8512 19.0254 30.6109C19.0443 30.3706 19.0152 30.1289 18.9399 29.8999C18.8756 29.6066 18.7495 29.3305 18.5699 29.0899C18.4368 28.9177 18.261 28.7833 18.0599 28.6999C17.861 28.6309 17.6492 28.607 17.4399 28.6299C17.2136 28.6513 16.9895 28.6914 16.7699 28.7499L15.9399 28.9599L16.7799 32.1899C16.9326 32.2102 17.0873 32.2102 17.2399 32.1899L17.8299 32.0299Z" fill="white"/>
<path d="M25.21 19.7197L27.14 19.2197L29.04 26.5897C29.4362 27.7033 29.4113 28.9233 28.97 30.0197C28.735 30.4359 28.4134 30.7967 28.0269 31.0779C27.6405 31.3591 27.1982 31.5541 26.73 31.6497C26.2408 31.8256 25.7193 31.8933 25.2015 31.8485C24.6836 31.8036 24.1816 31.6471 23.73 31.3897C22.8704 30.7146 22.29 29.7461 22.1 28.6697L20.1 21.0297L22.1 20.4997L23.97 27.7797C24.082 28.4357 24.3726 29.0482 24.81 29.5497C24.9933 29.6954 25.2106 29.792 25.4415 29.8304C25.6724 29.8689 25.9094 29.848 26.13 29.7697C26.3583 29.7325 26.572 29.6337 26.7483 29.4839C26.9245 29.3341 27.0565 29.139 27.13 28.9197C27.2521 28.2792 27.2073 27.618 27 26.9997L25.21 19.7197Z" fill="white"/>
<path d="M32.65 25.42L27.72 19.1L30.16 18.48L32.84 22.37L33.32 23.56H33.4L33.25 22.25L33.69 17.58L35.88 17.02L34.72 24.87L35.82 29.11L33.77 29.64L32.65 25.42Z" fill="white"/>
<path d="M38.96 24.9102L59.33 38.3902L57.35 41.3702L49.62 36.1402L48.09 40.5202L38.96 24.9102Z" fill="#414141"/>
<path d="M38.96 24.9102L59.33 38.3902L61.3 35.4102L53.46 30.3402L56.89 27.2102L38.96 24.9102Z" fill="#303030"/>
<path d="M19.9111 -0.00163322L17.3258 0.665527L20.969 14.783L23.5543 14.1159L19.9111 -0.00163322Z" fill="white"/>
<path d="M5.19664 7.96045L3.84192 10.2612L14.3807 16.4666L15.7354 14.1658L5.19664 7.96045Z" fill="white"/>
<path d="M34.0752 0.542685L27.8459 11.0674L30.1437 12.4273L36.3729 1.90263L34.0752 0.542685Z" fill="white"/>
<path d="M29.5119 37.1898L26.9266 37.8569L30.5673 51.9648L33.1526 51.2976L29.5119 37.1898Z" fill="white"/>
<path d="M20.3348 39.5481L14.1221 50.0825L16.4219 51.4389L22.6346 40.9044L20.3348 39.5481Z" fill="white"/>
<path d="M36.1015 35.5254L34.7468 37.8262L45.2856 44.0315L46.6404 41.7308L36.1015 35.5254Z" fill="white"/>
</g>
<defs>
<clipPath id="clip0_637_311">
<rect width="61.3" height="51.98" fill="white"/>
</clipPath>
</defs>
</svg>
