<svg width="42" height="49" viewBox="0 0 42 49" fill="none" xmlns="http://www.w3.org/2000/svg">
<g clip-path="url(#clip0_637_123)">
<path d="M2.23455 13.1461L1.79715 13.2956C1.22662 13.4838 0.64184 13.6767 0.0427911 13.8456L0 13.6864C0.594295 13.5175 1.17908 13.3246 1.74485 13.1364L2.187 12.9917L2.23455 13.1461Z" fill="#FE816F"/>
<path d="M3.71803 15.4621L3.53261 15.8915C3.29964 16.4511 3.05717 17.03 2.78142 17.5944L2.63403 17.5221C2.90503 16.9576 3.1475 16.3836 3.38522 15.8288L3.56589 15.3994L3.71803 15.4621Z" fill="#FE816F"/>
<path d="M2.69096 9.40724L2.5721 9.52303L2.25831 9.18051C1.85419 8.73185 1.43581 8.27354 0.993652 7.83453L1.10776 7.71875C1.54991 8.15776 1.97305 8.62089 2.37717 9.06472L2.69096 9.40724Z" fill="#FE816F"/>
<path opacity="0.38" d="M8.12053 16.5187C9.14311 18.068 10.5956 19.2749 12.2942 19.9865C13.9928 20.6981 15.8613 20.8825 17.6632 20.5165C19.4651 20.1504 21.1196 19.2503 22.4173 17.9299C23.715 16.6096 24.5977 14.9284 24.9536 13.099C25.3095 11.2696 25.1227 9.37418 24.4168 7.65251C23.711 5.93083 22.5178 4.46026 20.9881 3.42681C19.4584 2.39336 17.6611 1.84347 15.8234 1.84669C13.9857 1.84992 12.1902 2.40612 10.6641 3.44493C9.65099 4.13379 8.78151 5.01841 8.10536 6.04829C7.42921 7.07816 6.95963 8.23311 6.72343 9.44716C6.48722 10.6612 6.48903 11.9106 6.72875 13.1239C6.96847 14.3373 7.4414 15.4908 8.12053 16.5187Z" fill="#FFBAAF"/>
<path d="M24.5276 28.3236L28.1172 25.8826L22.8589 19.9487L21.0237 21.1982L24.5276 28.3236Z" fill="#FE816F"/>
<path d="M38.4817 49L42 46.6071L28.0412 25.9062L24.5229 28.2991L38.4817 49Z" fill="#FE816F"/>
<path d="M13.6071 22.293C15.758 22.7372 17.9905 22.524 20.022 21.6806C22.0536 20.8372 23.793 19.4013 25.0202 17.5546C26.2475 15.7079 26.9074 13.5334 26.9165 11.3061C26.9256 9.07886 26.2836 6.89885 25.0715 5.04189C23.8594 3.18493 22.1319 1.73444 20.1073 0.873885C18.0827 0.0133335 15.8521 -0.218616 13.6976 0.207384C11.543 0.633384 9.56144 1.69819 8.0034 3.26712C6.44537 4.83604 5.3809 6.83859 4.94464 9.02147C4.65449 10.47 4.64841 11.9624 4.92672 13.4134C5.20504 14.8644 5.76231 16.2455 6.56672 17.4779C7.37112 18.7103 8.40689 19.7698 9.61489 20.596C10.8229 21.4222 12.1794 21.9988 13.6071 22.293ZM7.32657 14.6996C6.65662 12.9957 6.4996 11.1284 6.87533 9.33397C7.25107 7.53949 8.1427 5.89834 9.43751 4.61798C10.7323 3.33762 12.3722 2.47554 14.1498 2.14073C15.9274 1.80592 17.7629 2.0134 19.4243 2.73695C21.0857 3.46051 22.4983 4.66765 23.4837 6.20576C24.4691 7.74387 24.9829 9.5439 24.9603 11.3783C24.9376 13.2127 24.3794 14.9991 23.3564 16.5116C22.3333 18.0242 20.8912 19.195 19.2125 19.8761C18.0971 20.3285 16.9048 20.5536 15.7037 20.5383C14.5026 20.523 13.3162 20.2677 12.2124 19.787C11.1086 19.3063 10.109 18.6095 9.27061 17.7366C8.43227 16.8637 7.77168 15.8317 7.32657 14.6996Z" fill="#FE816F"/>
<g style="mix-blend-mode:multiply" opacity="0.72">
<path d="M6.47538 9.14196C6.76299 7.69652 7.36118 6.33322 8.22733 5.14914C9.09348 3.96507 10.2063 2.98935 11.4865 2.2915C9.56183 3.86206 8.28463 6.10538 7.90525 8.58176C7.52586 11.0581 8.07164 13.589 9.43559 15.6783C10.7995 17.7676 12.8833 19.2647 15.2785 19.8761C17.6737 20.4875 20.2076 20.1691 22.3835 18.9834C20.7951 20.2775 18.8523 21.0433 16.8196 21.1767C14.7868 21.31 12.763 20.8044 11.0237 19.7287C9.2843 18.653 7.91397 17.0594 7.09925 15.165C6.28453 13.2706 6.06503 11.1675 6.47063 9.14196H6.47538Z" fill="#FFAC9F"/>
</g>
<path d="M13.8257 21.2799C12.5289 21.0138 11.2965 20.4912 10.1988 19.7418C9.10105 18.9924 8.15955 18.031 7.42801 16.9124C5.9506 14.6533 5.41812 11.8912 5.94771 9.23376C6.20994 7.91792 6.72502 6.66737 7.46354 5.55351C8.20206 4.43966 9.14957 3.48431 10.252 2.74201C12.4783 1.24289 15.2004 0.702582 17.8193 1.23996C19.7684 1.63989 21.5572 2.61613 22.9604 4.04571C24.3637 5.47529 25.3186 7.29427 25.705 9.27353C26.0913 11.2528 25.8918 13.3038 25.1316 15.1682C24.3713 17.0326 23.0843 18.627 21.4327 19.7506C20.3286 20.506 19.0872 21.0303 17.781 21.2929C16.4748 21.5555 15.1302 21.5511 13.8257 21.2799ZM6.26626 9.29647C5.81688 11.5409 6.14912 13.874 7.20629 15.8976C8.26345 17.9211 9.97999 19.5096 12.0629 20.3919C14.1458 21.2742 16.4659 21.3956 18.6272 20.7354C20.7885 20.0752 22.6569 18.6743 23.9136 16.7718C25.1703 14.8693 25.7373 12.5833 25.5178 10.3038C25.2983 8.02441 24.306 5.89293 22.7102 4.27325C21.1144 2.65358 19.014 1.64612 16.7677 1.42286C14.5213 1.19959 12.2682 1.77437 10.393 3.04906C8.26105 4.49956 6.77833 6.74421 6.26626 9.29647Z" fill="white"/>
<path d="M28.5674 26.6502L25.0452 29.124L25.3618 29.5881L28.884 27.1143L28.5674 26.6502Z" fill="white"/>
<path d="M10.7924 5.90511C8.49126 8.77072 7.93976 10.464 8.35339 12.6591C8.53881 13.7301 10.355 13.8507 11.3058 13.0788C12.6751 11.9788 14.0966 8.07602 14.0824 6.32482C14.0729 5.06086 12.4469 3.84997 10.7924 5.90511Z" fill="white"/>
</g>
<defs>
<clipPath id="clip0_637_123">
<rect width="42" height="49" fill="white"/>
</clipPath>
</defs>
</svg>
