<svg width="60" height="36" viewBox="0 0 60 36" fill="none" xmlns="http://www.w3.org/2000/svg">
<g clip-path="url(#clip0_637_137)">
<path d="M59.39 31.21C59.39 33.58 58.64 35.53 56.27 35.53H3.10999C0.739993 35.53 0 33.58 0 31.21V4.31C0 1.94 0.739993 0 3.10999 0H56.27C58.64 0 59.39 1.94 59.39 4.31V31.21Z" fill="#FE816F"/>
<path d="M19.33 10.7602C19.33 11.3202 18.33 11.7002 17.91 11.7002L6.25002 11.7802C5.82002 11.7802 4.76001 11.4302 4.76001 10.8702V4.5502C4.76001 4.0002 5.37001 3.78021 5.76001 3.78021L18.59 3.72021C19.02 3.72021 19.16 4.18021 19.16 4.72021L19.33 10.7602Z" fill="white"/>
<path d="M6.02 28.1699H5.96C5.95386 28.1805 5.95062 28.1926 5.95062 28.2049C5.95062 28.2172 5.95386 28.2293 5.96 28.2399V28.4299C5.96 28.4299 5.96 28.5399 5.96 28.6199V28.6799V28.7399V28.7999H5.91V28.8499L5.83 28.9199H5.77H5.68H5.53H5.46999L5.42 28.8599V28.7899V28.7299V28.6399V28.5899C5.4238 28.5567 5.4238 28.5231 5.42 28.4899C5.42593 28.4669 5.42593 28.4428 5.42 28.4199V28.3599C5.42411 28.3367 5.42411 28.313 5.42 28.2899C5.42 28.2899 5.42 28.2299 5.42 28.1899C5.42437 28.14 5.42437 28.0898 5.42 28.0399C5.4253 27.9833 5.4253 27.9264 5.42 27.8699C5.42428 27.8267 5.42428 27.7831 5.42 27.7399C5.42 27.7399 5.42 27.6599 5.42 27.6199C5.42489 27.5935 5.42489 27.5663 5.42 27.5399C5.42 27.5399 5.42 27.4899 5.42 27.4599C5.41532 27.4402 5.41532 27.4196 5.42 27.3999C5.41514 27.3768 5.41514 27.353 5.42 27.3299C5.42 27.3299 5.42 27.2499 5.42 27.2199V27.1599C5.42384 27.1435 5.42384 27.1263 5.42 27.1099C5.42198 27.0833 5.42198 27.0565 5.42 27.0299V26.8599V26.7099C5.42308 26.68 5.42308 26.6498 5.42 26.6199C5.42552 26.5969 5.42552 26.5729 5.42 26.5499V26.4799C5.42468 26.4602 5.42468 26.4396 5.42 26.4199C5.44111 26.3681 5.45784 26.3145 5.46999 26.2599C5.46279 26.2303 5.46279 26.1995 5.46999 26.1699L5.53999 26.1199H5.60999L5.71999 26.0699H5.88C5.89461 26.0946 5.91525 26.1153 5.94 26.1299V26.2199C5.94 26.2199 5.94 26.2999 5.94 26.3399C5.9444 26.3731 5.9444 26.4067 5.94 26.4399C5.93532 26.4596 5.93532 26.4802 5.94 26.4999V26.7099H6C6.02572 26.7199 6.05427 26.7199 6.08 26.7099C6.08567 26.6835 6.08567 26.6563 6.08 26.6299C6.08588 26.5901 6.08588 26.5497 6.08 26.5099C6.08 26.5099 6.08 26.4299 6.08 26.3799C6.07507 26.3468 6.07507 26.3131 6.08 26.2799C6.07407 26.257 6.07407 26.2329 6.08 26.2099C6.08 26.2099 6.08 26.2099 6.08 26.1499V26.0799C6.08287 26.06 6.08287 26.0398 6.08 26.0199C6.06194 25.9945 6.0379 25.9738 6.01 25.9599C5.98495 25.9333 5.95417 25.9128 5.92 25.8999H5.85H5.68H5.60999H5.51L5.4 25.9699L5.27 26.0699C5.2534 26.0813 5.23944 26.0961 5.22909 26.1133C5.21873 26.1306 5.21223 26.1499 5.21 26.1699C5.20643 26.1931 5.20643 26.2167 5.21 26.2399C5.21677 26.2661 5.21677 26.2936 5.21 26.3199C5.20148 26.3561 5.20148 26.3937 5.21 26.4299C5.20508 26.4898 5.20508 26.55 5.21 26.6099C5.20434 26.6764 5.20434 26.7434 5.21 26.8099C5.20608 26.8665 5.20608 26.9233 5.21 26.9799C5.21 26.9799 5.21 27.0399 5.21 27.0799C5.20601 27.1098 5.20601 27.14 5.21 27.1699C5.21384 27.1863 5.21384 27.2035 5.21 27.2199V27.2699C5.20432 27.2963 5.20432 27.3236 5.21 27.3499V27.5199C5.20304 27.5427 5.20304 27.5671 5.21 27.5899V27.6499V27.6999C5.21172 27.7199 5.21172 27.7399 5.21 27.7599C5.21 27.7599 5.21 27.8299 5.21 27.8999C5.20503 27.9698 5.20503 28.04 5.21 28.1099V28.3299C5.21 28.3299 5.21 28.3999 5.21 28.4299C5.21 28.4599 5.21 28.4899 5.21 28.5199C5.20558 28.5665 5.20558 28.6134 5.21 28.6599C5.20498 28.6998 5.20498 28.7401 5.21 28.7799C5.22459 28.8162 5.24484 28.85 5.27 28.8799L5.35 28.9999C5.3999 29.056 5.4665 29.0946 5.53999 29.1099H5.68H5.78999H5.85999H5.94L6.01 29.0599L6.16 28.9099L6.23 28.8299V28.7799V28.6999C6.23 28.6999 6.23 28.6999 6.23 28.6399C6.2362 28.6102 6.2362 28.5796 6.23 28.5499V28.4499C6.23 28.4499 6.23 28.4499 6.23 28.3799C6.23335 28.3601 6.23335 28.3397 6.23 28.3199C6.2366 28.304 6.24 28.2871 6.24 28.2699C6.24 28.2527 6.2366 28.2358 6.23 28.2199C6.2209 28.2014 6.20783 28.1851 6.19171 28.1722C6.1756 28.1594 6.15684 28.1502 6.13677 28.1454C6.11671 28.1407 6.09583 28.1404 6.07565 28.1446C6.05546 28.1489 6.03646 28.1575 6.02 28.1699Z" fill="white"/>
<path d="M8.37006 28.9598C8.37586 28.9233 8.37586 28.8862 8.37006 28.8498V28.7498C8.37006 28.7498 8.37006 28.6998 8.37006 28.6898V28.5998C8.375 28.5633 8.375 28.5263 8.37006 28.4898V28.4098C8.37418 28.3866 8.37418 28.3629 8.37006 28.3398V28.2698V28.1398C8.37006 28.0798 8.37006 28.0198 8.37006 27.9598C8.36431 27.9033 8.36431 27.8463 8.37006 27.7898C8.36387 27.75 8.36387 27.7095 8.37006 27.6698C8.37386 27.6365 8.37386 27.603 8.37006 27.5698C8.37103 27.5531 8.37103 27.5364 8.37006 27.5198V27.4598V27.3798C8.3672 27.3298 8.3672 27.2797 8.37006 27.2298C8.37481 27.1598 8.37481 27.0897 8.37006 27.0198C8.37422 26.9765 8.37422 26.933 8.37006 26.8898C8.37462 26.8466 8.37462 26.803 8.37006 26.7598C8.37276 26.7265 8.37276 26.6931 8.37006 26.6598V26.5798V26.4598V26.3498C8.37731 26.3236 8.37731 26.296 8.37006 26.2698C8.36797 26.2532 8.36797 26.2364 8.37006 26.2198C8.37574 26.1901 8.37574 26.1595 8.37006 26.1298C8.375 26.0933 8.375 26.0563 8.37006 26.0198C8.37734 25.9835 8.37734 25.9461 8.37006 25.9098V25.8098L8.32007 25.7598C8.30142 25.762 8.28355 25.7686 8.26792 25.7791C8.25229 25.7895 8.23932 25.8034 8.23006 25.8198V25.8898V25.9698V26.0998C8.20229 26.1639 8.18215 26.231 8.17007 26.2998L8.08006 26.4798C8.08235 26.5231 8.08235 26.5665 8.08006 26.6098C8.08663 26.6794 8.07942 26.7496 8.05885 26.8164C8.03828 26.8832 8.00476 26.9453 7.96019 26.9992C7.91562 27.053 7.86087 27.0976 7.79908 27.1303C7.73729 27.163 7.66967 27.1832 7.60007 27.1898C7.53047 27.1964 7.46026 27.1891 7.39344 27.1686C7.32662 27.148 7.26451 27.1145 7.21066 27.0699C7.1568 27.0253 7.11225 26.9706 7.07954 26.9088C7.04684 26.847 7.02663 26.7794 7.02007 26.7098C7.01706 26.7631 7.01706 26.8165 7.02007 26.8698V27.0198V27.1298C7.00568 27.1578 6.98895 27.1846 6.97006 27.2098V27.2698C6.94409 27.3242 6.92398 27.3812 6.91006 27.4398C6.87747 27.4935 6.85066 27.5504 6.83006 27.6098C6.82225 27.6494 6.82225 27.6901 6.83006 27.7298C6.83006 27.7298 6.83006 27.7298 6.83006 27.7798V27.8498C6.82691 27.8764 6.82691 27.9032 6.83006 27.9298V28.0098C6.82737 28.043 6.82737 28.0765 6.83006 28.1098V28.2298V28.3398C6.82717 28.3664 6.82717 28.3932 6.83006 28.4198V28.5198V28.6298V28.6898C6.82712 28.7197 6.82712 28.7499 6.83006 28.7798V28.8898V28.9798C6.82717 29.0064 6.82717 29.0332 6.83006 29.0598C6.81935 29.0888 6.81935 29.1207 6.83006 29.1498H6.92007C6.92007 29.1498 6.92007 29.1498 6.92007 29.0798V28.9898V28.9398C6.92335 28.9166 6.92335 28.893 6.92007 28.8698V28.7898V28.6898V28.5598C6.92334 28.5132 6.92334 28.4664 6.92007 28.4198V28.3098C6.92405 28.2799 6.92405 28.2497 6.92007 28.2198C6.92104 28.2031 6.92104 28.1864 6.92007 28.1698V28.0898H8.12006C8.11195 28.1327 8.11195 28.1768 8.12006 28.2198L8.18007 28.4898C8.18396 28.5263 8.18396 28.5632 8.18007 28.5998C8.18322 28.623 8.18322 28.6465 8.18007 28.6698C8.18288 28.6964 8.18288 28.7232 8.18007 28.7498V28.8898C8.18563 28.9363 8.18563 28.9833 8.18007 29.0298V29.1298C8.19154 29.1749 8.20832 29.2186 8.23006 29.2598C8.23006 29.2598 8.23007 29.3198 8.31007 29.3198C8.31007 29.3198 8.31007 29.3198 8.31007 29.2498C8.3232 29.2252 8.33006 29.1977 8.33006 29.1698C8.33006 29.1419 8.3232 29.1144 8.31007 29.0898C8.34542 29.0553 8.36679 29.009 8.37006 28.9598ZM7.58006 27.8298H7.37006H7.16006H6.82007C6.82007 27.8298 6.82007 27.8298 6.82007 27.7798C6.82205 27.7465 6.82205 27.7131 6.82007 27.6798V27.5898V27.4698L6.88007 27.3598C6.88007 27.2998 6.88007 27.2598 6.93007 27.2198V27.1198C6.94009 27.0872 6.94009 27.0524 6.93007 27.0198C6.93007 27.0198 6.93007 27.0198 6.93007 26.9598C6.93007 26.9598 6.93007 26.9598 6.93007 26.9098C6.93334 26.8765 6.93334 26.843 6.93007 26.8098L6.99007 26.6698C6.99007 26.6698 6.99007 26.5598 7.06007 26.4898C7.08068 26.4144 7.10743 26.3408 7.14007 26.2698C7.14007 26.2698 7.14007 26.3298 7.14007 26.3698C7.13651 26.403 7.13651 26.4365 7.14007 26.4698V26.5498C7.14322 26.573 7.14322 26.5966 7.14007 26.6198C7.14007 26.6198 7.14007 26.6698 7.14007 26.7098C7.1363 26.7397 7.1363 26.7699 7.14007 26.7998V26.8698V26.9698C7.13522 26.9996 7.13522 27.03 7.14007 27.0598C7.13573 27.0795 7.13573 27.1 7.14007 27.1198C7.13542 27.153 7.13542 27.1866 7.14007 27.2198V27.3298C7.14322 27.353 7.14322 27.3766 7.14007 27.3998C7.14007 27.3998 7.14007 27.3998 7.14007 27.4598C7.13518 27.4862 7.13518 27.5133 7.14007 27.5398C7.1391 27.5564 7.1391 27.5731 7.14007 27.5898C7.13518 27.6162 7.13518 27.6433 7.14007 27.6698C7.13835 27.6897 7.13835 27.7098 7.14007 27.7298H6.86006L7.58006 27.8298Z" fill="white"/>
<path d="M9.68007 29.0701C9.67637 29.0436 9.67637 29.0167 9.68007 28.9901L9.62006 28.8901C9.62474 28.8704 9.62474 28.8499 9.62006 28.8301V28.7301L9.56006 28.6401V28.5602L9.50007 28.4501L9.44006 28.3401V28.2601V28.1801L9.38006 28.0901C9.38006 28.0901 9.38006 28.0901 9.38006 28.0201H9.44006L9.51006 27.9702L9.61006 27.8901L9.67007 27.8201V27.7401C9.70427 27.7076 9.72854 27.666 9.74006 27.6201C9.74006 27.6201 9.74006 27.5301 9.74006 27.4801C9.74006 27.4301 9.74006 27.3602 9.74006 27.3102C9.74006 27.2602 9.74006 27.2101 9.74006 27.1401V26.9601C9.74006 26.9601 9.74006 26.8802 9.74006 26.8502V26.7301V26.6602C9.74599 26.6304 9.74599 26.5998 9.74006 26.5701V26.5101V26.4601V26.4001H9.67007H9.56006H8.72006H8.66006C8.66006 26.4001 8.66006 26.4601 8.66006 26.4801C8.65595 26.5033 8.65595 26.527 8.66006 26.5501C8.66103 26.5668 8.66103 26.5835 8.66006 26.6002C8.66417 26.6701 8.66417 26.7402 8.66006 26.8102C8.66006 26.8102 8.66006 26.8801 8.66006 26.9201C8.65643 26.9534 8.65643 26.9869 8.66006 27.0201V27.4601C8.66006 27.5601 8.66006 27.6602 8.66006 27.7502V27.9001C8.65462 27.9299 8.65462 27.9604 8.66006 27.9901C8.65521 28.0199 8.65521 28.0503 8.66006 28.0801C8.65515 28.12 8.65515 28.1603 8.66006 28.2001V27.7101C8.65515 27.75 8.65515 27.7903 8.66006 27.8301C8.65835 27.8501 8.65835 27.8702 8.66006 27.8901C8.66103 27.9068 8.66103 27.9235 8.66006 27.9402C8.66006 27.9402 8.66006 28.0001 8.66006 28.1101V28.4901C8.66006 28.6401 8.66006 28.7701 8.66006 28.8701C8.65303 28.9299 8.65303 28.9903 8.66006 29.0501H8.74006C8.74797 29.0347 8.75208 29.0175 8.75208 29.0002C8.75208 28.9828 8.74797 28.9656 8.74006 28.9501C8.7433 28.8935 8.7433 28.8368 8.74006 28.7802V28.4301C8.74006 28.3001 8.74006 28.1801 8.74006 28.0801C8.74006 27.9801 8.74006 27.9202 8.74006 27.9102C8.7391 27.8935 8.7391 27.8768 8.74006 27.8601C8.73835 27.8402 8.73835 27.8201 8.74006 27.8001V27.8601L8.86006 28.0701L8.95006 28.2202C8.94569 28.25 8.94569 28.2803 8.95006 28.3102C8.95006 28.3102 8.95006 28.3101 8.95006 28.3601C8.94719 28.38 8.94719 28.4002 8.95006 28.4201V28.4901C8.95006 28.4901 8.95006 28.4901 8.95006 28.5501C8.94329 28.5764 8.94329 28.6039 8.95006 28.6302C8.95253 28.6467 8.95253 28.6636 8.95006 28.6801V28.7601V28.8301V28.9102C8.95548 28.9433 8.95548 28.977 8.95006 29.0101C8.95006 29.0901 9.02007 29.1401 9.07007 29.1401H9.15006C9.15642 29.1138 9.15642 29.0864 9.15006 29.0602C9.15006 29.0602 9.72007 29.0901 9.68007 29.0701ZM8.80006 26.0701C8.80006 26.0701 8.80006 26.0101 8.80006 25.9901C8.80006 25.9701 8.80006 25.9402 8.80006 25.9102H8.94006L9.04006 26.0101C9.04006 26.0101 9.04006 26.0102 9.04006 26.0602V26.1302V26.1801C9.03572 26.2033 9.03572 26.227 9.04006 26.2502C9.04006 26.2502 9.04006 26.2501 9.04006 26.3401C9.04006 26.4301 9.04006 26.4201 9.04006 26.4601C9.04006 26.5001 9.04006 26.5502 9.04006 26.6002C9.0427 26.6234 9.0427 26.6469 9.04006 26.6701C9.0441 26.6899 9.0441 26.7103 9.04006 26.7301C9.04847 26.7561 9.04847 26.7841 9.04006 26.8102C9.04683 26.8364 9.04683 26.8639 9.04006 26.8901V26.9402L8.98006 27.0101L8.91006 27.0602L8.85007 27.1101V26.9601C8.85007 26.9101 8.85007 26.8302 8.85007 26.7202V26.7101C8.85007 26.6201 8.85007 26.5302 8.85007 26.4402C8.85321 26.3869 8.85321 26.3334 8.85007 26.2802V26.2202C8.85411 26.2004 8.85411 26.18 8.85007 26.1602L8.80006 26.0701Z" fill="white"/>
<path d="M11.16 26.7099C11.1566 26.6833 11.1566 26.6565 11.16 26.6299C11.1567 26.6067 11.1567 26.5831 11.16 26.5599C11.16 26.5599 11.16 26.5599 11.16 26.4699C11.123 26.334 11.0464 26.2122 10.94 26.1199L10.86 26.0399V25.9699L10.8 25.9199L10.72 25.8599C10.6904 25.8527 10.6596 25.8527 10.63 25.8599H10.43H10.37L10.32 25.9099V25.9699C10.3124 25.9926 10.3124 26.0172 10.32 26.0399V26.0999C10.3176 26.1299 10.3176 26.16 10.32 26.1899C10.3148 26.2565 10.3148 26.3233 10.32 26.3899C10.3254 26.4498 10.3254 26.51 10.32 26.5699C10.3229 26.6032 10.3229 26.6366 10.32 26.6699V26.7399C10.33 26.786 10.33 26.8338 10.32 26.8799C10.3145 26.9231 10.3145 26.9667 10.32 27.0099C10.32 27.0599 10.32 27.1099 10.32 27.1499C10.32 27.1899 10.32 27.2299 10.32 27.2899C10.3246 27.3364 10.3246 27.3834 10.32 27.4299C10.3156 27.4898 10.3156 27.55 10.32 27.6099C10.32 27.6799 10.32 27.7399 10.32 27.7899C10.32 27.8399 10.32 27.8999 10.32 27.9599C10.3237 27.9931 10.3237 28.0267 10.32 28.0599C10.3257 28.0863 10.3257 28.1135 10.32 28.1399C10.32 28.1399 10.32 28.1999 10.32 28.2199C10.3152 28.243 10.3152 28.2668 10.32 28.2899C10.3247 28.3096 10.3247 28.3302 10.32 28.3499C10.32 28.3499 10.32 28.4099 10.32 28.4299C10.3168 28.4464 10.3168 28.4634 10.32 28.4799C10.3132 28.5095 10.3132 28.5403 10.32 28.5699C10.3151 28.6131 10.3151 28.6567 10.32 28.6999C10.32 28.6999 10.32 28.7699 10.32 28.7999C10.32 28.8299 10.32 28.8699 10.32 28.8799C10.3166 28.9065 10.3166 28.9333 10.32 28.9599C10.3157 28.983 10.3157 29.0068 10.32 29.0299C10.3116 29.0525 10.3116 29.0773 10.32 29.0999C10.3121 29.1154 10.308 29.1325 10.308 29.1499C10.308 29.1673 10.3121 29.1844 10.32 29.1999C10.3291 29.2052 10.3395 29.208 10.35 29.208C10.3606 29.208 10.3709 29.2052 10.38 29.1999H10.02H10.13H10.5C10.56 29.1999 10.59 29.1999 10.6 29.1499L10.68 29.0799C10.7047 29.057 10.725 29.03 10.74 28.9999L10.79 28.9299C10.8355 28.8676 10.8663 28.7958 10.88 28.7199C10.8772 28.6733 10.8772 28.6265 10.88 28.5799C10.88 28.5799 10.88 28.5199 10.88 28.4999C10.876 28.47 10.876 28.4398 10.88 28.4099V28.2999V28.2099C10.8839 28.1733 10.8839 28.1365 10.88 28.0999C10.8771 28.0733 10.8771 28.0465 10.88 28.0199C10.8771 27.98 10.8771 27.9399 10.88 27.8999C10.8756 27.8166 10.8756 27.7332 10.88 27.6499V27.3699C10.8748 27.32 10.8748 27.2698 10.88 27.2199C10.88 27.2199 10.88 27.1699 10.88 27.1399C10.8841 27.1067 10.8841 27.0731 10.88 27.0399C10.8849 27.0101 10.8849 26.9797 10.88 26.9499L11.16 26.7099ZM10.89 28.1299V28.1999C10.8947 28.2364 10.8947 28.2734 10.89 28.3099C10.8852 28.3397 10.8852 28.3701 10.89 28.3999V28.4799C10.8862 28.5064 10.8862 28.5334 10.89 28.5599C10.89 28.5599 10.89 28.6099 10.89 28.6299V28.7099C10.8845 28.7329 10.8845 28.7569 10.89 28.7799V28.8399V28.8999V28.9599H10.83H10.49C10.4999 28.9307 10.4999 28.8991 10.49 28.8699V28.8099C10.49 28.8099 10.49 28.7499 10.49 28.7199V28.6399C10.4949 28.6101 10.4949 28.5797 10.49 28.5499C10.4853 28.5336 10.4853 28.5162 10.49 28.4999C10.49 28.4999 10.49 28.4999 10.49 28.4199C10.496 28.3835 10.496 28.3463 10.49 28.3099C10.4863 28.2733 10.4863 28.2365 10.49 28.1999C10.4852 28.16 10.4852 28.1198 10.49 28.0799C10.49 28.0299 10.49 27.9799 10.49 27.9299V27.7299C10.49 27.6699 10.49 27.5999 10.49 27.5399C10.486 27.4933 10.486 27.4465 10.49 27.3999C10.49 27.3999 10.49 27.3999 10.49 27.2499V26.6899C10.4928 26.6466 10.4928 26.6032 10.49 26.5599C10.4867 26.5333 10.4867 26.5065 10.49 26.4799C10.49 26.4199 10.49 26.3599 10.49 26.2999V26.0299H10.6C10.6427 26.0471 10.6805 26.0746 10.71 26.1099L10.79 26.1799L10.86 26.2499L10.93 26.3299C10.9566 26.3549 10.9771 26.3857 10.99 26.4199L11.05 26.5099V26.5699C11.0487 26.5932 11.0487 26.6166 11.05 26.6399C11.0451 26.6663 11.0451 26.6935 11.05 26.7199C11.0442 26.753 11.0442 26.7868 11.05 26.8199C11.0567 26.8697 11.0567 26.9201 11.05 26.9699C11.05 26.9699 11.05 27.0499 11.05 27.1499C11.05 27.2499 11.05 27.3499 11.05 27.4599C11.05 27.5699 11.05 27.6799 11.05 27.7799C11.0554 27.8498 11.0554 27.92 11.05 27.9899C11.0549 28.0197 11.0549 28.0501 11.05 28.0799C11.0541 28.0997 11.0541 28.1201 11.05 28.1399L10.89 28.1299Z" fill="white"/>
<path d="M15.16 26.3299C15.1655 26.2567 15.1655 26.1832 15.16 26.1099V25.8599C15.1717 25.8311 15.1717 25.7988 15.16 25.7699C15.1506 25.7655 15.1404 25.7632 15.13 25.7632C15.1196 25.7632 15.1094 25.7655 15.1 25.7699H15.02C15.0143 25.7963 15.0143 25.8236 15.02 25.8499V25.9199C15.0254 25.9664 15.0254 26.0134 15.02 26.0599C15.0196 26.1699 15.0196 26.2799 15.02 26.3899V26.5699C15.0153 26.6398 15.0153 26.71 15.02 26.7799V26.9499C15.0244 26.9998 15.0244 27.05 15.02 27.0999V27.3899C15.02 27.4799 15.02 27.5599 15.02 27.5999C15.0157 27.6599 15.0157 27.72 15.02 27.7799V27.9999C15.02 27.9999 15.02 28.0899 15.02 28.1299V28.2899C15.0262 28.306 15.0262 28.3238 15.02 28.3399C15.02 28.3399 15.02 28.2899 15.02 28.2799C15.0159 28.2568 15.0159 28.2331 15.02 28.2099C15.0245 28.1734 15.0245 28.1365 15.02 28.0999C15.0238 28.0734 15.0238 28.0465 15.02 28.0199V27.9099C15.02 27.9099 15.02 27.8199 15.02 27.7699C15.0156 27.7367 15.0156 27.7031 15.02 27.6699C15.02 27.6699 15.02 27.6699 15.02 27.5899C15.0268 27.5569 15.0268 27.5229 15.02 27.4899C15.02 27.4899 15.02 27.4199 15.02 27.3799C15.0162 27.3534 15.0162 27.3265 15.02 27.2999C15.0229 27.2733 15.0229 27.2465 15.02 27.2199C15.0167 27.2001 15.0167 27.1798 15.02 27.1599C15.0238 27.12 15.0238 27.0798 15.02 27.0399V26.8899C14.9929 26.8281 14.9695 26.7646 14.95 26.6999C14.9293 26.6083 14.9026 26.5181 14.87 26.4299C14.8526 26.3418 14.8292 26.2549 14.8 26.1699C14.8033 26.1233 14.8033 26.0765 14.8 26.0299V25.9399C14.7969 25.9167 14.7969 25.8932 14.8 25.8699C14.8037 25.8434 14.8037 25.8165 14.8 25.7899C14.7741 25.7808 14.7459 25.7808 14.72 25.7899H14.66C14.6447 25.8319 14.6447 25.8779 14.66 25.9199C14.6539 26.0031 14.6539 26.0867 14.66 26.1699C14.6648 26.2498 14.6648 26.33 14.66 26.4099C14.66 26.4899 14.66 26.5499 14.66 26.5799C14.6639 26.6232 14.6639 26.6667 14.66 26.7099C14.66 26.7599 14.66 26.8199 14.66 26.8599V26.9699C14.66 26.9699 14.66 27.0399 14.66 27.0499C14.6631 27.0798 14.6631 27.11 14.66 27.1399C14.66 27.1899 14.66 27.2399 14.66 27.2899C14.6645 27.3498 14.6645 27.41 14.66 27.4699C14.6565 27.5366 14.6565 27.6033 14.66 27.6699C14.66 27.6699 14.66 27.7899 14.66 27.8599C14.66 27.9299 14.66 27.9999 14.66 28.0599C14.66 28.1199 14.66 28.1399 14.66 28.1799C14.6561 28.2232 14.6561 28.2667 14.66 28.3099V28.7099C14.6561 28.7532 14.6561 28.7967 14.66 28.8399C14.66 28.8999 14.66 28.9399 14.66 28.9799V29.1099C14.6543 29.1363 14.6543 29.1636 14.66 29.1899H14.02C14.0396 29.1811 14.0564 29.1671 14.0687 29.1495C14.081 29.1319 14.0884 29.1113 14.09 29.0899C14.09 29.0899 14.09 28.9999 14.09 28.9199C14.09 28.8399 14.09 28.8199 14.09 28.7599C14.0857 28.7167 14.0857 28.6732 14.09 28.6299C14.09 28.6299 14.09 28.5599 14.09 28.5199C14.0852 28.4901 14.0852 28.4597 14.09 28.4299V28.3199C14.09 28.3199 14.09 28.2399 14.09 28.2099C14.0851 28.1667 14.0851 28.1231 14.09 28.0799C14.09 28.0799 14.09 27.9999 14.09 27.9799C14.0862 27.9635 14.0862 27.9464 14.09 27.9299C14.0877 27.9067 14.0877 27.8832 14.09 27.8599V27.8099C14.0933 27.7867 14.0933 27.7631 14.09 27.7399C14.0864 27.7067 14.0864 27.6732 14.09 27.6399C14.09 27.5799 14.09 27.5199 14.09 27.4499V27.2599C14.093 27.21 14.093 27.1599 14.09 27.1099V27.0399C14.095 27.0034 14.095 26.9664 14.09 26.9299C14.09 26.9299 14.09 26.8699 14.09 26.8299C14.095 26.78 14.095 26.7298 14.09 26.6799C14.09 26.6799 14.09 26.5899 14.09 26.5199C14.09 26.5199 14.09 26.5799 14.09 26.6099V26.7299C14.0933 26.7632 14.0933 26.7967 14.09 26.8299C14.0876 26.8699 14.0876 26.91 14.09 26.9499V27.0599C14.09 27.0599 14.09 27.1299 14.09 27.1499V27.2499C14.09 27.2499 14.09 27.3199 14.09 27.3499V27.4499C14.0883 27.4699 14.0883 27.49 14.09 27.5099V27.5699C14.0831 27.5927 14.0831 27.6171 14.09 27.6399C14.0856 27.6698 14.0856 27.7001 14.09 27.7299V27.8899C14.09 27.9499 14.09 27.9999 14.09 28.0499C14.0931 28.0798 14.0931 28.11 14.09 28.1399V28.1999C14.0853 28.2364 14.0853 28.2734 14.09 28.3099C14.09 28.3099 14.09 28.3099 14.09 28.3699V28.4399C14.09 28.4399 14.09 28.4899 14.09 28.5299C14.09 28.5699 14.09 28.6099 14.09 28.6599V28.7899C14.0934 28.8165 14.0934 28.8434 14.09 28.8699C14.0825 28.9062 14.0825 28.9436 14.09 28.9799V29.0399C14.0832 29.0695 14.0832 29.1003 14.09 29.1299C14.0924 29.1441 14.0998 29.1568 14.1108 29.166C14.1218 29.1752 14.1357 29.1801 14.15 29.1799H15.02C15.02 29.1799 15.07 29.1799 15.08 29.1199C15.0834 29.0767 15.0834 29.0332 15.08 28.9899C15.0761 28.9467 15.0761 28.9032 15.08 28.8599C15.0848 28.8034 15.0848 28.7465 15.08 28.6899V28.2799V28.1799C15.0777 28.1633 15.0777 28.1465 15.08 28.1299C15.0854 28.0968 15.0854 28.0631 15.08 28.0299C15.0873 27.9869 15.0873 27.943 15.08 27.8999V27.7499C15.0751 27.7134 15.0751 27.6764 15.08 27.6399C15.08 27.6399 15.08 27.5799 15.08 27.5599C15.0871 27.4801 15.0871 27.3998 15.08 27.3199V26.8099C15.08 26.7099 15.08 26.6099 15.08 26.5099C15.109 26.451 15.1357 26.3909 15.16 26.3299Z" fill="white"/>
<path d="M17.1501 27.1899V27.0899V26.9399C17.1556 26.87 17.1556 26.7998 17.1501 26.7299C17.1553 26.6467 17.1553 26.5632 17.1501 26.4799V26.0499H17.0201C17.0201 26.0499 17.0201 26.0499 16.9601 26.0999C16.9542 26.1229 16.9542 26.147 16.9601 26.1699C16.9551 26.2098 16.9551 26.2501 16.9601 26.2899C16.9601 26.2899 16.9601 26.3499 16.9601 26.3799V26.4399C16.9648 26.4597 16.9648 26.4802 16.9601 26.4999C16.9601 26.4999 16.9601 26.5699 16.9601 26.5999V26.7099C16.9601 26.7699 16.9601 26.8199 16.9601 26.8799C16.9551 26.9432 16.9551 27.0067 16.9601 27.0699C16.9533 27.123 16.9533 27.1768 16.9601 27.2299C16.9564 27.2665 16.9564 27.3034 16.9601 27.3399C16.9601 27.3899 16.9601 27.4399 16.9601 27.4899V27.6499C16.9601 27.6999 16.9601 27.7499 16.9601 27.7899C16.9548 27.8331 16.9548 27.8768 16.9601 27.9199C16.9561 27.9498 16.9561 27.9801 16.9601 28.0099C16.9633 28.0331 16.9633 28.0567 16.9601 28.0799C16.9657 28.1164 16.9657 28.1535 16.9601 28.1899C16.9601 28.1899 16.9601 28.2899 16.9601 28.3599C16.9628 28.4132 16.9628 28.4666 16.9601 28.5199C16.9558 28.5598 16.9558 28.6 16.9601 28.6399V28.7099V28.7699L16.9001 28.8499L16.8401 28.9099V28.9599H16.7701H16.5501V28.9099C16.5262 28.8821 16.4951 28.8613 16.4601 28.8499C16.4494 28.82 16.4324 28.7927 16.4101 28.7699V28.6899V28.6099C16.4058 28.5868 16.4058 28.563 16.4101 28.5399C16.4072 28.52 16.4072 28.4998 16.4101 28.4799C16.4135 28.4534 16.4135 28.4265 16.4101 28.3999C16.4101 28.3999 16.4101 28.3399 16.4101 28.3099C16.4138 28.2633 16.4138 28.2165 16.4101 28.1699V28.0299C16.4101 28.0299 16.4101 27.9099 16.4101 27.8299C16.4056 27.76 16.4056 27.6899 16.4101 27.6199C16.4147 27.54 16.4147 27.4599 16.4101 27.3799C16.4101 27.2899 16.4101 27.2099 16.4101 27.1399V26.9399C16.4037 26.8968 16.4037 26.853 16.4101 26.8099C16.4061 26.7801 16.4061 26.7498 16.4101 26.7199C16.4044 26.6936 16.4044 26.6663 16.4101 26.6399C16.4101 26.6399 16.4101 26.5899 16.4101 26.5699C16.4141 26.54 16.4141 26.5098 16.4101 26.4799C16.407 26.45 16.407 26.4198 16.4101 26.3899C16.4101 26.3399 16.4101 26.2799 16.4101 26.2099C16.4101 26.1399 16.4101 26.0799 16.4101 26.0199C16.4139 25.97 16.4139 25.9199 16.4101 25.8699V25.7399C16.4044 25.7258 16.3948 25.7136 16.3824 25.7047C16.37 25.6959 16.3553 25.6907 16.3401 25.6899C16.3332 25.7094 16.3332 25.7305 16.3401 25.7499C16.3368 25.7732 16.3368 25.7967 16.3401 25.8199C16.3437 25.8431 16.3437 25.8667 16.3401 25.8899C16.3401 25.8899 16.3401 25.9799 16.3401 26.0199V26.1499C16.3366 26.1798 16.3366 26.21 16.3401 26.2399C16.3401 26.2399 16.3401 26.2399 16.3401 26.3099C16.3346 26.3464 16.3346 26.3835 16.3401 26.4199C16.3448 26.4396 16.3448 26.4602 16.3401 26.4799C16.337 26.5031 16.337 26.5267 16.3401 26.5499C16.3439 26.5664 16.3439 26.5835 16.3401 26.5999C16.3444 26.6231 16.3444 26.6468 16.3401 26.6699C16.345 26.7031 16.345 26.7368 16.3401 26.7699C16.3357 26.8031 16.3357 26.8367 16.3401 26.8699C16.3341 26.903 16.3341 26.9369 16.3401 26.9699C16.3356 27.0065 16.3356 27.0434 16.3401 27.0799C16.3401 27.0799 16.3401 27.1499 16.3401 27.2099C16.3451 27.2598 16.3451 27.31 16.3401 27.3599C16.3362 27.4265 16.3362 27.4933 16.3401 27.5599C16.3449 27.6399 16.3449 27.72 16.3401 27.7999C16.3351 27.8798 16.3351 27.96 16.3401 28.0399V28.2099C16.3401 28.2099 16.3401 28.2699 16.3401 28.3099C16.3433 28.3332 16.3433 28.3567 16.3401 28.3799C16.336 28.4031 16.336 28.4268 16.3401 28.4499C16.3442 28.4731 16.3442 28.4968 16.3401 28.5199C16.3361 28.5498 16.3361 28.5801 16.3401 28.6099C16.3372 28.6399 16.3372 28.67 16.3401 28.6999C16.3333 28.7295 16.3333 28.7603 16.3401 28.7899C16.3427 28.8165 16.3427 28.8433 16.3401 28.8699L16.3901 28.9399V28.9999L16.4501 29.0499L16.5501 29.1099H16.8401H16.9701H17.0301H17.0901V29.0599V28.9999C17.0934 28.9767 17.0934 28.9531 17.0901 28.9299V28.8299V28.7099C17.096 28.6802 17.096 28.6496 17.0901 28.6199C17.099 28.5872 17.099 28.5527 17.0901 28.5199C17.0845 28.4835 17.0845 28.4464 17.0901 28.4099C17.0901 28.4099 17.0901 28.3299 17.0901 28.2699C17.0994 28.2136 17.0994 28.1562 17.0901 28.0999C17.0901 28.0999 17.0901 28.0199 17.0901 27.9799C17.0933 27.9567 17.0933 27.9332 17.0901 27.9099C17.0967 27.8736 17.0967 27.8363 17.0901 27.7999V27.6499C17.0901 27.5999 17.0901 27.5399 17.0901 27.4799C17.0932 27.3805 17.1135 27.2824 17.1501 27.1899Z" fill="white"/>
<path d="M19.3199 26.33C19.3162 26.2934 19.3162 26.2566 19.3199 26.22C19.324 26.1768 19.324 26.1333 19.3199 26.09C19.3246 26.0468 19.3246 26.0032 19.3199 25.96V25.84C19.316 25.8219 19.3075 25.805 19.2952 25.791C19.283 25.777 19.2674 25.7663 19.2499 25.76H19.1699C19.1589 25.7553 19.1469 25.7529 19.1349 25.7529C19.1229 25.7529 19.111 25.7553 19.0999 25.76C19.0955 25.7694 19.0932 25.7796 19.0932 25.79C19.0932 25.8004 19.0955 25.8106 19.0999 25.82V25.92C19.0952 25.9565 19.0952 25.9935 19.0999 26.03C19.0921 26.0764 19.0921 26.1237 19.0999 26.17V26.28C19.0957 26.3266 19.0957 26.3734 19.0999 26.42C19.1028 26.4533 19.1028 26.4867 19.0999 26.52V26.7C19.0951 26.7532 19.0951 26.8068 19.0999 26.86V26.95V27.05C19.0915 27.0963 19.0915 27.1437 19.0999 27.19C19.1053 27.2231 19.1053 27.2569 19.0999 27.29V27.37C19.0927 27.3996 19.0927 27.4305 19.0999 27.46V27.55V27.65V27.76C19.1042 27.7865 19.1042 27.8135 19.0999 27.84C19.1012 27.8633 19.1012 27.8867 19.0999 27.91C19.0965 27.9332 19.0965 27.9568 19.0999 27.98V28.09C19.1009 28.1067 19.1009 28.1234 19.0999 28.14C19.0999 28.14 19.0999 28.05 19.0999 28.01C19.1042 27.9434 19.1042 27.8766 19.0999 27.81C19.0999 27.73 19.0999 27.66 19.0999 27.61C19.1053 27.5501 19.1053 27.4899 19.0999 27.43C19.1024 27.4001 19.1024 27.37 19.0999 27.34C19.1042 27.3135 19.1042 27.2865 19.0999 27.26C19.104 27.2268 19.104 27.1932 19.0999 27.16V27.06V26.96V26.85C19.0999 26.85 19.0999 26.85 19.0999 26.76C19.0999 26.67 19.0999 26.66 19.0999 26.62V26.47C19.0999 26.41 19.0999 26.36 19.0999 26.32V26.21V26.1C19.097 26.0601 19.097 26.02 19.0999 25.98C19.0955 25.9334 19.0955 25.8866 19.0999 25.84C19.0959 25.8068 19.0959 25.7732 19.0999 25.74C19.1032 25.7168 19.1032 25.6932 19.0999 25.67C19.0893 25.6639 19.0772 25.6606 19.0649 25.6606C19.0526 25.6606 19.0406 25.6639 19.0299 25.67V25.73C19.025 25.7632 19.025 25.7969 19.0299 25.83C19.0299 25.83 19.0299 25.88 19.0299 25.9C19.0299 25.92 19.0299 25.96 19.0299 25.97C19.0333 26.0233 19.0333 26.0768 19.0299 26.13C19.0299 26.22 19.0299 26.32 19.0299 26.44V26.66C19.0299 26.76 19.0299 26.86 19.0299 26.98V27.35C19.0299 27.48 19.0299 27.6 19.0299 27.73V28.1C19.0299 28.23 19.0299 28.35 19.0299 28.45V28.72V28.83C19.0346 28.8497 19.0346 28.8703 19.0299 28.89C19.025 28.9232 19.025 28.9569 19.0299 28.99C19.0196 29.026 19.0196 29.0641 19.0299 29.1C19.0299 29.15 19.0899 29.16 19.1099 29.16C19.1395 29.1672 19.1704 29.1672 19.1999 29.16V29.1C19.2042 29.0735 19.2042 29.0465 19.1999 29.02V28.97C19.199 28.9534 19.199 28.9367 19.1999 28.92C19.1974 28.8867 19.1974 28.8533 19.1999 28.82C19.1955 28.7434 19.1955 28.6666 19.1999 28.59C19.1999 28.5 19.1999 28.4 19.1999 28.3C19.1999 28.2 19.1999 28.09 19.1999 28V27.74C19.1945 27.6668 19.1945 27.5933 19.1999 27.52C19.1954 27.4501 19.1954 27.38 19.1999 27.31V26.31V26.45C19.2056 26.5132 19.2056 26.5768 19.1999 26.64L19.2499 26.79C19.2415 26.816 19.2415 26.844 19.2499 26.87V26.96C19.2524 26.9966 19.2524 27.0334 19.2499 27.07V27.17C19.245 27.2032 19.245 27.2369 19.2499 27.27C19.2531 27.2932 19.2531 27.3168 19.2499 27.34C19.2458 27.3632 19.2458 27.3869 19.2499 27.41C19.2467 27.4433 19.2467 27.4768 19.2499 27.51C19.2552 27.5666 19.2552 27.6235 19.2499 27.68C19.2454 27.7499 19.2454 27.8201 19.2499 27.89C19.2499 27.97 19.2499 28.03 19.2499 28.08C19.2446 28.1265 19.2446 28.1735 19.2499 28.22C19.2533 28.2399 19.2533 28.2602 19.2499 28.28C19.2473 28.31 19.2473 28.3401 19.2499 28.37V28.52C19.2442 28.5732 19.2442 28.6268 19.2499 28.68C19.2531 28.7099 19.2531 28.7401 19.2499 28.77C19.2421 28.7893 19.2421 28.8108 19.2499 28.83H19.3099H19.3899V28.69C19.3914 28.6667 19.3914 28.6433 19.3899 28.62C19.3953 28.5769 19.3953 28.5332 19.3899 28.49C19.3899 28.49 19.3899 28.42 19.3899 28.39C19.3933 28.3635 19.3933 28.3366 19.3899 28.31C19.3867 28.2935 19.3867 28.2765 19.3899 28.26C19.3851 28.2369 19.3851 28.2131 19.3899 28.19C19.3968 28.1604 19.3968 28.1296 19.3899 28.1V28.03C19.3909 28.0134 19.3909 27.9967 19.3899 27.98V27.92C19.3943 27.9002 19.3943 27.8798 19.3899 27.86V27.79C19.3948 27.7669 19.3948 27.7431 19.3899 27.72V27.64C19.4041 27.5814 19.4242 27.5245 19.4499 27.47C19.446 27.4134 19.446 27.3566 19.4499 27.3C19.4526 27.2534 19.4526 27.2067 19.4499 27.16C19.4467 27.1201 19.4467 27.0799 19.4499 27.04C19.4572 26.997 19.4572 26.9531 19.4499 26.91C19.4547 26.8702 19.4547 26.8299 19.4499 26.79V26.59C19.4499 26.51 19.4499 26.44 19.4499 26.37C19.4462 26.3168 19.4462 26.2633 19.4499 26.21C19.4499 26.21 19.4499 26.13 19.4499 26.09V26.47C19.4499 26.56 19.4499 26.65 19.4499 26.75V26.97C19.4499 27.13 19.4499 27.26 19.4499 27.35C19.4554 27.4233 19.4554 27.4968 19.4499 27.57V27.68C19.4455 27.7132 19.4455 27.7468 19.4499 27.78C19.4479 27.8067 19.4479 27.8334 19.4499 27.86C19.44 27.923 19.44 27.9871 19.4499 28.05C19.4442 28.1333 19.4442 28.2168 19.4499 28.3V28.83C19.4455 28.8565 19.4455 28.8836 19.4499 28.91C19.4499 28.91 19.4499 28.96 19.4499 28.99C19.4639 28.9971 19.4793 29.0007 19.4949 29.0007C19.5106 29.0007 19.526 28.9971 19.5399 28.99C19.5399 28.99 19.6099 28.94 19.6099 28.9C19.607 28.8534 19.607 28.8066 19.6099 28.76C19.6154 28.6567 19.6154 28.5533 19.6099 28.45C19.6099 28.34 19.6099 28.23 19.6099 28.12C19.6099 28.01 19.6099 27.93 19.6099 27.89C19.6053 27.8368 19.6053 27.7832 19.6099 27.73V27.58C19.6169 27.5102 19.6169 27.4399 19.6099 27.37C19.6168 27.2601 19.6168 27.1499 19.6099 27.04C19.6059 26.9734 19.6059 26.9066 19.6099 26.84V26.59C19.6099 26.5 19.6099 26.42 19.6099 26.35V26.2C19.5052 26.2224 19.4064 26.2667 19.3199 26.33Z" fill="white"/>
<path d="M20.8001 28.4302V28.2202L20.6701 28.1002L20.5701 28.0202L20.4801 27.9402L20.5701 27.8502C20.6021 27.8215 20.6291 27.7877 20.6501 27.7502L20.7101 27.6802C20.7158 27.6371 20.7158 27.5933 20.7101 27.5502C20.711 27.5335 20.711 27.5169 20.7101 27.5002C20.7158 27.4537 20.7158 27.4067 20.7101 27.3602V27.1202C20.7153 27.0436 20.7153 26.9668 20.7101 26.8902V26.7602C20.7135 26.7336 20.7135 26.7068 20.7101 26.6802C20.7147 26.6504 20.7147 26.62 20.7101 26.5902V26.5102V26.4302V26.3602C20.7101 26.3602 20.7101 26.3602 20.7101 26.2702V26.2102V26.1502H20.6501L20.5801 26.1002C20.5536 26.0683 20.5191 26.0441 20.4801 26.0302H20.4201H20.3401H20.0201C20.0037 26.0195 19.9846 26.0137 19.9651 26.0137C19.9455 26.0137 19.9264 26.0195 19.9101 26.0302C19.9022 26.0665 19.9022 26.104 19.9101 26.1402C19.9136 26.1801 19.9136 26.2203 19.9101 26.2602C19.9155 26.3368 19.9155 26.4136 19.9101 26.4902C19.9101 26.5702 19.9101 26.6502 19.9101 26.7202C19.9136 26.7601 19.9136 26.8003 19.9101 26.8402V26.7102C19.9139 26.7468 19.9139 26.7836 19.9101 26.8202C19.9154 26.8634 19.9154 26.907 19.9101 26.9502C19.9101 26.9502 19.9101 27.0202 19.9101 27.0402C19.9101 27.0602 19.9101 27.1002 19.9101 27.1702C19.9053 27.2435 19.9053 27.3169 19.9101 27.3902C19.9101 27.4902 19.9101 27.5802 19.9101 27.6602C19.9137 27.7168 19.9137 27.7736 19.9101 27.8302C19.914 27.8768 19.914 27.9236 19.9101 27.9702C19.9101 28.0302 19.9101 28.0902 19.9101 28.1202C19.9101 28.1502 19.9101 28.2202 19.9101 28.2602C19.907 28.2901 19.907 28.3203 19.9101 28.3502C19.9101 28.3502 19.9101 28.3502 19.9101 28.4102C19.9052 28.44 19.9052 28.4704 19.9101 28.5002C19.9156 28.5232 19.9156 28.5472 19.9101 28.5702C19.9101 28.5702 19.9101 28.6202 19.9101 28.6202C19.9014 28.6765 19.9014 28.7339 19.9101 28.7902C19.9149 28.82 19.9149 28.8504 19.9101 28.8802V28.9702C19.9024 28.9929 19.9024 29.0175 19.9101 29.0402C19.9065 29.0567 19.9065 29.0737 19.9101 29.0902L20.0001 29.1402H20.0701H20.1601H20.2701H20.6001L20.6601 29.0902L20.7201 29.0202V28.9602C20.7324 28.928 20.7324 28.8924 20.7201 28.8602C20.7265 28.8104 20.7265 28.76 20.7201 28.7102V28.5602C20.8101 28.5502 20.8101 28.4802 20.8001 28.4302ZM20.2401 29.0602H20.1601H20.0801L20.0001 29.0102V28.9402C20.0001 28.9402 20.0001 28.8902 20.0001 28.8602C20.004 28.8303 20.004 28.8001 20.0001 28.7702C19.996 28.7504 19.996 28.73 20.0001 28.7102C20.0001 28.7102 20.0001 28.6502 20.0001 28.6302C19.9959 28.6071 19.9959 28.5834 20.0001 28.5602V28.4802C20.006 28.4572 20.006 28.4332 20.0001 28.4102C19.9967 28.3904 19.9967 28.3701 20.0001 28.3502C20.0001 28.3502 20.0001 28.2702 20.0001 28.2402V28.1702H20.1401H20.2101H20.2901L20.36 28.2402L20.4301 28.3002V28.3802C20.4326 28.4168 20.4326 28.4536 20.4301 28.4902C20.435 28.5501 20.435 28.6103 20.4301 28.6702C20.4301 28.7902 20.4301 28.8402 20.4301 28.8602V28.9202H20.36H20.2701H20.1801L20.2401 29.0602ZM20.0601 25.9702H20.1401H20.2201L20.3001 26.0302V26.1102C20.2947 26.1366 20.2947 26.1638 20.3001 26.1902V26.2502C20.2937 26.2731 20.2937 26.2973 20.3001 26.3202V26.4302C20.3179 26.5227 20.3179 26.6177 20.3001 26.7102V26.8402C20.2937 26.8665 20.2937 26.8939 20.3001 26.9202C20.2942 26.96 20.2942 27.0004 20.3001 27.0402C20.3001 27.0402 20.3001 27.1202 20.3001 27.1602V27.2502V27.3302L20.2001 27.3902L20.1001 27.4602H20.0101V27.7102C20.0134 27.6669 20.0134 27.6235 20.0101 27.5802C20.0155 27.5136 20.0155 27.4468 20.0101 27.3802C20.016 27.3037 20.016 27.2268 20.0101 27.1502C20.0101 27.0902 20.0101 27.0702 20.0101 27.0602C20.0235 26.9942 20.0235 26.9262 20.0101 26.8602V26.5002C20.0801 26.3302 20.0701 26.1702 20.0201 25.9702H20.0601Z" fill="white"/>
<path d="M22.43 29.07H22.36H22.3H21.95H21.87H21.77C21.687 29.0596 21.603 29.0596 21.52 29.07H21.44H21.35V29.0001C21.3533 28.9735 21.3533 28.9466 21.35 28.92V28.7101C21.35 28.7101 21.35 28.71 21.35 28.61C21.3543 28.5601 21.3543 28.51 21.35 28.4601C21.3447 28.4068 21.3447 28.3533 21.35 28.3V28.1601C21.35 28.1601 21.35 28.1101 21.35 28.0901C21.3528 28.0702 21.3528 28.05 21.35 28.0301C21.3459 28.0103 21.3459 27.9899 21.35 27.9701C21.35 27.9701 21.35 27.9101 21.35 27.8701V27.7101H21.83C21.8525 27.7185 21.8774 27.7185 21.9 27.7101C21.9031 27.6835 21.9031 27.6566 21.9 27.6301V27.5601H21.28C21.28 27.5001 21.28 27.4401 21.28 27.3701C21.28 27.3001 21.28 27.22 21.28 27.11C21.2843 27.0903 21.2843 27.0698 21.28 27.05V26.9401C21.2849 26.8702 21.2849 26.8 21.28 26.73C21.2752 26.6401 21.2752 26.55 21.28 26.4601C21.28 26.3701 21.28 26.2901 21.28 26.2401V26.0901H21.38H21.46H21.53H21.64H21.75H22.02H22.12C22.1239 26.1034 22.1317 26.1153 22.1423 26.1242C22.153 26.1331 22.1661 26.1386 22.18 26.14C22.18 26.14 22.18 26.14 22.26 26.14L22.31 26.08V26.0201C22.2974 26.0145 22.2837 26.0117 22.27 26.0117C22.2562 26.0117 22.2426 26.0145 22.23 26.0201H22.12H22.02H21.71H21.6H21.54H21.45C21.45 26.0201 21.45 26.02 21.39 26.07C21.3852 26.0864 21.3852 26.1037 21.39 26.1201V26.26C21.3843 26.36 21.3843 26.4601 21.39 26.5601C21.39 26.6801 21.39 26.79 21.39 26.89C21.39 26.99 21.39 27.05 21.39 27.08C21.394 27.1099 21.394 27.1402 21.39 27.17C21.3956 27.2031 21.3956 27.237 21.39 27.2701C21.394 27.3166 21.394 27.3635 21.39 27.4101V28.1301C21.39 28.1301 21.39 28.2101 21.39 28.2501C21.3858 28.2866 21.3858 28.3235 21.39 28.36C21.39 28.36 21.39 28.45 21.39 28.51C21.3848 28.5833 21.3848 28.6568 21.39 28.73C21.3948 28.7866 21.3948 28.8435 21.39 28.9001V29.14C21.3932 29.18 21.3932 29.2201 21.39 29.26C21.39 29.26 21.39 29.3401 21.39 29.3701C21.3935 29.3933 21.3935 29.4169 21.39 29.4401C21.3939 29.4529 21.4003 29.4648 21.4089 29.4751C21.4175 29.4854 21.428 29.4939 21.44 29.5001C21.4509 29.5054 21.4628 29.5081 21.475 29.5081C21.4871 29.5081 21.4991 29.5054 21.51 29.5001V29.45H22.03H22.15H22.24H22.48C22.48 29.45 22.6 29.4501 22.63 29.4001C22.6343 29.3803 22.6343 29.3598 22.63 29.3401C22.6585 29.3112 22.6758 29.2731 22.6787 29.2326C22.6815 29.1921 22.6699 29.1519 22.6457 29.1193C22.6215 29.0867 22.5865 29.0638 22.5469 29.0548C22.5074 29.0457 22.4659 29.0511 22.43 29.07Z" fill="white"/>
<path d="M23.8099 29.0701C23.8062 29.0436 23.8062 29.0167 23.8099 28.9901C23.7848 28.9602 23.7645 28.9264 23.7499 28.8901C23.7544 28.8808 23.7567 28.8705 23.7567 28.8601C23.7567 28.8498 23.7544 28.8395 23.7499 28.8301V28.7301C23.7265 28.7025 23.7064 28.6723 23.6899 28.6401V28.5602L23.6299 28.4501L23.5699 28.3401L23.5199 28.2601V28.1801C23.5232 28.1502 23.5232 28.1201 23.5199 28.0901C23.5199 28.0901 23.5199 28.0901 23.5199 28.0201H23.5799L23.6499 27.9702C23.6872 27.9489 23.721 27.9219 23.7499 27.8901L23.8099 27.8201V27.7401C23.8441 27.7076 23.8684 27.666 23.8799 27.6201C23.8799 27.6201 23.8799 27.5301 23.8799 27.4801C23.8799 27.4301 23.8799 27.3602 23.8799 27.3102V26.7101C23.8844 26.6502 23.8844 26.5901 23.8799 26.5302C23.8799 26.5302 23.8799 26.4501 23.8799 26.4201V26.3001V26.2301C23.8814 26.2002 23.8814 26.1701 23.8799 26.1401V26.0801V26.0302V25.9702H23.8099H23.6999H23.5299H23.4699C23.4699 25.9702 23.4699 26.0301 23.4699 26.0501C23.4699 26.0701 23.4699 26.0501 23.4699 26.1201C23.4709 26.1368 23.4709 26.1535 23.4699 26.1701C23.474 26.2401 23.474 26.3102 23.4699 26.3802C23.4699 26.3802 23.4699 26.4501 23.4699 26.4901C23.4663 26.5234 23.4663 26.5569 23.4699 26.5901V27.0302C23.4699 27.1302 23.4699 27.2301 23.4699 27.3201V27.4702C23.4645 27.4999 23.4645 27.5304 23.4699 27.5602C23.4651 27.59 23.4651 27.6203 23.4699 27.6501C23.465 27.69 23.465 27.7303 23.4699 27.7701V27.7101C23.465 27.75 23.465 27.7903 23.4699 27.8301C23.4682 27.8501 23.4682 27.8702 23.4699 27.8901C23.4709 27.9068 23.4709 27.9235 23.4699 27.9402C23.4699 27.9402 23.4699 28.0001 23.4699 28.1101V28.4901C23.4699 28.6401 23.4699 28.7701 23.4699 28.8701C23.4629 28.9299 23.4629 28.9903 23.4699 29.0501H23.5499H23.5999C23.6078 29.0347 23.6119 29.0175 23.6119 29.0002C23.6119 28.9828 23.6078 28.9656 23.5999 28.9501C23.6032 28.8935 23.6032 28.8368 23.5999 28.7802V28.4301C23.5999 28.3001 23.5999 28.1801 23.5999 28.0801C23.5999 27.9801 23.5999 27.9202 23.5999 27.9102C23.599 27.8935 23.599 27.8768 23.5999 27.8601C23.5982 27.8402 23.5982 27.8201 23.5999 27.8001V27.8601C23.6499 27.9401 23.6999 28.0101 23.7299 28.0701L23.8199 28.2202V28.3102V28.3601V28.4201V28.4901C23.8199 28.4901 23.8199 28.4901 23.8199 28.5501C23.8132 28.5764 23.8132 28.6039 23.8199 28.6302C23.8224 28.6467 23.8224 28.6636 23.8199 28.6801V28.7601L23.8699 28.8301V28.9102C23.8753 28.9433 23.8753 28.977 23.8699 29.0101C23.8699 29.0901 23.9399 29.1401 23.9899 29.1401H24.0699C24.0763 29.1138 24.0763 29.0864 24.0699 29.0602C24.0699 29.0602 23.8499 29.0901 23.8099 29.0701ZM22.9299 26.0701C22.9299 26.0701 22.9299 26.0101 22.9299 25.9901C22.9299 25.9701 22.9299 25.9402 22.9299 25.9102H23.0199L23.1199 26.0101C23.1199 26.0101 23.1199 26.0102 23.1199 26.0602V26.1302V26.1801C23.1156 26.2033 23.1156 26.227 23.1199 26.2502C23.1199 26.2502 23.1199 26.2501 23.1199 26.3401C23.1199 26.4301 23.1199 26.4201 23.1199 26.4601C23.1199 26.5001 23.1199 26.5502 23.1199 26.6002C23.1226 26.6234 23.1226 26.6469 23.1199 26.6701C23.1199 26.6701 23.1199 26.6701 23.1199 26.7301C23.1241 26.7566 23.1241 26.7836 23.1199 26.8102C23.1225 26.8368 23.1225 26.8635 23.1199 26.8901V26.9402L23.0599 27.0101L22.9899 27.0602L22.9299 27.1101V26.9601C22.9299 26.9101 22.9299 26.8302 22.9299 26.7202V26.7101C22.9299 26.6201 22.9299 26.5302 22.9299 26.4402C22.9331 26.3869 22.9331 26.3334 22.9299 26.2802V26.2202C22.934 26.2004 22.934 26.18 22.9299 26.1602V26.0701Z" fill="white"/>
<path d="M47.1501 8.63986H47.0901C47.0848 8.65077 47.0821 8.66274 47.0821 8.67487C47.0821 8.68699 47.0848 8.69896 47.0901 8.70987V8.89987C47.0901 8.89987 47.0901 9.00988 47.0901 9.09988V9.17987V9.23987L47.0401 9.29987H46.9901L46.9201 9.36987H46.8601C46.8307 9.36126 46.7995 9.36126 46.7701 9.36987H46.6201H46.5501L46.4901 9.30988V9.24988V9.17987V9.09988C46.4861 9.08009 46.4861 9.05965 46.4901 9.03986C46.495 9.01005 46.495 8.97966 46.4901 8.94986C46.4901 8.94986 46.4901 8.88987 46.4901 8.86987C46.4869 8.85336 46.4869 8.83636 46.4901 8.81985C46.495 8.79677 46.495 8.77296 46.4901 8.74988C46.4865 8.71664 46.4865 8.68311 46.4901 8.64987C46.4948 8.59998 46.4948 8.54977 46.4901 8.49988C46.4951 8.44666 46.4951 8.39309 46.4901 8.33987V8.19986C46.4956 8.1634 46.4956 8.12634 46.4901 8.08987C46.4922 8.05991 46.4922 8.02984 46.4901 7.99988C46.4858 7.97675 46.4858 7.953 46.4901 7.92987C46.4768 7.88416 46.4768 7.83557 46.4901 7.78986C46.4901 7.78986 46.4901 7.71987 46.4901 7.67987C46.4935 7.66001 46.4935 7.63973 46.4901 7.61987C46.4921 7.59324 46.4921 7.56649 46.4901 7.53986V7.36987C46.4901 7.30987 46.4901 7.24987 46.4901 7.20987C46.493 7.1766 46.493 7.14313 46.4901 7.10986C46.4901 7.10986 46.4901 7.05986 46.4901 7.03986V6.98987C46.494 6.97342 46.494 6.95633 46.4901 6.93988C46.4901 6.93988 46.4901 6.88987 46.4901 6.86987V6.80988C46.5151 6.75854 46.5352 6.70497 46.5501 6.64987C46.5447 6.62012 46.5447 6.58963 46.5501 6.55988H46.6201H46.6901L46.7901 6.50986H46.9601C46.9601 6.50986 46.9601 6.50988 47.0201 6.55988V6.64987C47.016 6.69311 47.016 6.73664 47.0201 6.77988C47.0201 6.77988 47.0201 6.84987 47.0201 6.86987V6.92987V7.14987H47.1101C47.1158 7.12351 47.1158 7.09622 47.1101 7.06985V6.82986C47.1056 6.79334 47.1056 6.75641 47.1101 6.71988C47.1145 6.70011 47.1145 6.67965 47.1101 6.65988C47.1117 6.63991 47.1117 6.61985 47.1101 6.59988C47.1101 6.59988 47.1101 6.54986 47.1101 6.53986C47.1082 6.51656 47.1082 6.49317 47.1101 6.46988L47.0401 6.40988C47.015 6.38565 46.984 6.36839 46.9501 6.35986H46.8801H46.7101H46.6401H46.5401L46.4201 6.42987L46.3001 6.52988C46.3001 6.52988 46.2401 6.59988 46.2401 6.62988C46.2346 6.6495 46.2346 6.67027 46.2401 6.68988C46.2361 6.70968 46.2361 6.73008 46.2401 6.74988C46.2442 6.77638 46.2442 6.80336 46.2401 6.82986C46.2401 6.82986 46.2401 6.82986 46.2401 6.94986V7.11987V7.32986C46.237 7.38315 46.237 7.43658 46.2401 7.48987V7.58987C46.2365 7.62311 46.2365 7.65665 46.2401 7.68988C46.2411 7.70653 46.2411 7.72322 46.2401 7.73987C46.2401 7.73987 46.2401 7.73985 46.2401 7.81985V7.98987C46.2401 7.98987 46.2401 8.04985 46.2401 8.06985C46.2411 8.08651 46.2411 8.10322 46.2401 8.11987V8.16986C46.2401 8.16986 46.2401 8.21987 46.2401 8.23987V8.38986C46.2351 8.45977 46.2351 8.52997 46.2401 8.59988V8.82986C46.2353 8.85967 46.2353 8.89006 46.2401 8.91986C46.2363 8.95309 46.2363 8.98664 46.2401 9.01987C46.2368 9.06648 46.2368 9.11327 46.2401 9.15988C46.2328 9.19955 46.2328 9.24021 46.2401 9.27988L46.3001 9.37988L46.3801 9.48987C46.43 9.54596 46.4966 9.58454 46.5701 9.59988C46.6165 9.60772 46.6638 9.60772 46.7101 9.59988H46.8201H46.9001L46.9801 9.54987L47.0501 9.49988L47.2001 9.34988L47.2701 9.26987V9.21988V9.12988C47.2654 9.11016 47.2654 9.08958 47.2701 9.06985C47.2701 9.06985 47.2701 9.01987 47.2701 8.98987V8.87988C47.2654 8.86016 47.2654 8.83958 47.2701 8.81985C47.2723 8.79991 47.2723 8.7798 47.2701 8.75986C47.2831 8.72434 47.2831 8.68539 47.2701 8.64987C47.232 8.6349 47.1902 8.63141 47.1501 8.63986Z" fill="white"/>
<path d="M49.52 9.43005V9.32004V9.22006V9.16006C49.5132 9.13045 49.5132 9.09965 49.52 9.07004C49.5245 9.03351 49.5245 8.99658 49.52 8.96005V8.89005C49.5243 8.86355 49.5243 8.83655 49.52 8.81006C49.52 8.81006 49.52 8.76006 49.52 8.75006V8.62006L49.46 8.44006C49.4466 8.38248 49.4299 8.32571 49.41 8.27005C49.41 8.20005 49.41 8.17006 49.41 8.16006C49.4149 8.12691 49.4149 8.09321 49.41 8.06006C49.4135 8.04358 49.4135 8.02652 49.41 8.01004V7.95004C49.4124 7.92343 49.4124 7.89667 49.41 7.87006C49.3874 7.81876 49.3707 7.76509 49.36 7.71005C49.36 7.64005 49.36 7.58004 49.36 7.51004V7.37006C49.3649 7.33021 49.3649 7.28991 49.36 7.25006C49.3638 7.21349 49.3638 7.17661 49.36 7.14005C49.36 7.14005 49.36 7.14006 49.36 7.06006V6.94006C49.3554 6.90689 49.3554 6.87323 49.36 6.84006V6.75006C49.3647 6.72024 49.3647 6.68988 49.36 6.66006C49.36 6.66006 49.36 6.59005 49.36 6.55005C49.3636 6.51681 49.3636 6.48328 49.36 6.45004C49.3627 6.41342 49.3627 6.37668 49.36 6.34006L49.3 6.29004C49.2627 6.30252 49.2286 6.32302 49.2 6.35007V6.42004C49.1914 6.44943 49.1914 6.48066 49.2 6.51004C49.2 6.51004 49.2 6.58005 49.15 6.64005L49.09 6.83005C49.09 6.89005 49.09 6.95005 49.01 7.02005C48.9964 7.06124 48.9797 7.10135 48.96 7.14005L48.91 7.26004C48.9057 7.31329 48.9057 7.3668 48.91 7.42004C48.9133 7.46665 48.9133 7.51345 48.91 7.56006C48.9138 7.59663 48.9138 7.63348 48.91 7.67004C48.8956 7.69807 48.8789 7.72485 48.86 7.75006V7.81006C48.8297 7.86253 48.8093 7.92015 48.8 7.98004L48.72 8.15005C48.7122 8.18967 48.7122 8.23043 48.72 8.27005C48.72 8.27005 48.72 8.27005 48.72 8.33005V8.39005C48.7163 8.41658 48.7163 8.44352 48.72 8.47006C48.7166 8.49662 48.7166 8.52349 48.72 8.55005C48.717 8.58665 48.717 8.62346 48.72 8.66006C48.7257 8.69651 48.7257 8.7336 48.72 8.77005V8.88007C48.7171 8.90665 48.7171 8.93346 48.72 8.96005C48.7179 8.97665 48.7179 8.99344 48.72 9.01004V9.12006V9.22006V9.28006V9.38007V9.48004V9.58005C48.7175 9.60331 48.7175 9.62679 48.72 9.65005C48.7106 9.68272 48.7106 9.7174 48.72 9.75006H48.81C48.8137 9.72352 48.8137 9.69658 48.81 9.67004V9.59006C48.811 9.5734 48.811 9.55669 48.81 9.54004C48.8134 9.52018 48.8134 9.4999 48.81 9.48004V9.42004C48.8138 9.39016 48.8138 9.35993 48.81 9.33005C48.8069 9.29679 48.8069 9.2633 48.81 9.23004C48.8075 9.18675 48.8075 9.14336 48.81 9.10007C48.81 9.05007 48.81 9.00006 48.81 8.97006V8.86005C48.8144 8.82686 48.8144 8.79323 48.81 8.76004C48.8133 8.73682 48.8133 8.71328 48.81 8.69006H50.01C50.0068 8.73667 50.0068 8.78344 50.01 8.83005C50.01 8.89671 50.03 8.98673 50.07 9.10007C50.07 9.10007 50.07 9.17005 50.07 9.21005C50.0734 9.22991 50.0734 9.25019 50.07 9.27005C50.0667 9.29661 50.0667 9.32351 50.07 9.35007C50.07 9.35007 50.07 9.44005 50.07 9.49005V9.63007C50.0659 9.66327 50.0659 9.69683 50.07 9.73004C50.0769 9.77652 50.094 9.82091 50.12 9.86005C50.1242 9.8787 50.1342 9.89553 50.1486 9.90811C50.163 9.9207 50.181 9.92839 50.2 9.93005H50.25C50.2555 9.91744 50.2584 9.90381 50.2584 9.89005C50.2584 9.87628 50.2555 9.86268 50.25 9.85007C50.2631 9.79754 50.2631 9.74259 50.25 9.69006C50.25 9.69006 49.52 9.46005 49.52 9.43005ZM48.73 8.31006H48.02C48.0239 8.29361 48.0239 8.27649 48.02 8.26004V8.17004V8.07004V7.95004L48.09 7.84006C48.1095 7.79446 48.1262 7.74769 48.14 7.70004L48.19 7.60007C48.1965 7.56705 48.1965 7.53308 48.19 7.50006C48.1879 7.48012 48.1879 7.46001 48.19 7.44006C48.1862 7.42362 48.1862 7.40649 48.19 7.39005C48.1857 7.37028 48.1857 7.34981 48.19 7.33005V7.23004L48.25 7.10007C48.2693 7.03532 48.2927 6.97186 48.32 6.91006C48.3406 6.83467 48.3674 6.76109 48.4 6.69006C48.4 6.69006 48.4 6.76004 48.4 6.79004C48.4105 6.82613 48.4274 6.86002 48.45 6.89005C48.4455 6.91652 48.4455 6.94358 48.45 6.97006C48.4532 6.99329 48.4532 7.01681 48.45 7.04004C48.446 7.06991 48.446 7.1002 48.45 7.13007C48.4471 7.15999 48.4471 7.19013 48.45 7.22006C48.4555 7.24307 48.4555 7.26703 48.45 7.29004C48.45 7.29004 48.45 7.36005 48.45 7.39005C48.45 7.42005 48.45 7.45004 48.45 7.48004C48.4532 7.49655 48.4532 7.51355 48.45 7.53006C48.4457 7.54982 48.4457 7.57029 48.45 7.59006V7.69006V7.80005C48.4532 7.82328 48.4532 7.84683 48.45 7.87006C48.45 7.87006 48.45 7.87006 48.45 7.94006C48.4457 7.96656 48.4457 7.99356 48.45 8.02005V8.07004C48.4466 8.09659 48.4466 8.1235 48.45 8.15005V8.20004H48.18L48.73 8.31006Z" fill="white"/>
<path d="M50.8299 9.54013C50.809 9.51268 50.7922 9.48237 50.7799 9.45013L50.7199 9.36014C50.7199 9.36014 50.7199 9.36014 50.7199 9.30014C50.7209 9.28349 50.7209 9.26681 50.7199 9.25015L50.6599 9.16016V9.06015V8.98013L50.5999 8.88016L50.5399 8.77014L50.4899 8.69016C50.4937 8.66363 50.4937 8.63667 50.4899 8.61014C50.4776 8.5779 50.4608 8.54759 50.4399 8.52014C50.4451 8.49709 50.4451 8.47318 50.4399 8.45013V8.40015H50.4999C50.5269 8.38938 50.5509 8.37224 50.5699 8.35016C50.6124 8.33259 50.6501 8.30515 50.6799 8.27014L50.7399 8.20013L50.7899 8.13016C50.8207 8.0913 50.8444 8.04728 50.8599 8.00015C50.8638 7.95357 50.8638 7.90672 50.8599 7.86014C50.8634 7.80353 50.8634 7.74677 50.8599 7.69016V7.52014C50.864 7.46355 50.864 7.40675 50.8599 7.35016C50.8559 7.31026 50.8559 7.27003 50.8599 7.23013V7.12015V7.04013V6.96014V6.91016C50.8646 6.89908 50.867 6.88718 50.867 6.87515C50.867 6.86313 50.8646 6.85123 50.8599 6.84015C50.8599 6.84015 50.8599 6.84013 50.8599 6.79013C50.8425 6.7677 50.8223 6.74755 50.7999 6.73013H50.7299H50.6299H50.4499H50.3899C50.3899 6.73013 50.3899 6.78014 50.3899 6.80014C50.3899 6.82014 50.3899 6.85015 50.3899 6.87015C50.3845 6.88639 50.3845 6.9039 50.3899 6.92014C50.386 6.93658 50.386 6.95371 50.3899 6.97015C50.3899 7.02015 50.3899 7.09015 50.3899 7.18015V7.29013C50.3862 7.32336 50.3862 7.3569 50.3899 7.39014V7.83014C50.3899 7.94014 50.3899 8.03015 50.3899 8.12015V8.27014C50.3766 8.3294 50.3766 8.39088 50.3899 8.45013V8.57013C50.3944 8.60666 50.3944 8.64362 50.3899 8.68015C50.385 8.71999 50.385 8.76029 50.3899 8.80014V8.88016C50.3852 8.89649 50.3852 8.91381 50.3899 8.93015C50.3899 8.93015 50.3899 8.99014 50.3899 9.11014V9.87015C50.3767 9.92605 50.3767 9.98423 50.3899 10.0401H50.4699C50.4699 10.0401 50.4699 9.98013 50.4699 9.95013C50.4699 9.92013 50.4699 9.87014 50.4699 9.77014C50.4699 9.67014 50.4699 9.56015 50.4699 9.43015V9.07013C50.4699 8.97013 50.4699 8.91015 50.4699 8.90015V8.81015V8.87015L50.5999 9.08014L50.6899 9.24014C50.6919 9.26677 50.6919 9.2935 50.6899 9.32013V9.38016C50.6919 9.40345 50.6919 9.42684 50.6899 9.45013L50.7399 9.51013C50.7315 9.53614 50.7315 9.56415 50.7399 9.59015V9.64014V9.72015L50.7899 9.80014V9.87015C50.8086 9.90245 50.8252 9.93585 50.8399 9.97015C50.8399 10.0502 50.9099 10.1002 50.9599 10.1002C50.9725 10.1057 50.9861 10.1085 50.9999 10.1085C51.0137 10.1085 51.0273 10.1057 51.0399 10.1002C51.0471 10.074 51.0471 10.0463 51.0399 10.0201C51.1035 9.99229 51.1535 9.94031 51.1788 9.87561C51.2042 9.81091 51.2027 9.73879 51.1749 9.67514C51.147 9.61149 51.095 9.56151 51.0303 9.53619C50.9656 9.51088 50.8935 9.51228 50.8299 9.54013ZM49.9499 6.54013C49.9556 6.51377 49.9556 6.48651 49.9499 6.46014C49.9547 6.43706 49.9547 6.41322 49.9499 6.39014H50.0499L50.1499 6.48013C50.1499 6.48013 50.1499 6.48015 50.1499 6.53015C50.1444 6.55316 50.1444 6.57715 50.1499 6.60016C50.1499 6.60016 50.1499 6.60015 50.1499 6.65015C50.1499 6.65015 50.1499 6.65014 50.1499 6.71014V6.76013C50.1465 6.78669 50.1465 6.81359 50.1499 6.84015C50.1499 6.84015 50.1499 6.92014 50.1499 6.96014C50.1554 7.00665 50.1554 7.05366 50.1499 7.10016C50.1537 7.12669 50.1537 7.15362 50.1499 7.18015C50.1499 7.18015 50.1499 7.18015 50.1499 7.25015V7.33014V7.40015V7.46014L50.0899 7.52014H50.0299H49.9599L49.8999 7.57013V7.18015C49.8999 7.08015 49.8999 6.97015 49.8999 6.87015C49.8947 6.78356 49.8947 6.69673 49.8999 6.61014V6.71014C49.9009 6.69349 49.9009 6.67681 49.8999 6.66016C49.904 6.637 49.904 6.6133 49.8999 6.59015L49.9499 6.54013Z" fill="white"/>
<path d="M52.3099 7.20987V7.15988V7.07986C52.3142 7.05673 52.3142 7.03299 52.3099 7.00986V6.92987C52.3099 6.92987 52.3099 6.85985 52.3099 6.81985C52.2633 6.72506 52.1988 6.64017 52.1199 6.56985L52.0499 6.48987L51.9799 6.43988C51.9619 6.41444 51.9378 6.39383 51.9099 6.37988H51.8199H51.6199H51.5599C51.5386 6.39115 51.5212 6.40856 51.5099 6.42987L51.4599 6.48987C51.4535 6.51276 51.4535 6.53698 51.4599 6.55988V6.70987C51.4544 6.77976 51.4544 6.84997 51.4599 6.91986C51.4599 6.97986 51.4599 7.03988 51.4599 7.09988C51.4632 7.12979 51.4632 7.15997 51.4599 7.18988V7.27988C51.4744 7.322 51.4744 7.36776 51.4599 7.40988C51.4599 7.40988 51.4599 7.48987 51.4599 7.54987C51.4546 7.59303 51.4546 7.6367 51.4599 7.67987C51.4599 7.67987 51.4599 7.75985 51.4599 7.81985C51.4599 7.87985 51.4599 7.91988 51.4599 7.96988C51.4558 8.02647 51.4558 8.08327 51.4599 8.13986V8.48987C51.4646 8.52304 51.4646 8.5567 51.4599 8.58987C51.4599 8.58987 51.4599 8.64986 51.4599 8.66986C51.4599 8.68986 51.4599 8.72988 51.4599 8.74988C51.4558 8.77303 51.4558 8.7967 51.4599 8.81985C51.4599 8.81985 51.4599 8.81986 51.4599 8.88986C51.4558 8.91301 51.4558 8.93672 51.4599 8.95987V9.00986V9.09988C51.4599 9.14988 51.4599 9.18986 51.4599 9.22986V9.33987C51.4599 9.33987 51.4599 9.39988 51.4599 9.40988C51.4565 9.43644 51.4565 9.46331 51.4599 9.48987C51.4599 9.48987 51.4599 9.53985 51.4599 9.56985V9.63986C51.4529 9.65382 51.4492 9.66925 51.4492 9.68488C51.4492 9.70051 51.4529 9.7159 51.4599 9.72986C51.4642 9.74402 51.4719 9.75693 51.4824 9.7674C51.4929 9.77786 51.5057 9.78556 51.5199 9.78986H51.5899C51.626 9.79875 51.6638 9.79875 51.6999 9.78986H52.0699C52.1299 9.78986 52.1599 9.78986 52.1699 9.78986L52.2599 9.71988L52.3199 9.64987L52.3699 9.56985C52.4135 9.51019 52.4442 9.44209 52.4599 9.36987C52.4572 9.32658 52.4572 9.28316 52.4599 9.23987C52.4599 9.23987 52.4599 9.17986 52.4599 9.16986C52.4552 9.14004 52.4552 9.10968 52.4599 9.07986C52.4599 9.02986 52.4599 8.99987 52.4599 8.95987C52.4584 8.92989 52.4584 8.89986 52.4599 8.86987C52.4637 8.83665 52.4637 8.80309 52.4599 8.76987C52.4561 8.74334 52.4561 8.71641 52.4599 8.68988V8.54987C52.4599 8.47987 52.4599 8.39987 52.4599 8.29987V7.70987C52.454 7.66339 52.454 7.61633 52.4599 7.56985C52.4555 7.54001 52.4555 7.5097 52.4599 7.47986C52.4643 7.44667 52.4643 7.41307 52.4599 7.37988C52.4599 7.37988 52.4599 7.31986 52.4599 7.28986L52.3099 7.20987ZM52.0399 8.62988V8.70987C52.0399 8.70987 52.0399 8.76988 52.0399 8.80988C52.0351 8.83968 52.0351 8.87007 52.0399 8.89987C52.0365 8.92643 52.0365 8.9533 52.0399 8.97986C52.0361 9.00639 52.0361 9.03335 52.0399 9.05988C52.0399 9.05988 52.0399 9.05988 52.0399 9.12988V9.17987C52.0351 9.20295 52.0351 9.2268 52.0399 9.24988C52.0361 9.2697 52.0361 9.29005 52.0399 9.30988C52.0399 9.30988 52.0399 9.35987 52.0399 9.36987L51.9899 9.42987H51.9399H51.5399C51.5448 9.40343 51.5448 9.37633 51.5399 9.34988V9.29987V9.21988C51.5442 9.19339 51.5442 9.16636 51.5399 9.13986C51.5399 9.13986 51.5399 9.07987 51.5399 9.04987C51.5442 9.02337 51.5442 8.99637 51.5399 8.96988C51.5352 8.95015 51.5352 8.92961 51.5399 8.90988C51.5399 8.90988 51.5399 8.85986 51.5399 8.82986C51.5399 8.82986 51.5399 8.76986 51.5399 8.72986V8.61987V8.48987C51.535 8.43999 51.535 8.38976 51.5399 8.33987C51.5444 8.27328 51.5444 8.20645 51.5399 8.13986C51.5449 8.07663 51.5449 8.0131 51.5399 7.94986V7.79987C51.5353 7.74663 51.5353 7.69309 51.5399 7.63986V7.34988C51.5347 7.2633 51.5347 7.17646 51.5399 7.08987C51.537 7.04325 51.537 6.99648 51.5399 6.94986V6.86987C51.5449 6.80998 51.5449 6.74978 51.5399 6.68988C51.5399 6.61988 51.5399 6.55986 51.5399 6.50986C51.5399 6.45986 51.5399 6.43987 51.5399 6.42987H51.6499C51.6926 6.4421 51.7308 6.46642 51.7599 6.49988L51.8299 6.57986L51.9099 6.63986L51.9799 6.71988C51.9799 6.71988 51.9799 6.77985 52.0399 6.81985C52.0588 6.84507 52.0755 6.87185 52.0899 6.89987V6.96988C52.0856 6.98964 52.0856 7.01011 52.0899 7.02988C52.0851 7.05968 52.0851 7.09007 52.0899 7.11987C52.0861 7.1531 52.0861 7.18665 52.0899 7.21988C52.1022 7.26573 52.1022 7.31401 52.0899 7.35986V7.53986C52.0899 7.63986 52.0899 7.73988 52.0899 7.84988C52.0899 7.95988 52.0899 8.06986 52.0899 8.16986C52.0899 8.26986 52.0899 8.35988 52.0899 8.37988C52.0899 8.37988 52.0899 8.43986 52.0899 8.47986C52.0899 8.51986 52.0899 8.52986 52.0899 8.53986C52.0794 8.54109 52.0692 8.54441 52.0599 8.54962C52.0507 8.55483 52.0426 8.56185 52.0361 8.57022C52.0296 8.5786 52.0248 8.58818 52.022 8.59842C52.0192 8.60866 52.0185 8.61936 52.0199 8.62988H52.0399Z" fill="white"/>
<path d="M54.79 27.8702C54.79 30.0202 52.5099 31.6102 50.3599 31.6102C49.3264 31.6075 48.336 31.1958 47.6052 30.465C46.8743 29.7341 46.4626 28.7437 46.4599 27.7102C46.4487 26.6359 46.8447 25.5973 47.5683 24.8033C48.2919 24.0092 49.2893 23.5186 50.3599 23.4302C51.5031 23.5297 52.5744 24.0298 53.3849 24.8421C54.1953 25.6544 54.693 26.7268 54.79 27.8702Z" fill="#FDAC19"/>
<path d="M50.6299 27.8702C50.6299 30.0202 48.3499 31.6102 46.1899 31.6102C45.1573 31.6075 44.1679 31.1955 43.4386 30.4644C42.7094 29.7333 42.2999 28.7428 42.2999 27.7102C42.2863 26.6353 42.6815 25.5954 43.4055 24.8008C44.1296 24.0062 45.1284 23.5163 46.1999 23.4302C47.3431 23.5297 48.4143 24.0298 49.2248 24.8421C50.0353 25.6544 50.5329 26.7268 50.6299 27.8702Z" fill="#0086CA"/>
<path d="M5.67001 20.1301C5.16001 20.1301 4.76001 19.3801 4.76001 18.4101C4.76001 17.4401 5.13001 16.54 5.67001 16.54C6.21001 16.54 6.67001 17.6 6.67001 18.48C6.67001 19.36 6.17001 20.1301 5.67001 20.1301ZM5.67001 16.8101C5.38001 16.8101 5.03001 17.5301 5.03001 18.4101C5.03001 19.2901 5.37001 19.86 5.67001 19.86C5.97001 19.86 6.43002 19.27 6.43002 18.48C6.43002 17.69 6.02001 16.8101 5.67001 16.8101Z" fill="white"/>
<path d="M8.21004 20.1301C7.69004 20.1301 7.29004 19.3801 7.29004 18.4101C7.29004 17.4401 7.66004 16.54 8.21004 16.54C8.76004 16.54 9.21004 17.6 9.21004 18.48C9.21004 19.36 8.76004 20.1301 8.21004 20.1301ZM8.21004 16.8101C7.91004 16.8101 7.56004 17.5301 7.56004 18.4101C7.56004 19.2901 7.90004 19.86 8.21004 19.86C8.52004 19.86 8.96004 19.27 8.96004 18.48C8.96004 17.69 8.52004 16.8101 8.21004 16.8101Z" fill="white"/>
<path d="M13.2701 20.1301C12.7601 20.1301 12.3601 19.3801 12.3601 18.4101C12.3601 17.4401 12.7301 16.54 13.2701 16.54C13.8101 16.54 14.2701 17.6 14.2701 18.48C14.2701 19.36 13.7701 20.1301 13.2701 20.1301ZM13.2701 16.8101C12.9801 16.8101 12.6301 17.5301 12.6301 18.4101C12.6301 19.2901 12.9701 19.86 13.2701 19.86C13.5701 19.86 14.0301 19.27 14.0301 18.48C14.0301 17.69 13.5901 16.8101 13.2701 16.8101Z" fill="white"/>
<path d="M10.7401 20.1301C10.2301 20.1301 9.83008 19.3801 9.83008 18.4101C9.83008 17.4401 10.1901 16.54 10.7401 16.54C11.2901 16.54 11.7401 17.6 11.7401 18.48C11.7401 19.36 11.2301 20.1301 10.7401 20.1301ZM10.7401 16.8101C10.4501 16.8101 10.0901 17.5301 10.0901 18.4101C10.0901 19.2901 10.4301 19.86 10.7401 19.86C11.0501 19.86 11.5001 19.27 11.5001 18.48C11.5001 17.69 11.0201 16.8101 10.7401 16.8101Z" fill="white"/>
<path d="M19.1199 20.1301C18.5999 20.1301 18.2 19.3801 18.2 18.4101C18.2 17.4401 18.5699 16.54 19.1199 16.54C19.6699 16.54 20.1199 17.6 20.1199 18.48C20.1199 19.36 19.6099 20.1301 19.1199 20.1301ZM19.1199 16.8101C18.8199 16.8101 18.4699 17.5301 18.4699 18.4101C18.4699 19.2901 18.8099 19.86 19.1199 19.86C19.4299 19.86 19.8699 19.27 19.8699 18.48C19.8699 17.69 19.4399 16.8101 19.1199 16.8101Z" fill="white"/>
<path d="M21.65 20.1301C21.14 20.1301 20.73 19.3801 20.73 18.4101C20.73 17.4401 21.1 16.54 21.65 16.54C22.2 16.54 22.65 17.6 22.65 18.48C22.65 19.36 22.2 20.1301 21.65 20.1301ZM21.65 16.8101C21.36 16.8101 21 17.5301 21 18.4101C21 19.2901 21.34 19.86 21.65 19.86C21.96 19.86 22.4 19.27 22.4 18.48C22.4 17.69 22.02 16.8101 21.65 16.8101Z" fill="white"/>
<path d="M26.72 20.1301C26.2 20.1301 25.8 19.3801 25.8 18.4101C25.8 17.4401 26.17 16.54 26.72 16.54C27.27 16.54 27.72 17.6 27.72 18.48C27.72 19.36 27.21 20.1301 26.72 20.1301ZM26.72 16.8101C26.42 16.8101 26.0701 17.5301 26.0701 18.4101C26.0701 19.2901 26.41 19.86 26.72 19.86C27.03 19.86 27.47 19.27 27.47 18.48C27.47 17.69 27.02 16.8101 26.72 16.8101Z" fill="white"/>
<path d="M24.18 20.1301C23.67 20.1301 23.27 19.3801 23.27 18.4101C23.27 17.4401 23.64 16.54 24.18 16.54C24.72 16.54 25.18 17.6 25.18 18.48C25.18 19.36 24.68 20.1301 24.18 20.1301ZM24.18 16.8101C23.89 16.8101 23.54 17.5301 23.54 18.4101C23.54 19.2901 23.88 19.86 24.18 19.86C24.48 19.86 24.94 19.27 24.94 18.48C24.94 17.69 24.5 16.8101 24.18 16.8101Z" fill="white"/>
<path d="M46.0201 20.1301C45.5101 20.1301 45.1101 19.3801 45.1101 18.4101C45.1101 17.4401 45.4701 16.54 46.0201 16.54C46.5701 16.54 47.0201 17.6 47.0201 18.48C47.0201 19.36 46.4901 20.1301 46.0201 20.1301ZM46.0201 16.8101C45.7301 16.8101 45.3701 17.5301 45.3701 18.4101C45.3701 19.2901 45.7101 19.86 46.0201 19.86C46.3301 19.86 46.7701 19.27 46.7701 18.48C46.7701 17.69 46.3201 16.8101 46.0201 16.8101Z" fill="white"/>
<path d="M48.5301 20.1301C48.0201 20.1301 47.6201 19.3801 47.6201 18.4101C47.6201 17.4401 47.9901 16.54 48.5301 16.54C49.0701 16.54 49.5301 17.6 49.5301 18.48C49.5301 19.36 49.0901 20.1301 48.5301 20.1301ZM48.5301 16.8101C48.2401 16.8101 47.8901 17.5301 47.8901 18.4101C47.8901 19.2901 48.2301 19.86 48.5301 19.86C48.8301 19.86 49.2901 19.27 49.2901 18.48C49.2901 17.69 48.8501 16.8101 48.5301 16.8101Z" fill="white"/>
<path d="M53.5999 20.1301C53.0899 20.1301 52.6899 19.3801 52.6899 18.4101C52.6899 17.4401 53.0499 16.54 53.5999 16.54C54.1499 16.54 54.5999 17.6 54.5999 18.48C54.5999 19.36 54.0999 20.1301 53.5999 20.1301ZM53.5999 16.8101C53.3099 16.8101 52.9499 17.5301 52.9499 18.4101C52.9499 19.2901 53.2999 19.86 53.5999 19.86C53.8999 19.86 54.3599 19.27 54.3599 18.48C54.3599 17.69 53.9199 16.8101 53.5999 16.8101Z" fill="white"/>
<path d="M51.0699 20.1301C50.5499 20.1301 50.1499 19.3801 50.1499 18.4101C50.1499 17.4401 50.5199 16.54 51.0699 16.54C51.6199 16.54 52.0699 17.6 52.0699 18.48C52.0699 19.36 51.5599 20.1301 51.0699 20.1301ZM51.0699 16.8101C50.7699 16.8101 50.4199 17.5301 50.4199 18.4101C50.4199 19.2901 50.7599 19.86 51.0699 19.86C51.3799 19.86 51.8199 19.27 51.8199 18.48C51.8199 17.69 51.3799 16.8101 51.0699 16.8101Z" fill="white"/>
<path d="M32.5599 20.1301C32.0399 20.1301 31.6399 19.3801 31.6399 18.4101C31.6399 17.4401 32.0099 16.54 32.5599 16.54C33.1099 16.54 33.5599 17.6 33.5599 18.48C33.5599 19.36 33.0199 20.1301 32.5599 20.1301ZM32.5599 16.8101C32.2699 16.8101 31.9099 17.5301 31.9099 18.4101C31.9099 19.2901 32.2499 19.86 32.5599 19.86C32.8699 19.86 33.3099 19.27 33.3099 18.48C33.3099 17.69 32.8799 16.8101 32.5599 16.8101Z" fill="white"/>
<path d="M35.0899 20.1301C34.5799 20.1301 34.1799 19.3801 34.1799 18.4101C34.1799 17.4401 34.5399 16.54 35.0899 16.54C35.6399 16.54 36.0899 17.6 36.0899 18.48C36.0899 19.36 35.6499 20.1301 35.0899 20.1301ZM35.0899 16.8101C34.7999 16.8101 34.4499 17.5301 34.4499 18.4101C34.4499 19.2901 34.7899 19.86 35.0899 19.86C35.3899 19.86 35.8499 19.27 35.8499 18.48C35.8499 17.69 35.4099 16.8101 35.0899 16.8101Z" fill="white"/>
<path d="M40.16 20.1301C39.65 20.1301 39.24 19.3801 39.24 18.4101C39.24 17.4401 39.61 16.54 40.16 16.54C40.71 16.54 41.16 17.6 41.16 18.48C41.16 19.36 40.65 20.1301 40.16 20.1301ZM40.16 16.8101C39.87 16.8101 39.51 17.5301 39.51 18.4101C39.51 19.2901 39.85 19.86 40.16 19.86C40.47 19.86 40.91 19.27 40.91 18.48C40.91 17.69 40.48 16.8101 40.16 16.8101Z" fill="white"/>
<path d="M37.63 20.1301C37.11 20.1301 36.71 19.3801 36.71 18.4101C36.71 17.4401 37.08 16.54 37.63 16.54C38.18 16.54 38.63 17.6 38.63 18.48C38.63 19.36 38.12 20.1301 37.63 20.1301ZM37.63 16.8101C37.33 16.8101 36.98 17.5301 36.98 18.4101C36.98 19.2901 37.32 19.86 37.63 19.86C37.94 19.86 38.38 19.27 38.38 18.48C38.38 17.69 37.94 16.8101 37.63 16.8101Z" fill="white"/>
</g>
<defs>
<clipPath id="clip0_637_137">
<rect width="59.39" height="35.53" fill="white"/>
</clipPath>
</defs>
</svg>
