<svg xmlns="http://www.w3.org/2000/svg" version="1.1" width="120" height="130" viewBox="0 0 130 130"><rect x="0" y="0" width="130" height="130" fill="#ffffff"></rect><g transform="scale(4.483)"><g transform="translate(0,0)"><path fill-rule="evenodd" d="M8 0L8 4L9 4L9 5L8 5L8 7L9 7L9 6L10 6L10 9L11 9L11 8L12 8L12 9L13 9L13 10L15 10L15 11L14 11L14 12L13 12L13 11L12 11L12 12L11 12L11 13L7 13L7 12L6 12L6 11L8 11L8 12L10 12L10 11L11 11L11 10L9 10L9 9L7 9L7 8L4 8L4 9L2 9L2 8L0 8L0 9L2 9L2 10L1 10L1 11L2 11L2 16L5 16L5 17L4 17L4 18L2 18L2 19L3 19L3 21L4 21L4 19L5 19L5 20L6 20L6 21L7 21L7 20L8 20L8 22L9 22L9 23L8 23L8 25L9 25L9 26L10 26L10 27L8 27L8 29L12 29L12 28L13 28L13 29L16 29L16 26L17 26L17 29L19 29L19 28L20 28L20 29L25 29L25 28L26 28L26 27L27 27L27 29L28 29L28 28L29 28L29 25L28 25L28 24L29 24L29 17L28 17L28 16L29 16L29 13L28 13L28 12L29 12L29 8L25 8L25 9L24 9L24 8L23 8L23 9L22 9L22 11L19 11L19 9L21 9L21 8L20 8L20 7L21 7L21 6L20 6L20 5L19 5L19 4L20 4L20 3L21 3L21 2L20 2L20 1L19 1L19 0L15 0L15 1L14 1L14 0L13 0L13 1L11 1L11 2L12 2L12 5L13 5L13 1L14 1L14 2L15 2L15 4L14 4L14 5L17 5L17 6L16 6L16 7L17 7L17 9L16 9L16 8L15 8L15 9L14 9L14 7L15 7L15 6L14 6L14 7L13 7L13 6L12 6L12 7L11 7L11 3L10 3L10 2L9 2L9 0ZM15 1L15 2L16 2L16 3L17 3L17 4L19 4L19 3L17 3L17 2L19 2L19 1L17 1L17 2L16 2L16 1ZM18 5L18 6L17 6L17 7L18 7L18 6L19 6L19 7L20 7L20 6L19 6L19 5ZM12 7L12 8L13 8L13 7ZM18 8L18 9L17 9L17 10L18 10L18 9L19 9L19 8ZM4 9L4 10L3 10L3 11L4 11L4 12L3 12L3 13L4 13L4 14L3 14L3 15L6 15L6 16L7 16L7 17L6 17L6 18L7 18L7 19L6 19L6 20L7 20L7 19L8 19L8 18L7 18L7 17L9 17L9 18L10 18L10 19L9 19L9 20L10 20L10 21L9 21L9 22L12 22L12 21L13 21L13 22L15 22L15 21L13 21L13 20L14 20L14 19L15 19L15 18L13 18L13 17L12 17L12 16L13 16L13 15L12 15L12 16L11 16L11 15L10 15L10 14L9 14L9 16L8 16L8 14L7 14L7 13L6 13L6 14L5 14L5 11L4 11L4 10L5 10L5 9ZM6 9L6 10L7 10L7 9ZM8 10L8 11L9 11L9 10ZM23 10L23 11L22 11L22 13L27 13L27 11L28 11L28 10ZM15 11L15 12L16 12L16 13L17 13L17 14L16 14L16 15L18 15L18 17L17 17L17 16L15 16L15 15L14 15L14 17L17 17L17 18L18 18L18 17L19 17L19 20L18 20L18 21L20 21L20 19L21 19L21 20L23 20L23 19L24 19L24 20L26 20L26 21L25 21L25 22L27 22L27 23L25 23L25 24L26 24L26 25L22 25L22 27L21 27L21 25L20 25L20 26L19 26L19 23L18 23L18 22L17 22L17 23L18 23L18 25L17 25L17 26L19 26L19 27L18 27L18 28L19 28L19 27L21 27L21 28L23 28L23 27L24 27L24 28L25 28L25 26L28 26L28 25L27 25L27 24L28 24L28 20L27 20L27 19L28 19L28 18L27 18L27 15L28 15L28 14L27 14L27 15L25 15L25 14L24 14L24 17L26 17L26 18L23 18L23 19L22 19L22 18L21 18L21 17L19 17L19 16L20 16L20 15L21 15L21 16L22 16L22 17L23 17L23 16L22 16L22 15L23 15L23 14L22 14L22 15L21 15L21 14L20 14L20 12L18 12L18 13L17 13L17 11ZM23 11L23 12L26 12L26 11ZM0 12L0 16L1 16L1 12ZM12 12L12 13L11 13L11 14L12 14L12 13L13 13L13 14L15 14L15 13L13 13L13 12ZM6 14L6 15L7 15L7 14ZM18 14L18 15L19 15L19 14ZM0 17L0 18L1 18L1 17ZM10 17L10 18L11 18L11 17ZM26 18L26 19L27 19L27 18ZM12 19L12 20L11 20L11 21L12 21L12 20L13 20L13 19ZM16 19L16 21L17 21L17 19ZM0 20L0 21L2 21L2 20ZM21 21L21 24L24 24L24 21ZM22 22L22 23L23 23L23 22ZM9 23L9 25L10 25L10 26L11 26L11 28L12 28L12 27L13 27L13 28L14 28L14 27L15 27L15 26L13 26L13 25L12 25L12 24L13 24L13 23L12 23L12 24L10 24L10 23ZM14 23L14 25L16 25L16 24L15 24L15 23ZM0 0L0 7L7 7L7 0ZM1 1L1 6L6 6L6 1ZM2 2L2 5L5 5L5 2ZM22 0L22 7L29 7L29 0ZM23 1L23 6L28 6L28 1ZM24 2L24 5L27 5L27 2ZM0 22L0 29L7 29L7 22ZM1 23L1 28L6 28L6 23ZM2 24L2 27L5 27L5 24Z" fill="#000000"></path></g></g></svg>