<svg xmlns="http://www.w3.org/2000/svg" version="1.1" width="108" height="130" viewBox="0 0 130 130"><rect x="0" y="0" width="130" height="130" fill="#ffffff"></rect><g transform="scale(4.483)"><g transform="translate(0,0)"><path fill-rule="evenodd" d="M9 0L9 1L8 1L8 2L9 2L9 3L8 3L8 4L10 4L10 7L11 7L11 4L12 4L12 5L13 5L13 6L12 6L12 9L13 9L13 8L14 8L14 9L15 9L15 10L17 10L17 9L18 9L18 10L23 10L23 11L18 11L18 12L17 12L17 11L16 11L16 12L17 12L17 13L18 13L18 14L20 14L20 12L23 12L23 11L25 11L25 13L22 13L22 14L21 14L21 15L20 15L20 16L21 16L21 15L23 15L23 14L24 14L24 16L23 16L23 17L22 17L22 18L23 18L23 19L22 19L22 20L21 20L21 19L20 19L20 20L19 20L19 19L18 19L18 18L17 18L17 17L18 17L18 16L14 16L14 15L16 15L16 13L12 13L12 11L13 11L13 10L11 10L11 11L10 11L10 9L11 9L11 8L6 8L6 9L5 9L5 8L0 8L0 11L3 11L3 13L4 13L4 14L3 14L3 15L1 15L1 16L0 16L0 21L1 21L1 17L3 17L3 18L2 18L2 19L3 19L3 20L2 20L2 21L5 21L5 19L7 19L7 20L6 20L6 21L7 21L7 20L9 20L9 18L10 18L10 20L11 20L11 21L10 21L10 23L9 23L9 21L8 21L8 23L9 23L9 24L8 24L8 29L9 29L9 28L11 28L11 29L12 29L12 27L13 27L13 26L11 26L11 25L10 25L10 24L11 24L11 21L12 21L12 22L13 22L13 23L12 23L12 25L13 25L13 24L14 24L14 25L16 25L16 26L15 26L15 27L14 27L14 28L15 28L15 27L16 27L16 28L17 28L17 29L18 29L18 28L19 28L19 29L20 29L20 28L21 28L21 27L22 27L22 29L27 29L27 28L28 28L28 26L29 26L29 25L28 25L28 24L26 24L26 25L25 25L25 23L27 23L27 22L29 22L29 20L28 20L28 19L27 19L27 16L28 16L28 15L27 15L27 14L25 14L25 13L27 13L27 12L28 12L28 11L27 11L27 12L26 12L26 11L25 11L25 9L26 9L26 8L25 8L25 9L24 9L24 8L23 8L23 9L22 9L22 8L21 8L21 9L18 9L18 8L17 8L17 9L16 9L16 7L17 7L17 6L18 6L18 7L19 7L19 8L20 8L20 7L21 7L21 4L20 4L20 3L21 3L21 0L15 0L15 1L20 1L20 2L19 2L19 3L17 3L17 2L16 2L16 4L12 4L12 2L13 2L13 1L11 1L11 2L10 2L10 0ZM14 2L14 3L15 3L15 2ZM10 3L10 4L11 4L11 3ZM16 4L16 5L17 5L17 4ZM8 5L8 7L9 7L9 5ZM18 5L18 6L19 6L19 7L20 7L20 5ZM13 6L13 7L14 7L14 8L15 8L15 7L16 7L16 6L15 6L15 7L14 7L14 6ZM27 8L27 9L28 9L28 10L29 10L29 9L28 9L28 8ZM1 9L1 10L2 10L2 9ZM4 9L4 10L3 10L3 11L4 11L4 10L5 10L5 9ZM6 9L6 10L7 10L7 11L6 11L6 12L5 12L5 13L6 13L6 14L8 14L8 15L6 15L6 16L7 16L7 17L5 17L5 16L4 16L4 15L5 15L5 14L4 14L4 15L3 15L3 17L4 17L4 18L3 18L3 19L4 19L4 18L9 18L9 17L8 17L8 15L10 15L10 16L11 16L11 18L13 18L13 19L12 19L12 21L15 21L15 22L16 22L16 24L18 24L18 25L19 25L19 26L17 26L17 28L18 28L18 27L21 27L21 26L25 26L25 25L21 25L21 26L20 26L20 24L19 24L19 22L20 22L20 21L19 21L19 20L18 20L18 19L17 19L17 20L16 20L16 21L15 21L15 20L14 20L14 19L15 19L15 18L16 18L16 17L14 17L14 16L13 16L13 17L12 17L12 15L13 15L13 14L12 14L12 13L11 13L11 12L10 12L10 13L11 13L11 14L8 14L8 12L9 12L9 9ZM14 11L14 12L15 12L15 11ZM1 12L1 14L2 14L2 12ZM6 12L6 13L7 13L7 12ZM18 12L18 13L19 13L19 12ZM28 13L28 14L29 14L29 13ZM25 15L25 16L24 16L24 17L25 17L25 21L26 21L26 20L27 20L27 19L26 19L26 17L25 17L25 16L27 16L27 15ZM19 17L19 18L21 18L21 17ZM28 17L28 18L29 18L29 17ZM23 19L23 20L24 20L24 19ZM17 20L17 21L16 21L16 22L17 22L17 21L18 21L18 22L19 22L19 21L18 21L18 20ZM21 21L21 24L24 24L24 21ZM22 22L22 23L23 23L23 22ZM14 23L14 24L15 24L15 23ZM9 25L9 27L10 27L10 25ZM23 27L23 28L24 28L24 27ZM26 27L26 28L27 28L27 27ZM0 0L0 7L7 7L7 0ZM1 1L1 6L6 6L6 1ZM2 2L2 5L5 5L5 2ZM22 0L22 7L29 7L29 0ZM23 1L23 6L28 6L28 1ZM24 2L24 5L27 5L27 2ZM0 22L0 29L7 29L7 22ZM1 23L1 28L6 28L6 23ZM2 24L2 27L5 27L5 24Z" fill="#000000"></path></g></g></svg>