<svg xmlns="http://www.w3.org/2000/svg" width="25" height="25" viewBox="0 0 25 25" fill="none">
                                            <path d="M6.25 9.375V10.625C6.25 10.9705 5.97047 11.25 5.625 11.25H4.375C4.02953 11.25 3.75 10.9705 3.75 10.625V9.375C3.75 9.02953 4.02953 8.75 4.375 8.75H5.625C5.97047 8.75 6.25 9.02953 6.25 9.375ZM5.625 13.75H4.375C4.02953 13.75 3.75 14.0295 3.75 14.375V15.625C3.75 15.9705 4.02953 16.25 4.375 16.25H5.625C5.97047 16.25 6.25 15.9705 6.25 15.625V14.375C6.25 14.0295 5.97047 13.75 5.625 13.75ZM10.625 8.75H9.375C9.02953 8.75 8.75 9.02953 8.75 9.375V10.625C8.75 10.9705 9.02953 11.25 9.375 11.25H10.625C10.9705 11.25 11.25 10.9705 11.25 10.625V9.375C11.25 9.02953 10.9705 8.75 10.625 8.75ZM10.625 13.75H9.375C9.02953 13.75 8.75 14.0295 8.75 14.375V15.625C8.75 15.9705 9.02953 16.25 9.375 16.25H10.625C10.9705 16.25 11.25 15.9705 11.25 15.625V14.375C11.25 14.0295 10.9705 13.75 10.625 13.75ZM15.625 8.75H14.375C14.0295 8.75 13.75 9.02953 13.75 9.375V10.625C13.75 10.9705 14.0295 11.25 14.375 11.25H15.625C15.9705 11.25 16.25 10.9705 16.25 10.625V9.375C16.25 9.02953 15.9705 8.75 15.625 8.75ZM15.625 13.75H14.375C14.0295 13.75 13.75 14.0295 13.75 14.375V15.625C13.75 15.9705 14.0295 16.25 14.375 16.25H15.625C15.9705 16.25 16.25 15.9705 16.25 15.625V14.375C16.25 14.0295 15.9705 13.75 15.625 13.75ZM4.375 3.75H5.625C5.97047 3.75 6.25 3.47047 6.25 3.125V0.625C6.25 0.279531 5.97047 0 5.625 0H4.375C4.02953 0 3.75 0.279531 3.75 0.625V3.125C3.75 3.47047 4.02953 3.75 4.375 3.75ZM20 5V17.5C20 18.8806 18.8806 20 17.5 20H2.5C1.11937 20 0 18.8806 0 17.5V5C0 3.61937 1.11937 2.5 2.5 2.5H3.125V3.125C3.125 3.81348 3.6859 4.375 4.375 4.375H5.625C6.3141 4.375 6.875 3.81348 6.875 3.125V2.5H13.125V3.125C13.125 3.81348 13.6865 4.375 14.375 4.375H15.625C16.3135 4.375 16.875 3.81348 16.875 3.125V2.5H17.5C18.8806 2.5 20 3.61937 20 5ZM18.75 7.5C18.75 6.81152 18.1897 6.25 17.5 6.25H2.5C1.8109 6.25 1.25 6.81152 1.25 7.5V17.5C1.25 18.1897 1.8109 18.75 2.5 18.75H17.5C18.1897 18.75 18.75 18.1897 18.75 17.5V7.5ZM14.375 3.75H15.625C15.9705 3.75 16.25 3.47047 16.25 3.125V0.625C16.25 0.279531 15.9705 0 15.625 0H14.375C14.0295 0 13.75 0.279531 13.75 0.625V3.125C13.75 3.47047 14.0295 3.75 14.375 3.75Z" fill="url(#paint0_linear_10208_971)"></path>
                                            <circle cx="18.4995" cy="18.5" r="5.63333" fill="#161616"></circle>
                                            <g clip-path="url(#clip0_10208_971)">
                                            <path d="M18.5 12C14.9138 12 12 14.9138 12 18.5C12 22.0862 14.9138 25 18.5 25C22.0862 25 25 22.0862 25 18.5C25 14.9138 22.0862 12 18.5 12ZM18.5 23.6552C15.6534 23.6552 13.3448 21.3465 13.3448 18.5C13.3448 15.6534 15.6534 13.3448 18.5 13.3448C21.3465 13.3448 23.6552 15.6534 23.6552 18.5C23.6552 21.3465 21.3465 23.6552 18.5 23.6552Z" fill="url(#paint1_linear_10208_971)"></path>
                                            <path d="M18.0516 13.8154H18.724V15.1603H18.0516V13.8154ZM21.6378 18.0741H22.9826V18.7465H21.6378V18.0741ZM13.793 18.0741H15.1378V18.7465H13.793V18.0741ZM18.0516 21.6603H18.724V23.0051H18.0516V21.6603Z" fill="url(#paint2_linear_10208_971)"></path>
                                            <path d="M20.7971 15.6088C20.9952 15.6088 21.1557 15.4483 21.1557 15.2502C21.1557 15.0522 20.9952 14.8916 20.7971 14.8916C20.599 14.8916 20.4385 15.0522 20.4385 15.2502C20.4385 15.4483 20.599 15.6088 20.7971 15.6088Z" fill="url(#paint3_linear_10208_971)"></path>
                                            <path d="M21.9182 16.9536C22.1163 16.9536 22.2768 16.793 22.2768 16.5949C22.2768 16.3969 22.1163 16.2363 21.9182 16.2363C21.7201 16.2363 21.5596 16.3969 21.5596 16.5949C21.5596 16.793 21.7201 16.9536 21.9182 16.9536Z" fill="url(#paint4_linear_10208_971)"></path>
                                            <path d="M14.9699 20.9877C15.168 20.9877 15.3286 20.8272 15.3286 20.6291C15.3286 20.4311 15.168 20.2705 14.9699 20.2705C14.7719 20.2705 14.6113 20.4311 14.6113 20.6291C14.6113 20.8272 14.7719 20.9877 14.9699 20.9877Z" fill="url(#paint5_linear_10208_971)"></path>
                                            <path d="M16.091 22.333C16.2891 22.333 16.4497 22.1724 16.4497 21.9743C16.4497 21.7763 16.2891 21.6157 16.091 21.6157C15.893 21.6157 15.7324 21.7763 15.7324 21.9743C15.7324 22.1724 15.893 22.333 16.091 22.333Z" fill="url(#paint6_linear_10208_971)"></path>
                                            <path d="M21.8069 21.1001C22.0049 21.1001 22.1655 20.9395 22.1655 20.7414C22.1655 20.5434 22.0049 20.3828 21.8069 20.3828C21.6088 20.3828 21.4482 20.5434 21.4482 20.7414C21.4482 20.9395 21.6088 21.1001 21.8069 21.1001Z" fill="url(#paint7_linear_10208_971)"></path>
                                            <path d="M20.4612 22.2207C20.6592 22.2207 20.8198 22.0601 20.8198 21.862C20.8198 21.664 20.6592 21.5034 20.4612 21.5034C20.2631 21.5034 20.1025 21.664 20.1025 21.862C20.1025 22.0601 20.2631 22.2207 20.4612 22.2207Z" fill="url(#paint8_linear_10208_971)"></path>
                                            <path d="M15.0823 16.6171C15.2803 16.6171 15.4409 16.4566 15.4409 16.2585C15.4409 16.0605 15.2803 15.8999 15.0823 15.8999C14.8842 15.8999 14.7236 16.0605 14.7236 16.2585C14.7236 16.4566 14.8842 16.6171 15.0823 16.6171Z" fill="url(#paint9_linear_10208_971)"></path>
                                            <path d="M16.426 15.4965C16.6241 15.4965 16.7846 15.336 16.7846 15.1379C16.7846 14.9399 16.6241 14.7793 16.426 14.7793C16.2279 14.7793 16.0674 14.9399 16.0674 15.1379C16.0674 15.336 16.2279 15.4965 16.426 15.4965Z" fill="url(#paint10_linear_10208_971)"></path>
                                            <path d="M20.4389 18.7467C20.4389 18.5562 20.2932 18.4105 20.1026 18.4105H18.7242V15.9002C18.7242 15.7097 18.5785 15.564 18.388 15.564C18.1975 15.564 18.0518 15.7097 18.0518 15.9002V18.7467C18.0518 18.9372 18.1975 19.0829 18.388 19.0829H20.1026C20.2932 19.0829 20.4389 18.9372 20.4389 18.7467Z" fill="url(#paint11_linear_10208_971)"></path>
                                            </g>
                                            <defs>
                                            <linearGradient id="paint0_linear_10208_971" x1="10" y1="0" x2="10" y2="20" gradientUnits="userSpaceOnUse">
                                            <stop stop-color="#FFAE00"></stop>
                                            <stop offset="1" stop-color="#F54200"></stop>
                                            </linearGradient>
                                            <linearGradient id="paint1_linear_10208_971" x1="18.5" y1="12" x2="18.5" y2="25" gradientUnits="userSpaceOnUse">
                                            <stop stop-color="#FD9301"></stop>
                                            <stop offset="1" stop-color="#F64701"></stop>
                                            </linearGradient>
                                            <linearGradient id="paint2_linear_10208_971" x1="18.3878" y1="13.8154" x2="18.3878" y2="23.0051" gradientUnits="userSpaceOnUse">
                                            <stop stop-color="#FD9301"></stop>
                                            <stop offset="1" stop-color="#F64701"></stop>
                                            </linearGradient>
                                            <linearGradient id="paint3_linear_10208_971" x1="20.7971" y1="14.8916" x2="20.7971" y2="15.6088" gradientUnits="userSpaceOnUse">
                                            <stop stop-color="#FD9301"></stop>
                                            <stop offset="1" stop-color="#F64701"></stop>
                                            </linearGradient>
                                            <linearGradient id="paint4_linear_10208_971" x1="21.9182" y1="16.2363" x2="21.9182" y2="16.9536" gradientUnits="userSpaceOnUse">
                                            <stop stop-color="#FD9301"></stop>
                                            <stop offset="1" stop-color="#F64701"></stop>
                                            </linearGradient>
                                            <linearGradient id="paint5_linear_10208_971" x1="14.9699" y1="20.2705" x2="14.9699" y2="20.9877" gradientUnits="userSpaceOnUse">
                                            <stop stop-color="#FD9301"></stop>
                                            <stop offset="1" stop-color="#F64701"></stop>
                                            </linearGradient>
                                            <linearGradient id="paint6_linear_10208_971" x1="16.091" y1="21.6157" x2="16.091" y2="22.333" gradientUnits="userSpaceOnUse">
                                            <stop stop-color="#FD9301"></stop>
                                            <stop offset="1" stop-color="#F64701"></stop>
                                            </linearGradient>
                                            <linearGradient id="paint7_linear_10208_971" x1="21.8069" y1="20.3828" x2="21.8069" y2="21.1001" gradientUnits="userSpaceOnUse">
                                            <stop stop-color="#FD9301"></stop>
                                            <stop offset="1" stop-color="#F64701"></stop>
                                            </linearGradient>
                                            <linearGradient id="paint8_linear_10208_971" x1="20.4612" y1="21.5034" x2="20.4612" y2="22.2207" gradientUnits="userSpaceOnUse">
                                            <stop stop-color="#FD9301"></stop>
                                            <stop offset="1" stop-color="#F64701"></stop>
                                            </linearGradient>
                                            <linearGradient id="paint9_linear_10208_971" x1="15.0823" y1="15.8999" x2="15.0823" y2="16.6171" gradientUnits="userSpaceOnUse">
                                            <stop stop-color="#FD9301"></stop>
                                            <stop offset="1" stop-color="#F64701"></stop>
                                            </linearGradient>
                                            <linearGradient id="paint10_linear_10208_971" x1="16.426" y1="14.7793" x2="16.426" y2="15.4965" gradientUnits="userSpaceOnUse">
                                            <stop stop-color="#FD9301"></stop>
                                            <stop offset="1" stop-color="#F64701"></stop>
                                            </linearGradient>
                                            <linearGradient id="paint11_linear_10208_971" x1="19.2453" y1="15.564" x2="19.2453" y2="19.0829" gradientUnits="userSpaceOnUse">
                                            <stop stop-color="#FD9301"></stop>
                                            <stop offset="1" stop-color="#F64701"></stop>
                                            </linearGradient>
                                            <clipPath id="clip0_10208_971">
                                            <rect width="13" height="13" fill="white" transform="translate(12 12)"></rect>
                                            </clipPath>
                                            </defs>
                                            </svg>