<svg xmlns="http://www.w3.org/2000/svg" version="1.1" width="130" height="130" viewBox="0 0 130 130"><rect x="0" y="0" width="130" height="130" fill="#ffffff"></rect><g transform="scale(4.483)"><g transform="translate(0,0)"><path fill-rule="evenodd" d="M8 0L8 1L10 1L10 0ZM15 0L15 1L14 1L14 2L11 2L11 4L10 4L10 3L9 3L9 2L8 2L8 5L9 5L9 6L8 6L8 7L9 7L9 8L8 8L8 9L9 9L9 10L6 10L6 11L8 11L8 12L5 12L5 10L3 10L3 9L4 9L4 8L0 8L0 12L2 12L2 13L1 13L1 14L0 14L0 17L1 17L1 16L2 16L2 17L3 17L3 18L2 18L2 19L3 19L3 18L4 18L4 17L7 17L7 18L6 18L6 19L4 19L4 20L3 20L3 21L5 21L5 20L6 20L6 21L8 21L8 22L10 22L10 21L12 21L12 22L11 22L11 23L9 23L9 24L10 24L10 25L11 25L11 26L10 26L10 27L11 27L11 28L12 28L12 29L13 29L13 28L12 28L12 26L13 26L13 27L14 27L14 29L16 29L16 28L17 28L17 27L18 27L18 24L19 24L19 23L20 23L20 25L21 25L21 26L22 26L22 25L23 25L23 27L22 27L22 28L21 28L21 27L20 27L20 26L19 26L19 28L18 28L18 29L23 29L23 27L24 27L24 28L25 28L25 29L26 29L26 27L27 27L27 29L28 29L28 27L29 27L29 25L28 25L28 22L29 22L29 21L27 21L27 18L28 18L28 15L29 15L29 13L27 13L27 12L25 12L25 11L24 11L24 12L25 12L25 13L26 13L26 15L27 15L27 17L26 17L26 16L25 16L25 15L24 15L24 17L23 17L23 19L21 19L21 20L20 20L20 22L19 22L19 21L18 21L18 19L19 19L19 16L18 16L18 18L17 18L17 19L16 19L16 17L15 17L15 21L14 21L14 20L13 20L13 18L14 18L14 17L12 17L12 16L14 16L14 15L15 15L15 16L17 16L17 15L20 15L20 18L22 18L22 16L21 16L21 15L20 15L20 14L23 14L23 13L20 13L20 12L21 12L21 11L22 11L22 10L25 10L25 9L27 9L27 8L24 8L24 9L22 9L22 8L21 8L21 5L20 5L20 3L21 3L21 2L20 2L20 3L19 3L19 1L21 1L21 0ZM16 1L16 3L12 3L12 5L10 5L10 6L9 6L9 7L10 7L10 8L9 8L9 9L10 9L10 10L9 10L9 12L10 12L10 13L11 13L11 11L14 11L14 10L15 10L15 11L16 11L16 9L17 9L17 12L16 12L16 13L17 13L17 14L15 14L15 12L12 12L12 14L9 14L9 13L6 13L6 14L4 14L4 13L2 13L2 14L4 14L4 15L6 15L6 16L7 16L7 17L8 17L8 18L7 18L7 19L6 19L6 20L9 20L9 21L10 21L10 20L9 20L9 19L10 19L10 18L12 18L12 17L10 17L10 15L11 15L11 16L12 16L12 14L13 14L13 15L14 15L14 14L15 14L15 15L17 15L17 14L19 14L19 12L20 12L20 10L18 10L18 9L17 9L17 8L16 8L16 5L19 5L19 4L17 4L17 3L18 3L18 2L17 2L17 1ZM13 4L13 5L12 5L12 7L11 7L11 6L10 6L10 7L11 7L11 8L12 8L12 7L13 7L13 9L15 9L15 5L14 5L14 4ZM13 5L13 7L14 7L14 5ZM17 6L17 7L18 7L18 6ZM19 6L19 7L20 7L20 6ZM6 8L6 9L7 9L7 8ZM20 8L20 9L21 9L21 8ZM28 8L28 10L26 10L26 11L28 11L28 12L29 12L29 11L28 11L28 10L29 10L29 8ZM2 10L2 11L3 11L3 10ZM18 11L18 12L17 12L17 13L18 13L18 12L19 12L19 11ZM13 13L13 14L14 14L14 13ZM6 14L6 15L8 15L8 14ZM2 15L2 16L3 16L3 17L4 17L4 16L3 16L3 15ZM8 16L8 17L9 17L9 18L10 18L10 17L9 17L9 16ZM24 17L24 18L25 18L25 19L24 19L24 20L26 20L26 18L25 18L25 17ZM0 18L0 19L1 19L1 18ZM11 19L11 20L12 20L12 19ZM1 20L1 21L2 21L2 20ZM15 21L15 22L14 22L14 23L11 23L11 25L12 25L12 24L13 24L13 26L14 26L14 27L15 27L15 28L16 28L16 27L17 27L17 26L14 26L14 24L15 24L15 25L17 25L17 24L18 24L18 23L17 23L17 22L16 22L16 21ZM21 21L21 24L24 24L24 21ZM22 22L22 23L23 23L23 22ZM26 22L26 24L25 24L25 25L26 25L26 26L24 26L24 27L26 27L26 26L27 26L27 27L28 27L28 25L26 25L26 24L27 24L27 22ZM15 23L15 24L16 24L16 23ZM8 25L8 29L10 29L10 28L9 28L9 25ZM0 0L0 7L7 7L7 0ZM1 1L1 6L6 6L6 1ZM2 2L2 5L5 5L5 2ZM22 0L22 7L29 7L29 0ZM23 1L23 6L28 6L28 1ZM24 2L24 5L27 5L27 2ZM0 22L0 29L7 29L7 22ZM1 23L1 28L6 28L6 23ZM2 24L2 27L5 27L5 24Z" fill="#000000"></path></g></g></svg>