<svg width="22" height="22" viewBox="0 0 22 22" fill="none" xmlns="http://www.w3.org/2000/svg">
<path d="M9.62484 19.2502H5.49984C5.01361 19.2502 4.54729 19.057 4.20347 18.7132C3.85966 18.3694 3.6665 17.9031 3.6665 17.4168V6.41683C3.6665 5.9306 3.85966 5.46428 4.20347 5.12047C4.54729 4.77665 5.01361 4.5835 5.49984 4.5835H16.4998C16.9861 4.5835 17.4524 4.77665 17.7962 5.12047C18.14 5.46428 18.3332 5.9306 18.3332 6.41683V9.16683" stroke="url(#paint0_linear_648_7)" stroke-width="1.83333" stroke-linecap="round" stroke-linejoin="round"/>
<path d="M14.6665 2.75V6.41667" stroke="url(#paint1_linear_648_7)" stroke-width="1.83333" stroke-linecap="round" stroke-linejoin="round"/>
<path d="M7.3335 2.75V6.41667" stroke="url(#paint2_linear_648_7)" stroke-width="1.83333" stroke-linecap="round" stroke-linejoin="round"/>
<path d="M3.6665 10.0835H12.8332" stroke="url(#paint3_linear_648_7)" stroke-width="1.83333" stroke-linecap="round" stroke-linejoin="round"/>
<path d="M12.8335 16.5002C12.8335 17.4726 13.2198 18.4053 13.9074 19.0929C14.5951 19.7805 15.5277 20.1668 16.5002 20.1668C17.4726 20.1668 18.4053 19.7805 19.0929 19.0929C19.7805 18.4053 20.1668 17.4726 20.1668 16.5002C20.1668 15.5277 19.7805 14.5951 19.0929 13.9074C18.4053 13.2198 17.4726 12.8335 16.5002 12.8335C15.5277 12.8335 14.5951 13.2198 13.9074 13.9074C13.2198 14.5951 12.8335 15.5277 12.8335 16.5002Z" stroke="url(#paint4_linear_648_7)" stroke-width="1.83333" stroke-linecap="round" stroke-linejoin="round"/>
<path d="M16.5 15.125V16.5L16.9583 16.9583" stroke="url(#paint5_linear_648_7)" stroke-width="1.83333" stroke-linecap="round" stroke-linejoin="round"/>
<defs>
<linearGradient id="paint0_linear_648_7" x1="10.9998" y1="4.5835" x2="10.9998" y2="19.2502" gradientUnits="userSpaceOnUse">
<stop stop-color="#C42091"/>
<stop offset="1" stop-color="#6617CA"/>
</linearGradient>
<linearGradient id="paint1_linear_648_7" x1="15.1665" y1="2.75" x2="15.1665" y2="6.41667" gradientUnits="userSpaceOnUse">
<stop stop-color="#C42091"/>
<stop offset="1" stop-color="#6617CA"/>
</linearGradient>
<linearGradient id="paint2_linear_648_7" x1="7.8335" y1="2.75" x2="7.8335" y2="6.41667" gradientUnits="userSpaceOnUse">
<stop stop-color="#C42091"/>
<stop offset="1" stop-color="#6617CA"/>
</linearGradient>
<linearGradient id="paint3_linear_648_7" x1="8.24984" y1="10.0835" x2="8.24984" y2="11.0835" gradientUnits="userSpaceOnUse">
<stop stop-color="#C42091"/>
<stop offset="1" stop-color="#6617CA"/>
</linearGradient>
<linearGradient id="paint4_linear_648_7" x1="16.5002" y1="12.8335" x2="16.5002" y2="20.1668" gradientUnits="userSpaceOnUse">
<stop stop-color="#C42091"/>
<stop offset="1" stop-color="#6617CA"/>
</linearGradient>
<linearGradient id="paint5_linear_648_7" x1="16.7292" y1="15.125" x2="16.7292" y2="16.9583" gradientUnits="userSpaceOnUse">
<stop stop-color="#C42091"/>
<stop offset="1" stop-color="#6617CA"/>
</linearGradient>
</defs>
</svg>