<svg width="27" height="20" viewBox="0 0 27 20" fill="none" xmlns="http://www.w3.org/2000/svg">
<g clip-path="url(#clip0_610_2)">
<path d="M27.0002 2.78896C27.0002 2.60502 27.0002 2.42605 27.0002 2.24211C26.9633 2.07308 26.9369 1.90405 26.8842 1.73999C26.6416 0.939597 26.1987 0.298285 25.2864 0.0894855C24.9858 0.0198857 24.6588 0.00497141 24.3477 0.00497141C17.1178 0 9.88793 0 2.65804 0C2.49984 0 2.34164 0 2.18343 0.0149142C1.70882 0.0546856 1.28695 0.223714 0.912535 0.507084C0.401011 0.894855 0.126795 1.40194 -0.00504112 1.99354C-0.00504112 2.19239 -0.00504112 2.39125 -0.00504112 2.59011C0.100428 3.09222 0.226988 3.58936 0.495934 4.04176C1.04437 4.9565 1.81429 5.66741 2.72132 6.25901C5.40023 8.01889 8.07914 9.78374 10.7633 11.5387C11.2168 11.8369 11.6914 12.1054 12.1713 12.3639C13.052 12.8362 13.9485 12.8312 14.8291 12.3589C15.2194 12.1501 15.6096 11.9413 15.9787 11.7027C18.7737 9.8782 21.5686 8.05369 24.3371 6.19935C25.6133 5.34427 26.6575 4.30524 27.0002 2.78896Z" fill="url(#paint0_linear_610_2)"/>
<path d="M27.0002 6.46783C25.3602 7.9692 23.3457 8.9784 21.5211 10.2411C21.1203 10.5195 20.6985 10.7781 20.2713 11.0515C20.3188 11.1062 20.3557 11.1509 20.3926 11.1907C22.5653 13.2389 24.7327 15.2822 26.9 17.3254C26.9317 17.3552 26.9686 17.3801 27.0002 17.4049C27.0002 13.7609 27.0002 10.1119 27.0002 6.46783Z" fill="url(#paint1_linear_610_2)"/>
<path d="M0.000253201 17.4049C0.0793548 17.3353 0.158456 17.2707 0.232285 17.2011C2.33112 15.2225 4.43522 13.2439 6.53405 11.2603C6.59733 11.2006 6.65534 11.141 6.72917 11.0664C6.6448 11.0067 6.57097 10.952 6.49714 10.9023C4.99948 9.93291 3.486 8.98337 2.00416 7.98908C1.30807 7.52177 0.669981 6.97492 0.000253201 6.46286C0.000253201 10.1119 0.000253201 13.7609 0.000253201 17.4049Z" fill="url(#paint2_linear_610_2)"/>
<path d="M8.49575 12.2347C5.94341 14.6408 3.40688 17.0321 0.854538 19.4382C1.20786 19.7564 1.64555 19.9254 2.13598 19.9801C2.27309 19.995 2.41547 19.995 2.55786 19.995C9.85102 19.995 17.1442 19.995 24.4374 20C25.0754 20 25.6502 19.8608 26.1143 19.473C23.5672 17.0719 21.0254 14.6756 18.4678 12.2645C17.9194 12.6324 17.3446 13.0351 16.7487 13.4129C16.0104 13.8852 15.2141 14.2481 14.344 14.4469C13.437 14.6557 12.5774 14.4867 11.7231 14.1536C10.7106 13.7609 9.8563 13.1395 8.97563 12.5528C8.81215 12.4534 8.65923 12.344 8.49575 12.2347Z" fill="url(#paint3_linear_610_2)"/>
</g>
<defs>
<linearGradient id="paint0_linear_610_2" x1="13.4976" y1="0" x2="13.4976" y2="12.7156" gradientUnits="userSpaceOnUse">
<stop stop-color="#7566E3"/>
<stop offset="1" stop-color="#CE4D86" stop-opacity="0.6"/>
</linearGradient>
<linearGradient id="paint1_linear_610_2" x1="23.6358" y1="6.46783" x2="23.6358" y2="17.4049" gradientUnits="userSpaceOnUse">
<stop stop-color="#7566E3"/>
<stop offset="1" stop-color="#CE4D86" stop-opacity="0.6"/>
</linearGradient>
<linearGradient id="paint2_linear_610_2" x1="3.36471" y1="6.46286" x2="3.36471" y2="17.4049" gradientUnits="userSpaceOnUse">
<stop stop-color="#7566E3"/>
<stop offset="1" stop-color="#CE4D86" stop-opacity="0.6"/>
</linearGradient>
<linearGradient id="paint3_linear_610_2" x1="13.4844" y1="12.2347" x2="13.4844" y2="20" gradientUnits="userSpaceOnUse">
<stop stop-color="#7566E3"/>
<stop offset="1" stop-color="#CE4D86" stop-opacity="0.6"/>
</linearGradient>
<clipPath id="clip0_610_2">
<rect width="27" height="20" fill="white" transform="matrix(-1 0 0 1 27.0002 0)"/>
</clipPath>
</defs>
</svg>
