<svg width="55" height="40" viewBox="0 0 55 40" fill="none" xmlns="http://www.w3.org/2000/svg">
<path d="M11.6151 0.0439778C11.7665 -0.0113889 11.9316 -0.0214772 12.1391 0.0546179C12.3544 0.137168 12.48 0.258447 12.5641 0.407091C12.6549 0.567464 12.7106 0.786204 12.732 1.0774C12.9806 4.94362 13.253 8.81256 13.5132 12.676V12.6778C13.5263 12.8632 13.5545 13.0325 13.5759 13.1945L13.621 13.539L13.9638 13.5852C17.8672 14.1153 21.0679 15.7386 23.305 18.8687L23.5179 19.1759C28.6638 26.8372 25.0141 37.937 14.76 39.8064C7.58906 41.1127 1.46676 35.6185 0.247724 29.0219V29.0201L0.195606 28.7254C-0.0426446 27.2651 0.00341062 25.9115 0.00386306 24.3129C0.253424 21.8777 0.622973 19.5341 1.14734 17.3958C2.81636 10.6763 6.17901 5.29591 11.076 0.429273L11.0787 0.427456C11.2744 0.230172 11.4498 0.104436 11.6151 0.0439778ZM41.1998 0.0199785L41.3492 0.0652546C41.5627 0.151441 41.6881 0.27572 41.7716 0.428365C41.8621 0.59401 41.9155 0.816202 41.9369 1.10576C42.1733 4.88497 42.4336 8.67764 42.6817 12.454V12.4549C42.6948 12.7048 42.7347 12.9514 42.7674 13.2052L42.8134 13.5576L43.1642 13.5985C45.4575 13.8657 47.5362 14.5716 49.3693 15.8687L49.371 15.8696C53.7125 18.9187 55.4924 23.2136 54.8842 28.412C54.243 33.7797 51.2067 37.411 46.1413 39.2294C37.6568 42.2723 30.2174 35.8105 29.2404 28.4066V28.4057L29.1831 27.8766C29.0846 26.6884 29.2128 25.7553 29.2432 24.0545C29.6583 20.0842 29.7329 20.1279 30.1781 18.2028L30.1789 18.2037C31.8144 11.2898 35.2708 5.39864 40.2906 0.419455C40.494 0.219808 40.669 0.0987091 40.8305 0.0421605C40.9402 0.00379474 41.0584 -0.010114 41.1998 0.0199785Z" fill="url(#paint0_linear_644_3)"/>
<defs>
<linearGradient id="paint0_linear_644_3" x1="27.5" y1="40" x2="27.5" y2="0" gradientUnits="userSpaceOnUse">
<stop stop-color="#C42091"/>
<stop offset="1" stop-color="#6617CA"/>
</linearGradient>
</defs>
</svg>
