<svg xmlns="http://www.w3.org/2000/svg" width="23" height="23" viewBox="0 0 20 20" fill="none">
            <path d="M11.4025 1.14664C9.16811 3.38346 8.84891 7.21802 11.0833 7.21802C13.1581 7.21802 16.1906 1.14664 14.5946 0.188004C13.7966 -0.291315 12.3601 0.188004 11.4025 1.14664Z" fill="#6549C2" fill-opacity="0.5"></path>
            <path d="M4.22028 1.94551C2.14546 3.86278 3.10307 7.21802 5.49709 7.21802C6.7739 7.21802 7.89111 5.78006 7.89111 4.02256C7.89111 0.827097 6.1355 -0.131541 4.22028 1.94551Z" fill="#6549C2" fill-opacity="0.5"></path>
            <path d="M15.3924 5.7804C12.2004 7.69768 11.7216 10.4138 14.9136 10.4138C17.6269 10.4138 21.2977 6.25972 19.5421 5.14131C18.7441 4.66199 16.9885 4.98154 15.3924 5.7804Z" fill="#6549C2" fill-opacity="0.5"></path>
            <path d="M1.02843 9.9343C-0.886789 11.8516 -0.0887816 13.4493 3.10325 14.4079C4.85886 14.8873 6.29528 16.485 6.29528 17.7632C6.29528 19.0414 7.41249 20 8.6893 20C10.2853 20 11.0833 18.2425 11.0833 14.4079C11.0833 9.29521 10.6045 8.81589 6.61448 8.81589C4.06086 8.81589 1.50723 9.29521 1.02843 9.9343Z" fill="#6549C2" fill-opacity="0.5"></path>
            <path d="M12.6794 14.5677C12.6794 16.0057 13.7967 16.8045 15.3927 16.485C19.3827 15.6861 19.8615 12.0113 16.0311 12.0113C14.1159 12.0113 12.6794 12.97 12.6794 14.5677Z" fill="#6549C2" fill-opacity="0.5"></path>
          </svg>