<svg xmlns="http://www.w3.org/2000/svg" width="14" height="18" viewBox="0 0 14 18" fill="none">
            <path d="M4.9 1.23025C2.1 1.57369 0 2.26056 0 2.77571C0 4.49288 9.275 17.2 10.5 17.2C11.9 17.2 14 8.78581 14 3.29086C14 1.40197 12.95 0.199952 11.9 0.199952C10.675 0.371669 7.525 0.88682 4.9 1.23025ZM11.55 6.21005C11.025 7.75551 10.5 10.1595 10.5 11.705C10.5 13.9373 9.625 13.5939 7 10.3313C2.45 4.6646 2.625 3.46258 8.05 3.46258C11.55 3.46258 12.425 4.14945 11.55 6.21005Z" fill="#6549C2" fill-opacity="0.5"></path>
        </svg>