<svg xmlns="http://www.w3.org/2000/svg" width="20" height="20" viewBox="0 0 15 16" fill="none">
            <path d="M2.29995 2.67613C-3.40345 8.468 2.29995 17.1558 10.6649 15.0321C14.4672 14.0668 15.4178 12.7154 14.8474 8.66107C14.4672 5.76513 13.5166 3.25531 12.376 2.86919C8.95392 1.90388 5.15165 5.76513 6.29233 9.04719C7.05279 10.7848 8.57369 11.557 9.71437 10.7848C11.2353 10.0125 11.0452 9.04719 9.33415 7.88882C7.2429 6.53738 7.43301 6.15125 10.0946 6.15125C14.2771 6.15125 14.2771 11.1709 10.2847 12.7154C7.2429 13.8738 1.91973 10.9778 1.91973 7.88882C1.91973 7.11657 3.25052 4.99288 4.96154 3.44838C6.48245 1.71081 7.2429 0.359375 6.29233 0.359375C5.34177 0.359375 3.63075 1.32469 2.29995 2.67613Z" fill="#6549C2" fill-opacity="0.5"></path>
          </svg>