<svg xmlns="http://www.w3.org/2000/svg" width="10" height="20" viewBox="0 0 10 20" fill="none"><path d="M1.98157 19.124L9.74654 10.7018C9.83871 10.6016 9.90384 10.493 9.94194 10.376C9.98065 10.259 10 10.1337 10 10C10 9.86631 9.98065 9.74098 9.94194 9.62401C9.90384 9.50704 9.83871 9.39842 9.74654 9.29815L1.98157 0.850923C1.76651 0.616974 1.49769 0.5 1.17511 0.5C0.852534 0.5 0.576037 0.62533 0.345622 0.875989C0.115208 1.12665 0 1.41909 0 1.7533C0 2.08751 0.115208 2.37995 0.345622 2.63061L7.11982 10L0.345622 17.3694C0.130569 17.6033 0.0230408 17.8914 0.0230408 18.2337C0.0230408 18.5766 0.138248 18.8734 0.368663 19.124C0.599078 19.3747 0.867895 19.5 1.17511 19.5C1.48233 19.5 1.75115 19.3747 1.98157 19.124Z" fill="black"></path></svg>