<svg xmlns="http://www.w3.org/2000/svg" width="20" height="16" viewBox="0 0 24 18" fill="none">
                                    <path fill-rule="evenodd" clip-rule="evenodd" d="M12.1844 0.475262C12.304 0.337965 12.4495 0.225601 12.6126 0.144599C12.7757 0.063596 12.9532 0.0155439 13.1349 0.00319103C13.3166 -0.00916181 13.4989 0.0144274 13.6715 0.0726083C13.8441 0.130789 14.0035 0.22242 14.1406 0.342261L22.6157 7.7312C22.7646 7.86124 22.884 8.02166 22.9659 8.20168C23.0477 8.3817 23.09 8.57714 23.09 8.77488C23.09 8.97262 23.0477 9.16807 22.9659 9.34809C22.884 9.52811 22.7646 9.68853 22.6157 9.81857L14.1406 17.2075C14.0042 17.3314 13.8444 17.4269 13.6707 17.4883C13.497 17.5497 13.3127 17.5758 13.1288 17.5652C12.9448 17.5545 12.7648 17.5072 12.5993 17.4262C12.4339 17.3451 12.2862 17.2318 12.1651 17.0929C12.0439 16.9541 11.9517 16.7925 11.8938 16.6175C11.8358 16.4426 11.8134 16.2579 11.8277 16.0742C11.8421 15.8904 11.893 15.7114 11.9773 15.5476C12.0617 15.3838 12.178 15.2385 12.3192 15.1201L18.0087 10.1603H1.38543C1.01799 10.1603 0.665599 10.0143 0.405782 9.75452C0.145964 9.49471 0 9.14232 0 8.77488C0 8.40744 0.145964 8.05506 0.405782 7.79524C0.665599 7.53542 1.01799 7.38946 1.38543 7.38946H18.0068L12.3174 2.42963C12.0406 2.18806 11.8711 1.84648 11.8462 1.47999C11.8213 1.11349 11.9429 0.752096 12.1844 0.475262Z" fill="#AE937D"></path>
                                </svg>