<svg xmlns="http://www.w3.org/2000/svg" width="28" height="28" viewBox="0 0 41 40" fill="none">
                                    <path fill-rule="evenodd" clip-rule="evenodd" d="M27.1301 11.6667C27.1301 11.9982 26.9984 12.3161 26.764 12.5505C26.5296 12.785 26.2116 12.9167 25.8801 12.9167C25.5486 12.9167 25.2306 12.785 24.9962 12.5505C24.7618 12.3161 24.6301 11.9982 24.6301 11.6667V9.16666C24.6301 7.95109 24.1472 6.7853 23.2877 5.92576C22.4281 5.06621 21.2623 4.58333 20.0468 4.58333C18.8312 4.58333 17.6654 5.06621 16.8059 5.92576C15.9463 6.7853 15.4634 7.95109 15.4634 9.16666V11.6667C15.4634 11.9982 15.3317 12.3161 15.0973 12.5505C14.8629 12.785 14.545 12.9167 14.2134 12.9167C13.8819 12.9167 13.564 12.785 13.3296 12.5505C13.0951 12.3161 12.9634 11.9982 12.9634 11.6667V9.16666C12.9634 7.28804 13.7097 5.48637 15.0381 4.15799C16.3665 2.82961 18.1682 2.08333 20.0468 2.08333C21.9254 2.08333 23.7271 2.82961 25.0554 4.15799C26.3838 5.48637 27.1301 7.28804 27.1301 9.16666V11.6667Z" fill="white"></path>
                                    <path fill-rule="evenodd" clip-rule="evenodd" d="M32.2835 13.9167L33.6168 33.9167C33.6503 34.4289 33.5784 34.9425 33.4056 35.4258C33.2328 35.9092 32.9627 36.352 32.6121 36.7268C32.2614 37.1017 31.8376 37.4007 31.3669 37.6053C30.8961 37.81 30.3884 37.9159 29.8751 37.9167H10.2185C9.70502 37.9164 9.19708 37.8108 8.72611 37.6063C8.25514 37.4018 7.83116 37.1028 7.48041 36.7279C7.12966 36.3529 6.85961 35.9099 6.68698 35.4264C6.51435 34.9428 6.44281 34.429 6.4768 33.9167L7.81013 13.9167C7.87355 12.9675 8.29533 12.0779 8.99005 11.428C9.68477 10.7782 10.6005 10.4167 11.5518 10.4167H28.5418C29.4931 10.4167 30.4088 10.7782 31.1035 11.428C31.7983 12.0779 32.22 12.9675 32.2835 13.9167ZM24.1901 17.7967C23.8175 18.5799 23.2305 19.2415 22.4971 19.7047C21.7638 20.1679 20.9142 20.4138 20.0468 20.4138C19.1794 20.4138 18.3298 20.1679 17.5965 19.7047C16.8631 19.2415 16.2761 18.5799 15.9035 17.7967C15.833 17.6484 15.734 17.5154 15.6121 17.4054C15.4903 17.2954 15.3479 17.2104 15.1933 17.1554C15.0386 17.1004 14.8746 17.0764 14.7106 17.0847C14.5466 17.0931 14.3859 17.1337 14.2376 17.2042C14.0893 17.2746 13.9564 17.3736 13.8464 17.4955C13.7363 17.6173 13.6514 17.7597 13.5964 17.9144C13.5414 18.069 13.5173 18.2331 13.5257 18.397C13.5341 18.561 13.5747 18.7217 13.6451 18.87C14.2192 20.0821 15.1255 21.1063 16.2588 21.8235C17.3921 22.5407 18.7056 22.9214 20.0468 22.9214C21.3879 22.9214 22.7015 22.5407 23.8348 21.8235C24.9681 21.1063 25.8744 20.0821 26.4485 18.87C26.5189 18.7217 26.5595 18.561 26.5679 18.397C26.5762 18.2331 26.5522 18.069 26.4972 17.9144C26.4422 17.7597 26.3573 17.6173 26.2472 17.4955C26.1372 17.3736 26.0042 17.2746 25.856 17.2042C25.7077 17.1337 25.547 17.0931 25.383 17.0847C25.219 17.0764 25.055 17.1004 24.9003 17.1554C24.7456 17.2104 24.6033 17.2954 24.4815 17.4054C24.3596 17.5154 24.2606 17.6484 24.1901 17.7967Z" fill="white"></path>
                                </svg>