<svg xmlns="http://www.w3.org/2000/svg" width="20" height="20" viewBox="0 0 20 20" fill="none">
                        <path fill-rule="evenodd" clip-rule="evenodd" d="M15 8.33332C15 10.1014 14.2976 11.7971 13.0473 13.0474C11.7971 14.2976 10.1014 15 8.33329 15C6.56518 15 4.86949 14.2976 3.61925 13.0474C2.369 11.7971 1.66663 10.1014 1.66663 8.33332C1.66663 6.56521 2.369 4.86952 3.61925 3.61928C4.86949 2.36904 6.56518 1.66666 8.33329 1.66666C10.1014 1.66666 11.7971 2.36904 13.0473 3.61928C14.2976 4.86952 15 6.56521 15 8.33332ZM13.75 8.33332C13.75 9.76991 13.1793 11.1477 12.1635 12.1635C11.1476 13.1793 9.76988 13.75 8.33329 13.75C6.8967 13.75 5.51895 13.1793 4.50313 12.1635C3.48731 11.1477 2.91663 9.76991 2.91663 8.33332C2.91663 6.89673 3.48731 5.51898 4.50313 4.50316C5.51895 3.48734 6.8967 2.91666 8.33329 2.91666C9.76988 2.91666 11.1476 3.48734 12.1635 4.50316C13.1793 5.51898 13.75 6.89673 13.75 8.33332Z" fill="#F2F2F2"></path>
                        <path d="M17.1083 16.225L14.1916 13.3083C14.1344 13.2469 14.0654 13.1977 13.9887 13.1635C13.9121 13.1294 13.8293 13.111 13.7454 13.1095C13.6615 13.108 13.5781 13.1235 13.5003 13.1549C13.4225 13.1863 13.3518 13.2331 13.2924 13.2925C13.2331 13.3518 13.1863 13.4225 13.1549 13.5003C13.1234 13.5782 13.108 13.6615 13.1095 13.7454C13.111 13.8294 13.1293 13.9121 13.1635 13.9888C13.1976 14.0654 13.2469 14.1344 13.3083 14.1917L16.225 17.1083C16.2822 17.1697 16.3512 17.219 16.4279 17.2531C16.5045 17.2873 16.5873 17.3057 16.6712 17.3072C16.7551 17.3086 16.8385 17.2932 16.9163 17.2618C16.9941 17.2303 17.0648 17.1835 17.1242 17.1242C17.1835 17.0648 17.2303 16.9942 17.2617 16.9163C17.2932 16.8385 17.3086 16.7551 17.3071 16.6712C17.3056 16.5873 17.2873 16.5045 17.2531 16.4279C17.219 16.3512 17.1697 16.2822 17.1083 16.225Z" fill="#F2F2F2"></path>
                    </svg>