<svg width="32" height="32" viewBox="0 0 32 32" fill="none" xmlns="http://www.w3.org/2000/svg">
<circle cx="1.77273" cy="1.77273" r="1.77273" fill="#F3C623"/>
<circle cx="8.86364" cy="1.77273" r="1.77273" fill="#F3C623"/>
<circle cx="15.9546" cy="1.77273" r="1.77273" fill="#F3C623"/>
<circle cx="23.0455" cy="1.77273" r="1.77273" fill="#F3C623"/>
<circle cx="30.1363" cy="1.77273" r="1.77273" fill="#F3C623"/>
<circle cx="1.77273" cy="8.86367" r="1.77273" fill="#F3C623"/>
<circle cx="8.86364" cy="8.86367" r="1.77273" fill="#F3C623"/>
<circle cx="15.9546" cy="8.86367" r="1.77273" fill="#F3C623"/>
<circle cx="23.0455" cy="8.86367" r="1.77273" fill="#F3C623"/>
<circle cx="30.1363" cy="8.86367" r="1.77273" fill="#F3C623"/>
<circle cx="1.77273" cy="15.9545" r="1.77273" fill="#F3C623"/>
<circle cx="8.86364" cy="15.9545" r="1.77273" fill="#F3C623"/>
<circle cx="15.9546" cy="15.9545" r="1.77273" fill="#F3C623"/>
<circle cx="23.0455" cy="15.9545" r="1.77273" fill="#F3C623"/>
<circle cx="30.1363" cy="15.9545" r="1.77273" fill="#F3C623"/>
<circle cx="1.77273" cy="23.0454" r="1.77273" fill="#F3C623"/>
<circle cx="8.86364" cy="23.0454" r="1.77273" fill="#F3C623"/>
<circle cx="15.9546" cy="23.0454" r="1.77273" fill="#F3C623"/>
<circle cx="23.0455" cy="23.0454" r="1.77273" fill="#F3C623"/>
<circle cx="30.1363" cy="23.0454" r="1.77273" fill="#F3C623"/>
<circle cx="1.77273" cy="30.1364" r="1.77273" fill="#F3C623"/>
<circle cx="8.86364" cy="30.1364" r="1.77273" fill="#F3C623"/>
<circle cx="15.9546" cy="30.1364" r="1.77273" fill="#F3C623"/>
<circle cx="23.0455" cy="30.1364" r="1.77273" fill="#F3C623"/>
<circle cx="30.1363" cy="30.1364" r="1.77273" fill="#F3C623"/>
</svg>
