<svg width="9" height="9" viewBox="0 0 9 9" fill="none" xmlns="http://www.w3.org/2000/svg">
<circle cx="0.5" cy="0.5" r="0.5" fill="#00715D"/>
<circle cx="2.5" cy="0.5" r="0.5" fill="#00715D"/>
<circle cx="4.5" cy="0.5" r="0.5" fill="#00715D"/>
<circle cx="6.5" cy="0.5" r="0.5" fill="#00715D"/>
<circle cx="8.5" cy="0.5" r="0.5" fill="#00715D"/>
<circle cx="0.5" cy="2.5" r="0.5" fill="#00715D"/>
<circle cx="2.5" cy="2.5" r="0.5" fill="#00715D"/>
<circle cx="4.5" cy="2.5" r="0.5" fill="#00715D"/>
<circle cx="6.5" cy="2.5" r="0.5" fill="#00715D"/>
<circle cx="8.5" cy="2.5" r="0.5" fill="#00715D"/>
<circle cx="0.5" cy="4.5" r="0.5" fill="#00715D"/>
<circle cx="2.5" cy="4.5" r="0.5" fill="#00715D"/>
<circle cx="4.5" cy="4.5" r="0.5" fill="#00715D"/>
<circle cx="6.5" cy="4.5" r="0.5" fill="#00715D"/>
<circle cx="8.5" cy="4.5" r="0.5" fill="#00715D"/>
<circle cx="0.5" cy="6.5" r="0.5" fill="#00715D"/>
<circle cx="2.5" cy="6.5" r="0.5" fill="#00715D"/>
<circle cx="4.5" cy="6.5" r="0.5" fill="#00715D"/>
<circle cx="6.5" cy="6.5" r="0.5" fill="#00715D"/>
<circle cx="8.5" cy="6.5" r="0.5" fill="#00715D"/>
<circle cx="0.5" cy="8.5" r="0.5" fill="#00715D"/>
<circle cx="2.5" cy="8.5" r="0.5" fill="#00715D"/>
<circle cx="4.5" cy="8.5" r="0.5" fill="#00715D"/>
<circle cx="6.5" cy="8.5" r="0.5" fill="#00715D"/>
<circle cx="8.5" cy="8.5" r="0.5" fill="#00715D"/>
</svg>
