<svg width="25" height="25" viewBox="0 0 25 25" fill="none" xmlns="http://www.w3.org/2000/svg">
<path d="M15.413 0.540405H22.4891C23.5719 0.540485 24.4596 1.42837 24.4598 2.51111V9.58728C24.4598 10.6773 23.5731 11.5579 22.4891 11.558H15.413C14.322 11.5578 13.4423 10.6783 13.4423 9.58728V2.51111C13.4425 1.42738 14.3232 0.540627 15.413 0.540405Z" stroke="white"/>
<path d="M2.97168 0.5H8.74609C10.113 0.500108 11.2178 1.61252 11.2178 2.97168V8.74609C11.2177 10.114 10.114 11.2177 8.74609 11.2178H2.97168C1.61252 11.2178 0.500108 10.113 0.5 8.74609V2.97168C0.5 1.61354 1.61354 0.5 2.97168 0.5Z" stroke="white"/>
<path d="M2.97168 13.7828H8.74609C10.114 13.7829 11.2178 14.8865 11.2178 16.2545V22.0289C11.2177 23.388 10.1129 24.5005 8.74609 24.5006H2.97168C1.6136 24.5006 0.500109 23.387 0.5 22.0289V16.2545C0.5 14.8876 1.61245 13.7828 2.97168 13.7828Z" stroke="white"/>
<path d="M16.2539 13.7828H22.0283C23.3875 13.7829 24.5 14.8876 24.5 16.2545V22.0289C24.4999 23.3869 23.3863 24.5005 22.0283 24.5006H16.2539C14.887 24.5006 13.7823 23.3881 13.7822 22.0289V16.2545C13.7822 14.8865 14.8859 13.7828 16.2539 13.7828Z" stroke="white"/>
</svg>
