<svg xmlns="http://www.w3.org/2000/svg" width="25" height="25" viewBox="0 0 25 25" fill="none">
                        <path d="M20.6677 19.8511L16.1664 15.3497C16.1661 15.3494 16.1661 15.349 16.1664 15.3488C17.1299 14.2124 17.6898 12.7888 17.7586 11.3005C17.9523 7.26831 14.7436 4.0226 10.7095 4.17169C7.15613 4.30618 4.30643 7.15589 4.17193 10.7093C4.02288 14.7434 7.26862 17.9521 11.3008 17.7582C12.7891 17.6894 14.2126 17.1295 15.349 16.1661C15.3491 16.166 15.3493 16.1659 15.3494 16.1659C15.3496 16.1659 15.3498 16.166 15.3499 16.1661L19.8513 20.6675C20.0785 20.8912 20.4441 20.8883 20.6677 20.6611C20.889 20.4364 20.889 20.0758 20.6677 19.8511ZM5.4683 12.2762C5.02515 10.2981 5.60401 8.34583 6.97507 6.9748C8.34614 5.60376 10.2983 5.02488 12.2765 5.46806C14.1481 5.88748 16.0458 7.78498 16.4652 9.65637C16.9087 11.6347 16.3297 13.5872 14.9586 14.9584C13.5875 16.3295 11.6349 16.9084 9.65651 16.4649C7.78512 16.0454 5.88772 14.1477 5.4683 12.2762Z" fill="#999999"></path>
                    </svg>