<svg xmlns="http://www.w3.org/2000/svg" width="20" height="20" viewBox="0 0 20 20" fill="none">
                                <path fill-rule="evenodd" clip-rule="evenodd" d="M4.41098 6.91098C4.25476 7.06725 4.16699 7.27918 4.16699 7.50015C4.16699 7.72112 4.25476 7.93304 4.41098 8.08931L9.41098 13.0893C9.56725 13.2455 9.77918 13.3333 10.0001 13.3333C10.2211 13.3333 10.433 13.2455 10.5893 13.0893L15.5893 8.08931C15.7411 7.93215 15.8251 7.72164 15.8232 7.50315C15.8213 7.28465 15.7337 7.07564 15.5792 6.92113C15.4247 6.76663 15.2156 6.67898 14.9971 6.67709C14.7787 6.67519 14.5681 6.75918 14.411 6.91098L10.0001 11.3218L5.58931 6.91098C5.43304 6.75476 5.22112 6.66699 5.00015 6.66699C4.77918 6.66699 4.56725 6.75476 4.41098 6.91098Z" fill="#27262E"></path>
                            </svg>