<svg xmlns="http://www.w3.org/2000/svg" width="24" height="24" viewBox="0 0 30 30" fill="none">
                                <path d="M4.06864 11.7857L6.75321 23.5389C6.8827 24.1133 7.20391 24.6265 7.66397 24.994C8.12403 25.3615 8.69552 25.5614 9.28435 25.5609H15.5766C15.804 25.5609 16.022 25.4706 16.1827 25.3098C16.3435 25.1491 16.4338 24.931 16.4338 24.7037C16.4338 24.4764 16.3435 24.2584 16.1827 24.0976C16.022 23.9369 15.804 23.8466 15.5766 23.8466H9.28435C8.87292 23.8466 8.51807 23.5603 8.42378 23.154L5.7375 11.3974C5.70906 11.2683 5.70992 11.1345 5.74001 11.0058C5.7701 10.8771 5.82866 10.7567 5.91138 10.6536C5.99409 10.5505 6.09887 10.4672 6.218 10.41C6.33713 10.3527 6.46759 10.3228 6.59978 10.3226H8.78378V12.3309C8.78378 12.5582 8.87409 12.7762 9.03483 12.9369C9.19558 13.0977 9.4136 13.188 9.64092 13.188C9.86825 13.188 10.0863 13.0977 10.247 12.9369C10.4078 12.7762 10.4981 12.5582 10.4981 12.3309V10.3217H20.1101V12.3309C20.1101 12.5582 20.2004 12.7762 20.3611 12.9369C20.5219 13.0977 20.7399 13.188 20.9672 13.188C21.1945 13.188 21.4126 13.0977 21.5733 12.9369C21.734 12.7762 21.8244 12.5582 21.8244 12.3309V10.3217H24.0084C24.1412 10.3219 24.2723 10.3521 24.3919 10.4099C24.5115 10.4678 24.6166 10.5518 24.6992 10.6558C24.7819 10.7598 24.8401 10.8811 24.8695 11.0107C24.8989 11.1403 24.8987 11.2748 24.8689 11.4043L22.9146 19.956C22.8896 20.0657 22.8864 20.1794 22.9053 20.2903C22.9241 20.4013 22.9647 20.5075 23.0246 20.6028C23.0845 20.6981 23.1625 20.7807 23.2543 20.8458C23.3462 20.911 23.4499 20.9574 23.5596 20.9824C23.6694 21.0075 23.783 21.0107 23.894 20.9918C24.0049 20.9729 24.1111 20.9324 24.2064 20.8725C24.3017 20.8126 24.3843 20.7345 24.4495 20.6427C24.5146 20.5509 24.561 20.4472 24.5861 20.3374L26.5378 11.7917C26.6282 11.4129 26.6312 11.0184 26.5465 10.6382C26.4619 10.258 26.2918 9.90213 26.0492 9.59743C25.8066 9.28838 25.4969 9.03862 25.1434 8.86708C24.79 8.69555 24.4021 8.60676 24.0092 8.60743H21.7532C21.3075 5.44457 18.5886 3 15.3041 3C12.0195 3 9.3015 5.44371 8.85492 8.60743H6.59978C5.80007 8.60743 5.05692 8.96829 4.55978 9.59743C4.31745 9.90112 4.14732 10.2559 4.06223 10.635C3.97715 11.0141 3.97934 11.4076 4.06864 11.7857ZM15.3041 4.71429C16.4197 4.71598 17.5 5.10517 18.3604 5.8153C19.2208 6.52543 19.8077 7.5124 20.0209 8.60743H10.5872C10.8004 7.5124 11.3874 6.52543 12.2477 5.8153C13.1081 5.10517 14.1885 4.71598 15.3041 4.71429Z" fill="currentColor"></path>
                                <path d="M20.9296 20.7959C20.7023 20.7959 20.4843 20.8862 20.3235 21.047C20.1628 21.2077 20.0725 21.4257 20.0725 21.653V23.0408H18.6848C18.4575 23.0408 18.2394 23.1311 18.0787 23.2918C17.9179 23.4526 17.8276 23.6706 17.8276 23.8979C17.8276 24.1252 17.9179 24.3432 18.0787 24.504C18.2394 24.6647 18.4575 24.755 18.6848 24.755H20.0734V26.1428C20.0734 26.3701 20.1637 26.5881 20.3244 26.7488C20.4851 26.9096 20.7032 26.9999 20.9305 26.9999C21.1578 26.9999 21.3758 26.9096 21.5366 26.7488C21.6973 26.5881 21.7876 26.3701 21.7876 26.1428V24.7542H23.1754C23.4027 24.7542 23.6207 24.6639 23.7814 24.5031C23.9422 24.3424 24.0325 24.1244 24.0325 23.897C24.0325 23.6697 23.9422 23.4517 23.7814 23.291C23.6207 23.1302 23.4027 23.0399 23.1754 23.0399H21.7868V21.653C21.7868 21.4257 21.6965 21.2077 21.5357 21.047C21.375 20.8862 21.157 20.7959 20.9296 20.7959Z" fill="currentColor"></path>
                            </svg>