<svg xmlns="http://www.w3.org/2000/svg" width="45" height="45" viewBox="0 0 60 45" fill="CurrentColor">
                                                            <path d="M15.6998 14.9451C20.1159 15.5618 23.7601 17.5038 26.2528 21.3091C31.9342 30.0087 27.9104 42.6448 16.5729 44.7705C8.58861 46.2664 1.59126 40.0861 0.249999 32.6199C-0.0789903 30.8222 -0.0789879 29.0246 0.224695 27.2138C0.629605 24.7863 0.832058 22.3063 1.40146 19.9182C3.21091 12.4258 6.91836 6.02241 12.2075 0.61631C12.6757 0.13081 13.1945 -0.157865 13.8524 0.0914457C14.5231 0.353878 14.7508 0.931228 14.8015 1.65292C15.0672 5.90432 15.3582 10.1557 15.6366 14.4071C15.6492 14.5908 15.6745 14.7483 15.6998 14.9451Z"></path>
                                                            <path d="M46.9157 14.9582C49.4337 15.26 51.7367 16.0604 53.7739 17.5432C58.5695 21.0073 60.5434 25.9148 59.8728 31.8064C59.1642 37.9079 55.7858 42.0543 50.2056 44.1144C40.7788 47.5917 32.4275 40.2698 31.352 31.8851C31.1369 30.2187 31.2128 28.5785 31.4912 26.9251C31.8581 24.7601 32.0226 22.5425 32.5034 20.4037C34.2749 12.7013 38.0203 6.1405 43.4487 0.603183C43.9295 0.117684 44.4356 -0.157873 45.0936 0.10456C45.7642 0.380113 45.9793 0.970586 46.03 1.67915C46.283 5.8387 46.5614 10.0114 46.8271 14.1709C46.8398 14.4202 46.8777 14.6564 46.9157 14.9582Z"></path>
                                                        </svg>