<svg xmlns="http://www.w3.org/2000/svg" viewBox="0 0 255 248" fill="currentColor" width="24" height="24">
                        <path d="M5.60284e-06 0C3.31284 1.80644 6.56782 4.03303 9.77801 6.44863C25.2739 18.1974 29.5563 43.5694 34.9906 76.7846C41.0781 113.992 46.6943 148.505 60.7916 179.951C66.2418 192.228 74.3641 200.487 82.7586 199.611C92.8266 198.856 100.86 185.311 108.685 174.27C117.528 161.844 127.43 148.26 138.792 149.646C145.198 150.47 149.892 157.126 153.009 168.024C155.59 177.019 160.926 186.667 165.313 193.671C169.469 200.307 176.498 204.432 184.239 205.608L218.759 210.852C227.195 212.134 234.686 216.948 239.358 224.089L255 248H5.60284e-06V0Z" fill="currentColor"></path>
                    </svg>