<svg xmlns="http://www.w3.org/2000/svg" viewBox="0 0 221 97" fill="currentColor" width="150" height="66">
                        <path d="M0.5 0.5C73.1 0.5 145.7 0.5 220.5 0.5C220.5 29.5688 220.5 58.6376 220.5 88.5873C205.006 96.3086 202.782 98.6149 193.923 94.4598C187.293 91.3503 186.589 86.0967 181.323 80.4878C180.874 80.0094 180.466 79.4875 180.009 79.0168C178.401 77.3622 175.619 76.2059 174.177 75.6852C173.566 75.4642 172.926 75.3433 172.277 75.2969C170.707 75.1847 167.438 75.0005 163.931 75.099C165.62 75.0892 162.292 75.1084 163.931 75.099C159.223 75.3355 149.842 76.0658 145.198 76.8424C129.011 77.958 127.021 79.2055 120.549 76.8565C119.269 76.3918 118.115 75.6188 117.22 74.5918C112.091 68.703 108.795 61.1543 104.871 54.442C104.262 53.4163 103.653 52.3905 103.025 51.3337C102.506 50.414 101.986 49.4942 101.451 48.5466C97.7653 43.9322 93.6962 41.9035 87.914 40.8676C77.5861 40.6639 72.2134 42.2386 64.0245 48.4262C61.4402 50.1476 61.0913 50.3799 57.5201 51.0646C56.2498 51.3081 54.9353 51.3077 53.6822 50.9871C48.8572 49.7529 45.6281 47.8384 42.4612 43.8767C42.0413 43.3515 41.6966 42.7696 41.4151 42.1589C39.5222 38.0526 37.8738 33.8877 36.2189 29.6732C31.1798 17.5989 21.9646 13.4603 10.8356 7.84061C8.76622 6.69317 6.70367 5.5334 4.65268 4.35382C3.2823 3.56654 1.91191 2.77926 0.5 1.96812C0.5 1.48364 0.5 0.999162 0.5 0.5Z"></path>
                    </svg>