<svg xmlns="http://www.w3.org/2000/svg" viewBox="0 0 230 101" fill="currentColor" width="75" height="170">
                                    <path d="M0 0C75.9 0 151.8 0 230 0C230 30.5828 230 61.1656 230 92.6752C213.801 100.799 211.477 103.225 202.215 98.8536C195.269 95.5754 194.545 90.0321 189.009 84.1175C188.561 83.639 188.155 83.1171 187.703 82.6424C186.015 80.8684 183.043 79.6333 181.536 79.0882C180.921 78.8656 180.277 78.7427 179.624 78.6954C177.999 78.5777 174.556 78.3799 170.86 78.4843C172.625 78.4741 169.147 78.4943 170.86 78.4843C165.937 78.7332 156.13 79.5016 151.275 80.3185C134.282 81.4972 132.254 82.8156 125.421 80.3024C124.14 79.8312 122.985 79.0535 122.089 78.0236C116.69 71.8175 113.234 63.841 109.115 56.7515C108.478 55.6723 107.841 54.5932 107.185 53.4813C106.642 52.5137 106.099 51.546 105.539 50.549C101.686 45.6943 97.4324 43.5599 91.3874 42.4701C80.59 42.2557 74.9731 43.9125 66.412 50.4223C63.6917 52.2457 63.3406 52.4811 59.5349 53.213C58.2569 53.4588 56.9357 53.4577 55.6747 53.1359C50.572 51.8338 47.1734 49.8113 43.8357 45.5945C43.4196 45.0688 43.0771 44.4876 42.7976 43.8782C40.8091 39.542 39.0792 35.1436 37.3424 30.6926C32.0743 17.9895 22.4402 13.6353 10.8054 7.72293C8.64196 6.51574 6.48566 5.29555 4.34144 4.05454C2.90877 3.22626 1.47609 2.39797 0 1.54459C0 1.03487 0 0.52516 0 0Z"></path>
                                        </svg>