<svg width="30" height="26" viewBox="0 0 30 26" fill="none" xmlns="http://www.w3.org/2000/svg">
<g clip-path="url(#clip0_205_13)">
<path d="M0.390592 26C0.264594 25.7615 0.0629984 25.5355 0.0251991 25.2844C-0.0377996 24.8325 0.0251991 24.368 -3.51807e-07 23.916C-0.0126001 23.5017 0.163796 23.2883 0.592188 23.3008C0.718185 23.3008 0.844183 23.3008 0.97018 23.3008C10.3318 23.3008 19.6808 23.3008 29.0424 23.3134C29.3574 23.3134 29.6724 23.4389 29.9874 23.5017C29.9874 24.3303 29.9874 25.1714 29.9874 26C20.1344 26 10.2562 26 0.390592 26Z" fill="white"/>
<path d="M15.0315 10.6461C18.3956 10.6461 21.7598 10.6461 25.1365 10.6461C27.0391 10.6461 27.9714 11.5876 27.984 13.4959C27.984 13.521 27.984 13.5336 27.984 13.5587C28.2108 14.6634 27.6943 15.2912 26.7115 15.718C25.7161 16.1449 24.7585 16.2327 23.8891 15.492C23.4607 15.128 23.1079 14.6886 22.7552 14.2492C22.289 13.6842 21.848 13.6717 21.3692 14.224C21.0542 14.5881 20.7392 14.9522 20.3864 15.2661C19.391 16.1574 18.2948 16.2578 17.1735 15.5423C16.6695 15.2158 16.2159 14.8015 15.7749 14.3873C15.1701 13.8223 14.9055 13.8223 14.3133 14.4124C13.9731 14.7513 13.6203 15.0777 13.2297 15.3539C11.9068 16.3081 10.7098 16.2453 9.47502 15.1907C9.28602 15.0275 9.10962 14.8518 8.94583 14.6634C8.10164 13.6968 7.92525 13.6968 7.08106 14.7011C5.93449 16.057 4.48552 16.3583 2.87275 15.6301C2.24276 15.3414 2.00337 14.902 2.06636 14.2492C2.10416 13.9353 2.14196 13.6214 2.10416 13.3201C1.88997 11.776 3.13734 10.621 4.75011 10.6335C8.16464 10.6712 11.5918 10.6461 15.0315 10.6461Z" fill="white"/>
<path d="M27.7322 21.606C19.2526 21.606 10.8107 21.606 2.33112 21.606C2.33112 20.2878 2.33112 18.9696 2.33112 17.6012C4.43527 18.3042 6.27484 17.8522 7.78681 16.2327C10.3068 18.6432 12.6251 18.3168 15.0569 16.1574C18.0682 18.7687 20.2354 18.1661 22.2891 16.1198C22.9821 16.8605 23.7381 17.5384 24.7713 17.802C25.7918 18.0657 26.7494 17.8522 27.7574 17.4254C27.7322 18.8315 27.7322 20.1874 27.7322 21.606Z" fill="white"/>
<path d="M13.2297 9.46596C13.2297 8.22308 13.2171 7.00531 13.2423 5.77499C13.2549 5.37325 13.5447 5.13472 13.9605 5.13472C14.6535 5.12217 15.3465 5.12217 16.0269 5.13472C16.5057 5.13472 16.7829 5.41091 16.7829 5.87542C16.8081 7.05553 16.7955 8.24819 16.7955 9.46596C15.5985 9.46596 14.4393 9.46596 13.2297 9.46596Z" fill="white"/>
<path d="M15.0189 0C15.3213 0.55239 15.6741 1.18011 16.0143 1.82038C16.1655 2.10913 16.3671 2.39788 16.4553 2.71173C16.6443 3.40222 16.3419 4.15548 15.8001 4.45678C15.2583 4.75809 14.4267 4.67021 13.9857 4.26847C13.5195 3.82907 13.3683 2.98793 13.6959 2.37277C14.1243 1.54418 14.5905 0.740705 15.0189 0Z" fill="white"/>
</g>
<defs>
<clipPath id="clip0_205_13">
<rect width="30" height="26" fill="white"/>
</clipPath>
</defs>
</svg>
