<svg width="23" height="25" viewBox="0 0 23 25" fill="none" xmlns="http://www.w3.org/2000/svg">
                                            <path d="M18.6875 16.2109C17.2672 16.2109 16.0156 16.9229 15.2295 18.0056L8.43285 14.4592C8.5457 14.0672 8.625 13.661 8.625 13.2324C8.625 12.6511 8.50803 12.0984 8.30597 11.59L15.419 7.22832C16.2105 8.175 17.3741 8.78906 18.6875 8.78906C21.0656 8.78906 23 6.81782 23 4.39453C23 1.97124 21.0656 0 18.6875 0C16.3094 0 14.375 1.97124 14.375 4.39453C14.375 4.95298 14.4878 5.48272 14.6751 5.97451L7.54089 10.349C6.74997 9.43047 5.60323 8.83789 4.3125 8.83789C1.93444 8.83789 0 10.8091 0 13.2324C0 15.6557 1.93444 17.627 4.3125 17.627C5.75623 17.627 7.02894 16.8941 7.81209 15.781L14.5864 19.3159C14.4616 19.7263 14.375 20.1538 14.375 20.6055C14.375 23.0288 16.3094 25 18.6875 25C21.0656 25 23 23.0288 23 20.6055C23 18.1822 21.0656 16.2109 18.6875 16.2109Z" fill="#ffffff"></path>
                                        </svg>