<svg xmlns="http://www.w3.org/2000/svg" version="1.1" width="114" height="130" viewBox="0 0 130 130"><rect x="0" y="0" width="130" height="130" fill="#ffffff"></rect><g transform="scale(5.2)"><g transform="translate(0,0)"><path fill-rule="evenodd" d="M8 0L8 2L9 2L9 4L8 4L8 9L7 9L7 8L5 8L5 9L3 9L3 8L0 8L0 10L1 10L1 9L2 9L2 10L3 10L3 11L5 11L5 12L4 12L4 14L0 14L0 15L2 15L2 16L0 16L0 17L2 17L2 16L3 16L3 17L4 17L4 16L5 16L5 17L7 17L7 16L8 16L8 14L9 14L9 13L11 13L11 14L10 14L10 15L9 15L9 16L10 16L10 19L8 19L8 20L10 20L10 21L9 21L9 22L8 22L8 25L11 25L11 24L12 24L12 25L13 25L13 23L14 23L14 25L15 25L15 23L14 23L14 21L13 21L13 19L12 19L12 18L14 18L14 17L12 17L12 16L13 16L13 15L12 15L12 14L13 14L13 13L12 13L12 10L14 10L14 9L15 9L15 14L14 14L14 16L15 16L15 15L16 15L16 14L17 14L17 15L19 15L19 16L16 16L16 17L15 17L15 18L16 18L16 19L14 19L14 20L15 20L15 21L16 21L16 25L17 25L17 23L18 23L18 25L19 25L19 24L21 24L21 25L22 25L22 24L21 24L21 23L22 23L22 22L23 22L23 23L25 23L25 20L23 20L23 21L22 21L22 22L21 22L21 16L22 16L22 15L23 15L23 14L24 14L24 15L25 15L25 12L24 12L24 13L23 13L23 14L21 14L21 15L19 15L19 14L20 14L20 13L19 13L19 12L20 12L20 11L21 11L21 12L22 12L22 11L23 11L23 10L24 10L24 11L25 11L25 8L23 8L23 10L22 10L22 9L21 9L21 8L17 8L17 5L16 5L16 7L15 7L15 0L14 0L14 2L13 2L13 1L12 1L12 3L13 3L13 5L12 5L12 7L13 7L13 5L14 5L14 7L15 7L15 8L14 8L14 9L13 9L13 8L12 8L12 9L11 9L11 12L9 12L9 11L8 11L8 10L10 10L10 9L9 9L9 5L11 5L11 3L10 3L10 2L9 2L9 0ZM10 0L10 1L11 1L11 0ZM16 2L16 4L17 4L17 2ZM10 6L10 8L11 8L11 6ZM15 8L15 9L16 9L16 8ZM6 9L6 10L7 10L7 9ZM17 9L17 10L16 10L16 11L17 11L17 10L18 10L18 9ZM20 9L20 10L21 10L21 9ZM0 11L0 13L1 13L1 11ZM6 11L6 12L5 12L5 14L4 14L4 15L3 15L3 16L4 16L4 15L6 15L6 16L7 16L7 15L6 15L6 14L8 14L8 13L9 13L9 12L8 12L8 11ZM18 11L18 12L16 12L16 13L18 13L18 12L19 12L19 11ZM6 12L6 13L7 13L7 12ZM10 15L10 16L12 16L12 15ZM23 16L23 17L24 17L24 19L25 19L25 17L24 17L24 16ZM8 17L8 18L9 18L9 17ZM17 17L17 20L20 20L20 17ZM18 18L18 19L19 19L19 18ZM11 19L11 21L12 21L12 19ZM18 21L18 23L19 23L19 22L20 22L20 21ZM23 21L23 22L24 22L24 21ZM9 22L9 23L10 23L10 24L11 24L11 22ZM12 22L12 23L13 23L13 22ZM24 24L24 25L25 25L25 24ZM0 0L0 7L7 7L7 0ZM1 1L1 6L6 6L6 1ZM2 2L2 5L5 5L5 2ZM18 0L18 7L25 7L25 0ZM19 1L19 6L24 6L24 1ZM20 2L20 5L23 5L23 2ZM0 18L0 25L7 25L7 18ZM1 19L1 24L6 24L6 19ZM2 20L2 23L5 23L5 20Z" fill="#000000"></path></g></g></svg>