<svg xmlns="http://www.w3.org/2000/svg" version="1.1" width="130" height="130" viewBox="0 0 130 130"><rect x="0" y="0" width="130" height="130" fill="#ffffff"></rect><g transform="scale(4.483)"><g transform="translate(0,0)"><path fill-rule="evenodd" d="M9 0L9 1L8 1L8 2L9 2L9 3L8 3L8 4L10 4L10 7L11 7L11 4L12 4L12 5L13 5L13 6L12 6L12 9L14 9L14 10L11 10L11 11L10 11L10 9L11 9L11 8L6 8L6 9L8 9L8 10L5 10L5 11L4 11L4 9L5 9L5 8L0 8L0 9L1 9L1 10L0 10L0 11L1 11L1 10L2 10L2 12L1 12L1 13L2 13L2 12L3 12L3 14L4 14L4 12L6 12L6 13L5 13L5 15L3 15L3 16L2 16L2 14L1 14L1 16L0 16L0 21L1 21L1 16L2 16L2 17L3 17L3 16L6 16L6 17L5 17L5 18L6 18L6 19L5 19L5 20L4 20L4 19L3 19L3 20L4 20L4 21L5 21L5 20L6 20L6 21L8 21L8 23L9 23L9 24L8 24L8 29L11 29L11 28L12 28L12 29L18 29L18 28L13 28L13 27L16 27L16 26L17 26L17 27L18 27L18 26L19 26L19 25L18 25L18 24L20 24L20 26L21 26L21 27L19 27L19 29L20 29L20 28L21 28L21 27L22 27L22 29L27 29L27 28L28 28L28 26L29 26L29 23L28 23L28 25L27 25L27 24L26 24L26 25L25 25L25 23L27 23L27 22L29 22L29 20L28 20L28 19L27 19L27 16L28 16L28 15L27 15L27 14L25 14L25 13L27 13L27 12L28 12L28 11L27 11L27 12L26 12L26 11L25 11L25 9L26 9L26 8L25 8L25 9L24 9L24 8L23 8L23 9L22 9L22 8L21 8L21 9L18 9L18 8L17 8L17 9L16 9L16 8L15 8L15 6L16 6L16 7L17 7L17 6L18 6L18 7L19 7L19 8L20 8L20 7L21 7L21 4L20 4L20 3L21 3L21 0L16 0L16 1L15 1L15 2L14 2L14 3L13 3L13 4L12 4L12 2L13 2L13 1L11 1L11 2L10 2L10 0ZM16 1L16 2L17 2L17 3L15 3L15 5L14 5L14 4L13 4L13 5L14 5L14 6L13 6L13 8L14 8L14 6L15 6L15 5L16 5L16 4L17 4L17 3L19 3L19 2L20 2L20 1ZM10 3L10 4L11 4L11 3ZM8 5L8 7L9 7L9 5ZM18 5L18 6L19 6L19 7L20 7L20 5ZM27 8L27 9L28 9L28 10L29 10L29 9L28 9L28 8ZM2 9L2 10L3 10L3 9ZM15 9L15 10L14 10L14 11L12 11L12 12L14 12L14 11L15 11L15 10L16 10L16 9ZM17 9L17 10L18 10L18 9ZM8 10L8 11L6 11L6 12L7 12L7 13L6 13L6 14L7 14L7 15L6 15L6 16L7 16L7 15L8 15L8 14L7 14L7 13L8 13L8 11L9 11L9 10ZM19 10L19 11L17 11L17 12L15 12L15 13L14 13L14 14L13 14L13 15L12 15L12 13L11 13L11 12L10 12L10 13L11 13L11 14L9 14L9 15L11 15L11 17L10 17L10 16L9 16L9 20L8 20L8 21L9 21L9 22L10 22L10 24L9 24L9 26L10 26L10 27L13 27L13 26L14 26L14 25L12 25L12 23L13 23L13 24L14 24L14 22L16 22L16 21L15 21L15 20L14 20L14 19L15 19L15 18L16 18L16 19L17 19L17 20L18 20L18 21L17 21L17 23L16 23L16 25L15 25L15 26L16 26L16 25L17 25L17 24L18 24L18 22L20 22L20 21L19 21L19 20L20 20L20 19L21 19L21 20L22 20L22 19L23 19L23 20L24 20L24 19L23 19L23 18L22 18L22 17L23 17L23 16L24 16L24 17L25 17L25 21L26 21L26 20L27 20L27 19L26 19L26 17L25 17L25 16L27 16L27 15L25 15L25 16L24 16L24 14L23 14L23 15L21 15L21 14L22 14L22 13L25 13L25 11L23 11L23 10ZM3 11L3 12L4 12L4 11ZM19 11L19 13L18 13L18 12L17 12L17 14L15 14L15 15L14 15L14 16L12 16L12 17L11 17L11 18L10 18L10 20L13 20L13 22L14 22L14 20L13 20L13 19L14 19L14 18L12 18L12 17L16 17L16 18L17 18L17 19L18 19L18 20L19 20L19 18L21 18L21 17L19 17L19 18L17 18L17 17L18 17L18 16L17 16L17 15L18 15L18 14L20 14L20 12L23 12L23 11ZM28 13L28 14L29 14L29 13ZM20 15L20 16L21 16L21 15ZM16 16L16 17L17 17L17 16ZM6 17L6 18L7 18L7 19L6 19L6 20L7 20L7 19L8 19L8 17ZM28 17L28 18L29 18L29 17ZM11 18L11 19L12 19L12 18ZM10 21L10 22L12 22L12 21ZM21 21L21 24L24 24L24 21ZM22 22L22 23L23 23L23 22ZM10 25L10 26L12 26L12 25ZM21 25L21 26L25 26L25 25ZM23 27L23 28L24 28L24 27ZM26 27L26 28L27 28L27 27ZM0 0L0 7L7 7L7 0ZM1 1L1 6L6 6L6 1ZM2 2L2 5L5 5L5 2ZM22 0L22 7L29 7L29 0ZM23 1L23 6L28 6L28 1ZM24 2L24 5L27 5L27 2ZM0 22L0 29L7 29L7 22ZM1 23L1 28L6 28L6 23ZM2 24L2 27L5 27L5 24Z" fill="#000000"></path></g></g></svg>