<svg xmlns="http://www.w3.org/2000/svg" width="20" height="20" viewBox="0 0 20 20" fill="none">
                            <path fill-rule="evenodd" clip-rule="evenodd" d="M15 8.33317C15 10.1013 14.2976 11.797 13.0474 13.0472C11.7972 14.2975 10.1015 14.9998 8.33335 14.9998C6.56524 14.9998 4.86955 14.2975 3.61931 13.0472C2.36907 11.797 1.66669 10.1013 1.66669 8.33317C1.66669 6.56506 2.36907 4.86937 3.61931 3.61913C4.86955 2.36888 6.56524 1.6665 8.33335 1.6665C10.1015 1.6665 11.7972 2.36888 13.0474 3.61913C14.2976 4.86937 15 6.56506 15 8.33317ZM13.75 8.33317C13.75 9.76976 13.1793 11.1475 12.1635 12.1633C11.1477 13.1792 9.76994 13.7498 8.33335 13.7498C6.89676 13.7498 5.51901 13.1792 4.50319 12.1633C3.48737 11.1475 2.91669 9.76976 2.91669 8.33317C2.91669 6.89658 3.48737 5.51883 4.50319 4.50301C5.51901 3.48719 6.89676 2.9165 8.33335 2.9165C9.76994 2.9165 11.1477 3.48719 12.1635 4.50301C13.1793 5.51883 13.75 6.89658 13.75 8.33317Z" fill="#999999"></path>
                            <path d="M17.1084 16.225L14.1917 13.3083C14.1345 13.2469 14.0655 13.1976 13.9888 13.1635C13.9121 13.1293 13.8294 13.111 13.7455 13.1095C13.6615 13.108 13.5782 13.1234 13.5004 13.1549C13.4225 13.1863 13.3518 13.2331 13.2925 13.2924C13.2331 13.3518 13.1864 13.4225 13.1549 13.5003C13.1235 13.5781 13.1081 13.6615 13.1095 13.7454C13.111 13.8293 13.1294 13.9121 13.1635 13.9887C13.1977 14.0654 13.247 14.1344 13.3084 14.1916L16.225 17.1083C16.2822 17.1697 16.3512 17.219 16.4279 17.2531C16.5046 17.2873 16.5873 17.3056 16.6713 17.3071C16.7552 17.3086 16.8385 17.2932 16.9164 17.2617C16.9942 17.2303 17.0649 17.1835 17.1242 17.1242C17.1836 17.0648 17.2304 16.9941 17.2618 16.9163C17.2932 16.8385 17.3087 16.7551 17.3072 16.6712C17.3057 16.5873 17.2873 16.5045 17.2532 16.4278C17.219 16.3512 17.1698 16.2822 17.1084 16.225Z" fill="#999999"></path>
                        </svg>