<svg width="65" height="60" viewBox="0 0 65 60" fill="none" xmlns="http://www.w3.org/2000/svg">
<path d="M6 1H59C62.0376 1 64.5 3.46243 64.5 6.5V41.915C64.4998 43.8479 62.9329 45.415 61 45.415H58.3906C57.3467 45.415 56.5001 46.2608 56.5 47.3047V56.5732C56.4999 57.3922 55.5099 57.8024 54.9307 57.2236L45.0908 47.3838C43.8849 46.1779 42.2532 45.4945 40.5479 45.4805L32.5039 45.415H6C2.96257 45.415 0.500219 42.9524 0.5 39.915V6.5C0.5 3.46243 2.96243 1 6 1Z" fill="#ffffff" stroke="#244D4E"/>
<path d="M39.2248 37.5715C41.3263 35.9526 42.9374 34.1987 44.0582 32.3099C45.179 30.4211 46.0196 28.5323 46.58 26.6435C46.1597 26.7784 45.4592 26.8459 44.4785 26.8459C41.5364 26.576 39.0847 25.4293 37.1233 23.4056C35.1619 21.5168 34.2512 19.2232 34.3913 16.5249C34.6715 13.8267 35.8624 11.5331 37.9639 9.64432C39.9253 7.75552 42.307 6.87857 45.109 7.01349C47.911 7.1484 50.2927 8.22772 52.254 10.2514C54.2154 12.2751 55.1261 14.6361 54.986 17.3344V17.7392C54.986 21.7866 54.2855 25.2269 52.8845 28.0601C51.3434 30.8933 49.7323 33.1868 48.0511 34.9407C46.3699 36.6946 44.8288 37.9763 43.4278 38.7858C42.0268 39.5953 41.2562 40 41.1161 40L39.2248 37.5715ZM14.8474 37.5715C16.9489 35.9526 18.5601 34.1987 19.6809 32.3099C20.8017 30.4211 21.6423 28.5323 22.2027 26.6435C21.6423 26.7784 20.8717 26.8459 19.891 26.8459C17.089 26.576 14.7073 25.4293 12.746 23.4056C10.7846 21.5168 9.87391 19.2232 10.014 16.5249C10.1541 13.8267 11.2749 11.5331 13.3764 9.64432C15.4779 7.75552 17.9296 6.87857 20.7316 7.01349C23.5336 7.1484 25.9153 8.22772 27.8767 10.2514C29.8381 12.2751 30.7488 14.6361 30.6087 17.3344V17.7392C30.6087 21.7866 29.9082 25.2269 28.5072 28.0601C26.9661 30.8933 25.3549 33.1868 23.6737 34.9407C21.9925 36.6946 20.4514 37.9763 19.0504 38.7858C17.5093 39.5953 16.7388 40 16.7388 40L14.8474 37.5715Z" fill="#244D4E"/>
</svg>
