<svg width="28" height="28" viewBox="0 0 28 36" fill="none" xmlns="http://www.w3.org/2000/svg">
                                <path fill-rule="evenodd" clip-rule="evenodd" d="M21.1774 9.66634C21.1774 9.99786 21.0457 10.3158 20.8113 10.5502C20.5769 10.7846 20.2589 10.9163 19.9274 10.9163C19.5959 10.9163 19.2779 10.7846 19.0435 10.5502C18.8091 10.3158 18.6774 9.99786 18.6774 9.66634V7.16634C18.6774 5.95077 18.1945 4.78498 17.335 3.92543C16.4754 3.06589 15.3097 2.58301 14.0941 2.58301C12.8785 2.58301 11.7127 3.06589 10.8532 3.92543C9.99363 4.78498 9.51074 5.95077 9.51074 7.16634V9.66634C9.51074 9.99786 9.37905 10.3158 9.14463 10.5502C8.9102 10.7846 8.59226 10.9163 8.26074 10.9163C7.92922 10.9163 7.61128 10.7846 7.37686 10.5502C7.14244 10.3158 7.01074 9.99786 7.01074 9.66634V7.16634C7.01074 5.28772 7.75702 3.48605 9.0854 2.15767C10.4138 0.829285 12.2155 0.0830078 14.0941 0.0830078C15.9727 0.0830078 17.7744 0.829285 19.1027 2.15767C20.4311 3.48605 21.1774 5.28772 21.1774 7.16634V9.66634Z" fill="#DC834E"></path>
                                <path fill-rule="evenodd" clip-rule="evenodd" d="M26.3305 11.916L27.6639 31.916C27.6973 32.4282 27.6255 32.9419 27.4527 33.4252C27.2798 33.9085 27.0098 34.3513 26.6591 34.7262C26.3085 35.101 25.8847 35.4 25.4139 35.6047C24.9432 35.8093 24.4355 35.9153 23.9222 35.916H4.26552C3.75207 35.9158 3.24414 35.8101 2.77317 35.6057C2.3022 35.4012 1.87822 35.1022 1.52746 34.7272C1.17671 34.3523 0.906665 33.9093 0.734034 33.4257C0.561403 32.9422 0.489867 32.4283 0.523853 31.916L1.85719 11.916C1.92061 10.9668 2.34239 10.0773 3.03711 9.4274C3.73183 8.77755 4.64757 8.41601 5.59885 8.41602H22.5889C23.5401 8.41601 24.4559 8.77755 25.1506 9.4274C25.8453 10.0773 26.2671 10.9668 26.3305 11.916ZM18.2372 15.796C17.8646 16.5793 17.2775 17.2409 16.5442 17.7041C15.8109 18.1673 14.9612 18.4132 14.0939 18.4132C13.2265 18.4132 12.3769 18.1673 11.6435 17.7041C10.9102 17.2409 10.3232 16.5793 9.95052 15.796C9.88004 15.6477 9.78105 15.5148 9.65919 15.4048C9.53734 15.2947 9.395 15.2098 9.24031 15.1548C9.08563 15.0997 8.92162 15.0757 8.75765 15.0841C8.59368 15.0925 8.43297 15.133 8.28469 15.2035C8.1364 15.274 8.00345 15.373 7.89342 15.4948C7.7834 15.6167 7.69845 15.759 7.64343 15.9137C7.58841 16.0684 7.5644 16.2324 7.57277 16.3964C7.58113 16.5604 7.62171 16.7211 7.69219 16.8693C8.26624 18.0814 9.1726 19.1056 10.3059 19.8228C11.4391 20.5401 12.7527 20.9208 14.0939 20.9208C15.435 20.9208 16.7486 20.5401 17.8818 19.8228C19.0151 19.1056 19.9215 18.0814 20.4955 16.8693C20.566 16.7211 20.6066 16.5604 20.6149 16.3964C20.6233 16.2324 20.5993 16.0684 20.5443 15.9137C20.4893 15.759 20.4043 15.6167 20.2943 15.4948C20.1843 15.373 20.0513 15.274 19.903 15.2035C19.7547 15.133 19.594 15.0925 19.4301 15.0841C19.2661 15.0757 19.1021 15.0997 18.9474 15.1548C18.7927 15.2098 18.6504 15.2947 18.5285 15.4048C18.4067 15.5148 18.3077 15.6477 18.2372 15.796Z" fill="#DC834E"></path>
                            </svg>