<svg xmlns="http://www.w3.org/2000/svg" width="20" height="20" viewBox="0 0 20 20" fill="none">
                            <path fill-rule="evenodd" clip-rule="evenodd" d="M14.8752 8.37537C14.8752 10.0993 14.1904 11.7526 12.9714 12.9716C11.7525 14.1905 10.0992 14.8754 8.37524 14.8754C6.65134 14.8754 4.99804 14.1905 3.77905 12.9716C2.56006 11.7526 1.87524 10.0993 1.87524 8.37537C1.87524 6.65146 2.56006 4.99816 3.77905 3.77917C4.99804 2.56019 6.65134 1.87537 8.37524 1.87537C10.0992 1.87537 11.7525 2.56019 12.9714 3.77917C14.1904 4.99816 14.8752 6.65146 14.8752 8.37537ZM13.6565 8.37537C13.6565 9.77604 13.1001 11.1193 12.1097 12.1098C11.1192 13.1002 9.77592 13.6566 8.37524 13.6566C6.97457 13.6566 5.63126 13.1002 4.64084 12.1098C3.65041 11.1193 3.09399 9.77604 3.09399 8.37537C3.09399 6.97469 3.65041 5.63138 4.64084 4.64096C5.63126 3.65053 6.97457 3.09412 8.37524 3.09412C9.77592 3.09412 11.1192 3.65053 12.1097 4.64096C13.1001 5.63138 13.6565 6.97469 13.6565 8.37537Z" fill="black"></path>
                            <path d="M16.9307 16.0696L14.0869 13.2258C14.0312 13.1659 13.9639 13.1179 13.8891 13.0846C13.8144 13.0513 13.7337 13.0334 13.6519 13.032C13.57 13.0305 13.4888 13.0456 13.4129 13.0762C13.337 13.1069 13.2681 13.1525 13.2102 13.2103C13.1524 13.2682 13.1067 13.3371 13.0761 13.413C13.0454 13.4889 13.0304 13.5702 13.0318 13.652C13.0333 13.7338 13.0512 13.8145 13.0845 13.8892C13.1178 13.964 13.1658 14.0313 13.2257 14.0871L16.0694 16.9308C16.1252 16.9907 16.1925 17.0387 16.2673 17.072C16.342 17.1053 16.4227 17.1232 16.5045 17.1247C16.5863 17.1261 16.6676 17.1111 16.7435 17.0804C16.8194 17.0498 16.8883 17.0041 16.9462 16.9463C17.004 16.8884 17.0496 16.8195 17.0803 16.7436C17.1109 16.6677 17.126 16.5865 17.1245 16.5046C17.1231 16.4228 17.1052 16.3421 17.0719 16.2674C17.0386 16.1926 16.9906 16.1253 16.9307 16.0696Z" fill="black"></path>
                        </svg>