<svg xmlns="http://www.w3.org/2000/svg" width="20" height="20" viewBox="0 0 20 20" fill="none">
                                        <path fill-rule="evenodd" clip-rule="evenodd" d="M4.41086 6.91098C4.25463 7.06725 4.16687 7.27918 4.16687 7.50015C4.16687 7.72112 4.25463 7.93304 4.41086 8.08931L9.41086 13.0893C9.56713 13.2455 9.77906 13.3333 10 13.3333C10.221 13.3333 10.4329 13.2455 10.5892 13.0893L15.5892 8.08931C15.741 7.93215 15.825 7.72164 15.8231 7.50315C15.8212 7.28465 15.7335 7.07564 15.579 6.92113C15.4245 6.76663 15.2155 6.67898 14.997 6.67709C14.7785 6.67519 14.568 6.75918 14.4109 6.91098L10 11.3218L5.58919 6.91098C5.43292 6.75476 5.221 6.66699 5.00003 6.66699C4.77906 6.66699 4.56713 6.75476 4.41086 6.91098Z" fill="currentColor"></path>
                                    </svg>