<svg xmlns="http://www.w3.org/2000/svg" width="28" height="28" viewBox="0 0 28 28">
                                                    <path d="M13.5264 20.4167C13.5262 21.5727 13.8127 22.7108 14.3605 23.7288C14.9082 24.7469 15.6999 25.6132 16.6647 26.25H4.50225C4.08859 26.2504 3.67958 26.1628 3.30243 25.9929C2.92529 25.8229 2.58865 25.5746 2.31493 25.2645C2.04121 24.9544 1.83667 24.5895 1.71494 24.1941C1.59321 23.7988 1.55706 23.3821 1.60892 22.9717L3.35892 8.97167C3.44705 8.26638 3.78969 7.61755 4.32247 7.14708C4.85524 6.6766 5.54148 6.41687 6.25225 6.41667H7.69308V9.91667C7.69308 10.0714 7.75454 10.2197 7.86394 10.3291C7.97333 10.4385 8.12171 10.5 8.27642 10.5C8.43112 10.5 8.5795 10.4385 8.68889 10.3291C8.79829 10.2197 8.85975 10.0714 8.85975 9.91667V6.41667H15.8597V9.91667C15.8597 10.0714 15.9212 10.2197 16.0306 10.3291C16.14 10.4385 16.2884 10.5 16.4431 10.5C16.5978 10.5 16.7462 10.4385 16.8556 10.3291C16.965 10.2197 17.0264 10.0714 17.0264 9.91667V6.41667H18.4672C19.178 6.41687 19.8643 6.6766 20.397 7.14708C20.9298 7.61755 21.2724 8.26638 21.3606 8.97167L21.9322 13.5567C20.9149 13.3503 19.8645 13.3723 18.8567 13.6212C17.8489 13.8702 16.909 14.3397 16.1048 14.9961C15.3006 15.6524 14.6521 16.4791 14.2062 17.4165C13.7603 18.3539 13.5281 19.3786 13.5264 20.4167ZM17.0264 6.41667H15.8597C15.8597 5.48841 15.491 4.59817 14.8346 3.94179C14.1782 3.28542 13.288 2.91667 12.3597 2.91667C11.4315 2.91667 10.5413 3.28542 9.88487 3.94179C9.2285 4.59817 8.85975 5.48841 8.85975 6.41667H7.69308C7.69308 5.17899 8.18475 3.992 9.05992 3.11683C9.93509 2.24167 11.1221 1.75 12.3597 1.75C13.5974 1.75 14.7844 2.24167 15.6596 3.11683C16.5347 3.992 17.0264 5.17899 17.0264 6.41667Z" fill="currentColor"></path>
                                                    <path d="M20.5264 14.5834C19.3727 14.5834 18.2449 14.9255 17.2856 15.5665C16.3263 16.2074 15.5786 17.1185 15.1371 18.1844C14.6956 19.2503 14.5801 20.4232 14.8052 21.5547C15.0303 22.6863 15.5858 23.7257 16.4016 24.5415C17.2174 25.3573 18.2568 25.9129 19.3884 26.138C20.5199 26.363 21.6928 26.2475 22.7587 25.806C23.8246 25.3645 24.7357 24.6168 25.3767 23.6575C26.0176 22.6982 26.3598 21.5704 26.3598 20.4167C26.3581 18.8701 25.7429 17.3874 24.6493 16.2938C23.5557 15.2002 22.073 14.5851 20.5264 14.5834ZM22.2764 21H21.1098V22.1667C21.1098 22.3214 21.0483 22.4698 20.9389 22.5792C20.8295 22.6886 20.6811 22.75 20.5264 22.75C20.3717 22.75 20.2233 22.6886 20.1139 22.5792C20.0045 22.4698 19.9431 22.3214 19.9431 22.1667V21H18.7764C18.6217 21 18.4733 20.9386 18.3639 20.8292C18.2545 20.7198 18.1931 20.5714 18.1931 20.4167C18.1931 20.262 18.2545 20.1136 18.3639 20.0042C18.4733 19.8948 18.6217 19.8334 18.7764 19.8334H19.9431V18.6667C19.9431 18.512 20.0045 18.3636 20.1139 18.2542C20.2233 18.1448 20.3717 18.0834 20.5264 18.0834C20.6811 18.0834 20.8295 18.1448 20.9389 18.2542C21.0483 18.3636 21.1098 18.512 21.1098 18.6667V19.8334H22.2764C22.4311 19.8334 22.5795 19.8948 22.6889 20.0042C22.7983 20.1136 22.8598 20.262 22.8598 20.4167C22.8598 20.5714 22.7983 20.7198 22.6889 20.8292C22.5795 20.9386 22.4311 21 22.2764 21Z" fill="currentColor"></path>
                                                </svg>