<svg xmlns="http://www.w3.org/2000/svg" width="18" height="13" viewBox="0 0 18 13" fill="none">
                                        <path d="M9.01754 0.400994C11.2584 0.400994 13.4948 0.396994 15.7357 0.404993C16.0287 0.404993 16.3263 0.43299 16.6104 0.488984C17.1199 0.592973 17.4716 0.880942 17.6925 1.2969C17.8864 1.66086 17.8232 1.86084 17.4445 2.07281C16.953 2.34878 16.4571 2.62075 15.9656 2.89672C13.8194 4.10859 11.6732 5.31246 9.53606 6.53233C9.1483 6.75631 8.8417 6.74831 8.45394 6.52833C5.85236 5.04449 3.23726 3.58065 0.626658 2.10881C0.572552 2.07681 0.513938 2.04882 0.464341 2.01682C0.207339 1.86084 0.157742 1.73685 0.247918 1.47688C0.46885 0.836947 1.01892 0.464987 1.826 0.424991C2.15063 0.408993 2.47527 0.408993 2.79539 0.404993C4.86944 0.404993 6.94349 0.404993 9.01754 0.400994Z" fill="#ffffff"></path>
                                        <path d="M8.98044 12.396C6.7035 12.396 4.43106 12.4 2.15411 12.392C1.87006 12.392 1.57698 12.364 1.30195 12.296C0.747364 12.156 0.404695 11.8081 0.237869 11.3241C0.152202 11.0721 0.201799 10.9481 0.4588 10.8042C2.5599 9.63229 4.66101 8.46042 6.76211 7.28854C6.98304 7.16456 7.2175 7.16456 7.43843 7.28054C7.83521 7.48852 8.22296 7.7045 8.61072 7.92447C8.93085 8.10845 9.06611 8.11245 9.37722 7.93247C9.78752 7.6965 10.2023 7.46852 10.6126 7.23255C10.8336 7.10456 11.0319 7.14456 11.2348 7.26055C11.9067 7.6445 12.5785 8.02446 13.2548 8.40442C14.6345 9.18034 16.0187 9.94826 17.3984 10.7242C17.8222 10.9601 17.8898 11.1561 17.6824 11.5521C17.3984 12.088 16.8844 12.316 16.2577 12.384C16.0998 12.4 15.942 12.4 15.7842 12.4C13.5163 12.396 11.2484 12.396 8.98044 12.396Z" fill="#ffffff"></path>
                                        <path d="M0.23359 9.61629C0.23359 7.46453 0.23359 5.34876 0.23359 3.19699C2.13631 4.27287 4.01197 5.32876 5.91919 6.40464C4.01648 7.48052 2.14081 8.54041 0.23359 9.61629Z" fill="#ffffff"></path>
                                        <path d="M12.096 6.40464C13.9942 5.33276 15.8699 4.27287 17.7726 3.19699C17.7726 5.34076 17.7726 7.45253 17.7726 9.6083C15.8744 8.54041 13.9987 7.48053 12.096 6.40464Z" fill="#ffffff"></path>
                                    </svg>