<svg xmlns="http://www.w3.org/2000/svg" width="16" height="16" viewBox="0 0 16 16" fill="none">
                                        <path d="M3.2303 6.92509C4.54459 9.4459 6.41125 11.3579 8.87792 12.6706C8.98268 12.7277 9.2303 12.6611 9.33506 12.566C9.89697 12.0333 10.4494 11.4911 10.9827 10.9298C11.2779 10.6159 11.6017 10.5684 12.0113 10.6445C12.9827 10.8157 13.9636 10.9869 14.9446 11.1011C15.7255 11.1962 16.0017 11.453 16.0017 12.2521C16.0017 13.1082 16.0017 13.9548 16.0017 14.8109C16.0017 15.7336 15.7065 16.019 14.7636 16C8.05887 15.8858 2.05887 11.1296 0.477921 4.60404C0.20173 3.45303 0.116016 2.24495 0.0112543 1.05589C-0.0554124 0.351962 0.335064 0.00951249 1.03983 0.00951249C1.97316 0 2.90649 0 3.83983 0C4.52554 0 4.81125 0.313912 4.89697 0.998811C5.0303 2.00713 5.21125 3.01546 5.40173 4.01427C5.47792 4.44233 5.40173 4.78478 5.08745 5.08918C4.45887 5.69798 3.84935 6.30678 3.2303 6.92509Z" fill="#ffffff"></path>
                                    </svg>