<svg xmlns="http://www.w3.org/2000/svg" version="1.1" width="81" height="130" viewBox="0 0 130 130"><rect x="0" y="0" width="130" height="130" fill="#ffffff"></rect><g transform="scale(4.483)"><g transform="translate(0,0)"><path fill-rule="evenodd" d="M8 0L8 1L9 1L9 2L8 2L8 5L9 5L9 4L11 4L11 5L10 5L10 10L9 10L9 8L8 8L8 9L7 9L7 8L6 8L6 9L7 9L7 10L6 10L6 11L5 11L5 10L4 10L4 8L0 8L0 9L2 9L2 11L1 11L1 10L0 10L0 12L1 12L1 15L0 15L0 17L1 17L1 16L2 16L2 17L4 17L4 19L3 19L3 18L2 18L2 19L3 19L3 20L4 20L4 19L7 19L7 20L5 20L5 21L8 21L8 22L9 22L9 21L8 21L8 19L7 19L7 18L9 18L9 17L10 17L10 18L11 18L11 17L10 17L10 16L12 16L12 17L13 17L13 16L12 16L12 14L13 14L13 15L14 15L14 18L13 18L13 21L15 21L15 19L17 19L17 20L16 20L16 22L17 22L17 23L15 23L15 22L14 22L14 23L9 23L9 25L8 25L8 29L10 29L10 28L11 28L11 29L12 29L12 28L14 28L14 27L15 27L15 26L17 26L17 27L16 27L16 28L17 28L17 27L19 27L19 28L18 28L18 29L23 29L23 27L24 27L24 28L25 28L25 29L26 29L26 27L27 27L27 29L28 29L28 27L29 27L29 25L28 25L28 27L27 27L27 26L26 26L26 25L27 25L27 24L26 24L26 22L27 22L27 23L28 23L28 24L29 24L29 23L28 23L28 22L29 22L29 21L27 21L27 18L28 18L28 15L29 15L29 13L27 13L27 12L25 12L25 11L24 11L24 12L25 12L25 13L26 13L26 15L27 15L27 17L26 17L26 16L25 16L25 15L24 15L24 17L23 17L23 19L21 19L21 20L20 20L20 22L17 22L17 21L19 21L19 19L18 19L18 17L19 17L19 15L20 15L20 18L22 18L22 16L21 16L21 15L20 15L20 14L23 14L23 13L20 13L20 12L21 12L21 11L22 11L22 10L25 10L25 9L27 9L27 8L24 8L24 9L22 9L22 8L21 8L21 5L20 5L20 3L21 3L21 2L20 2L20 3L19 3L19 1L21 1L21 0L17 0L17 2L15 2L15 3L14 3L14 5L13 5L13 3L12 3L12 4L11 4L11 2L14 2L14 0L12 0L12 1L11 1L11 0L10 0L10 1L9 1L9 0ZM15 0L15 1L16 1L16 0ZM17 2L17 3L18 3L18 2ZM17 4L17 5L14 5L14 6L13 6L13 5L12 5L12 6L11 6L11 8L12 8L12 6L13 6L13 8L14 8L14 9L15 9L15 10L14 10L14 11L11 11L11 13L10 13L10 14L9 14L9 16L7 16L7 15L5 15L5 14L8 14L8 13L5 13L5 12L3 12L3 11L2 11L2 12L3 12L3 13L2 13L2 15L3 15L3 14L4 14L4 16L5 16L5 18L7 18L7 17L9 17L9 16L10 16L10 14L11 14L11 13L12 13L12 12L13 12L13 14L14 14L14 15L16 15L16 16L15 16L15 17L16 17L16 18L17 18L17 17L18 17L18 15L19 15L19 12L20 12L20 10L19 10L19 9L17 9L17 10L16 10L16 6L17 6L17 7L18 7L18 6L17 6L17 5L19 5L19 4ZM8 6L8 7L9 7L9 6ZM14 6L14 7L15 7L15 6ZM19 6L19 7L20 7L20 6ZM20 8L20 9L21 9L21 8ZM28 8L28 10L26 10L26 11L28 11L28 12L29 12L29 11L28 11L28 10L29 10L29 8ZM11 9L11 10L12 10L12 9ZM7 10L7 11L6 11L6 12L7 12L7 11L8 11L8 12L9 12L9 11L8 11L8 10ZM17 10L17 11L16 11L16 12L17 12L17 13L15 13L15 12L14 12L14 14L16 14L16 15L17 15L17 13L18 13L18 12L17 12L17 11L18 11L18 10ZM4 13L4 14L5 14L5 13ZM6 16L6 17L7 17L7 16ZM16 16L16 17L17 17L17 16ZM24 17L24 18L25 18L25 19L24 19L24 20L26 20L26 18L25 18L25 17ZM0 18L0 19L1 19L1 18ZM9 19L9 20L10 20L10 19ZM11 19L11 20L12 20L12 19ZM1 20L1 21L2 21L2 20ZM10 21L10 22L11 22L11 21ZM21 21L21 24L24 24L24 21ZM22 22L22 23L23 23L23 22ZM17 23L17 24L18 24L18 25L17 25L17 26L20 26L20 27L21 27L21 28L22 28L22 27L23 27L23 25L22 25L22 26L21 26L21 25L20 25L20 23ZM12 24L12 26L10 26L10 27L11 27L11 28L12 28L12 26L13 26L13 27L14 27L14 26L15 26L15 24ZM25 24L25 25L26 25L26 24ZM13 25L13 26L14 26L14 25ZM24 26L24 27L26 27L26 26ZM0 0L0 7L7 7L7 0ZM1 1L1 6L6 6L6 1ZM2 2L2 5L5 5L5 2ZM22 0L22 7L29 7L29 0ZM23 1L23 6L28 6L28 1ZM24 2L24 5L27 5L27 2ZM0 22L0 29L7 29L7 22ZM1 23L1 28L6 28L6 23ZM2 24L2 27L5 27L5 24Z" fill="#000000"></path></g></g></svg>