<svg xmlns="http://www.w3.org/2000/svg" width="20" height="16" viewBox="0 0 20 16" fill="none">
                                        <g clip-path="url(#clip0_4330_5418)">
                                            <path d="M0.650877 16C0.570239 15.8532 0.441217 15.7141 0.417026 15.5596C0.376707 15.2815 0.417026 14.9956 0.400898 14.7175C0.392834 14.4626 0.505728 14.3312 0.779899 14.3389C0.860537 14.3389 0.941175 14.3389 1.02181 14.3389C7.01325 14.3389 12.9966 14.3389 18.988 14.3467C19.1896 14.3467 19.3912 14.4239 19.5928 14.4626C19.5928 14.9725 19.5928 15.4901 19.5928 16C13.2869 16 6.96486 16 0.650877 16Z" fill="#ffffff"></path>
                                            <path d="M10.0207 6.55143C12.1738 6.55143 14.3268 6.55143 16.4879 6.55143C17.7056 6.55143 18.3023 7.13086 18.3104 8.30517C18.3104 8.32062 18.3104 8.32835 18.3104 8.3438C18.4555 9.02366 18.1249 9.40995 17.4959 9.67263C16.8589 9.9353 16.246 9.98938 15.6896 9.53356C15.4154 9.30952 15.1896 9.03912 14.9639 8.76871C14.6655 8.42106 14.3833 8.41333 14.0768 8.75326C13.8752 8.97731 13.6736 9.20136 13.4479 9.3945C12.8108 9.94303 12.1093 10.0048 11.3916 9.56447C11.069 9.3636 10.7787 9.10865 10.4965 8.8537C10.1094 8.50604 9.94009 8.50604 9.56109 8.86915C9.34336 9.07774 9.11757 9.27861 8.8676 9.44858C8.02089 10.0357 7.25483 9.99711 6.46457 9.34815C6.34361 9.24771 6.23072 9.13955 6.12589 9.02366C5.58561 8.42878 5.47272 8.42878 4.93244 9.04684C4.19863 9.88122 3.27129 10.0666 2.23912 9.61855C1.83593 9.44085 1.68272 9.17045 1.72303 8.76871C1.74723 8.57557 1.77142 8.38243 1.74723 8.19701C1.61014 7.24674 2.40846 6.53598 3.44063 6.5437C5.62593 6.56688 7.8193 6.55143 10.0207 6.55143Z" fill="#ffffff"></path>
                                            <path d="M18.1493 13.296C12.7223 13.296 7.31954 13.296 1.89258 13.296C1.89258 12.4848 1.89258 11.6736 1.89258 10.8315C3.23924 11.2641 4.41656 10.986 5.38422 9.98939C6.99699 11.4727 8.48073 11.2719 10.0371 9.94304C11.9643 11.55 13.3513 11.1792 14.6657 9.91986C15.1092 10.3757 15.593 10.7929 16.2543 10.9551C16.9074 11.1174 17.5203 10.986 18.1654 10.7233C18.1493 11.5886 18.1493 12.423 18.1493 13.296Z" fill="#ffffff"></path>
                                            <path d="M8.86725 5.82522C8.86725 5.06038 8.85919 4.31098 8.87531 3.55386C8.88338 3.30664 9.06885 3.15985 9.33495 3.15985C9.77846 3.15212 10.222 3.15212 10.6574 3.15985C10.9638 3.15985 11.1413 3.32981 11.1413 3.61566C11.1574 4.34188 11.1493 5.07583 11.1493 5.82522C10.3833 5.82522 9.64138 5.82522 8.86725 5.82522Z" fill="#ffffff"></path>
                                            <path d="M10.0116 0C10.2052 0.339932 10.431 0.726219 10.6487 1.12023C10.7455 1.29792 10.8745 1.47562 10.9309 1.66876C11.0519 2.09367 10.8583 2.55722 10.5116 2.74264C10.1649 2.92805 9.63264 2.87397 9.35041 2.62675C9.05205 2.35635 8.95528 1.83873 9.16494 1.46016C9.43911 0.950265 9.73747 0.455818 10.0116 0Z" fill="#ffffff"></path>
                                        </g>
                                        <defs>
                                            <clipPath id="clip0_4330_5418">
                                                <rect width="19.2" height="16" fill="white" transform="translate(0.400391)"></rect>
                                            </clipPath>
                                        </defs>
                                    </svg>