<svg width="25" height="25" viewBox="0 0 25 25" fill="none" xmlns="http://www.w3.org/2000/svg">
                            <path d="M15.4135 0.540405H22.4891C23.5721 0.540405 24.4602 1.42855 24.4602 2.51152V9.58713C24.4602 10.6773 23.5732 11.5582 22.4891 11.5582H15.4135C14.3223 11.5582 13.4424 10.6783 13.4424 9.58713V2.51152C13.4424 1.42746 14.3234 0.540405 15.4135 0.540405Z" stroke="#ffffff"></path>
                            <path d="M2.97143 0.5H8.74589C10.1129 0.5 11.2173 1.6122 11.2173 2.97143V8.74589C11.2173 10.1139 10.1139 11.2173 8.74589 11.2173H2.97143C1.6122 11.2173 0.5 10.1129 0.5 8.74589V2.97143C0.5 1.61328 1.61328 0.5 2.97143 0.5Z" stroke="#ffffff"></path>
                            <path d="M2.97143 13.7828H8.74589C10.1139 13.7828 11.2173 14.8862 11.2173 16.2543V22.0287C11.2173 23.388 10.1129 24.5002 8.74589 24.5002H2.97143C1.61328 24.5002 0.5 23.3869 0.5 22.0287V16.2543C0.5 14.8873 1.6122 13.7828 2.97143 13.7828Z" stroke="#ffffff"></path>
                            <path d="M16.2537 13.7828H22.0281C23.3873 13.7828 24.4995 14.8873 24.4995 16.2543V22.0287C24.4995 23.3869 23.3863 24.5002 22.0281 24.5002H16.2537C14.8867 24.5002 13.7822 23.388 13.7822 22.0287V16.2543C13.7822 14.8862 14.8856 13.7828 16.2537 13.7828Z" stroke="#ffffff"></path>
                        </svg>