<svg xmlns="http://www.w3.org/2000/svg" version="1.1" width="146" height="146" viewBox="0 0 146 146"><rect x="0" y="0" width="146" height="146" fill="#ffffff"></rect><g transform="scale(5.034)"><g transform="translate(0,0)"><path fill-rule="evenodd" d="M8 0L8 1L11 1L11 3L10 3L10 2L9 2L9 3L10 3L10 5L9 5L9 6L8 6L8 8L9 8L9 9L8 9L8 10L6 10L6 9L7 9L7 8L6 8L6 9L5 9L5 8L3 8L3 10L0 10L0 15L2 15L2 16L3 16L3 17L5 17L5 18L4 18L4 19L3 19L3 18L1 18L1 16L0 16L0 21L2 21L2 20L3 20L3 21L7 21L7 20L8 20L8 22L9 22L9 20L8 20L8 18L6 18L6 17L8 17L8 15L9 15L9 13L10 13L10 15L11 15L11 12L9 12L9 11L10 11L10 10L11 10L11 9L10 9L10 7L11 7L11 6L12 6L12 9L13 9L13 10L12 10L12 11L13 11L13 10L14 10L14 12L15 12L15 13L14 13L14 16L13 16L13 15L12 15L12 16L11 16L11 18L12 18L12 19L11 19L11 21L12 21L12 22L10 22L10 23L9 23L9 24L8 24L8 26L10 26L10 27L8 27L8 29L9 29L9 28L10 28L10 29L11 29L11 28L12 28L12 27L14 27L14 26L15 26L15 27L16 27L16 28L14 28L14 29L16 29L16 28L17 28L17 27L16 27L16 26L17 26L17 24L18 24L18 23L19 23L19 27L18 27L18 28L19 28L19 29L21 29L21 28L22 28L22 29L23 29L23 28L22 28L22 25L26 25L26 24L25 24L25 23L26 23L26 21L28 21L28 20L27 20L27 19L26 19L26 18L28 18L28 19L29 19L29 18L28 18L28 17L26 17L26 16L27 16L27 14L28 14L28 16L29 16L29 11L28 11L28 13L24 13L24 11L25 11L25 12L26 12L26 11L27 11L27 10L28 10L28 9L29 9L29 8L28 8L28 9L26 9L26 11L25 11L25 9L23 9L23 8L22 8L22 9L23 9L23 10L24 10L24 11L23 11L23 12L22 12L22 13L21 13L21 10L20 10L20 8L21 8L21 5L20 5L20 4L21 4L21 2L20 2L20 1L19 1L19 0L18 0L18 1L19 1L19 2L20 2L20 3L17 3L17 1L16 1L16 3L15 3L15 2L14 2L14 1L15 1L15 0L13 0L13 1L12 1L12 0ZM12 2L12 4L13 4L13 5L12 5L12 6L13 6L13 7L14 7L14 5L15 5L15 7L16 7L16 10L18 10L18 11L20 11L20 10L18 10L18 9L19 9L19 8L20 8L20 5L18 5L18 4L17 4L17 7L16 7L16 4L15 4L15 3L14 3L14 4L13 4L13 2ZM10 5L10 6L9 6L9 7L10 7L10 6L11 6L11 5ZM18 6L18 7L19 7L19 6ZM0 8L0 9L2 9L2 8ZM13 8L13 9L14 9L14 8ZM17 8L17 9L18 9L18 8ZM4 9L4 10L3 10L3 12L2 12L2 11L1 11L1 13L3 13L3 15L4 15L4 16L5 16L5 17L6 17L6 16L7 16L7 15L6 15L6 16L5 16L5 15L4 15L4 12L7 12L7 13L6 13L6 14L7 14L7 13L9 13L9 12L8 12L8 11L9 11L9 10L10 10L10 9L9 9L9 10L8 10L8 11L6 11L6 10L5 10L5 9ZM4 10L4 11L5 11L5 10ZM15 11L15 12L16 12L16 11ZM17 12L17 13L19 13L19 14L20 14L20 15L18 15L18 14L16 14L16 15L15 15L15 16L14 16L14 17L12 17L12 18L13 18L13 19L12 19L12 21L13 21L13 19L14 19L14 21L16 21L16 19L17 19L17 20L18 20L18 21L19 21L19 22L20 22L20 20L21 20L21 19L22 19L22 18L23 18L23 20L24 20L24 17L25 17L25 18L26 18L26 17L25 17L25 16L26 16L26 14L25 14L25 16L24 16L24 14L22 14L22 15L23 15L23 16L21 16L21 14L20 14L20 12ZM12 13L12 14L13 14L13 13ZM9 16L9 18L10 18L10 16ZM20 16L20 17L17 17L17 18L19 18L19 20L20 20L20 19L21 19L21 18L22 18L22 17L21 17L21 16ZM15 17L15 19L16 19L16 17ZM5 18L5 20L7 20L7 19L6 19L6 18ZM21 21L21 24L24 24L24 21ZM12 22L12 23L13 23L13 22ZM14 22L14 25L16 25L16 24L17 24L17 22L16 22L16 23L15 23L15 22ZM22 22L22 23L23 23L23 22ZM27 23L27 25L28 25L28 26L26 26L26 27L25 27L25 26L23 26L23 27L24 27L24 29L26 29L26 28L27 28L27 27L28 27L28 28L29 28L29 25L28 25L28 24L29 24L29 23ZM10 24L10 25L11 25L11 26L13 26L13 25L11 25L11 24ZM20 25L20 28L21 28L21 25ZM10 27L10 28L11 28L11 27ZM0 0L0 7L7 7L7 0ZM1 1L1 6L6 6L6 1ZM2 2L2 5L5 5L5 2ZM22 0L22 7L29 7L29 0ZM23 1L23 6L28 6L28 1ZM24 2L24 5L27 5L27 2ZM0 22L0 29L7 29L7 22ZM1 23L1 28L6 28L6 23ZM2 24L2 27L5 27L5 24Z" fill="#000000"></path></g></g></svg>