<svg xmlns="http://www.w3.org/2000/svg" version="1.1" width="130" height="130" viewBox="0 0 130 130"><rect x="0" y="0" width="130" height="130" fill="#ffffff"></rect><g transform="scale(4.483)"><g transform="translate(0,0)"><path fill-rule="evenodd" d="M10 0L10 2L11 2L11 0ZM12 0L12 1L13 1L13 2L12 2L12 4L13 4L13 3L14 3L14 4L16 4L16 5L15 5L15 6L14 6L14 8L15 8L15 9L12 9L12 7L13 7L13 5L11 5L11 6L10 6L10 4L11 4L11 3L8 3L8 4L9 4L9 5L8 5L8 7L9 7L9 8L6 8L6 9L5 9L5 8L0 8L0 9L3 9L3 10L4 10L4 11L5 11L5 12L6 12L6 13L4 13L4 12L2 12L2 11L1 11L1 10L0 10L0 13L1 13L1 12L2 12L2 13L3 13L3 14L2 14L2 15L1 15L1 14L0 14L0 15L1 15L1 16L0 16L0 21L1 21L1 18L2 18L2 19L4 19L4 20L3 20L3 21L7 21L7 20L8 20L8 23L9 23L9 24L8 24L8 29L11 29L11 28L9 28L9 24L10 24L10 27L11 27L11 25L12 25L12 26L13 26L13 27L12 27L12 29L13 29L13 28L14 28L14 29L15 29L15 28L17 28L17 29L20 29L20 28L21 28L21 27L22 27L22 29L27 29L27 28L28 28L28 26L29 26L29 25L27 25L27 24L28 24L28 23L27 23L27 22L29 22L29 20L28 20L28 19L27 19L27 16L28 16L28 15L27 15L27 14L25 14L25 13L27 13L27 12L28 12L28 11L27 11L27 12L26 12L26 11L25 11L25 9L26 9L26 8L25 8L25 9L24 9L24 8L23 8L23 9L22 9L22 8L21 8L21 9L18 9L18 10L17 10L17 9L16 9L16 7L17 7L17 6L18 6L18 7L19 7L19 8L20 8L20 7L21 7L21 4L20 4L20 3L21 3L21 0L17 0L17 1L16 1L16 0L15 0L15 1L14 1L14 0ZM8 1L8 2L9 2L9 1ZM17 1L17 2L14 2L14 3L19 3L19 2L20 2L20 1ZM18 5L18 6L19 6L19 7L20 7L20 5ZM9 6L9 7L10 7L10 6ZM11 6L11 7L12 7L12 6ZM15 6L15 7L16 7L16 6ZM10 8L10 9L9 9L9 11L8 11L8 10L7 10L7 9L6 9L6 10L5 10L5 9L4 9L4 10L5 10L5 11L6 11L6 12L7 12L7 11L8 11L8 13L6 13L6 14L8 14L8 15L6 15L6 16L5 16L5 14L4 14L4 15L2 15L2 16L3 16L3 18L4 18L4 16L5 16L5 19L6 19L6 20L7 20L7 19L8 19L8 20L10 20L10 21L9 21L9 22L10 22L10 24L11 24L11 22L13 22L13 23L12 23L12 25L15 25L15 24L16 24L16 25L17 25L17 24L18 24L18 25L19 25L19 26L18 26L18 27L17 27L17 28L18 28L18 27L21 27L21 26L25 26L25 25L26 25L26 24L27 24L27 23L25 23L25 25L21 25L21 26L20 26L20 24L19 24L19 23L18 23L18 21L19 21L19 22L20 22L20 21L19 21L19 20L20 20L20 19L21 19L21 20L22 20L22 19L23 19L23 20L24 20L24 19L23 19L23 18L22 18L22 17L23 17L23 16L24 16L24 17L25 17L25 21L26 21L26 20L27 20L27 19L26 19L26 17L25 17L25 16L27 16L27 15L25 15L25 16L24 16L24 14L23 14L23 15L21 15L21 14L22 14L22 13L25 13L25 11L23 11L23 10L19 10L19 11L17 11L17 10L16 10L16 9L15 9L15 10L16 10L16 11L14 11L14 12L13 12L13 13L12 13L12 11L13 11L13 10L12 10L12 9L11 9L11 8ZM27 8L27 9L28 9L28 10L29 10L29 9L28 9L28 8ZM10 9L10 11L11 11L11 9ZM6 10L6 11L7 11L7 10ZM16 11L16 12L14 12L14 13L16 13L16 14L15 14L15 15L14 15L14 16L15 16L15 15L16 15L16 16L17 16L17 17L16 17L16 18L15 18L15 17L12 17L12 15L13 15L13 14L11 14L11 17L9 17L9 16L10 16L10 15L9 15L9 16L6 16L6 17L7 17L7 18L6 18L6 19L7 19L7 18L11 18L11 17L12 17L12 18L13 18L13 19L12 19L12 21L13 21L13 20L14 20L14 21L16 21L16 22L15 22L15 23L14 23L14 24L15 24L15 23L17 23L17 21L18 21L18 20L17 20L17 21L16 21L16 19L17 19L17 17L18 17L18 18L21 18L21 17L18 17L18 16L19 16L19 15L18 15L18 16L17 16L17 15L16 15L16 14L20 14L20 12L23 12L23 11L19 11L19 13L18 13L18 12L17 12L17 11ZM9 12L9 13L11 13L11 12ZM28 13L28 14L29 14L29 13ZM20 15L20 16L21 16L21 15ZM28 17L28 18L29 18L29 17ZM10 19L10 20L11 20L11 19ZM14 19L14 20L15 20L15 19ZM21 21L21 24L24 24L24 21ZM22 22L22 23L23 23L23 22ZM14 27L14 28L15 28L15 27ZM23 27L23 28L24 28L24 27ZM26 27L26 28L27 28L27 27ZM0 0L0 7L7 7L7 0ZM1 1L1 6L6 6L6 1ZM2 2L2 5L5 5L5 2ZM22 0L22 7L29 7L29 0ZM23 1L23 6L28 6L28 1ZM24 2L24 5L27 5L27 2ZM0 22L0 29L7 29L7 22ZM1 23L1 28L6 28L6 23ZM2 24L2 27L5 27L5 24Z" fill="#000000"></path></g></g></svg>