<svg xmlns="http://www.w3.org/2000/svg" version="1.1" width="124" height="124" viewBox="0 0 130 130"><rect x="0" y="0" width="130" height="130" fill="#ffffff"></rect><g transform="scale(4.483)"><g transform="translate(0,0)"><path fill-rule="evenodd" d="M10 0L10 2L11 2L11 0ZM12 0L12 1L13 1L13 0ZM16 0L16 1L14 1L14 3L13 3L13 2L12 2L12 4L13 4L13 5L11 5L11 6L10 6L10 4L11 4L11 3L8 3L8 4L9 4L9 5L8 5L8 7L9 7L9 8L6 8L6 9L5 9L5 8L0 8L0 9L1 9L1 10L3 10L3 9L4 9L4 10L5 10L5 11L4 11L4 12L6 12L6 13L7 13L7 14L4 14L4 15L7 15L7 14L9 14L9 13L11 13L11 14L12 14L12 15L9 15L9 16L5 16L5 17L4 17L4 18L3 18L3 17L2 17L2 16L1 16L1 15L0 15L0 16L1 16L1 17L0 17L0 21L1 21L1 18L2 18L2 21L4 21L4 20L6 20L6 21L8 21L8 23L9 23L9 22L10 22L10 21L9 21L9 20L11 20L11 18L12 18L12 17L11 17L11 16L13 16L13 17L14 17L14 18L13 18L13 19L12 19L12 21L11 21L11 22L12 22L12 21L14 21L14 22L13 22L13 23L10 23L10 24L8 24L8 29L9 29L9 25L10 25L10 26L12 26L12 27L11 27L11 28L12 28L12 27L13 27L13 26L14 26L14 28L13 28L13 29L15 29L15 28L17 28L17 29L18 29L18 28L17 28L17 27L16 27L16 26L14 26L14 24L17 24L17 25L18 25L18 27L19 27L19 29L20 29L20 28L21 28L21 27L22 27L22 29L27 29L27 28L28 28L28 26L29 26L29 25L28 25L28 23L27 23L27 22L29 22L29 20L28 20L28 19L27 19L27 16L28 16L28 15L27 15L27 14L25 14L25 13L27 13L27 12L28 12L28 11L27 11L27 12L26 12L26 11L25 11L25 9L26 9L26 8L25 8L25 9L24 9L24 8L23 8L23 9L22 9L22 8L21 8L21 9L19 9L19 10L17 10L17 9L18 9L18 8L17 8L17 6L18 6L18 7L19 7L19 8L20 8L20 7L21 7L21 4L20 4L20 3L21 3L21 0ZM8 1L8 2L9 2L9 1ZM17 1L17 3L19 3L19 2L20 2L20 1ZM14 4L14 5L16 5L16 6L15 6L15 7L14 7L14 6L13 6L13 7L12 7L12 6L11 6L11 7L12 7L12 8L15 8L15 9L13 9L13 10L14 10L14 11L12 11L12 9L11 9L11 8L10 8L10 9L9 9L9 11L6 11L6 12L11 12L11 13L12 13L12 14L13 14L13 16L14 16L14 14L16 14L16 15L15 15L15 18L14 18L14 19L13 19L13 20L15 20L15 22L14 22L14 23L13 23L13 24L14 24L14 23L15 23L15 22L16 22L16 21L17 21L17 20L18 20L18 21L19 21L19 22L20 22L20 21L19 21L19 20L20 20L20 19L21 19L21 20L22 20L22 19L23 19L23 20L24 20L24 19L23 19L23 18L22 18L22 17L23 17L23 16L24 16L24 17L25 17L25 21L26 21L26 20L27 20L27 19L26 19L26 17L25 17L25 16L27 16L27 15L25 15L25 16L24 16L24 14L23 14L23 15L21 15L21 14L22 14L22 13L25 13L25 11L23 11L23 10L19 10L19 11L17 11L17 10L16 10L16 9L17 9L17 8L15 8L15 7L16 7L16 6L17 6L17 5L16 5L16 4ZM18 5L18 6L19 6L19 7L20 7L20 5ZM9 6L9 7L10 7L10 6ZM27 8L27 9L28 9L28 10L29 10L29 9L28 9L28 8ZM6 9L6 10L7 10L7 9ZM10 9L10 11L11 11L11 9ZM15 10L15 11L14 11L14 12L12 12L12 13L16 13L16 14L17 14L17 15L16 15L16 16L17 16L17 17L16 17L16 18L15 18L15 20L16 20L16 19L19 19L19 18L21 18L21 17L18 17L18 16L17 16L17 15L18 15L18 14L20 14L20 12L23 12L23 11L19 11L19 13L18 13L18 12L17 12L17 11L16 11L16 10ZM0 11L0 14L2 14L2 15L3 15L3 14L2 14L2 13L1 13L1 11ZM15 11L15 12L16 12L16 13L17 13L17 12L16 12L16 11ZM28 13L28 14L29 14L29 13ZM20 15L20 16L21 16L21 15ZM9 16L9 18L10 18L10 16ZM5 17L5 18L4 18L4 19L6 19L6 20L9 20L9 19L8 19L8 18L7 18L7 17ZM17 17L17 18L18 18L18 17ZM28 17L28 18L29 18L29 17ZM6 18L6 19L7 19L7 18ZM21 21L21 24L24 24L24 21ZM17 22L17 24L18 24L18 25L19 25L19 27L21 27L21 26L25 26L25 25L26 25L26 24L27 24L27 23L25 23L25 25L21 25L21 26L20 26L20 24L19 24L19 23L18 23L18 22ZM22 22L22 23L23 23L23 22ZM11 24L11 25L12 25L12 26L13 26L13 25L12 25L12 24ZM27 25L27 26L28 26L28 25ZM23 27L23 28L24 28L24 27ZM26 27L26 28L27 28L27 27ZM0 0L0 7L7 7L7 0ZM1 1L1 6L6 6L6 1ZM2 2L2 5L5 5L5 2ZM22 0L22 7L29 7L29 0ZM23 1L23 6L28 6L28 1ZM24 2L24 5L27 5L27 2ZM0 22L0 29L7 29L7 22ZM1 23L1 28L6 28L6 23ZM2 24L2 27L5 27L5 24Z" fill="#000000"></path></g></g></svg>