<svg xmlns="http://www.w3.org/2000/svg" width="22" height="15" viewBox="0 0 22 15" fill="none">
<path d="M11.0229 0.00124986C13.824 0.00124986 16.6195 -0.00374959 19.4206 0.00624932C19.7869 0.00624932 20.1589 0.0412455 20.5139 0.111238C21.1508 0.241224 21.5904 0.601185 21.8666 1.12113C22.1089 1.57608 22.03 1.82605 21.5566 2.09102C20.9423 2.43599 20.3223 2.77595 19.708 3.12091C17.0253 4.63575 14.3425 6.14058 11.671 7.66542C11.1863 7.94539 10.8031 7.93539 10.3184 7.66042C7.06643 5.80562 3.79755 3.97582 0.534299 2.13602C0.466667 2.09602 0.393399 2.06103 0.331403 2.02103C0.0101504 1.82605 -0.0518457 1.67107 0.0608744 1.3461C0.337039 0.546191 1.02463 0.0812412 2.03348 0.0312466C2.43927 0.0112488 2.84506 0.0112488 3.24522 0.00624932C5.83778 0.00624932 8.43034 0.00624932 11.0229 0.00124986Z" fill="#ec9245"/>
<path d="M10.9765 14.995C8.13035 14.995 5.2898 15 2.44362 14.99C2.08855 14.99 1.72221 14.955 1.37841 14.87C0.685182 14.695 0.256845 14.2601 0.0483128 13.6551C-0.0587713 13.3402 0.00322478 13.1852 0.324477 13.0052C2.95086 11.5404 5.57723 10.0755 8.20361 8.61069C8.47978 8.4557 8.77285 8.4557 9.04901 8.60069C9.54498 8.86066 10.0297 9.13063 10.5144 9.4056C10.9145 9.63558 11.0836 9.64058 11.4725 9.4156C11.9854 9.12063 12.5039 8.83566 13.0168 8.54069C13.2929 8.38071 13.5409 8.43071 13.7945 8.57569C14.6343 9.05564 15.4741 9.53059 16.3195 10.0055C18.0441 10.9754 19.7743 11.9353 21.499 12.9052C22.0287 13.2002 22.1133 13.4452 21.854 13.9401C21.499 14.61 20.8564 14.895 20.073 14.98C19.8758 15 19.6785 15 19.4813 15C16.6464 14.995 13.8114 14.995 10.9765 14.995Z" fill="#ec9245"/>
<path d="M0.0429635 11.5204C0.0429635 8.83066 0.0429635 6.18595 0.0429635 3.49624C2.42136 4.8411 4.76594 6.16095 7.14997 7.50581C4.77157 8.85066 2.42699 10.1755 0.0429635 11.5204Z" fill="#ec9245"/>
<path d="M14.871 7.50581C17.2438 6.16596 19.5884 4.8411 21.9667 3.49624C21.9667 6.17595 21.9667 8.81567 21.9667 11.5104C19.594 10.1755 17.2494 8.85067 14.871 7.50581Z" fill="#ec9245"/>
</svg>
