<svg xmlns="http://www.w3.org/2000/svg" width="21" height="21" viewBox="0 0 21 21" fill="none">
                                <path d="M7.40454 6.2622C7.40454 4.55269 8.79024 3.16699 10.4997 3.16699C12.2093 3.16699 13.595 4.55269 13.595 6.2622C13.595 6.38849 13.5448 6.50961 13.4555 6.59891C13.3662 6.68822 13.2451 6.73838 13.1188 6.73838C12.9925 6.73838 12.8714 6.68822 12.7821 6.59891C12.6928 6.50961 12.6426 6.38849 12.6426 6.2622C12.6426 5.69388 12.4168 5.14885 12.015 4.74699C11.6131 4.34513 11.0681 4.11936 10.4997 4.11936C9.93143 4.11936 9.38639 4.34513 8.98453 4.74699C8.58268 5.14885 8.35691 5.69388 8.35691 6.2622C8.35691 6.38849 8.30674 6.50961 8.21744 6.59891C8.12814 6.68822 8.00702 6.73838 7.88073 6.73838C7.75443 6.73838 7.63331 6.68822 7.54401 6.59891C7.45471 6.50961 7.40454 6.38849 7.40454 6.2622ZM10.9759 10.5479C10.9759 10.4216 10.9258 10.3005 10.8365 10.2112C10.7472 10.1219 10.626 10.0717 10.4997 10.0717C10.3735 10.0717 10.2523 10.1219 10.163 10.2112C10.0737 10.3005 10.0236 10.4216 10.0236 10.5479V11.9764H8.59501C8.46871 11.9764 8.34759 12.0266 8.25829 12.1159C8.16899 12.2052 8.11882 12.3263 8.11882 12.4526C8.11882 12.5789 8.16899 12.7 8.25829 12.7893C8.34759 12.8786 8.46871 12.9288 8.59501 12.9288H10.0236V14.3574C10.0236 14.4836 10.0737 14.6048 10.163 14.6941C10.2523 14.7834 10.3735 14.8335 10.4997 14.8335C10.626 14.8335 10.7472 14.7834 10.8365 14.6941C10.9258 14.6048 10.9759 14.4836 10.9759 14.3574V12.9288H12.4045C12.5308 12.9288 12.6519 12.8786 12.7412 12.7893C12.8305 12.7 12.8807 12.5789 12.8807 12.4526C12.8807 12.3263 12.8305 12.2052 12.7412 12.1159C12.6519 12.0266 12.5308 11.9764 12.4045 11.9764H10.9759V10.5479Z" fill="currentColor"></path>
                                <path fill-rule="evenodd" clip-rule="evenodd" d="M4.83512 8.94159C4.90606 8.49338 5.13463 8.08519 5.4797 7.79049C5.82477 7.49578 6.26369 7.33391 6.71749 7.33398H14.2819C14.7358 7.33385 15.1747 7.4957 15.5199 7.79041C15.865 8.08512 16.0936 8.49333 16.1645 8.94159L17.1429 15.132C17.3255 16.2887 16.4307 17.3339 15.2603 17.3339H5.7394C4.56894 17.3339 3.67418 16.2887 3.85704 15.132L4.83512 8.94159ZM6.71749 8.28636C6.49053 8.28628 6.27099 8.36719 6.09837 8.51454C5.92575 8.66189 5.81138 8.866 5.77583 9.09016L4.7975 15.2806C4.77606 15.4166 4.78437 15.5557 4.82185 15.6882C4.85934 15.8207 4.92512 15.9435 5.01465 16.0482C5.10417 16.1528 5.21533 16.2368 5.34045 16.2944C5.46557 16.3519 5.60168 16.3816 5.7394 16.3815H15.2603C15.398 16.3816 15.5341 16.3518 15.6592 16.2943C15.7843 16.2367 15.8954 16.1527 15.9849 16.0481C16.0744 15.9435 16.1402 15.8207 16.1777 15.6882C16.2152 15.5557 16.2236 15.4166 16.2022 15.2806L15.2238 9.09016C15.1883 8.86596 15.0739 8.66182 14.9012 8.51446C14.7285 8.36711 14.5089 8.28622 14.2819 8.28636H6.71749Z" fill="currentColor"></path>
                            </svg>