<svg xmlns="http://www.w3.org/2000/svg" width="20" height="20" viewBox="0 0 20 20" fill="none">
                            <path fill-rule="evenodd" clip-rule="evenodd" d="M15.0001 8.33366C15.0001 10.1018 14.2977 11.7975 13.0475 13.0477C11.7972 14.2979 10.1015 15.0003 8.33341 15.0003C6.5653 15.0003 4.86961 14.2979 3.61937 13.0477C2.36913 11.7975 1.66675 10.1018 1.66675 8.33366C1.66675 6.56555 2.36913 4.86986 3.61937 3.61961C4.86961 2.36937 6.5653 1.66699 8.33341 1.66699C10.1015 1.66699 11.7972 2.36937 13.0475 3.61961C14.2977 4.86986 15.0001 6.56555 15.0001 8.33366ZM13.7501 8.33366C13.7501 9.77025 13.1794 11.148 12.1636 12.1638C11.1478 13.1796 9.77 13.7503 8.33341 13.7503C6.89683 13.7503 5.51907 13.1796 4.50325 12.1638C3.48743 11.148 2.91675 9.77025 2.91675 8.33366C2.91675 6.89707 3.48743 5.51932 4.50325 4.5035C5.51907 3.48767 6.89683 2.91699 8.33341 2.91699C9.77 2.91699 11.1478 3.48767 12.1636 4.5035C13.1794 5.51932 13.7501 6.89707 13.7501 8.33366Z" fill="#999999"></path>
                            <path d="M17.1083 16.225L14.1916 13.3083C14.1344 13.2469 14.0654 13.1976 13.9887 13.1635C13.9121 13.1293 13.8293 13.111 13.7454 13.1095C13.6615 13.108 13.5781 13.1234 13.5003 13.1549C13.4225 13.1863 13.3518 13.2331 13.2924 13.2924C13.2331 13.3518 13.1863 13.4225 13.1549 13.5003C13.1234 13.5781 13.108 13.6615 13.1095 13.7454C13.111 13.8293 13.1293 13.9121 13.1635 13.9887C13.1976 14.0654 13.2469 14.1344 13.3083 14.1916L16.225 17.1083C16.2822 17.1697 16.3512 17.219 16.4278 17.2531C16.5045 17.2873 16.5873 17.3056 16.6712 17.3071C16.7551 17.3086 16.8385 17.2932 16.9163 17.2617C16.9941 17.2303 17.0648 17.1835 17.1242 17.1242C17.1835 17.0648 17.2303 16.9941 17.2617 16.9163C17.2932 16.8385 17.3086 16.7551 17.3071 16.6712C17.3056 16.5873 17.2873 16.5045 17.2531 16.4278C17.219 16.3512 17.1697 16.2822 17.1083 16.225Z" fill="#999999"></path>
                        </svg>