<svg xmlns="http://www.w3.org/2000/svg" version="1.1" width="130" height="130" viewBox="0 0 130 130"><rect x="0" y="0" width="130" height="130" fill="#ffffff"></rect><g transform="scale(4.483)"><g transform="translate(0,0)"><path fill-rule="evenodd" d="M8 0L8 4L10 4L10 3L11 3L11 4L12 4L12 2L11 2L11 0ZM12 0L12 1L13 1L13 0ZM14 0L14 1L15 1L15 0ZM17 0L17 1L19 1L19 2L17 2L17 3L16 3L16 2L15 2L15 3L14 3L14 2L13 2L13 3L14 3L14 4L13 4L13 5L11 5L11 6L10 6L10 7L9 7L9 5L8 5L8 7L9 7L9 8L10 8L10 7L11 7L11 6L12 6L12 8L11 8L11 9L8 9L8 10L11 10L11 11L10 11L10 13L11 13L11 12L12 12L12 13L13 13L13 14L15 14L15 15L14 15L14 16L13 16L13 15L12 15L12 16L11 16L11 14L10 14L10 16L9 16L9 17L8 17L8 15L9 15L9 14L8 14L8 13L7 13L7 12L8 12L8 11L7 11L7 10L6 10L6 11L5 11L5 10L4 10L4 9L7 9L7 8L4 8L4 9L3 9L3 10L4 10L4 12L3 12L3 13L2 13L2 12L0 12L0 13L2 13L2 14L1 14L1 15L2 15L2 16L3 16L3 15L4 15L4 14L5 14L5 12L6 12L6 13L7 13L7 14L6 14L6 15L7 15L7 16L6 16L6 17L5 17L5 16L4 16L4 18L5 18L5 19L3 19L3 17L1 17L1 16L0 16L0 18L2 18L2 20L0 20L0 21L2 21L2 20L4 20L4 21L7 21L7 20L8 20L8 22L9 22L9 18L10 18L10 19L11 19L11 20L10 20L10 21L11 21L11 20L12 20L12 21L13 21L13 22L15 22L15 23L14 23L14 24L13 24L13 23L12 23L12 24L11 24L11 22L10 22L10 23L8 23L8 25L9 25L9 24L10 24L10 26L9 26L9 27L8 27L8 29L9 29L9 28L10 28L10 29L11 29L11 28L12 28L12 29L14 29L14 27L16 27L16 29L18 29L18 28L20 28L20 29L25 29L25 28L26 28L26 27L27 27L27 29L28 29L28 28L29 28L29 25L28 25L28 24L29 24L29 17L28 17L28 16L29 16L29 13L28 13L28 12L29 12L29 8L25 8L25 9L24 9L24 8L23 8L23 9L22 9L22 11L19 11L19 12L20 12L20 14L21 14L21 15L20 15L20 16L19 16L19 17L18 17L18 15L17 15L17 17L16 17L16 16L15 16L15 15L16 15L16 14L17 14L17 13L18 13L18 10L17 10L17 9L18 9L18 8L19 8L19 9L21 9L21 8L20 8L20 7L21 7L21 6L20 6L20 5L19 5L19 4L20 4L20 3L21 3L21 2L20 2L20 1L19 1L19 0ZM9 2L9 3L10 3L10 2ZM15 3L15 4L16 4L16 3ZM17 3L17 4L19 4L19 3ZM15 5L15 7L16 7L16 5ZM18 5L18 6L17 6L17 7L18 7L18 6L19 6L19 7L20 7L20 6L19 6L19 5ZM13 6L13 8L12 8L12 9L11 9L11 10L12 10L12 9L13 9L13 10L15 10L15 9L17 9L17 8L15 8L15 9L13 9L13 8L14 8L14 6ZM0 8L0 9L1 9L1 10L2 10L2 8ZM23 10L23 11L22 11L22 13L27 13L27 11L28 11L28 10ZM6 11L6 12L7 12L7 11ZM12 11L12 12L13 12L13 11ZM14 11L14 13L15 13L15 12L16 12L16 13L17 13L17 11ZM23 11L23 12L26 12L26 11ZM3 13L3 14L2 14L2 15L3 15L3 14L4 14L4 13ZM7 14L7 15L8 15L8 14ZM22 14L22 15L21 15L21 16L22 16L22 17L23 17L23 16L22 16L22 15L23 15L23 14ZM24 14L24 17L26 17L26 18L23 18L23 19L22 19L22 18L21 18L21 17L19 17L19 20L18 20L18 21L17 21L17 20L16 20L16 21L17 21L17 22L16 22L16 23L15 23L15 25L13 25L13 24L12 24L12 25L11 25L11 26L10 26L10 28L11 28L11 26L12 26L12 25L13 25L13 26L15 26L15 25L16 25L16 23L18 23L18 25L17 25L17 26L16 26L16 27L17 27L17 26L18 26L18 25L19 25L19 23L18 23L18 21L20 21L20 19L21 19L21 20L23 20L23 19L24 19L24 20L26 20L26 21L25 21L25 22L27 22L27 23L25 23L25 24L26 24L26 25L22 25L22 27L21 27L21 25L20 25L20 26L19 26L19 27L21 27L21 28L23 28L23 27L24 27L24 28L25 28L25 26L28 26L28 25L27 25L27 23L28 23L28 20L27 20L27 19L28 19L28 18L27 18L27 15L28 15L28 14L27 14L27 15L25 15L25 14ZM12 16L12 17L10 17L10 18L12 18L12 17L13 17L13 18L15 18L15 17L13 17L13 16ZM6 17L6 18L8 18L8 17ZM16 18L16 19L18 19L18 18ZM26 18L26 19L27 19L27 18ZM6 19L6 20L7 20L7 19ZM12 19L12 20L13 20L13 19ZM14 19L14 21L15 21L15 19ZM21 21L21 24L24 24L24 21ZM22 22L22 23L23 23L23 22ZM12 27L12 28L13 28L13 27ZM0 0L0 7L7 7L7 0ZM1 1L1 6L6 6L6 1ZM2 2L2 5L5 5L5 2ZM22 0L22 7L29 7L29 0ZM23 1L23 6L28 6L28 1ZM24 2L24 5L27 5L27 2ZM0 22L0 29L7 29L7 22ZM1 23L1 28L6 28L6 23ZM2 24L2 27L5 27L5 24Z" fill="#000000"></path></g></g></svg>