<svg xmlns="http://www.w3.org/2000/svg" width="26" height="20" viewBox="0 0 26 20" fill="none">
<g clip-path="url(#clip0_2075_590)">
<path d="M13.025 -0.000484267C16.3358 -0.000484267 19.6399 -0.00715316 22.9507 0.00618462C23.3837 0.00618462 23.8233 0.0528668 24.243 0.146231C24.9958 0.319622 25.5154 0.799782 25.8418 1.49335C26.1282 2.10022 26.035 2.43366 25.4754 2.78711C24.7493 3.24726 24.0165 3.70075 23.2904 4.1609C20.1195 6.18158 16.9486 8.18891 13.7911 10.2229C13.2182 10.5964 12.7652 10.583 12.1923 10.2163C8.34859 7.74209 4.48489 5.30128 0.627859 2.84713C0.54792 2.79378 0.46132 2.7471 0.388043 2.69375C0.00833517 2.43366 -0.0649418 2.22692 0.068289 1.79345C0.394705 0.726424 1.20741 0.106218 2.39983 0.0395291C2.87946 0.0128535 3.35909 0.0128535 3.83206 0.00618462C6.89637 0.00618462 9.96068 0.00618462 13.025 -0.000484267C13.025 0.00618462 13.025 -0.000484267 13.025 -0.000484267Z" fill="#da242b"/>
<path d="M12.9699 20C9.60585 20 6.24843 20.0067 2.88435 19.9934C2.46468 19.9934 2.03168 19.9467 1.62532 19.8333C0.805952 19.5999 0.299675 19.0197 0.0531977 18.2128C-0.0733716 17.7926 -9.46755e-05 17.5859 0.379613 17.3458C3.48389 15.3918 6.58817 13.4378 9.69245 11.4838C10.0189 11.2771 10.3653 11.2771 10.6917 11.4705C11.2779 11.8173 11.8508 12.1774 12.4237 12.5442C12.8967 12.851 13.0965 12.8576 13.5561 12.5575C14.1623 12.1641 14.7752 11.7839 15.3814 11.3905C15.7078 11.1771 16.0009 11.2438 16.3007 11.4372C17.2933 12.0774 18.2858 12.7109 19.2851 13.3445C21.3235 14.6382 23.3686 15.9187 25.407 17.2124C26.0332 17.6059 26.1331 17.9327 25.8267 18.5929C25.407 19.4865 24.6476 19.8666 23.7217 19.98C23.4885 20.0067 23.2554 20.0067 23.0222 20.0067C19.6714 20 16.3207 20 12.9699 20Z" fill="#da242b"/>
<path d="M0.046875 15.3651C0.046875 11.7773 0.046875 8.24944 0.046875 4.66158C2.85805 6.45551 5.62925 8.21609 8.44708 10.01C5.63591 11.804 2.86471 13.5712 0.046875 15.3651Z" fill="#da242b"/>
<path d="M17.5732 10.01C20.3778 8.22276 23.149 6.45551 25.9601 4.66158C25.9601 8.2361 25.9601 11.7573 25.9601 15.3518C23.1556 13.5712 20.3844 11.804 17.5732 10.01Z" fill="#da242b"/>
</g>
<defs>
<clipPath id="clip0_2075_590">
<rect width="26" height="20" fill="white"/>
</clipPath>
</defs>
</svg>
