<svg xmlns="http://www.w3.org/2000/svg" width="24" height="30" viewBox="0 0 24 30" fill="none">
<g clip-path="url(#clip0_2075_564)">
<path d="M11.5312 24.606C11.1449 24.1532 10.7736 23.7237 10.41 23.2903C8.44775 20.93 6.59159 18.4883 4.98545 15.861C4.26193 14.6808 3.62932 13.4541 3.08762 12.1733C2.09136 9.8091 2.26182 7.48355 3.36037 5.23152C4.78089 2.32168 7.11056 0.588156 10.2622 0.104472C15.111 -0.638466 19.7173 2.83632 20.509 7.74667C20.7666 9.35637 20.5203 10.8655 19.9029 12.3436C19.2135 13.992 18.3233 15.5243 17.3535 17.0063C15.6224 19.6453 13.6867 22.1179 11.6259 24.4937C11.6032 24.5208 11.5767 24.5518 11.5312 24.606ZM16.0883 8.50509C16.0921 5.9435 14.0465 3.85786 11.535 3.85786C9.01975 3.85786 6.97798 5.93963 6.97798 8.50122C6.97798 11.0628 9.01975 13.1485 11.5312 13.1485C14.0427 13.1485 16.0845 11.0705 16.0883 8.50509Z" fill="#da242b"/>
<path d="M7.98905 21.4523C7.54963 21.5181 7.11401 21.58 6.68217 21.6574C5.37907 21.8857 4.10249 22.2069 2.89788 22.7834C2.42816 23.0117 1.98117 23.2749 1.61373 23.6579C1.02279 24.2771 1.02279 24.9116 1.62888 25.5191C2.14406 26.0377 2.78424 26.3395 3.44715 26.6026C4.73131 27.1056 6.07229 27.3804 7.4322 27.5661C9.3073 27.8254 11.1938 27.8873 13.084 27.7944C15.2015 27.6899 17.2963 27.4191 19.3154 26.7148C19.9139 26.5059 20.4973 26.2582 21.0124 25.8713C21.2435 25.6971 21.467 25.4959 21.645 25.2676C21.9898 24.8265 22.0011 24.3351 21.645 23.9056C21.4026 23.6115 21.1033 23.3445 20.7852 23.1356C19.895 22.5513 18.8949 22.2185 17.8721 21.9786C17.0236 21.7812 16.1637 21.6535 15.3076 21.4949C15.2318 21.4794 15.1599 21.4678 15.0841 21.4562C15.2243 21.1544 15.2508 21.1466 15.5576 21.1699C16.8228 21.2705 18.0843 21.4098 19.323 21.6922C19.9972 21.8432 20.6639 22.025 21.2738 22.3539C21.6564 22.559 22.0352 22.7989 22.3496 23.093C23.1565 23.8514 23.3004 24.9039 22.7853 25.8945C22.5087 26.4285 22.1034 26.8502 21.6413 27.2178C20.6336 28.0188 19.4858 28.5489 18.2812 28.9552C15.747 29.8104 13.137 30.0929 10.4778 29.9768C8.43604 29.8839 6.43973 29.5473 4.50781 28.843C3.31836 28.4096 2.18573 27.8679 1.21598 27.0166C0.791716 26.6452 0.43185 26.2118 0.204565 25.6817C-0.17803 24.7878 -0.00377858 23.8437 0.66671 23.151C1.22734 22.5706 1.93571 22.2494 2.67439 21.9979C3.6858 21.6535 4.73131 21.4756 5.78439 21.344C6.36776 21.2705 6.95112 21.2279 7.53827 21.166C7.82237 21.1389 7.8451 21.1544 7.98905 21.4523Z" fill="#da242b"/>
</g>
<defs>
<clipPath id="clip0_2075_564">
<rect width="23.0769" height="30" fill="white"/>
</clipPath>
</defs>
</svg>
