<svg width="30" height="20" viewBox="0 0 30 20" fill="none" xmlns="http://www.w3.org/2000/svg">
<path d="M12.5704 2.43207C9.94621 3.5121 8.20551 5.24982 7.73997 7.91706C8.50097 8.20349 9.2338 8.39413 9.87623 8.73621C11.7753 9.74782 12.9164 11.283 13.1642 13.3418C13.6142 17.0846 10.8501 19.5347 7.61459 19.9425C4.50835 20.3338 1.4546 18.721 0.433122 15.3441C-0.319138 12.8547 -0.0596375 10.3955 0.964759 8.02196C2.81237 3.73923 6.20532 1.13037 10.9551 0.0302706C11.2865 -0.0463533 11.4391 0.0220609 11.5722 0.330381C11.8589 0.994455 12.203 1.63572 12.5218 2.28703C12.5364 2.31713 12.5432 2.35088 12.5694 2.43207H12.5704Z" fill="#ffffff"/>
<path d="M29.3174 2.44518C26.7117 3.51791 24.9846 5.25928 24.4947 7.99859C24.7018 8.04511 24.8757 8.07612 25.0468 8.12356C27.7234 8.85787 29.4165 10.477 29.8996 13.0777C30.5371 16.5139 28.0733 19.5168 24.3869 19.9464C20.9832 20.3432 17.9518 18.4167 17.0956 14.9422C16.3919 12.0843 16.9148 9.37052 18.3279 6.80453C20.3359 3.15668 23.5559 0.966516 27.7769 0.0233118C28.0655 -0.0414537 28.2075 0.0233118 28.326 0.286022C28.638 0.977462 28.985 1.65431 29.3164 2.33754C29.3252 2.35578 29.3174 2.38223 29.3174 2.44426V2.44518Z" fill="#ffffff"/>
</svg>
