<svg width="60" height="40" viewBox="0 0 60 40" fill="none" xmlns="http://www.w3.org/2000/svg">
<g clip-path="url(#clip0_10257_1011)">
<g filter="url(#filter0_i_10257_1011)">
<path d="M4.72915 0.645142L55.5046 0.758548C56.7358 0.798017 57.9009 1.32199 58.7434 2.21523C59.586 3.10847 60.0371 4.29781 59.9976 5.52165L59.8292 27.5875C59.8469 28.8165 59.3776 30.0031 58.5228 30.8912C57.668 31.7793 56.4961 32.2976 55.2602 32.3344L18.4743 32.2264L6.79364 39.3548L7.36409 32.2048H4.49555C3.88544 32.1852 3.28519 32.0464 2.72911 31.7961C2.17304 31.5458 1.67204 31.189 1.25477 30.7462C0.837492 30.3033 0.512129 29.783 0.297268 29.2151C0.0824071 28.6472 -0.0177357 28.0427 0.00257112 27.4363L0.170988 5.37584C0.156163 4.15104 0.625347 2.96935 1.47769 2.08475C2.33003 1.20014 3.49749 0.683242 4.72915 0.645142Z" fill="url(#paint0_linear_10257_1011)"/>
</g>
<path d="M11.6128 21.8091V11H13.7368V15.2522H17.9034V11H20.0275V21.8091H17.9034V17.0826H13.7368V21.8091H11.6128Z" fill="white"/>
<path d="M24.596 21.8091V12.8248H21.4724V11H29.8382V12.8248H26.72V21.8091H24.596Z" fill="white"/>
<path d="M31.1799 21.8091V11H34.3578L36.27 18.3717L38.155 11H41.3438V21.8091H39.3664V13.3047L37.2804 21.8147H35.2324L33.1519 13.3047V21.8147L31.1799 21.8091Z" fill="white"/>
<path d="M43.5115 21.8092V11.0726H45.6355V20.0011H50.9212V21.8203L43.5115 21.8092Z" fill="white"/>
</g>
<defs>
<filter id="filter0_i_10257_1011" x="0" y="0.645142" width="60" height="38.7097" filterUnits="userSpaceOnUse" color-interpolation-filters="sRGB">
<feFlood flood-opacity="0" result="BackgroundImageFix"/>
<feBlend mode="normal" in="SourceGraphic" in2="BackgroundImageFix" result="shape"/>
<feColorMatrix in="SourceAlpha" type="matrix" values="0 0 0 0 0 0 0 0 0 0 0 0 0 0 0 0 0 0 127 0" result="hardAlpha"/>
<feOffset/>
<feGaussianBlur stdDeviation="2"/>
<feComposite in2="hardAlpha" operator="arithmetic" k2="-1" k3="1"/>
<feColorMatrix type="matrix" values="0 0 0 0 0 0 0 0 0 0 0 0 0 0 0 0 0 0 0.12 0"/>
<feBlend mode="normal" in2="shape" result="effect1_innerShadow_10257_1011"/>
</filter>
<linearGradient id="paint0_linear_10257_1011" x1="50.4" y1="31.2258" x2="28.5755" y2="-5.23714" gradientUnits="userSpaceOnUse">
<stop stop-color="#F54200"/>
<stop offset="1" stop-color="#FFAE00"/>
</linearGradient>
<clipPath id="clip0_10257_1011">
<rect width="60" height="40" fill="white"/>
</clipPath>
</defs>
</svg>
