<svg width="90" height="47" viewBox="0 0 90 47" fill="none" xmlns="http://www.w3.org/2000/svg">
<g filter="url(#filter0_i_10265_1092)">
<path d="M7.09373 0L83.2569 0.132308C85.1038 0.178355 86.8513 0.789661 88.1152 1.83177C89.379 2.87388 90.0557 4.26144 89.9964 5.68926L89.7438 31.4327C89.7703 32.8665 89.0665 34.2509 87.7842 35.287C86.502 36.3231 84.7442 36.9279 82.8902 36.9708L27.7114 36.8448L10.1905 45.1613L11.0461 36.8195H6.74332C5.82816 36.7968 4.92778 36.6347 4.09367 36.3428C3.25956 36.0508 2.50806 35.6345 1.88215 35.1179C1.25624 34.6012 0.768194 33.9942 0.445902 33.3316C0.123611 32.669 -0.0266036 31.9638 0.00385668 31.2563L0.256483 5.51915C0.234244 4.09022 0.938021 2.71158 2.21653 1.67954C3.49505 0.647499 5.24624 0.0444507 7.09373 0Z" fill="url(#paint0_linear_10265_1092)"/>
</g>
<path d="M18.32 25.28C17.1733 25.28 16.0667 25.14 15 24.86C13.9467 24.5667 13.0867 24.1933 12.42 23.74L13.72 20.82C14.3467 21.22 15.0667 21.5533 15.88 21.82C16.7067 22.0733 17.5267 22.2 18.34 22.2C18.8867 22.2 19.3267 22.1533 19.66 22.06C19.9933 21.9533 20.2333 21.82 20.38 21.66C20.54 21.4867 20.62 21.2867 20.62 21.06C20.62 20.74 20.4733 20.4867 20.18 20.3C19.8867 20.1133 19.5067 19.96 19.04 19.84C18.5733 19.72 18.0533 19.6 17.48 19.48C16.92 19.36 16.3533 19.2067 15.78 19.02C15.22 18.8333 14.7067 18.5933 14.24 18.3C13.7733 17.9933 13.3933 17.6 13.1 17.12C12.8067 16.6267 12.66 16.0067 12.66 15.26C12.66 14.42 12.8867 13.66 13.34 12.98C13.8067 12.3 14.5 11.7533 15.42 11.34C16.34 10.9267 17.4867 10.72 18.86 10.72C19.78 10.72 20.68 10.8267 21.56 11.04C22.4533 11.24 23.2467 11.54 23.94 11.94L22.72 14.88C22.0533 14.52 21.3933 14.2533 20.74 14.08C20.0867 13.8933 19.4533 13.8 18.84 13.8C18.2933 13.8 17.8533 13.86 17.52 13.98C17.1867 14.0867 16.9467 14.2333 16.8 14.42C16.6533 14.6067 16.58 14.82 16.58 15.06C16.58 15.3667 16.72 15.6133 17 15.8C17.2933 15.9733 17.6733 16.12 18.14 16.24C18.62 16.3467 19.14 16.46 19.7 16.58C20.2733 16.7 20.84 16.8533 21.4 17.04C21.9733 17.2133 22.4933 17.4533 22.96 17.76C23.4267 18.0533 23.8 18.4467 24.08 18.94C24.3733 19.42 24.52 20.0267 24.52 20.76C24.52 21.5733 24.2867 22.3267 23.82 23.02C23.3667 23.7 22.68 24.2467 21.76 24.66C20.8533 25.0733 19.7067 25.28 18.32 25.28ZM35.7092 11H39.6692V25H35.7092V11ZM30.3092 25H26.3492V11H30.3092V25ZM35.9892 19.54H30.0292V16.26H35.9892V19.54ZM46.1025 16.42H52.6025V19.38H46.1025V16.42ZM46.3825 21.94H53.7025V25H42.4625V11H53.4425V14.06H46.3825V21.94ZM55.9 25V11H59.86V21.86H66.54V25H55.9ZM68.107 25V11H72.067V21.86H78.747V25H68.107Z" fill="white"/>
<defs>
<filter id="filter0_i_10265_1092" x="0" y="0" width="90" height="45.1613" filterUnits="userSpaceOnUse" color-interpolation-filters="sRGB">
<feFlood flood-opacity="0" result="BackgroundImageFix"/>
<feBlend mode="normal" in="SourceGraphic" in2="BackgroundImageFix" result="shape"/>
<feColorMatrix in="SourceAlpha" type="matrix" values="0 0 0 0 0 0 0 0 0 0 0 0 0 0 0 0 0 0 127 0" result="hardAlpha"/>
<feOffset/>
<feGaussianBlur stdDeviation="2"/>
<feComposite in2="hardAlpha" operator="arithmetic" k2="-1" k3="1"/>
<feColorMatrix type="matrix" values="0 0 0 0 0 0 0 0 0 0 0 0 0 0 0 0 0 0 0.12 0"/>
<feBlend mode="normal" in2="shape" result="effect1_innerShadow_10265_1092"/>
</filter>
<linearGradient id="paint0_linear_10265_1092" x1="75.6" y1="35.6774" x2="53.4926" y2="-11.811" gradientUnits="userSpaceOnUse">
<stop stop-color="#F54200"/>
<stop offset="1" stop-color="#FFAE00"/>
</linearGradient>
</defs>
</svg>
