<svg width="148" height="46" viewBox="0 0 148 46" fill="none" xmlns="http://www.w3.org/2000/svg">
<path d="M9 45.5L26 35.5L10.5 30L9 45.5Z" fill="url(#paint0_linear_10263_1085)"/>
<path d="M10.7436 37C10.7436 37 129.513 37 137.256 37C145 37 148 35 148 31.0745C148 31.0745 148 11.851 148 5.92551C148 0 143.5 0 137.256 0C131.013 0 10.7436 0 10.7436 0C2 0 0 2 0 5.92551C0 9.85102 0 31.0745 0 31.0745C0 35 2 37 10.7436 37Z" fill="url(#paint1_linear_10263_1085)"/>
<path d="M17.614 24.216C16.618 24.216 15.694 24.054 14.842 23.73C14.002 23.406 13.27 22.95 12.646 22.362C12.034 21.774 11.554 21.084 11.206 20.292C10.87 19.5 10.702 18.636 10.702 17.7C10.702 16.764 10.87 15.9 11.206 15.108C11.554 14.316 12.04 13.626 12.664 13.038C13.288 12.45 14.02 11.994 14.86 11.67C15.7 11.346 16.612 11.184 17.596 11.184C18.592 11.184 19.504 11.346 20.332 11.67C21.172 11.994 21.898 12.45 22.51 13.038C23.134 13.626 23.62 14.316 23.968 15.108C24.316 15.888 24.49 16.752 24.49 17.7C24.49 18.636 24.316 19.506 23.968 20.31C23.62 21.102 23.134 21.792 22.51 22.38C21.898 22.956 21.172 23.406 20.332 23.73C19.504 24.054 18.598 24.216 17.614 24.216ZM17.596 21.732C18.16 21.732 18.676 21.636 19.144 21.444C19.624 21.252 20.044 20.976 20.404 20.616C20.764 20.256 21.04 19.83 21.232 19.338C21.436 18.846 21.538 18.3 21.538 17.7C21.538 17.1 21.436 16.554 21.232 16.062C21.04 15.57 20.764 15.144 20.404 14.784C20.056 14.424 19.642 14.148 19.162 13.956C18.682 13.764 18.16 13.668 17.596 13.668C17.032 13.668 16.51 13.764 16.03 13.956C15.562 14.148 15.148 14.424 14.788 14.784C14.428 15.144 14.146 15.57 13.942 16.062C13.75 16.554 13.654 17.1 13.654 17.7C13.654 18.288 13.75 18.834 13.942 19.338C14.146 19.83 14.422 20.256 14.77 20.616C15.13 20.976 15.55 21.252 16.03 21.444C16.51 21.636 17.032 21.732 17.596 21.732ZM26.6815 24V11.4H32.8375C34.4215 11.4 35.6095 11.7 36.4015 12.3C37.2055 12.9 37.6075 13.692 37.6075 14.676C37.6075 15.336 37.4455 15.912 37.1215 16.404C36.7975 16.884 36.3535 17.256 35.7895 17.52C35.2255 17.784 34.5775 17.916 33.8455 17.916L34.1875 17.178C34.9795 17.178 35.6815 17.31 36.2935 17.574C36.9055 17.826 37.3795 18.204 37.7155 18.708C38.0635 19.212 38.2375 19.83 38.2375 20.562C38.2375 21.642 37.8115 22.488 36.9595 23.1C36.1075 23.7 34.8535 24 33.1975 24H26.6815ZM29.5795 21.804H32.9815C33.7375 21.804 34.3075 21.684 34.6915 21.444C35.0875 21.192 35.2855 20.796 35.2855 20.256C35.2855 19.728 35.0875 19.338 34.6915 19.086C34.3075 18.822 33.7375 18.69 32.9815 18.69H29.3635V16.566H32.4775C33.1855 16.566 33.7255 16.446 34.0975 16.206C34.4815 15.954 34.6735 15.576 34.6735 15.072C34.6735 14.58 34.4815 14.214 34.0975 13.974C33.7255 13.722 33.1855 13.596 32.4775 13.596H29.5795V21.804ZM42.7672 24.216C41.9152 24.216 41.1292 24.06 40.4092 23.748C39.7012 23.424 39.1192 22.968 38.6632 22.38L40.2832 20.436C40.6312 20.892 40.9972 21.24 41.3812 21.48C41.7652 21.708 42.1792 21.822 42.6232 21.822C43.8112 21.822 44.4052 21.126 44.4052 19.734V13.74H39.9772V11.4H47.3032V19.572C47.3032 21.132 46.9192 22.296 46.1512 23.064C45.3832 23.832 44.2552 24.216 42.7672 24.216ZM52.8655 16.476H58.9315V18.744H52.8655V16.476ZM53.0815 21.66H59.9395V24H50.1835V11.4H59.7055V13.74H53.0815V21.66ZM68.2896 24.216C67.3176 24.216 66.4116 24.06 65.5716 23.748C64.7436 23.424 64.0236 22.968 63.4116 22.38C62.7996 21.792 62.3196 21.102 61.9716 20.31C61.6356 19.518 61.4676 18.648 61.4676 17.7C61.4676 16.752 61.6356 15.882 61.9716 15.09C62.3196 14.298 62.7996 13.608 63.4116 13.02C64.0356 12.432 64.7616 11.982 65.5896 11.67C66.4176 11.346 67.3236 11.184 68.3076 11.184C69.3996 11.184 70.3836 11.376 71.2596 11.76C72.1476 12.132 72.8916 12.684 73.4916 13.416L71.6196 15.144C71.1876 14.652 70.7076 14.286 70.1796 14.046C69.6516 13.794 69.0756 13.668 68.4516 13.668C67.8636 13.668 67.3236 13.764 66.8316 13.956C66.3396 14.148 65.9136 14.424 65.5536 14.784C65.1936 15.144 64.9116 15.57 64.7076 16.062C64.5156 16.554 64.4196 17.1 64.4196 17.7C64.4196 18.3 64.5156 18.846 64.7076 19.338C64.9116 19.83 65.1936 20.256 65.5536 20.616C65.9136 20.976 66.3396 21.252 66.8316 21.444C67.3236 21.636 67.8636 21.732 68.4516 21.732C69.0756 21.732 69.6516 21.612 70.1796 21.372C70.7076 21.12 71.1876 20.742 71.6196 20.238L73.4916 21.966C72.8916 22.698 72.1476 23.256 71.2596 23.64C70.3836 24.024 69.3936 24.216 68.2896 24.216ZM77.9478 24V13.776H73.9158V11.4H84.8958V13.776H80.8638V24H77.9478ZM86.4647 24V11.4H89.3807V24H86.4647ZM96.0982 24L90.6622 11.4H93.8122L98.5642 22.56H96.7102L101.534 11.4H104.432L98.9782 24H96.0982ZM108.166 16.476H114.232V18.744H108.166V16.476ZM108.382 21.66H115.24V24H105.484V11.4H115.006V13.74H108.382V21.66ZM116.651 20.058V17.808H121.745V20.058H116.651ZM130.235 24.216C129.263 24.216 128.357 24.06 127.517 23.748C126.689 23.424 125.969 22.968 125.357 22.38C124.745 21.792 124.265 21.102 123.917 20.31C123.581 19.518 123.413 18.648 123.413 17.7C123.413 16.752 123.581 15.882 123.917 15.09C124.265 14.298 124.745 13.608 125.357 13.02C125.981 12.432 126.707 11.982 127.535 11.67C128.363 11.346 129.269 11.184 130.253 11.184C131.345 11.184 132.329 11.376 133.205 11.76C134.093 12.132 134.837 12.684 135.437 13.416L133.565 15.144C133.133 14.652 132.653 14.286 132.125 14.046C131.597 13.794 131.021 13.668 130.397 13.668C129.809 13.668 129.269 13.764 128.777 13.956C128.285 14.148 127.859 14.424 127.499 14.784C127.139 15.144 126.857 15.57 126.653 16.062C126.461 16.554 126.365 17.1 126.365 17.7C126.365 18.3 126.461 18.846 126.653 19.338C126.857 19.83 127.139 20.256 127.499 20.616C127.859 20.976 128.285 21.252 128.777 21.444C129.269 21.636 129.809 21.732 130.397 21.732C131.021 21.732 131.597 21.612 132.125 21.372C132.653 21.12 133.133 20.742 133.565 20.238L135.437 21.966C134.837 22.698 134.093 23.256 133.205 23.64C132.329 24.024 131.339 24.216 130.235 24.216Z" fill="white"/>
<defs>
<linearGradient id="paint0_linear_10263_1085" x1="35.4753" y1="52.8668" x2="2.33413" y2="30.6002" gradientUnits="userSpaceOnUse">
<stop stop-color="#F54200"/>
<stop offset="0.0001" stop-color="#F54200"/>
<stop offset="1" stop-color="#FFAE00"/>
</linearGradient>
<linearGradient id="paint1_linear_10263_1085" x1="137.64" y1="22" x2="111.599" y2="-30.915" gradientUnits="userSpaceOnUse">
<stop stop-color="#F54200"/>
<stop offset="0.0001" stop-color="#F54200"/>
<stop offset="1" stop-color="#FFAE00"/>
</linearGradient>
</defs>
</svg>
