<svg width="70" height="47" viewBox="0 0 70 47" fill="none" xmlns="http://www.w3.org/2000/svg">
<g filter="url(#filter0_i_10257_1029)">
<path d="M5.51735 0L64.7554 0.132308C66.1918 0.178355 67.551 0.789661 68.534 1.83177C69.517 2.87388 70.0433 4.26144 69.9972 5.68926L69.8007 31.4327C69.8213 32.8665 69.2739 34.2509 68.2766 35.287C67.2793 36.3231 65.9121 36.9279 64.4702 36.9708L21.5533 36.8448L7.92592 45.1613L8.59144 36.8196H5.2448C4.53301 36.7968 3.83272 36.6347 3.18397 36.3428C2.53521 36.0508 1.95071 35.6345 1.46389 35.1179C0.977074 34.6012 0.597484 33.9942 0.346813 33.3316C0.0961417 32.669 -0.0206917 31.9638 0.00299964 31.2563L0.199486 5.51915C0.18219 4.09022 0.729572 2.71158 1.72397 1.67954C2.71837 0.647499 4.08041 0.0444507 5.51735 0Z" fill="url(#paint0_linear_10257_1029)"/>
</g>
<path d="M21.6423 26.264C20.4543 26.264 19.347 26.0733 18.3203 25.692C17.3083 25.296 16.4283 24.7387 15.6803 24.02C14.9323 23.3013 14.3456 22.458 13.9203 21.49C13.5096 20.522 13.3043 19.4587 13.3043 18.3C13.3043 17.1413 13.5096 16.078 13.9203 15.11C14.3456 14.142 14.9323 13.2987 15.6803 12.58C16.443 11.8613 17.3303 11.3113 18.3423 10.93C19.3543 10.534 20.4616 10.336 21.6643 10.336C22.999 10.336 24.2016 10.5707 25.2723 11.04C26.3576 11.4947 27.267 12.1693 28.0003 13.064L25.7123 15.176C25.1843 14.5747 24.5976 14.1273 23.9523 13.834C23.307 13.526 22.603 13.372 21.8403 13.372C21.1216 13.372 20.4616 13.4893 19.8603 13.724C19.259 13.9587 18.7383 14.296 18.2983 14.736C17.8583 15.176 17.5136 15.6967 17.2643 16.298C17.0296 16.8993 16.9123 17.5667 16.9123 18.3C16.9123 19.0333 17.0296 19.7007 17.2643 20.302C17.5136 20.9033 17.8583 21.424 18.2983 21.864C18.7383 22.304 19.259 22.6413 19.8603 22.876C20.4616 23.1107 21.1216 23.228 21.8403 23.228C22.603 23.228 23.307 23.0813 23.9523 22.788C24.5976 22.48 25.1843 22.018 25.7123 21.402L28.0003 23.514C27.267 24.4087 26.3576 25.0907 25.2723 25.56C24.2016 26.0293 22.9916 26.264 21.6423 26.264ZM35.3811 26.264C34.1491 26.264 32.9685 26.1027 31.8391 25.78C30.7098 25.4427 29.8005 25.01 29.1111 24.482L30.3211 21.798C30.9811 22.2673 31.7585 22.656 32.6531 22.964C33.5625 23.2573 34.4791 23.404 35.4031 23.404C36.1071 23.404 36.6718 23.338 37.0971 23.206C37.5371 23.0593 37.8598 22.8613 38.0651 22.612C38.2705 22.3627 38.3731 22.0767 38.3731 21.754C38.3731 21.3433 38.2118 21.0207 37.8891 20.786C37.5665 20.5367 37.1411 20.3387 36.6131 20.192C36.0851 20.0307 35.4985 19.884 34.8531 19.752C34.2225 19.6053 33.5845 19.4293 32.9391 19.224C32.3085 19.0187 31.7291 18.7547 31.2011 18.432C30.6731 18.1093 30.2405 17.684 29.9031 17.156C29.5805 16.628 29.4191 15.9533 29.4191 15.132C29.4191 14.252 29.6538 13.4527 30.1231 12.734C30.6071 12.0007 31.3258 11.4213 32.2791 10.996C33.2471 10.556 34.4571 10.336 35.9091 10.336C36.8771 10.336 37.8305 10.4533 38.7691 10.688C39.7078 10.908 40.5365 11.2453 41.2551 11.7L40.1551 14.406C39.4365 13.9953 38.7178 13.6947 37.9991 13.504C37.2805 13.2987 36.5765 13.196 35.8871 13.196C35.1978 13.196 34.6331 13.2767 34.1931 13.438C33.7531 13.5993 33.4378 13.812 33.2471 14.076C33.0565 14.3253 32.9611 14.6187 32.9611 14.956C32.9611 15.352 33.1225 15.6747 33.4451 15.924C33.7678 16.1587 34.1931 16.3493 34.7211 16.496C35.2491 16.6427 35.8285 16.7893 36.4591 16.936C37.1045 17.0827 37.7425 17.2513 38.3731 17.442C39.0185 17.6327 39.6051 17.8893 40.1331 18.212C40.6611 18.5347 41.0865 18.96 41.4091 19.488C41.7465 20.016 41.9151 20.6833 41.9151 21.49C41.9151 22.3553 41.6731 23.1473 41.1891 23.866C40.7051 24.5847 39.9791 25.164 39.0111 25.604C38.0578 26.044 36.8478 26.264 35.3811 26.264ZM49.4104 26.264C48.1784 26.264 46.9977 26.1027 45.8684 25.78C44.7391 25.4427 43.8297 25.01 43.1404 24.482L44.3504 21.798C45.0104 22.2673 45.7877 22.656 46.6824 22.964C47.5917 23.2573 48.5084 23.404 49.4324 23.404C50.1364 23.404 50.7011 23.338 51.1264 23.206C51.5664 23.0593 51.8891 22.8613 52.0944 22.612C52.2997 22.3627 52.4024 22.0767 52.4024 21.754C52.4024 21.3433 52.2411 21.0207 51.9184 20.786C51.5957 20.5367 51.1704 20.3387 50.6424 20.192C50.1144 20.0307 49.5277 19.884 48.8824 19.752C48.2517 19.6053 47.6137 19.4293 46.9684 19.224C46.3377 19.0187 45.7584 18.7547 45.2304 18.432C44.7024 18.1093 44.2697 17.684 43.9324 17.156C43.6097 16.628 43.4484 15.9533 43.4484 15.132C43.4484 14.252 43.6831 13.4527 44.1524 12.734C44.6364 12.0007 45.3551 11.4213 46.3084 10.996C47.2764 10.556 48.4864 10.336 49.9384 10.336C50.9064 10.336 51.8597 10.4533 52.7984 10.688C53.7371 10.908 54.5657 11.2453 55.2844 11.7L54.1844 14.406C53.4657 13.9953 52.7471 13.6947 52.0284 13.504C51.3097 13.2987 50.6057 13.196 49.9164 13.196C49.2271 13.196 48.6624 13.2767 48.2224 13.438C47.7824 13.5993 47.4671 13.812 47.2764 14.076C47.0857 14.3253 46.9904 14.6187 46.9904 14.956C46.9904 15.352 47.1517 15.6747 47.4744 15.924C47.7971 16.1587 48.2224 16.3493 48.7504 16.496C49.2784 16.6427 49.8577 16.7893 50.4884 16.936C51.1337 17.0827 51.7717 17.2513 52.4024 17.442C53.0477 17.6327 53.6344 17.8893 54.1624 18.212C54.6904 18.5347 55.1157 18.96 55.4384 19.488C55.7757 20.016 55.9444 20.6833 55.9444 21.49C55.9444 22.3553 55.7024 23.1473 55.2184 23.866C54.7344 24.5847 54.0084 25.164 53.0404 25.604C52.0871 26.044 50.8771 26.264 49.4104 26.264Z" fill="white"/>
<defs>
<filter id="filter0_i_10257_1029" x="0" y="0" width="70" height="45.1613" filterUnits="userSpaceOnUse" color-interpolation-filters="sRGB">
<feFlood flood-opacity="0" result="BackgroundImageFix"/>
<feBlend mode="normal" in="SourceGraphic" in2="BackgroundImageFix" result="shape"/>
<feColorMatrix in="SourceAlpha" type="matrix" values="0 0 0 0 0 0 0 0 0 0 0 0 0 0 0 0 0 0 127 0" result="hardAlpha"/>
<feOffset/>
<feGaussianBlur stdDeviation="2"/>
<feComposite in2="hardAlpha" operator="arithmetic" k2="-1" k3="1"/>
<feColorMatrix type="matrix" values="0 0 0 0 0 0 0 0 0 0 0 0 0 0 0 0 0 0 0.12 0"/>
<feBlend mode="normal" in2="shape" result="effect1_innerShadow_10257_1029"/>
</filter>
<linearGradient id="paint0_linear_10257_1029" x1="58.8" y1="35.6774" x2="33.338" y2="-6.86266" gradientUnits="userSpaceOnUse">
<stop stop-color="#F54200"/>
<stop offset="1" stop-color="#FFAE00"/>
</linearGradient>
</defs>
</svg>
