<svg width="70" height="47" viewBox="0 0 70 47" fill="none" xmlns="http://www.w3.org/2000/svg">
<g filter="url(#filter0_i_10257_1041)">
<path d="M64.4827 0L5.24459 0.132308C3.80818 0.178355 2.44899 0.789661 1.46598 1.83177C0.482974 2.87388 -0.0433343 4.26144 0.00279635 5.68926L0.199283 31.4327C0.178672 32.8665 0.726086 34.2509 1.72338 35.287C2.72068 36.3231 4.08786 36.9279 5.52982 36.9708L48.4467 36.8448L62.0741 45.1613L61.4086 36.8196H64.7552C65.467 36.7968 66.1673 36.6347 66.816 36.3428C67.4648 36.0508 68.0493 35.6345 68.5361 35.1179C69.0229 34.6012 69.4025 33.9942 69.6532 33.3316C69.9039 32.669 70.0207 31.9638 69.997 31.2563L69.8005 5.51915C69.8178 4.09022 69.2704 2.71158 68.276 1.67954C67.2816 0.647499 65.9196 0.0444507 64.4827 0Z" fill="url(#paint0_linear_10257_1041)"/>
</g>
<path d="M20.5954 18.9981H18.4141V23.1726C18.4432 23.6629 18.322 24.1488 18.0751 24.5314C17.9663 24.6839 17.8321 24.8047 17.6819 24.8854C17.5318 24.9662 17.3694 25.0049 17.2061 24.9989C17.0425 25.0072 16.8795 24.9695 16.7291 24.8886C16.5787 24.8077 16.4447 24.6856 16.337 24.5314C16.0982 24.1524 15.9805 23.6758 16.0068 23.1943V11.8341C15.9874 11.5816 16.0098 11.3267 16.0726 11.0855C16.1354 10.8442 16.2372 10.6217 16.3718 10.4318C16.6976 10.1142 17.1074 9.96267 17.5189 10.0078H20.578C21.2823 9.98022 21.9864 10.0679 22.6725 10.2687C23.1337 10.4212 23.5595 10.7081 23.9152 11.1058C24.2733 11.4887 24.5483 11.9786 24.7147 12.5299C24.9051 13.1355 24.9995 13.7816 24.9928 14.4323C25.0261 15.0695 24.9432 15.7078 24.7505 16.2991C24.5578 16.8904 24.2603 17.4193 23.8804 17.8458C22.9258 18.6959 21.7642 19.1033 20.5954 18.9981ZM20.0218 12.2472H18.4141V16.7478H20.0044C20.4798 16.7645 20.9545 16.6912 21.4123 16.5304C21.7577 16.4126 22.0629 16.1568 22.2814 15.802C22.4934 15.416 22.6001 14.9547 22.5856 14.4867C22.6035 13.9027 22.4382 13.3331 22.1249 12.8995C21.506 12.3641 20.7513 12.132 20.0044 12.2472H20.0218Z" fill="white"/>
<path d="M31.3815 11.7776V15.9385H38.6192V11.7776C38.5807 11.2971 38.7461 10.821 39.0837 10.4405C39.2386 10.2938 39.4283 10.1786 39.6395 10.1028C39.8507 10.0271 40.0783 9.99264 40.3063 10.002C40.5341 9.99408 40.7612 10.0292 40.9722 10.1048C41.1831 10.1805 41.373 10.295 41.5289 10.4405C41.8697 10.8196 42.0355 11.2967 41.9935 11.7776V23.2014C42.0364 23.6874 41.8659 24.1694 41.5167 24.5492C41.3619 24.6967 41.1725 24.8132 40.9615 24.8907C40.7505 24.9683 40.5228 25.005 40.2941 24.9985C40.0638 25.0082 39.8339 24.9718 39.622 24.8921C39.4102 24.8124 39.2219 24.6915 39.0715 24.5385C38.7413 24.1552 38.5807 23.6803 38.6192 23.2014V18.3238H31.3815V23.2014C31.4244 23.6874 31.2539 24.1694 30.9047 24.5492C30.7499 24.6967 30.5605 24.8132 30.3495 24.8907C30.1385 24.9683 29.9109 25.005 29.6821 24.9985C29.4518 25.0082 29.2219 24.9718 29.0101 24.8921C28.7982 24.8124 28.6099 24.6915 28.4595 24.5385C28.1242 24.1574 27.9629 23.6808 28.0072 23.2014V11.7776C27.9653 11.2984 28.1263 10.8225 28.4595 10.4405C28.6134 10.2927 28.8029 10.1766 29.0144 10.1007C29.2258 10.0249 29.4539 9.99115 29.6821 10.002C29.9101 9.99264 30.1377 10.0271 30.3489 10.1028C30.5601 10.1786 30.7498 10.2938 30.9047 10.4405C31.2554 10.8154 31.4263 11.2947 31.3815 11.7776Z" fill="white"/>
<path d="M49.5954 18.9981H47.4141V23.1726C47.4432 23.6629 47.322 24.1488 47.0751 24.5314C46.9663 24.6839 46.8321 24.8047 46.6819 24.8854C46.5318 24.9662 46.3694 25.0049 46.2061 24.9989C46.0425 25.0072 45.8795 24.9695 45.7291 24.8886C45.5787 24.8077 45.4447 24.6856 45.337 24.5314C45.0982 24.1524 44.9805 23.6758 45.0068 23.1943V11.8341C44.9874 11.5816 45.0098 11.3267 45.0726 11.0855C45.1354 10.8442 45.2372 10.6217 45.3718 10.4318C45.6976 10.1142 46.1074 9.96267 46.5189 10.0078H49.578C50.2823 9.98022 50.9864 10.0679 51.6725 10.2687C52.1337 10.4212 52.5595 10.7081 52.9152 11.1058C53.2733 11.4887 53.5483 11.9786 53.7148 12.5299C53.9051 13.1355 53.9995 13.7816 53.9928 14.4323C54.0261 15.0695 53.9432 15.7078 53.7505 16.2991C53.5578 16.8904 53.2603 17.4193 52.8804 17.8458C51.9258 18.6959 50.7642 19.1033 49.5954 18.9981ZM49.0218 12.2472H47.4141V16.7478H48.9871C49.4625 16.7653 49.9372 16.692 50.3949 16.5304C50.7403 16.4126 51.0455 16.1568 51.264 15.802C51.476 15.416 51.5827 14.9547 51.5682 14.4867C51.5861 13.9027 51.4208 13.3331 51.1076 12.8995C50.4886 12.3641 49.7339 12.132 48.9871 12.2472H49.0218Z" fill="white"/>
<defs>
<filter id="filter0_i_10257_1041" x="0" y="0" width="70" height="45.1613" filterUnits="userSpaceOnUse" color-interpolation-filters="sRGB">
<feFlood flood-opacity="0" result="BackgroundImageFix"/>
<feBlend mode="normal" in="SourceGraphic" in2="BackgroundImageFix" result="shape"/>
<feColorMatrix in="SourceAlpha" type="matrix" values="0 0 0 0 0 0 0 0 0 0 0 0 0 0 0 0 0 0 127 0" result="hardAlpha"/>
<feOffset/>
<feGaussianBlur stdDeviation="2"/>
<feComposite in2="hardAlpha" operator="arithmetic" k2="-1" k3="1"/>
<feColorMatrix type="matrix" values="0 0 0 0 0 0 0 0 0 0 0 0 0 0 0 0 0 0 0.12 0"/>
<feBlend mode="normal" in2="shape" result="effect1_innerShadow_10257_1041"/>
</filter>
<linearGradient id="paint0_linear_10257_1041" x1="11.2" y1="35.6774" x2="36.662" y2="-6.86266" gradientUnits="userSpaceOnUse">
<stop stop-color="#F54200"/>
<stop offset="1" stop-color="#FFAE00"/>
</linearGradient>
</defs>
</svg>
