<svg width="70" height="47" viewBox="0 0 70 47" fill="none" xmlns="http://www.w3.org/2000/svg">
<g filter="url(#filter0_i_10257_1029)">
<path d="M64.4827 0L5.24459 0.132308C3.80818 0.178355 2.44899 0.789661 1.46598 1.83177C0.482974 2.87388 -0.0433343 4.26144 0.00279635 5.68926L0.199283 31.4327C0.178672 32.8665 0.726086 34.2509 1.72338 35.287C2.72068 36.3231 4.08786 36.9279 5.52982 36.9708L48.4467 36.8448L62.0741 45.1613L61.4086 36.8196H64.7552C65.467 36.7968 66.1673 36.6347 66.816 36.3428C67.4648 36.0508 68.0493 35.6345 68.5361 35.1179C69.0229 34.6012 69.4025 33.9942 69.6532 33.3316C69.9039 32.669 70.0207 31.9638 69.997 31.2563L69.8005 5.51915C69.8178 4.09022 69.2704 2.71158 68.276 1.67954C67.2816 0.647499 65.9196 0.0444507 64.4827 0Z" fill="url(#paint0_linear_10257_1029)"/>
</g>
<path d="M22.4587 26.264C21.2707 26.264 20.1634 26.0733 19.1367 25.692C18.1247 25.296 17.2447 24.7387 16.4967 24.02C15.7487 23.3013 15.162 22.458 14.7367 21.49C14.326 20.522 14.1207 19.4587 14.1207 18.3C14.1207 17.1413 14.326 16.078 14.7367 15.11C15.162 14.142 15.7487 13.2987 16.4967 12.58C17.2594 11.8613 18.1467 11.3113 19.1587 10.93C20.1707 10.534 21.278 10.336 22.4807 10.336C23.8154 10.336 25.018 10.5707 26.0887 11.04C27.174 11.4947 28.0834 12.1693 28.8167 13.064L26.5287 15.176C26.0007 14.5747 25.414 14.1273 24.7687 13.834C24.1234 13.526 23.4194 13.372 22.6567 13.372C21.938 13.372 21.278 13.4893 20.6767 13.724C20.0754 13.9587 19.5547 14.296 19.1147 14.736C18.6747 15.176 18.33 15.6967 18.0807 16.298C17.846 16.8993 17.7287 17.5667 17.7287 18.3C17.7287 19.0333 17.846 19.7007 18.0807 20.302C18.33 20.9033 18.6747 21.424 19.1147 21.864C19.5547 22.304 20.0754 22.6413 20.6767 22.876C21.278 23.1107 21.938 23.228 22.6567 23.228C23.4194 23.228 24.1234 23.0813 24.7687 22.788C25.414 22.48 26.0007 22.018 26.5287 21.402L28.8167 23.514C28.0834 24.4087 27.174 25.0907 26.0887 25.56C25.018 26.0293 23.808 26.264 22.4587 26.264ZM34.4815 23.382V13.218H37.3195V23.382H34.4815ZM30.6755 19.642V16.958H41.1475V19.642H30.6755ZM47.7374 23.382V13.218H50.5754V23.382H47.7374ZM43.9314 19.642V16.958H54.4034V19.642H43.9314Z" fill="white"/>
<defs>
<filter id="filter0_i_10257_1029" x="0" y="0" width="70" height="45.1613" filterUnits="userSpaceOnUse" color-interpolation-filters="sRGB">
<feFlood flood-opacity="0" result="BackgroundImageFix"/>
<feBlend mode="normal" in="SourceGraphic" in2="BackgroundImageFix" result="shape"/>
<feColorMatrix in="SourceAlpha" type="matrix" values="0 0 0 0 0 0 0 0 0 0 0 0 0 0 0 0 0 0 127 0" result="hardAlpha"/>
<feOffset/>
<feGaussianBlur stdDeviation="2"/>
<feComposite in2="hardAlpha" operator="arithmetic" k2="-1" k3="1"/>
<feColorMatrix type="matrix" values="0 0 0 0 0 0 0 0 0 0 0 0 0 0 0 0 0 0 0.12 0"/>
<feBlend mode="normal" in2="shape" result="effect1_innerShadow_10257_1029"/>
</filter>
<linearGradient id="paint0_linear_10257_1029" x1="11.2" y1="35.6774" x2="36.662" y2="-6.86266" gradientUnits="userSpaceOnUse">
<stop stop-color="#F54200"/>
<stop offset="1" stop-color="#FFAE00"/>
</linearGradient>
</defs>
</svg>
