<svg xmlns="http://www.w3.org/2000/svg" width="25" height="22" viewBox="0 0 25 22" fill="none">
<g clip-path="url(#clip0_9897_940)">
<path d="M0.325768 22.0002C0.22077 21.7984 0.0527733 21.6071 0.0212739 21.3947C-0.031225 21.0123 0.0212739 20.6192 0.000274365 20.2368C-0.0102254 19.8862 0.136772 19.7056 0.493764 19.7163C0.598762 19.7163 0.70376 19.7163 0.808758 19.7163C8.6101 19.7163 16.4009 19.7163 24.2023 19.7269C24.4648 19.7269 24.7273 19.8331 24.9898 19.8862C24.9898 20.5873 24.9898 21.2991 24.9898 22.0002C16.7789 22.0002 8.5471 22.0002 0.325768 22.0002Z" fill="url(#paint0_linear_9897_940)"/>
<path d="M12.5263 9.00827C15.3297 9.00827 18.1332 9.00827 20.9471 9.00827C22.5326 9.00827 23.3096 9.80498 23.3201 11.4197C23.3201 11.4409 23.3201 11.4515 23.3201 11.4728C23.5091 12.4076 23.0786 12.9387 22.2596 13.2999C21.4301 13.6611 20.6321 13.7355 19.9076 13.1087C19.5506 12.8006 19.2566 12.4288 18.9626 12.057C18.5742 11.579 18.2067 11.5684 17.8077 12.0358C17.5452 12.3439 17.2827 12.6519 16.9887 12.9175C16.1592 13.6717 15.2457 13.7567 14.3112 13.1512C13.8912 12.875 13.5133 12.5244 13.1458 12.1739C12.6418 11.6959 12.4213 11.6959 11.9278 12.1951C11.6443 12.482 11.3503 12.7581 11.0248 12.9919C9.92233 13.7992 8.92484 13.7461 7.89586 12.8538C7.73837 12.7157 7.59137 12.5669 7.45487 12.4076C6.75139 11.5896 6.60439 11.5896 5.90091 12.4395C4.94542 13.5867 3.73795 13.8417 2.39398 13.2256C1.86899 12.9812 1.66949 12.6094 1.72199 12.057C1.75349 11.7915 1.78499 11.5259 1.75349 11.2709C1.57499 9.96433 2.61447 8.98702 3.95844 8.99764C6.80389 9.02951 9.65983 9.00827 12.5263 9.00827Z" fill="url(#paint1_linear_9897_940)"/>
<path d="M23.11 18.2819C16.0436 18.2819 9.00874 18.2819 1.94238 18.2819C1.94238 17.1664 1.94238 16.051 1.94238 14.8931C3.69585 15.488 5.22882 15.1056 6.48879 13.7353C8.58875 15.7748 10.5207 15.4987 12.5472 13.6715C15.0566 15.8811 16.8626 15.3712 18.5741 13.6396C19.1515 14.2664 19.7815 14.84 20.6425 15.0631C21.493 15.2862 22.291 15.1056 23.131 14.7444C23.11 15.9342 23.11 17.0815 23.11 18.2819Z" fill="url(#paint2_linear_9897_940)"/>
<path d="M11.0251 8.00977C11.0251 6.95811 11.0146 5.92769 11.0356 4.88665C11.0461 4.54672 11.2876 4.34488 11.6341 4.34488C12.2116 4.33426 12.789 4.33426 13.356 4.34488C13.755 4.34488 13.986 4.57858 13.986 4.97163C14.007 5.97018 13.9965 6.97935 13.9965 8.00977C12.999 8.00977 12.0331 8.00977 11.0251 8.00977Z" fill="url(#paint3_linear_9897_940)"/>
<path d="M12.5162 0C12.7682 0.467407 13.0621 0.998551 13.3456 1.54032C13.4716 1.78465 13.6396 2.02897 13.7131 2.29454C13.8706 2.8788 13.6186 3.51618 13.1671 3.77113C12.7157 4.02607 12.0227 3.95171 11.6552 3.61178C11.2667 3.23998 11.1407 2.52825 11.4137 2.00773C11.7707 1.30662 12.1592 0.62675 12.5162 0Z" fill="url(#paint4_linear_9897_940)"/>
</g>
<defs>
<linearGradient id="paint0_linear_9897_940" x1="6.00169e-07" y1="22.5" x2="25" y2="17.5" gradientUnits="userSpaceOnUse">
<stop stop-color="#FFAE00"/>
<stop offset="1" stop-color="#F54200"/>
</linearGradient>
<linearGradient id="paint1_linear_9897_940" x1="9.30558e-07" y1="21.5" x2="23" y2="9.5" gradientUnits="userSpaceOnUse">
<stop stop-color="#FFAE00"/>
<stop offset="1" stop-color="#F54200"/>
</linearGradient>
<linearGradient id="paint2_linear_9897_940" x1="2" y1="18" x2="23" y2="14" gradientUnits="userSpaceOnUse">
<stop stop-color="#FFAE00"/>
<stop offset="1" stop-color="#F54200"/>
</linearGradient>
<linearGradient id="paint3_linear_9897_940" x1="10" y1="8.5" x2="16" y2="4" gradientUnits="userSpaceOnUse">
<stop stop-color="#FFAE00"/>
<stop offset="1" stop-color="#F54200"/>
</linearGradient>
<linearGradient id="paint4_linear_9897_940" x1="11.5" y1="3.5" x2="15" y2="1.5" gradientUnits="userSpaceOnUse">
<stop stop-color="#FFAE00"/>
<stop offset="1" stop-color="#F54200"/>
</linearGradient>
<clipPath id="clip0_9897_940">
<rect width="25" height="22" fill="white"/>
</clipPath>
</defs>
</svg>
