<svg xmlns="http://www.w3.org/2000/svg" width="25" height="18" viewBox="0 0 25 18" fill="none">
<g clip-path="url(#clip0_9897_935)">
<path d="M12.5243 -0.000452625C15.7077 -0.000452625 18.8848 -0.00645462 22.0682 0.00554937C22.4846 0.00554937 22.9073 0.0475634 23.3109 0.131591C24.0347 0.287643 24.5343 0.719787 24.8481 1.344C25.1236 1.89018 25.0339 2.19028 24.4958 2.50838C23.7977 2.92252 23.0931 3.33066 22.3949 3.7448C19.346 5.5634 16.297 7.37 13.2609 9.20061C12.71 9.53672 12.2745 9.52472 11.7236 9.19461C8.02775 6.96787 4.31266 4.77114 0.603973 2.5624C0.527109 2.51439 0.44384 2.47237 0.373381 2.42436C0.00827751 2.19028 -0.0621811 2.00422 0.0659254 1.61409C0.379787 0.653765 1.16124 0.0955794 2.30779 0.0355594C2.76897 0.0115514 3.23016 0.0115514 3.68494 0.00554937C6.63139 0.00554937 9.57784 0.00554937 12.5243 -0.000452625C12.5243 0.00554937 12.5243 -0.000452625 12.5243 -0.000452625Z" fill="url(#paint0_linear_9897_935)"/>
<path d="M12.4709 17.9998C9.23624 17.9998 6.00796 18.0058 2.77327 17.9938C2.36973 17.9938 1.95338 17.9518 1.56266 17.8498C0.774804 17.6397 0.287999 17.1175 0.0510014 16.3913C-0.0706999 16.0132 -0.000241275 15.8271 0.364862 15.611C3.34975 13.8524 6.33463 12.0938 9.31951 10.3353C9.63337 10.1492 9.96645 10.1492 10.2803 10.3233C10.844 10.6354 11.3948 10.9595 11.9457 11.2896C12.4005 11.5657 12.5926 11.5717 13.0346 11.3016C13.6175 10.9475 14.2068 10.6054 14.7897 10.2512C15.1035 10.0592 15.3854 10.1192 15.6736 10.2932C16.628 10.8694 17.5824 11.4396 18.5432 12.0098C20.5032 13.1742 22.4697 14.3266 24.4297 15.491C25.0318 15.8451 25.1279 16.1392 24.8332 16.7334C24.4297 17.5377 23.6995 17.8798 22.8091 17.9818C22.5849 18.0058 22.3608 18.0058 22.1366 18.0058C18.9147 17.9998 15.6928 17.9998 12.4709 17.9998Z" fill="url(#paint1_linear_9897_935)"/>
<path d="M0.0449219 13.8285C0.0449219 10.5994 0.0449219 7.42439 0.0449219 4.19531C2.74797 5.80985 5.41259 7.39438 8.12204 9.00891C5.41899 10.6235 2.75438 12.214 0.0449219 13.8285Z" fill="url(#paint2_linear_9897_935)"/>
<path d="M16.8975 9.00892C19.5941 7.40038 22.2587 5.80985 24.9618 4.19531C24.9618 7.41238 24.9618 10.5814 24.9618 13.8165C22.2651 12.214 19.6005 10.6235 16.8975 9.00892Z" fill="url(#paint3_linear_9897_935)"/>
</g>
<defs>
<linearGradient id="paint0_linear_9897_935" x1="1" y1="17.5" x2="24.5" y2="2.5" gradientUnits="userSpaceOnUse">
<stop stop-color="#FFAE00"/>
<stop offset="1" stop-color="#F54200"/>
</linearGradient>
<linearGradient id="paint1_linear_9897_935" x1="0.499999" y1="17" x2="25" y2="2" gradientUnits="userSpaceOnUse">
<stop stop-color="#FFAE00"/>
<stop offset="1" stop-color="#F54200"/>
</linearGradient>
<linearGradient id="paint2_linear_9897_935" x1="3.03812e-07" y1="17" x2="25.5" y2="2.5" gradientUnits="userSpaceOnUse">
<stop stop-color="#FFAE00"/>
<stop offset="1" stop-color="#F54200"/>
</linearGradient>
<linearGradient id="paint3_linear_9897_935" x1="1" y1="17.5" x2="26" y2="3" gradientUnits="userSpaceOnUse">
<stop stop-color="#FFAE00"/>
<stop offset="1" stop-color="#F54200"/>
</linearGradient>
<clipPath id="clip0_9897_935">
<rect width="25" height="18" fill="white"/>
</clipPath>
</defs>
</svg>
