<svg xmlns="http://www.w3.org/2000/svg" width="22" height="22" viewBox="0 0 22 22" fill="none">
                                        <g clip-path="url(#clip0_5893_1968)">
                                            <path d="M4.54095 9.54438C6.32071 12.958 8.84849 15.5472 12.1888 17.3248C12.3306 17.4021 12.666 17.3119 12.8078 17.1831C13.5687 16.4617 14.3167 15.7275 15.039 14.9675C15.4388 14.5424 15.8773 14.478 16.4318 14.581C17.7473 14.8129 19.0757 15.0448 20.404 15.1994C21.4616 15.3282 21.8356 15.676 21.8356 16.758C21.8356 17.9174 21.8356 19.0638 21.8356 20.2231C21.8356 21.4726 21.4358 21.8591 20.159 21.8333C11.0796 21.6787 2.95464 15.238 0.81377 6.4013C0.439762 4.84264 0.323691 3.20669 0.181825 1.5965C0.0915477 0.643272 0.620317 0.179538 1.57468 0.179538C2.83857 0.166656 4.10246 0.166656 5.36635 0.166656C6.29492 0.166656 6.68183 0.591746 6.7979 1.51921C6.97845 2.88465 7.22349 4.25009 7.48143 5.60265C7.5846 6.18231 7.48143 6.64605 7.05583 7.05825C6.20464 7.88267 5.37925 8.70709 4.54095 9.54438Z" fill="#2a9f2e"></path>
                                        </g>
                                        <defs>
                                            <clipPath id="clip0_5893_1968">
                                                <rect width="21.6667" height="21.6667" fill="white" transform="translate(0.166016 0.166656)"></rect>
                                            </clipPath>
                                        </defs>
                                    </svg>