<svg xmlns="http://www.w3.org/2000/svg" width="12" height="10" viewBox="0 0 12 10" fill="none">
                                <path d="M5.32018 9.26017C5.15944 9.41373 4.94146 9.5 4.71417 9.5C4.48689 9.5 4.26891 9.41373 4.10816 9.26017L0.250963 5.57417C0.090271 5.42056 0 5.21225 0 4.99505C0 4.77786 0.090271 4.56955 0.250963 4.41594L4.10816 0.729935C4.26983 0.580727 4.48635 0.498165 4.71109 0.500031C4.93583 0.501898 5.15082 0.588042 5.30974 0.739912C5.46867 0.891783 5.55881 1.09723 5.56076 1.312C5.56272 1.52676 5.47632 1.73367 5.32018 1.88816L2.99986 4.17594L11.1428 4.17594C11.3702 4.17594 11.5882 4.26224 11.7489 4.41585C11.9097 4.56947 12 4.77781 12 4.99505C12 5.2123 11.9097 5.42064 11.7489 5.57425C11.5882 5.72787 11.3702 5.81417 11.1428 5.81417L2.99986 5.81417L5.32018 8.10195C5.48088 8.25556 5.57115 8.46386 5.57115 8.68106C5.57115 8.89826 5.48088 9.10657 5.32018 9.26017Z" fill="currentColor"></path>
                            </svg>