<svg width="25" height="25" viewBox="0 0 25 25" fill="none" xmlns="http://www.w3.org/2000/svg">
                            <path d="M15.4134 0.540771H22.489C23.572 0.540771 24.4601 1.42891 24.4601 2.51188V9.5875C24.4601 10.6776 23.5731 11.5586 22.489 11.5586H15.4134C14.3222 11.5586 13.4423 10.6787 13.4423 9.5875V2.51188C13.4423 1.42783 14.3233 0.540771 15.4134 0.540771Z" stroke="#ffffff"></path>
                            <path d="M2.97143 0.5H8.74589C10.1129 0.5 11.2173 1.6122 11.2173 2.97143V8.74589C11.2173 10.1139 10.1139 11.2173 8.74589 11.2173H2.97143C1.6122 11.2173 0.5 10.1129 0.5 8.74589V2.97143C0.5 1.61328 1.61328 0.5 2.97143 0.5Z" stroke="#ffffff"></path>
                            <path d="M2.97143 13.783H8.74589C10.1139 13.783 11.2173 14.8863 11.2173 16.2544V22.0289C11.2173 23.3881 10.1129 24.5003 8.74589 24.5003H2.97143C1.61328 24.5003 0.5 23.387 0.5 22.0289V16.2544C0.5 14.8874 1.6122 13.783 2.97143 13.783Z" stroke="#ffffff"></path>
                            <path d="M16.2537 13.783H22.0282C23.3874 13.783 24.4996 14.8874 24.4996 16.2544V22.0289C24.4996 23.387 23.3863 24.5003 22.0282 24.5003H16.2537C14.8867 24.5003 13.7823 23.3881 13.7823 22.0289V16.2544C13.7823 14.8863 14.8856 13.783 16.2537 13.783Z" stroke="#ffffff"></path>
                        </svg>