<svg xmlns="http://www.w3.org/2000/svg" width="45" height="45" viewBox="0 0 40 40" fill="none">
                                    <circle cx="20" cy="20" r="19.5" fill="white" stroke="#cee7d5"></circle>
                                    <path d="M16.334 11.9475C16.5284 12.3933 16.7545 12.8375 16.9668 13.26C14.8601 14.2477 13.4053 15.8015 12.999 18.1292L12.9277 18.5364L13.3154 18.6829C13.6459 18.8073 13.9924 18.9188 14.2793 19.0198C14.5796 19.1255 14.8462 19.23 15.0879 19.3586V19.3577C16.4942 20.1068 17.3428 21.1934 17.6006 22.6321L17.6445 22.9241C17.8199 24.3824 17.3715 25.5643 16.5791 26.427C15.8287 27.2439 14.7521 27.7926 13.5615 27.9915L13.3213 28.0256C10.9504 28.3242 8.65229 27.1495 7.78613 24.679L7.70703 24.4358C7.13908 22.556 7.28334 20.6931 7.99414 18.8674L8.14355 18.5032C9.65351 15.0031 12.4124 12.8625 16.334 11.9475Z" fill="#cee7d5" stroke="#cee7d5"></path>
                                    <path d="M30.7148 11.9507C30.9159 12.3917 31.1338 12.8313 31.3447 13.2593C29.2365 14.2442 27.7883 15.8089 27.3613 18.1958L27.2764 18.6675L27.7432 18.772L28.1924 18.8735H28.1943C29.2773 19.1707 30.1303 19.638 30.7568 20.2671C31.3026 20.8152 31.695 21.5043 31.9121 22.355L31.9941 22.729C32.4649 25.2666 30.7324 27.5421 27.9727 27.9907L27.7031 28.0288C25.1062 28.3316 22.8147 26.9289 22.0645 24.3677L21.9961 24.1157C21.4635 21.9521 21.7955 19.8851 22.7959 17.8979L23.0049 17.5015C24.6379 14.5349 27.2469 12.7396 30.7148 11.9507Z" fill="#cee7d5" stroke="#cee7d5"></path>
                                </svg>