<svg xmlns="http://www.w3.org/2000/svg" width="12" height="10" viewBox="0 0 12 10" fill="none">
                                <path d="M6.67982 0.739825C6.84056 0.586265 7.05854 0.5 7.28583 0.5C7.51311 0.5 7.73109 0.586265 7.89184 0.739825L11.749 4.42583C11.9097 4.57944 12 4.78775 12 5.00495C12 5.22214 11.9097 5.43045 11.749 5.58406L7.89184 9.27007C7.73017 9.41927 7.51365 9.50183 7.28891 9.49997C7.06417 9.4981 6.84918 9.41196 6.69026 9.26009C6.53133 9.10822 6.44119 8.90277 6.43924 8.688C6.43728 8.47324 6.52368 8.26633 6.67982 8.11184L9.00014 5.82406H0.857156C0.629824 5.82406 0.411803 5.73776 0.251055 5.58415C0.0903073 5.43053 0 5.22219 0 5.00495C0 4.7877 0.0903073 4.57936 0.251055 4.42575C0.411803 4.27213 0.629824 4.18583 0.857156 4.18583H9.00014L6.67982 1.89805C6.51912 1.74444 6.42885 1.53614 6.42885 1.31894C6.42885 1.10174 6.51912 0.893431 6.67982 0.739825Z" fill="currentColor"></path>
                            </svg>