<svg xmlns="http://www.w3.org/2000/svg" width="45" height="45" viewBox="0 0 40 40" fill="none">
                                    <circle cx="20" cy="20" r="19.5" transform="rotate(-180 20 20)" fill="white" stroke="#cee7d5"></circle>
                                    <path d="M23.666 28.0525C23.4716 27.6067 23.2455 27.1625 23.0332 26.74C25.1399 25.7523 26.5947 24.1985 27.001 21.8708L27.0723 21.4636L26.6846 21.3171C26.3541 21.1927 26.0076 21.0812 25.7207 20.9802C25.4204 20.8745 25.1538 20.77 24.9121 20.6414V20.6423C23.5058 19.8932 22.6572 18.8066 22.3994 17.3679L22.3555 17.0759C22.1801 15.6176 22.6285 14.4357 23.4209 13.573C24.1713 12.7561 25.2479 12.2074 26.4385 12.0085L26.6787 11.9744C29.0496 11.6758 31.3477 12.8505 32.2139 15.321L32.293 15.5642C32.8609 17.444 32.7167 19.3069 32.0059 21.1326L31.8564 21.4968C30.3465 24.9969 27.5876 27.1375 23.666 28.0525Z" fill="#cee7d5" stroke="#cee7d5"></path>
                                    <path d="M9.28516 28.0493C9.08408 27.6083 8.86622 27.1687 8.65527 26.7407C10.7635 25.7558 12.2117 24.1911 12.6387 21.8042L12.7236 21.3325L12.2568 21.228L11.8076 21.1265H11.8057C10.7227 20.8293 9.86973 20.362 9.24316 19.7329C8.69738 19.1848 8.30499 18.4957 8.08789 17.645L8.00586 17.271C7.5351 14.7334 9.26758 12.4579 12.0273 12.0093L12.2969 11.9712C14.8938 11.6684 17.1853 13.0711 17.9355 15.6323L18.0039 15.8843C18.5365 18.0479 18.2045 20.1149 17.2041 22.1021L16.9951 22.4985C15.3621 25.4651 12.7531 27.2604 9.28516 28.0493Z" fill="#cee7d5" stroke="#cee7d5"></path>
                                </svg>