<svg xmlns="http://www.w3.org/2000/svg" width="670" height="50" viewBox="0 0 670 50" fill="none">
                                <g clip-path="url(#clip0_9563_935)">
                                    <path d="M672.231 58.8728L672.231 33.0015C668.957 29.3952 663.77 26.8516 658.613 26.8282C650.341 26.7907 643.343 32.4947 641.296 40.2878L640.894 41.8143L639.685 40.799C636.62 38.2267 632.7 36.6745 628.423 36.6551C627.587 36.6513 626.765 36.707 625.959 36.8167L625.014 36.9453L624.84 36.0079C623.289 27.6134 616.068 21.267 607.392 21.2274C597.555 21.1827 589.514 29.2624 589.469 39.3102C589.467 39.6288 589.475 39.9503 589.489 40.2722L589.57 42.2121L587.944 41.1519C585.194 39.3597 581.931 38.317 578.423 38.3011C573.551 38.2789 569.127 40.2454 565.89 43.4581L565.22 44.124L564.518 43.4919C561.392 40.681 557.291 38.9698 552.797 38.9493C548.309 38.9289 543.82 40.7594 540.622 43.7632L539.851 44.4882L539.171 43.6766C536.199 40.1291 531.917 37.7659 527.087 37.3579L526.2 37.2826L526.172 36.3928C525.868 26.6556 518.04 18.8626 508.424 18.8189C500.778 18.7842 494.221 23.6532 491.654 30.5475L491.37 31.3099L490.567 31.1871C489.736 31.0609 488.885 30.9939 488.021 30.99C482.593 30.9655 477.719 33.4114 474.427 37.2985L473.777 38.065L473.013 37.4122C469.934 34.7806 465.971 33.1906 461.639 33.1691L460.313 33.1621L460.684 31.8893C461.153 30.2791 461.409 28.5709 461.417 26.8018C461.462 16.754 453.496 8.60161 443.659 8.55687C434.631 8.51586 427.116 15.3192 425.908 24.2088L425.717 25.6142L424.457 24.962C422.056 23.7196 419.341 23.011 416.463 22.998C407.575 22.9577 400.155 29.5497 398.771 38.2351L398.589 39.3798L397.483 39.032C395.837 38.5138 394.091 38.2285 392.277 38.2203C391.15 38.2152 390.047 38.3182 388.977 38.5159L388.026 38.6922L387.818 37.7469C386.044 29.6455 378.961 23.5933 370.489 23.5548C365.24 23.5311 360.509 25.8175 357.224 29.4829L356.398 30.404L355.67 29.4045C354.341 27.5787 352.719 25.9844 350.876 24.6972L350.374 24.3472L350.459 23.7402C350.469 23.6651 350.462 23.4394 350.393 23.0192C350.329 22.6312 350.231 22.1766 350.122 21.6947C350.016 21.2247 349.899 20.7222 349.811 20.2821C349.74 19.9275 349.676 19.5457 349.658 19.217C347.185 10.8291 340.003 5.48371 331.592 5.44533C322.927 5.40598 315.089 9.17168 311.775 13.4257L311.384 13.9269L310.764 13.7864C309.385 13.4738 307.951 13.3048 306.477 13.2981C299.592 13.2669 293.494 16.7642 289.843 22.1368L289.278 22.9682L288.449 22.398C285.627 20.4585 282.228 19.32 278.567 19.3033C270.54 19.2668 263.708 24.6415 261.442 32.0831L261.125 33.1256L260.113 32.7196C258.109 31.9139 255.927 31.4652 253.642 31.4549C253.409 31.4538 253.174 31.458 252.937 31.4663L252.151 31.494L251.94 30.7372C249.815 23.1546 242.976 17.6076 234.865 17.5706C230.935 17.5528 227.295 18.8309 224.334 21.0111L223.278 21.7895L222.808 20.5637C220.22 13.8179 213.79 9.04124 206.266 9.00704C198.283 8.97079 191.485 14.2838 189.179 21.662L188.907 22.5348L188.012 22.3413C186.832 22.0852 185.607 21.9456 184.351 21.9399C180.54 21.9226 177.007 23.1224 174.098 25.1814L173.312 25.7374L172.727 24.974C169.474 20.7399 164.425 18.0154 158.745 17.9896C153.67 17.9665 149.076 20.1041 145.808 23.5607L144.27 25.1876L144.085 22.9562C143.316 13.6732 135.69 6.38682 126.392 6.34445C117.089 6.3022 109.691 13.2466 108.603 22.2795L108.46 23.4702L107.314 23.1154C105.699 22.6144 103.982 22.3405 102.203 22.3324C92.3659 22.2877 84.3252 30.3674 84.2796 40.4153C84.2781 40.7358 84.2848 41.0543 84.2997 41.3665L84.3969 43.3982L82.7284 42.2334C79.8818 40.2469 76.4441 39.0789 72.7339 39.062C69.6276 39.048 66.7037 39.8442 64.1535 41.2536L62.7212 42.0449L62.67 40.4099C62.3662 30.6747 54.5385 22.8816 44.9225 22.8379C36.1039 22.7979 28.7308 29.2878 27.2652 37.8741L27.0535 39.1114L25.8945 38.6296C23.84 37.7738 21.5919 37.2966 19.2336 37.2858C13.0024 37.2575 7.49685 40.4871 4.28047 45.4172L3.34131 46.8554L2.55428 45.3303C1.47063 43.2317 -0.0877372 41.39 -1.91414 39.8734L-1.91344 55.8453L672.231 58.8728Z" fill="#fefcee" stroke="#f8ce0e" stroke-width="2"></path>
                                    <path d="M26.4999 29C30.8208 21.9601 36.74 18.5 45.0002 18.5C52.5 18.5 58.9413 21.615 62.9995 29" stroke="#f8ce0e"></path>
                                    <path d="M108 12.1328C112.321 5.09294 118.24 1.63281 126.5 1.6328C134 1.63279 140.441 4.74782 144.5 12.1329" stroke="#f8ce0e"></path>
                                    <path d="M188 15.1328C192.321 8.09294 198.24 4.63281 206.5 4.6328C214 4.63279 220.441 7.74782 224.5 15.1329" stroke="#f8ce0e"></path>
                                    <path d="M426 12.5C431.115 6.01377 437.354 4.0983 445.601 4.55888C453.5 5 460.833 10.691 463.999 18.5" stroke="#f8ce0e"></path>
                                    <path d="M316.5 5.00002C323.5 1 331.534 0.314687 339.5 2.49994C345.5 4.14593 351.539 10.3045 353.499 18.5" stroke="#f8ce0e"></path>
                                    <path d="M490 25.1328C494.321 18.0929 500.24 14.6328 508.5 14.6328C516 14.6328 522.441 17.7478 526.5 25.1329" stroke="#f8ce0e"></path>
                                    <path d="M587.538 28.1277C591.06 21.2418 596.563 17.4913 604.772 16.6946C612.226 15.9713 618.97 18.2125 623.814 24.6073" stroke="#f8ce0e"></path>
                                </g>
                                <defs>
                                    <clipPath id="clip0_9563_935">
                                        <rect width="670" height="50" fill="white"></rect>
                                    </clipPath>
                                </defs>
                            </svg>