<svg xmlns="http://www.w3.org/2000/svg" version="1.1" width="100" height="130" viewBox="0 0 130 130"><rect x="0" y="0" width="130" height="130" fill="#ffffff"></rect><g transform="scale(4.483)"><g transform="translate(0,0)"><path fill-rule="evenodd" d="M8 0L8 1L9 1L9 2L8 2L8 5L9 5L9 4L11 4L11 5L10 5L10 10L9 10L9 12L8 12L8 9L9 9L9 8L8 8L8 9L7 9L7 8L6 8L6 9L7 9L7 10L4 10L4 8L0 8L0 10L1 10L1 9L2 9L2 10L3 10L3 11L0 11L0 12L1 12L1 13L2 13L2 12L5 12L5 13L4 13L4 14L3 14L3 15L4 15L4 16L5 16L5 17L7 17L7 16L8 16L8 18L4 18L4 19L7 19L7 20L6 20L6 21L8 21L8 22L9 22L9 24L10 24L10 25L11 25L11 26L10 26L10 27L11 27L11 26L12 26L12 28L10 28L10 29L12 29L12 28L14 28L14 27L15 27L15 28L17 28L17 27L15 27L15 26L17 26L17 25L18 25L18 24L19 24L19 23L20 23L20 25L21 25L21 26L22 26L22 25L23 25L23 27L22 27L22 28L21 28L21 27L20 27L20 26L19 26L19 27L18 27L18 29L23 29L23 27L24 27L24 28L25 28L25 29L26 29L26 27L27 27L27 29L28 29L28 27L29 27L29 23L28 23L28 22L29 22L29 21L27 21L27 18L28 18L28 15L29 15L29 13L27 13L27 12L25 12L25 11L24 11L24 12L25 12L25 13L26 13L26 15L27 15L27 17L26 17L26 16L25 16L25 15L24 15L24 17L23 17L23 19L21 19L21 20L20 20L20 22L19 22L19 18L18 18L18 19L17 19L17 18L16 18L16 17L17 17L17 14L18 14L18 15L20 15L20 18L22 18L22 16L21 16L21 15L20 15L20 14L23 14L23 13L20 13L20 12L21 12L21 11L22 11L22 10L25 10L25 9L27 9L27 8L24 8L24 9L22 9L22 8L21 8L21 5L20 5L20 3L21 3L21 2L20 2L20 3L19 3L19 1L21 1L21 0L16 0L16 1L17 1L17 2L16 2L16 3L14 3L14 2L13 2L13 1L14 1L14 0L12 0L12 1L11 1L11 0L10 0L10 1L9 1L9 0ZM11 2L11 4L12 4L12 3L13 3L13 2ZM17 2L17 3L18 3L18 2ZM13 4L13 5L12 5L12 6L11 6L11 8L12 8L12 6L13 6L13 11L11 11L11 13L10 13L10 14L9 14L9 13L8 13L8 12L7 12L7 11L6 11L6 12L7 12L7 13L5 13L5 14L8 14L8 15L10 15L10 16L9 16L9 17L10 17L10 18L9 18L9 21L10 21L10 22L11 22L11 23L10 23L10 24L11 24L11 23L14 23L14 22L15 22L15 23L17 23L17 24L18 24L18 23L19 23L19 22L18 22L18 21L13 21L13 18L15 18L15 17L16 17L16 16L15 16L15 17L14 17L14 15L13 15L13 14L14 14L14 13L13 13L13 14L12 14L12 16L11 16L11 15L10 15L10 14L11 14L11 13L12 13L12 12L13 12L13 11L14 11L14 12L16 12L16 13L17 13L17 12L18 12L18 14L19 14L19 12L20 12L20 10L19 10L19 9L17 9L17 10L19 10L19 11L16 11L16 9L15 9L15 10L14 10L14 8L16 8L16 6L17 6L17 7L18 7L18 6L17 6L17 5L19 5L19 4L17 4L17 5L14 5L14 4ZM13 5L13 6L14 6L14 7L15 7L15 6L14 6L14 5ZM8 6L8 7L9 7L9 6ZM19 6L19 7L20 7L20 6ZM20 8L20 9L21 9L21 8ZM28 8L28 10L26 10L26 11L28 11L28 12L29 12L29 11L28 11L28 10L29 10L29 8ZM11 9L11 10L12 10L12 9ZM0 14L0 15L1 15L1 14ZM15 14L15 15L16 15L16 14ZM6 15L6 16L7 16L7 15ZM10 16L10 17L11 17L11 16ZM12 16L12 17L13 17L13 16ZM18 16L18 17L19 17L19 16ZM2 17L2 19L3 19L3 17ZM24 17L24 18L25 18L25 19L24 19L24 20L26 20L26 18L25 18L25 17ZM0 18L0 19L1 19L1 18ZM10 18L10 19L11 19L11 20L10 20L10 21L11 21L11 20L12 20L12 19L11 19L11 18ZM15 19L15 20L16 20L16 19ZM1 20L1 21L5 21L5 20ZM21 21L21 24L24 24L24 21ZM22 22L22 23L23 23L23 22ZM26 22L26 24L25 24L25 25L26 25L26 26L24 26L24 27L26 27L26 26L27 26L27 27L28 27L28 25L26 25L26 24L28 24L28 23L27 23L27 22ZM12 24L12 26L13 26L13 27L14 27L14 26L15 26L15 24ZM8 25L8 29L9 29L9 25ZM13 25L13 26L14 26L14 25ZM0 0L0 7L7 7L7 0ZM1 1L1 6L6 6L6 1ZM2 2L2 5L5 5L5 2ZM22 0L22 7L29 7L29 0ZM23 1L23 6L28 6L28 1ZM24 2L24 5L27 5L27 2ZM0 22L0 29L7 29L7 22ZM1 23L1 28L6 28L6 23ZM2 24L2 27L5 27L5 24Z" fill="#000000"></path></g></g></svg>