<svg xmlns="http://www.w3.org/2000/svg" width="670" height="50" viewBox="0 0 670 50" fill="none">
                                <g clip-path="url(#clip0_9563_935)">
                                    <path d="M-2.23109 -8.87282L-2.2314 16.9985C1.04298 20.6048 6.23019 23.1484 11.3872 23.1718C19.6589 23.2093 26.6566 17.5053 28.7044 9.71221L29.1058 8.18569L30.3151 9.20096C33.3799 11.7733 37.2998 13.3255 41.5767 13.3449C42.4129 13.3487 43.2351 13.293 44.0413 13.1833L44.9862 13.0547L45.1597 13.9921C46.711 22.3866 53.9319 28.733 62.6084 28.7726C72.4452 28.8173 80.4859 20.7376 80.5315 10.6898C80.5329 10.3712 80.5249 10.0497 80.5115 9.72777L80.4304 7.78793L82.0565 8.84806C84.8062 10.6403 88.0686 11.683 91.5768 11.6989C96.4486 11.7211 100.873 9.75462 104.11 6.54194L104.78 5.87603L105.482 6.50814C108.608 9.31899 112.709 11.0302 117.203 11.0507C121.692 11.0711 126.18 9.24059 129.378 6.23678L130.149 5.51176L130.829 6.32345C133.801 9.87092 138.083 12.2341 142.913 12.6421L143.8 12.7174L143.828 13.6072C144.132 23.3444 151.96 31.1374 161.576 31.1811C169.222 31.2158 175.779 26.3468 178.346 19.4525L178.63 18.6901L179.433 18.8129C180.264 18.9391 181.115 19.0061 181.979 19.01C187.407 19.0345 192.281 16.5886 195.573 12.7015L196.223 11.935L196.987 12.5878C200.066 15.2194 204.029 16.8094 208.361 16.8309L209.688 16.8379L209.316 18.1107C208.847 19.7209 208.591 21.4291 208.583 23.1982C208.538 33.246 216.504 41.3984 226.341 41.4431C235.369 41.4841 242.884 34.6808 244.093 25.7912L244.283 24.3858L245.543 25.038C247.944 26.2804 250.659 26.989 253.537 27.002C262.425 27.0423 269.845 20.4503 271.229 11.7649L271.411 10.6202L272.517 10.968C274.163 11.4862 275.909 11.7715 277.723 11.7797C278.85 11.7848 279.953 11.6818 281.023 11.4841L281.974 11.3078L282.182 12.2531C283.956 20.3545 291.039 26.4067 299.511 26.4452C304.76 26.4689 309.491 24.1825 312.776 20.5171L313.602 19.596L314.33 20.5955C315.66 22.4213 317.281 24.0156 319.124 25.3028L319.626 25.6528L319.541 26.2598C319.531 26.3349 319.538 26.5606 319.607 26.9808C319.671 27.3688 319.769 27.8234 319.878 28.3053C319.984 28.7753 320.101 29.2778 320.189 29.7179C320.26 30.0725 320.324 30.4543 320.342 30.783C322.815 39.1709 329.997 44.5163 338.408 44.5547C347.073 44.594 354.911 40.8283 358.225 36.5743L358.616 36.0731L359.236 36.2136C360.615 36.5262 362.049 36.6951 363.523 36.7019C370.408 36.7331 376.506 33.2358 380.157 27.8632L380.722 27.0318L381.551 27.602C384.373 29.5415 387.772 30.68 391.433 30.6967C399.46 30.7332 406.292 25.3585 408.558 17.9169L408.875 16.8744L409.887 17.2804C411.891 18.0861 414.073 18.5348 416.358 18.5451C416.591 18.5462 416.826 18.542 417.063 18.5337L417.849 18.506L418.06 19.2628C420.185 26.8454 427.024 32.3924 435.135 32.4294C439.065 32.4472 442.705 31.1691 445.666 28.9889L446.722 28.2105L447.192 29.4363C449.78 36.1821 456.21 40.9588 463.734 40.993C471.717 41.0292 478.515 35.7162 480.821 28.338L481.093 27.4652L481.988 27.6587C483.168 27.9148 484.393 28.0544 485.649 28.0601C489.46 28.0774 492.993 26.8776 495.902 24.8186L496.688 24.2626L497.273 25.026C500.526 29.2601 505.575 31.9846 511.255 32.0104C516.33 32.0335 520.924 29.8959 524.192 26.4393L525.73 24.8124L525.915 27.0438C526.684 36.3268 534.31 43.6132 543.608 43.6555C552.911 43.6978 560.309 36.7534 561.397 27.7205L561.54 26.5298L562.686 26.8846C564.301 27.3856 566.018 27.6595 567.797 27.6676C577.634 27.7123 585.675 19.6326 585.72 9.58473C585.722 9.26424 585.715 8.94572 585.7 8.63346L585.603 6.60175L587.272 7.76657C590.118 9.75307 593.556 10.9211 597.266 10.938C600.372 10.952 603.296 10.1558 605.846 8.74644L607.279 7.95509L607.33 9.5901C607.634 19.3253 615.461 27.1184 625.078 27.1621C633.896 27.2021 641.269 20.7122 642.735 12.1259L642.947 10.8886L644.105 11.3704C646.16 12.2262 648.408 12.7034 650.766 12.7142C656.998 12.7425 662.503 9.51293 665.72 4.58277L666.659 3.14464L667.446 4.66972C668.529 6.76828 670.088 8.61003 671.914 10.1266L671.913 -5.84526L-2.23109 -8.87282Z" fill="#d8f3f1" stroke="#1cbbb4" stroke-width="2"></path>
                                    <path d="M643.5 21C639.179 28.0399 633.26 31.5 625 31.5C617.5 31.5 611.059 28.385 607 21" stroke="#1cbbb4"></path>
                                    <path d="M562 37.8672C557.679 44.9071 551.76 48.3672 543.5 48.3672C536 48.3672 529.559 45.2522 525.5 37.8671" stroke="#1cbbb4"></path>
                                    <path d="M482 34.8672C477.679 41.9071 471.76 45.3672 463.5 45.3672C456 45.3672 449.559 42.2522 445.5 34.8671" stroke="#1cbbb4"></path>
                                    <path d="M244 37.5C238.885 43.9862 232.646 45.9017 224.399 45.4411C216.5 45 209.167 39.309 206.001 31.5" stroke="#1cbbb4"></path>
                                    <path d="M353.5 45C346.5 49 338.466 49.6853 330.5 47.5001C324.5 45.8541 318.461 39.6955 316.501 31.5" stroke="#1cbbb4"></path>
                                    <path d="M180 24.8672C175.679 31.9071 169.76 35.3672 161.5 35.3672C154 35.3672 147.559 32.2522 143.5 24.8671" stroke="#1cbbb4"></path>
                                    <path d="M82.4616 21.8723C78.9402 28.7582 73.4373 32.5087 65.2278 33.3054C57.7739 34.0287 51.0301 31.7875 46.1858 25.3927" stroke="#1cbbb4"></path>
                                </g>
                                <defs>
                                    <clipPath id="clip0_9563_935">
                                        <rect width="670" height="50" fill="white" transform="matrix(-1 0 0 -1 670 50)"></rect>
                                    </clipPath>
                                </defs>
                            </svg>