<svg xmlns="http://www.w3.org/2000/svg" version="1.1" width="130" height="130" viewBox="0 0 130 130"><rect x="0" y="0" width="130" height="130" fill="#ffffff"></rect><g transform="scale(4.483)"><g transform="translate(0,0)"><path fill-rule="evenodd" d="M10 0L10 2L11 2L11 0ZM12 0L12 1L13 1L13 0ZM16 0L16 1L14 1L14 3L13 3L13 2L12 2L12 4L13 4L13 5L11 5L11 6L10 6L10 4L11 4L11 3L8 3L8 4L9 4L9 5L8 5L8 7L9 7L9 8L6 8L6 9L5 9L5 8L0 8L0 9L1 9L1 11L0 11L0 15L2 15L2 16L1 16L1 17L0 17L0 21L1 21L1 17L2 17L2 21L5 21L5 20L4 20L4 17L5 17L5 18L6 18L6 19L9 19L9 20L6 20L6 21L8 21L8 23L10 23L10 22L9 22L9 20L10 20L10 21L11 21L11 22L12 22L12 21L13 21L13 22L15 22L15 23L14 23L14 24L13 24L13 23L11 23L11 24L10 24L10 25L9 25L9 24L8 24L8 29L9 29L9 27L10 27L10 29L11 29L11 28L12 28L12 27L13 27L13 26L14 26L14 28L13 28L13 29L18 29L18 28L15 28L15 27L16 27L16 26L17 26L17 27L18 27L18 26L19 26L19 25L18 25L18 24L20 24L20 26L21 26L21 27L19 27L19 29L20 29L20 28L21 28L21 27L22 27L22 29L27 29L27 28L28 28L28 26L29 26L29 25L28 25L28 23L27 23L27 22L29 22L29 20L28 20L28 19L27 19L27 16L28 16L28 15L27 15L27 14L25 14L25 13L27 13L27 12L28 12L28 11L27 11L27 12L26 12L26 11L25 11L25 9L26 9L26 8L25 8L25 9L24 9L24 8L23 8L23 9L22 9L22 8L21 8L21 9L18 9L18 8L17 8L17 9L16 9L16 10L15 10L15 8L16 8L16 7L17 7L17 6L18 6L18 7L19 7L19 8L20 8L20 7L21 7L21 4L20 4L20 3L21 3L21 0ZM8 1L8 2L9 2L9 1ZM16 1L16 2L17 2L17 3L16 3L16 4L14 4L14 5L16 5L16 4L17 4L17 3L19 3L19 2L20 2L20 1ZM18 5L18 6L19 6L19 7L20 7L20 5ZM9 6L9 7L10 7L10 6ZM11 6L11 7L12 7L12 8L15 8L15 7L16 7L16 6L15 6L15 7L14 7L14 6L13 6L13 7L12 7L12 6ZM10 8L10 9L9 9L9 11L8 11L8 10L7 10L7 9L6 9L6 10L7 10L7 11L6 11L6 12L5 12L5 11L4 11L4 12L2 12L2 11L3 11L3 10L5 10L5 9L3 9L3 10L2 10L2 11L1 11L1 12L2 12L2 15L4 15L4 14L3 14L3 13L6 13L6 14L7 14L7 15L5 15L5 16L7 16L7 17L6 17L6 18L7 18L7 17L8 17L8 15L9 15L9 16L10 16L10 14L11 14L11 15L12 15L12 14L13 14L13 16L11 16L11 17L12 17L12 18L11 18L11 21L12 21L12 19L13 19L13 20L15 20L15 19L14 19L14 17L13 17L13 16L14 16L14 15L15 15L15 14L17 14L17 12L18 12L18 13L19 13L19 11L23 11L23 12L20 12L20 14L18 14L18 15L17 15L17 16L16 16L16 17L15 17L15 18L16 18L16 19L17 19L17 20L18 20L18 21L17 21L17 23L16 23L16 25L15 25L15 24L14 24L14 26L16 26L16 25L17 25L17 24L18 24L18 22L20 22L20 21L19 21L19 20L20 20L20 19L21 19L21 20L22 20L22 19L23 19L23 20L24 20L24 19L23 19L23 18L22 18L22 17L23 17L23 16L24 16L24 17L25 17L25 21L26 21L26 20L27 20L27 19L26 19L26 17L25 17L25 16L27 16L27 15L25 15L25 16L24 16L24 14L23 14L23 15L21 15L21 14L22 14L22 13L25 13L25 11L23 11L23 10L19 10L19 11L17 11L17 12L15 12L15 11L14 11L14 9L13 9L13 11L12 11L12 9L11 9L11 8ZM27 8L27 9L28 9L28 10L29 10L29 9L28 9L28 8ZM10 9L10 11L11 11L11 9ZM17 9L17 10L18 10L18 9ZM7 11L7 12L6 12L6 13L7 13L7 14L8 14L8 13L11 13L11 14L12 14L12 13L13 13L13 14L14 14L14 13L15 13L15 12L12 12L12 13L11 13L11 12L8 12L8 11ZM28 13L28 14L29 14L29 13ZM20 15L20 16L21 16L21 15ZM2 16L2 17L4 17L4 16ZM17 16L17 17L16 17L16 18L17 18L17 19L18 19L18 20L19 20L19 18L21 18L21 17L19 17L19 18L17 18L17 17L18 17L18 16ZM28 17L28 18L29 18L29 17ZM15 21L15 22L16 22L16 21ZM21 21L21 24L24 24L24 21ZM22 22L22 23L23 23L23 22ZM25 23L25 25L21 25L21 26L25 26L25 25L26 25L26 24L27 24L27 23ZM11 24L11 25L12 25L12 26L10 26L10 27L12 27L12 26L13 26L13 25L12 25L12 24ZM27 25L27 26L28 26L28 25ZM23 27L23 28L24 28L24 27ZM26 27L26 28L27 28L27 27ZM0 0L0 7L7 7L7 0ZM1 1L1 6L6 6L6 1ZM2 2L2 5L5 5L5 2ZM22 0L22 7L29 7L29 0ZM23 1L23 6L28 6L28 1ZM24 2L24 5L27 5L27 2ZM0 22L0 29L7 29L7 22ZM1 23L1 28L6 28L6 23ZM2 24L2 27L5 27L5 24Z" fill="#000000"></path></g></g></svg>