<svg width="100" height="46" viewBox="0 0 100 46" fill="none" xmlns="http://www.w3.org/2000/svg">
<path d="M9 45.5L26 35.5L10.5 30L9 45.5Z" fill="url(#paint0_linear_10257_1063)"/>
<path d="M7.25916 37H92.7408C96.7436 37 100 34.3404 100 31.0745V5.92551C100 2.65959 96.7436 0 92.7408 0H7.25916C3.24288 0 0 2.65959 0 5.92551V31.0745C0 34.3404 3.24288 37 7.25916 37Z" fill="url(#paint1_linear_10257_1063)"/>
<path d="M11.494 24V11.4H16.948C18.076 11.4 19.048 11.586 19.864 11.958C20.68 12.318 21.31 12.84 21.754 13.524C22.198 14.208 22.42 15.024 22.42 15.972C22.42 16.908 22.198 17.718 21.754 18.402C21.31 19.086 20.68 19.614 19.864 19.986C19.048 20.346 18.076 20.526 16.948 20.526H13.114L14.41 19.212V24H11.494ZM14.41 19.536L13.114 18.15H16.786C17.686 18.15 18.358 17.958 18.802 17.574C19.246 17.19 19.468 16.656 19.468 15.972C19.468 15.276 19.246 14.736 18.802 14.352C18.358 13.968 17.686 13.776 16.786 13.776H13.114L14.41 12.39V19.536ZM33.1418 11.4H36.0578V24H33.1418V11.4ZM27.4178 24H24.5018V11.4H27.4178V24ZM33.3578 18.834H27.2018V16.368H33.3578V18.834ZM42.1709 24V18.852L42.8369 20.616L37.2929 11.4H40.3889L44.6369 18.474H42.8549L47.1209 11.4H49.9829L44.4389 20.616L45.0869 18.852V24H42.1709ZM53.5669 24V13.776H49.5349V11.4H60.5149V13.776H56.4829V24H53.5669ZM68.0281 24.216C67.0321 24.216 66.1081 24.054 65.2561 23.73C64.4161 23.406 63.6841 22.95 63.0601 22.362C62.4481 21.774 61.9681 21.084 61.6201 20.292C61.2841 19.5 61.1161 18.636 61.1161 17.7C61.1161 16.764 61.2841 15.9 61.6201 15.108C61.9681 14.316 62.4541 13.626 63.0781 13.038C63.7021 12.45 64.4341 11.994 65.2741 11.67C66.1141 11.346 67.0261 11.184 68.0101 11.184C69.0061 11.184 69.9181 11.346 70.7461 11.67C71.5861 11.994 72.3121 12.45 72.9241 13.038C73.5481 13.626 74.0341 14.316 74.3821 15.108C74.7301 15.888 74.9041 16.752 74.9041 17.7C74.9041 18.636 74.7301 19.506 74.3821 20.31C74.0341 21.102 73.5481 21.792 72.9241 22.38C72.3121 22.956 71.5861 23.406 70.7461 23.73C69.9181 24.054 69.0121 24.216 68.0281 24.216ZM68.0101 21.732C68.5741 21.732 69.0901 21.636 69.5581 21.444C70.0381 21.252 70.4581 20.976 70.8181 20.616C71.1781 20.256 71.4541 19.83 71.6461 19.338C71.8501 18.846 71.9521 18.3 71.9521 17.7C71.9521 17.1 71.8501 16.554 71.6461 16.062C71.4541 15.57 71.1781 15.144 70.8181 14.784C70.4701 14.424 70.0561 14.148 69.5761 13.956C69.0961 13.764 68.5741 13.668 68.0101 13.668C67.4461 13.668 66.9241 13.764 66.4441 13.956C65.9761 14.148 65.5621 14.424 65.2021 14.784C64.8421 15.144 64.5601 15.57 64.3561 16.062C64.1641 16.554 64.0681 17.1 64.0681 17.7C64.0681 18.288 64.1641 18.834 64.3561 19.338C64.5601 19.83 64.8361 20.256 65.1841 20.616C65.5441 20.976 65.9641 21.252 66.4441 21.444C66.9241 21.636 67.4461 21.732 68.0101 21.732ZM77.0956 24V11.4H79.5076L86.9416 20.472H85.7716V11.4H88.6516V24H86.2576L78.8056 14.928H79.9756V24H77.0956Z" fill="white"/>
<defs>
<linearGradient id="paint0_linear_10257_1063" x1="35.4753" y1="52.8668" x2="2.33413" y2="30.6002" gradientUnits="userSpaceOnUse">
<stop stop-color="#F54200"/>
<stop offset="0.0001" stop-color="#F54200"/>
<stop offset="1" stop-color="#FFAE00"/>
</linearGradient>
<linearGradient id="paint1_linear_10257_1063" x1="93" y1="22" x2="61.7194" y2="-20.9473" gradientUnits="userSpaceOnUse">
<stop stop-color="#F54200"/>
<stop offset="0.0001" stop-color="#F54200"/>
<stop offset="1" stop-color="#FFAE00"/>
</linearGradient>
</defs>
</svg>
