<svg width="51" height="43" viewBox="0 0 51 43" fill="none" xmlns="http://www.w3.org/2000/svg">
<g filter="url(#filter0_i_10257_1045)">
<path d="M46.059 3L3.74614 3.1084C2.72013 3.14612 1.74928 3.64696 1.04713 4.50074C0.344982 5.35453 -0.0309516 6.49134 0.00199886 7.66113L0.142349 28.7524C0.127627 29.9271 0.518637 31.0613 1.23099 31.9102C1.94334 32.759 2.91991 33.2545 3.94988 33.2896L34.6048 33.1864L44.3386 40L43.8633 33.1657H46.2537C46.7621 33.1471 47.2623 33.0143 47.7257 32.7751C48.1891 32.5359 48.6066 32.1949 48.9544 31.7716C49.3021 31.3483 49.5732 30.851 49.7523 30.3081C49.9313 29.7653 50.0148 29.1875 49.9979 28.6078L49.8575 7.52176C49.8699 6.35106 49.4789 5.22156 48.7686 4.37602C48.0583 3.53049 47.0854 3.03642 46.059 3Z" fill="url(#paint0_linear_10257_1045)"/>
</g>
<path d="M18.816 24.216C17.964 24.216 17.178 24.06 16.458 23.748C15.75 23.424 15.168 22.968 14.712 22.38L16.332 20.436C16.68 20.892 17.046 21.24 17.43 21.48C17.814 21.708 18.228 21.822 18.672 21.822C19.86 21.822 20.454 21.126 20.454 19.734V13.74H16.026V11.4H23.352V19.572C23.352 21.132 22.968 22.296 22.2 23.064C21.432 23.832 20.304 24.216 18.816 24.216ZM30.3723 24.216C29.3643 24.216 28.3983 24.084 27.4743 23.82C26.5503 23.544 25.8063 23.19 25.2423 22.758L26.2323 20.562C26.7723 20.946 27.4083 21.264 28.1403 21.516C28.8843 21.756 29.6343 21.876 30.3903 21.876C30.9663 21.876 31.4283 21.822 31.7763 21.714C32.1363 21.594 32.4003 21.432 32.5683 21.228C32.7363 21.024 32.8203 20.79 32.8203 20.526C32.8203 20.19 32.6883 19.926 32.4243 19.734C32.1603 19.53 31.8123 19.368 31.3803 19.248C30.9483 19.116 30.4683 18.996 29.9403 18.888C29.4243 18.768 28.9023 18.624 28.3743 18.456C27.8583 18.288 27.3843 18.072 26.9523 17.808C26.5203 17.544 26.1663 17.196 25.8903 16.764C25.6263 16.332 25.4943 15.78 25.4943 15.108C25.4943 14.388 25.6863 13.734 26.0703 13.146C26.4663 12.546 27.0543 12.072 27.8343 11.724C28.6263 11.364 29.6163 11.184 30.8043 11.184C31.5963 11.184 32.3763 11.28 33.1443 11.472C33.9123 11.652 34.5903 11.928 35.1783 12.3L34.2783 14.514C33.6903 14.178 33.1023 13.932 32.5143 13.776C31.9263 13.608 31.3503 13.524 30.7863 13.524C30.2223 13.524 29.7603 13.59 29.4003 13.722C29.0403 13.854 28.7823 14.028 28.6263 14.244C28.4703 14.448 28.3923 14.688 28.3923 14.964C28.3923 15.288 28.5243 15.552 28.7883 15.756C29.0523 15.948 29.4003 16.104 29.8323 16.224C30.2643 16.344 30.7383 16.464 31.2543 16.584C31.7823 16.704 32.3043 16.842 32.8203 16.998C33.3483 17.154 33.8283 17.364 34.2603 17.628C34.6923 17.892 35.0403 18.24 35.3043 18.672C35.5803 19.104 35.7183 19.65 35.7183 20.31C35.7183 21.018 35.5203 21.666 35.1243 22.254C34.7283 22.842 34.1343 23.316 33.3423 23.676C32.5623 24.036 31.5723 24.216 30.3723 24.216Z" fill="white"/>
<defs>
<filter id="filter0_i_10257_1045" x="0" y="3" width="50" height="37" filterUnits="userSpaceOnUse" color-interpolation-filters="sRGB">
<feFlood flood-opacity="0" result="BackgroundImageFix"/>
<feBlend mode="normal" in="SourceGraphic" in2="BackgroundImageFix" result="shape"/>
<feColorMatrix in="SourceAlpha" type="matrix" values="0 0 0 0 0 0 0 0 0 0 0 0 0 0 0 0 0 0 127 0" result="hardAlpha"/>
<feOffset/>
<feGaussianBlur stdDeviation="2"/>
<feComposite in2="hardAlpha" operator="arithmetic" k2="-1" k3="1"/>
<feColorMatrix type="matrix" values="0 0 0 0 0 0 0 0 0 0 0 0 0 0 0 0 0 0 0.12 0"/>
<feBlend mode="normal" in2="shape" result="effect1_innerShadow_10257_1045"/>
</filter>
<linearGradient id="paint0_linear_10257_1045" x1="8" y1="32.23" x2="30.0884" y2="0.0558468" gradientUnits="userSpaceOnUse">
<stop stop-color="#F54200"/>
<stop offset="1" stop-color="#FFAE00"/>
</linearGradient>
</defs>
</svg>
