<svg width="92" height="47" viewBox="0 0 92 47" fill="none" xmlns="http://www.w3.org/2000/svg">
<g filter="url(#filter0_i_10267_1105)">
<path d="M7.25137 0L85.1071 0.132308C86.995 0.178355 88.7813 0.789661 90.0733 1.83177C91.3652 2.87388 92.057 4.26144 91.9963 5.68926L91.7381 31.4327C91.7652 32.8665 91.0457 34.2509 89.735 35.287C88.4243 36.3231 86.6274 36.9279 84.7322 36.9708L28.3272 36.8448L10.4169 45.1613L11.2916 36.8195H6.89317C5.95768 36.7968 5.03729 36.6347 4.18464 36.3428C3.33199 36.0508 2.56379 35.6345 1.92397 35.1179C1.28415 34.6012 0.785265 33.9942 0.455811 33.3316C0.126358 32.669 -0.0271948 31.9638 0.00394239 31.2563L0.262182 5.51915C0.23945 4.09022 0.958865 2.71158 2.26579 1.67954C3.57271 0.647499 5.36282 0.0444507 7.25137 0Z" fill="url(#paint0_linear_10267_1105)"/>
</g>
<path d="M17.5866 25.28C16.4399 25.28 15.3333 25.14 14.2666 24.86C13.2133 24.5667 12.3533 24.1933 11.6866 23.74L12.9866 20.82C13.6133 21.22 14.3333 21.5533 15.1466 21.82C15.9733 22.0733 16.7933 22.2 17.6066 22.2C18.1533 22.2 18.5933 22.1533 18.9266 22.06C19.2599 21.9533 19.4999 21.82 19.6466 21.66C19.8066 21.4867 19.8866 21.2867 19.8866 21.06C19.8866 20.74 19.7399 20.4867 19.4466 20.3C19.1533 20.1133 18.7733 19.96 18.3066 19.84C17.8399 19.72 17.3199 19.6 16.7466 19.48C16.1866 19.36 15.6199 19.2067 15.0466 19.02C14.4866 18.8333 13.9733 18.5933 13.5066 18.3C13.0399 17.9933 12.6599 17.6 12.3666 17.12C12.0733 16.6267 11.9266 16.0067 11.9266 15.26C11.9266 14.42 12.1533 13.66 12.6066 12.98C13.0733 12.3 13.7666 11.7533 14.6866 11.34C15.6066 10.9267 16.7533 10.72 18.1266 10.72C19.0466 10.72 19.9466 10.8267 20.8266 11.04C21.7199 11.24 22.5133 11.54 23.2066 11.94L21.9866 14.88C21.3199 14.52 20.6599 14.2533 20.0066 14.08C19.3533 13.8933 18.7199 13.8 18.1066 13.8C17.5599 13.8 17.1199 13.86 16.7866 13.98C16.4533 14.0867 16.2133 14.2333 16.0666 14.42C15.9199 14.6067 15.8466 14.82 15.8466 15.06C15.8466 15.3667 15.9866 15.6133 16.2666 15.8C16.5599 15.9733 16.9399 16.12 17.4066 16.24C17.8866 16.3467 18.4066 16.46 18.9666 16.58C19.5399 16.7 20.1066 16.8533 20.6666 17.04C21.2399 17.2133 21.7599 17.4533 22.2266 17.76C22.6933 18.0533 23.0666 18.4467 23.3466 18.94C23.6399 19.42 23.7866 20.0267 23.7866 20.76C23.7866 21.5733 23.5533 22.3267 23.0866 23.02C22.6333 23.7 21.9466 24.2467 21.0266 24.66C20.1199 25.0733 18.9733 25.28 17.5866 25.28ZM29.0758 25L24.5358 11H28.6158L32.4358 23.12H30.3758L34.3958 11H38.0358L41.8358 23.12H39.8558L43.7958 11H47.5758L43.0358 25H38.7958L35.5558 14.7H36.6958L33.3158 25H29.0758ZM48.9947 25V11H52.9547V25H48.9947ZM59.4521 17.14H65.9121V20.2H59.4521V17.14ZM59.7321 25H55.7721V11H66.7521V14.06H59.7321V25ZM71.6818 25V14.14H67.3818V11H79.9218V14.14H75.6418V25H71.6818Z" fill="white"/>
<defs>
<filter id="filter0_i_10267_1105" x="0" y="0" width="92" height="45.1613" filterUnits="userSpaceOnUse" color-interpolation-filters="sRGB">
<feFlood flood-opacity="0" result="BackgroundImageFix"/>
<feBlend mode="normal" in="SourceGraphic" in2="BackgroundImageFix" result="shape"/>
<feColorMatrix in="SourceAlpha" type="matrix" values="0 0 0 0 0 0 0 0 0 0 0 0 0 0 0 0 0 0 127 0" result="hardAlpha"/>
<feOffset/>
<feGaussianBlur stdDeviation="2"/>
<feComposite in2="hardAlpha" operator="arithmetic" k2="-1" k3="1"/>
<feColorMatrix type="matrix" values="0 0 0 0 0 0 0 0 0 0 0 0 0 0 0 0 0 0 0.12 0"/>
<feBlend mode="normal" in2="shape" result="effect1_innerShadow_10267_1105"/>
</filter>
<linearGradient id="paint0_linear_10267_1105" x1="77.28" y1="35.6774" x2="55.4863" y2="-12.1776" gradientUnits="userSpaceOnUse">
<stop stop-color="#F54200"/>
<stop offset="1" stop-color="#FFAE00"/>
</linearGradient>
</defs>
</svg>
