<svg width="70" height="47" viewBox="0 0 70 47" fill="none" xmlns="http://www.w3.org/2000/svg">
<g filter="url(#filter0_i_10263_1081)">
<path d="M64.4827 0L5.24459 0.132308C3.80818 0.178355 2.44899 0.789661 1.46598 1.83177C0.482974 2.87388 -0.0433343 4.26144 0.00279635 5.68926L0.199283 31.4327C0.178672 32.8665 0.726086 34.2509 1.72338 35.287C2.72068 36.3231 4.08786 36.9279 5.52982 36.9708L48.4467 36.8448L62.0741 45.1613L61.4086 36.8196H64.7552C65.467 36.7968 66.1673 36.6347 66.816 36.3428C67.4648 36.0508 68.0493 35.6345 68.5361 35.1179C69.0229 34.6012 69.4025 33.9942 69.6532 33.3316C69.9039 32.669 70.0207 31.9638 69.997 31.2563L69.8005 5.51915C69.8178 4.09022 69.2704 2.71158 68.276 1.67954C67.2816 0.647499 65.9196 0.0444507 64.4827 0Z" fill="url(#paint0_linear_10263_1081)"/>
</g>
<path d="M18.9514 26.264C17.7194 26.264 16.5388 26.1027 15.4094 25.78C14.2801 25.4427 13.3708 25.01 12.6814 24.482L13.8914 21.798C14.5514 22.2673 15.3288 22.656 16.2234 22.964C17.1328 23.2573 18.0494 23.404 18.9734 23.404C19.6774 23.404 20.2421 23.338 20.6674 23.206C21.1074 23.0593 21.4301 22.8613 21.6354 22.612C21.8408 22.3627 21.9434 22.0767 21.9434 21.754C21.9434 21.3433 21.7821 21.0207 21.4594 20.786C21.1368 20.5367 20.7114 20.3387 20.1834 20.192C19.6554 20.0307 19.0688 19.884 18.4234 19.752C17.7928 19.6053 17.1548 19.4293 16.5094 19.224C15.8788 19.0187 15.2994 18.7547 14.7714 18.432C14.2434 18.1093 13.8108 17.684 13.4734 17.156C13.1508 16.628 12.9894 15.9533 12.9894 15.132C12.9894 14.252 13.2241 13.4527 13.6934 12.734C14.1774 12.0007 14.8961 11.4213 15.8494 10.996C16.8174 10.556 18.0274 10.336 19.4794 10.336C20.4474 10.336 21.4008 10.4533 22.3394 10.688C23.2781 10.908 24.1068 11.2453 24.8254 11.7L23.7254 14.406C23.0068 13.9953 22.2881 13.6947 21.5694 13.504C20.8508 13.2987 20.1468 13.196 19.4574 13.196C18.7681 13.196 18.2034 13.2767 17.7634 13.438C17.3234 13.5993 17.0081 13.812 16.8174 14.076C16.6268 14.3253 16.5314 14.6187 16.5314 14.956C16.5314 15.352 16.6928 15.6747 17.0154 15.924C17.3381 16.1587 17.7634 16.3493 18.2914 16.496C18.8194 16.6427 19.3988 16.7893 20.0294 16.936C20.6748 17.0827 21.3128 17.2513 21.9434 17.442C22.5888 17.6327 23.1754 17.8893 23.7034 18.212C24.2314 18.5347 24.6568 18.96 24.9794 19.488C25.3168 20.016 25.4854 20.6833 25.4854 21.49C25.4854 22.3553 25.2434 23.1473 24.7594 23.866C24.2754 24.5847 23.5494 25.164 22.5814 25.604C21.6281 26.044 20.4181 26.264 18.9514 26.264ZM35.3787 26.264C34.1761 26.264 33.0541 26.066 32.0127 25.67C30.9861 25.274 30.0914 24.7167 29.3287 23.998C28.5807 23.2793 27.9941 22.436 27.5687 21.468C27.1581 20.5 26.9527 19.444 26.9527 18.3C26.9527 17.156 27.1581 16.1 27.5687 15.132C27.9941 14.164 28.5881 13.3207 29.3507 12.602C30.1134 11.8833 31.0081 11.326 32.0347 10.93C33.0614 10.534 34.1761 10.336 35.3787 10.336C36.5961 10.336 37.7107 10.534 38.7227 10.93C39.7494 11.326 40.6367 11.8833 41.3847 12.602C42.1474 13.306 42.7414 14.142 43.1667 15.11C43.5921 16.078 43.8047 17.1413 43.8047 18.3C43.8047 19.444 43.5921 20.5073 43.1667 21.49C42.7414 22.458 42.1474 23.3013 41.3847 24.02C40.6367 24.724 39.7494 25.274 38.7227 25.67C37.7107 26.066 36.5961 26.264 35.3787 26.264ZM40.4167 29.542C39.8154 29.542 39.2434 29.476 38.7007 29.344C38.1727 29.212 37.6447 28.9993 37.1167 28.706C36.6034 28.4127 36.0607 28.0167 35.4887 27.518C34.9314 27.0193 34.3227 26.4033 33.6627 25.67L37.4027 24.724C37.7987 25.2667 38.1654 25.6993 38.5027 26.022C38.8401 26.3447 39.1627 26.572 39.4707 26.704C39.7934 26.836 40.1307 26.902 40.4827 26.902C41.4214 26.902 42.2574 26.5207 42.9907 25.758L44.5747 27.65C43.5334 28.9113 42.1474 29.542 40.4167 29.542ZM35.3787 23.228C36.0681 23.228 36.6987 23.1107 37.2707 22.876C37.8574 22.6413 38.3707 22.304 38.8107 21.864C39.2507 21.424 39.5881 20.9033 39.8227 20.302C40.0721 19.686 40.1967 19.0187 40.1967 18.3C40.1967 17.5667 40.0721 16.8993 39.8227 16.298C39.5881 15.6967 39.2507 15.176 38.8107 14.736C38.3707 14.296 37.8574 13.9587 37.2707 13.724C36.6987 13.4893 36.0681 13.372 35.3787 13.372C34.6894 13.372 34.0514 13.4893 33.4647 13.724C32.8781 13.9587 32.3647 14.296 31.9247 14.736C31.4994 15.176 31.1621 15.6967 30.9127 16.298C30.6781 16.8993 30.5607 17.5667 30.5607 18.3C30.5607 19.0187 30.6781 19.686 30.9127 20.302C31.1621 20.9033 31.4994 21.424 31.9247 21.864C32.3647 22.304 32.8781 22.6413 33.4647 22.876C34.0514 23.1107 34.6894 23.228 35.3787 23.228ZM46.4832 26V10.6H50.0472V23.096H57.7692V26H46.4832Z" fill="white"/>
<defs>
<filter id="filter0_i_10263_1081" x="0" y="0" width="70" height="45.1613" filterUnits="userSpaceOnUse" color-interpolation-filters="sRGB">
<feFlood flood-opacity="0" result="BackgroundImageFix"/>
<feBlend mode="normal" in="SourceGraphic" in2="BackgroundImageFix" result="shape"/>
<feColorMatrix in="SourceAlpha" type="matrix" values="0 0 0 0 0 0 0 0 0 0 0 0 0 0 0 0 0 0 127 0" result="hardAlpha"/>
<feOffset/>
<feGaussianBlur stdDeviation="2"/>
<feComposite in2="hardAlpha" operator="arithmetic" k2="-1" k3="1"/>
<feColorMatrix type="matrix" values="0 0 0 0 0 0 0 0 0 0 0 0 0 0 0 0 0 0 0.12 0"/>
<feBlend mode="normal" in2="shape" result="effect1_innerShadow_10263_1081"/>
</filter>
<linearGradient id="paint0_linear_10263_1081" x1="11.2" y1="35.6774" x2="36.662" y2="-6.86266" gradientUnits="userSpaceOnUse">
<stop stop-color="#F54200"/>
<stop offset="1" stop-color="#FFAE00"/>
</linearGradient>
</defs>
</svg>
