<svg width="35" height="26" viewBox="0 0 35 26" fill="none" xmlns="http://www.w3.org/2000/svg">
<path d="M19.7729 25.0664V23.4923C21.8703 22.4503 23.7321 20.9946 25.2446 19.2141C26.757 17.4335 27.8885 15.3654 28.5699 13.136C27.5806 13.8593 26.3988 14.2771 25.172 14.3373C24.3635 14.3341 23.5667 14.1456 22.8435 13.7863C22.1204 13.4271 21.4904 12.9068 21.0028 12.2661C19.8585 10.9109 19.2508 9.18775 19.2934 7.41935C19.2743 6.43008 19.4627 5.44771 19.8468 4.53479C20.2308 3.62188 20.802 2.79844 21.5239 2.11694C22.2537 1.4275 23.1143 0.889296 24.0556 0.53369C24.9969 0.178085 26 0.0121917 27.0064 0.0456885C28.0682 0.03498 29.1172 0.27547 30.0669 0.747275C31.0166 1.21908 31.8397 1.90866 32.4681 2.75903C33.9314 4.71666 34.6679 7.11698 34.5527 9.55273C34.5476 11.4844 34.154 13.3956 33.3951 15.1741C32.6361 16.9525 31.5272 18.5623 30.1334 19.909C27.3992 22.7872 23.73 24.6137 19.7729 25.0664ZM1.01136 25.0664V23.4923C3.10882 22.4503 4.97059 20.9946 6.48307 19.2141C7.99555 17.4335 9.12701 15.3654 9.80841 13.136C8.83785 13.8294 7.68759 14.232 6.49388 14.2959C5.68539 14.2927 4.88854 14.1041 4.1654 13.7449C3.44225 13.3856 2.81232 12.8654 2.32466 12.2246C1.13574 10.7672 0.531226 8.92444 0.627435 7.05083C0.723644 5.17722 1.51378 3.40514 2.84582 2.07551C3.5711 1.38573 4.42798 0.847128 5.36597 0.491411C6.30396 0.135694 7.3041 -0.0299438 8.3075 0.00426255C9.36924 -0.00644597 10.4183 0.234044 11.368 0.705849C12.3177 1.17765 13.1407 1.86723 13.7692 2.7176C15.2247 4.67909 15.9604 7.07662 15.8538 9.51131C15.8541 11.4401 15.467 13.3495 14.7153 15.1278C13.9636 16.906 12.8624 18.5174 11.4761 19.8676C8.74828 22.761 5.07835 24.6026 1.11559 25.0664H1.01136Z" fill="url(#paint0_linear_10193_936)"/>
<defs>
<linearGradient id="paint0_linear_10193_936" x1="20.2822" y1="25.0664" x2="19.7822" y2="0.0664054" gradientUnits="userSpaceOnUse">
<stop stop-color="#FFAE00"/>
<stop offset="1" stop-color="#F54200"/>
</linearGradient>
</defs>
</svg>
