<svg width="34" height="26" viewBox="0 0 34 26" fill="none" xmlns="http://www.w3.org/2000/svg">
<path d="M14.7916 0.0664062V1.64056C12.6941 2.6825 10.8324 4.13816 9.31989 5.91872C7.80741 7.69928 6.67595 9.76738 5.99455 11.9968C6.98388 11.2735 8.16566 10.8557 9.39246 10.7955C10.201 10.7987 10.9978 10.9872 11.7209 11.3465C12.4441 11.7057 13.074 12.226 13.5617 12.8667C14.7059 14.2219 15.3137 15.9451 15.2711 17.7135C15.2902 18.7027 15.1017 19.6851 14.7177 20.598C14.3337 21.5109 13.7625 22.3344 13.0405 23.0159C12.3107 23.7053 11.4501 24.2435 10.5088 24.5991C9.56756 24.9547 8.56446 25.1206 7.55801 25.0871C6.49627 25.0978 5.44721 24.8573 4.49751 24.3855C3.54781 23.9137 2.72474 23.2242 2.09632 22.3738C0.633099 20.4162 -0.103427 18.0158 0.0117136 15.5801C0.0168655 13.6484 0.410466 11.7372 1.16939 9.95875C1.92831 8.18031 3.03726 6.57049 4.43109 5.22383C7.16526 2.34566 10.8344 0.519152 14.7916 0.0664062ZM33.5531 0.0664062V1.64056C31.4556 2.6825 29.5939 4.13816 28.0814 5.91872C26.5689 7.69928 25.4374 9.76738 24.756 11.9968C25.7266 11.3034 26.8769 10.9008 28.0706 10.8369C28.8791 10.8401 29.6759 11.0287 30.3991 11.3879C31.1222 11.7472 31.7521 12.2674 32.2398 12.9082C33.4287 14.3656 34.0332 16.2084 33.937 18.082C33.8408 19.9556 33.0507 21.7277 31.7186 23.0573C30.9934 23.7471 30.1365 24.2857 29.1985 24.6414C28.2605 24.9971 27.2604 25.1628 26.257 25.1285C25.1952 25.1393 24.1462 24.8988 23.1965 24.427C22.2468 23.9552 21.4237 23.2656 20.7953 22.4152C19.3398 20.4537 18.6041 18.0562 18.7107 15.6215C18.7104 13.6928 19.0974 11.7833 19.8491 10.005C20.6008 8.22677 21.7021 6.61538 23.0884 5.26525C25.8162 2.37181 29.4861 0.530255 33.4489 0.0664062H33.5531Z" fill="url(#paint0_linear_10193_935)"/>
<defs>
<linearGradient id="paint0_linear_10193_935" x1="14.2822" y1="0.0664071" x2="14.7822" y2="25.0664" gradientUnits="userSpaceOnUse">
<stop stop-color="#FFAE00"/>
<stop offset="1" stop-color="#F54200"/>
</linearGradient>
</defs>
</svg>
