<svg xmlns="http://www.w3.org/2000/svg" width="20" height="25" viewBox="0 0 20 25" fill="none">
<g clip-path="url(#clip0_9897_948)">
<path d="M9.99348 20.5053C9.65861 20.128 9.33688 19.7701 9.02171 19.4089C7.32112 17.4419 5.71245 15.4072 4.32046 13.2178C3.69341 12.2343 3.14515 11.2121 2.67568 10.1448C1.81225 8.17455 1.95999 6.23659 2.91206 4.35989C4.14318 1.93503 6.16222 0.490425 8.89368 0.0873549C13.0959 -0.53176 17.088 2.36389 17.7742 6.45586C17.9974 7.79727 17.784 9.05485 17.2489 10.2866C16.6514 11.6603 15.8799 12.9372 15.0394 14.1722C13.5391 16.3714 11.8615 18.4319 10.0756 20.4117C10.0559 20.4343 10.0329 20.4601 9.99348 20.5053ZM13.9429 7.08787C13.9462 4.95321 12.1734 3.21518 9.99676 3.21518C7.81685 3.21518 6.04732 4.94999 6.04732 7.08465C6.04732 9.2193 7.81685 10.9573 9.99348 10.9573C12.1701 10.9573 13.9396 9.22575 13.9429 7.08787Z" fill="url(#paint0_linear_9897_948)"/>
<path d="M6.92352 17.8772C6.54269 17.932 6.16515 17.9836 5.79088 18.0481C4.66153 18.2383 3.55517 18.506 2.51117 18.9864C2.10408 19.1767 1.71669 19.3959 1.39824 19.7152C0.886091 20.2311 0.886091 20.7599 1.41137 21.2662C1.85786 21.6983 2.41268 21.9498 2.98721 22.1691C4.10014 22.5882 5.26232 22.8172 6.44092 22.972C8.066 23.188 9.70093 23.2396 11.3391 23.1622C13.1743 23.0752 14.9898 22.8494 16.7397 22.2626C17.2584 22.0884 17.764 21.8821 18.2105 21.5596C18.4107 21.4145 18.6044 21.2468 18.7587 21.0566C19.0575 20.689 19.0673 20.2795 18.7587 19.9215C18.5486 19.6765 18.2892 19.454 18.0135 19.2798C17.242 18.7929 16.3753 18.5156 15.4888 18.3157C14.7535 18.1513 14.0082 18.0448 13.2663 17.9126C13.2006 17.8997 13.1382 17.8901 13.0726 17.8804C13.194 17.6289 13.217 17.6224 13.4829 17.6418C14.5795 17.7256 15.6727 17.8417 16.7462 18.0771C17.3306 18.2028 17.9084 18.3544 18.437 18.6285C18.7686 18.7994 19.0969 18.9993 19.3693 19.2444C20.0686 19.8764 20.1934 20.7535 19.7469 21.579C19.5072 22.0239 19.156 22.3754 18.7554 22.6818C17.8822 23.3492 16.8874 23.791 15.8434 24.1296C13.6471 24.8422 11.3851 25.0776 9.08045 24.9809C7.31091 24.9035 5.58077 24.6229 3.90645 24.0361C2.87559 23.6749 1.89397 23.2235 1.05352 22.5141C0.685829 22.2045 0.373944 21.8434 0.176964 21.4016C-0.154618 20.6567 -0.00360029 19.8699 0.57749 19.2927C1.06337 18.8091 1.67729 18.5414 2.31748 18.3318C3.19404 18.0448 4.10014 17.8965 5.01282 17.7869C5.5184 17.7256 6.02398 17.6901 6.53284 17.6385C6.77907 17.616 6.79876 17.6289 6.92352 17.8772Z" fill="url(#paint1_linear_9897_948)"/>
</g>
<defs>
<linearGradient id="paint0_linear_9897_948" x1="6" y1="17" x2="19" y2="6" gradientUnits="userSpaceOnUse">
<stop stop-color="#F9CE34"/>
<stop offset="0.356978" stop-color="#EE2A7B"/>
<stop offset="1" stop-color="#6228D7"/>
</linearGradient>
<linearGradient id="paint1_linear_9897_948" x1="4.5" y1="25.5" x2="18.5" y2="20.5" gradientUnits="userSpaceOnUse">
<stop stop-color="#F9CE34"/>
<stop offset="0.5" stop-color="#EE2A7B"/>
<stop offset="1" stop-color="#6228D7"/>
</linearGradient>
<clipPath id="clip0_9897_948">
<rect width="20" height="25" fill="white"/>
</clipPath>
</defs>
</svg>
