<svg xmlns="http://www.w3.org/2000/svg" width="35" height="26" viewBox="0 0 35 26" fill="none">
<path d="M15.0094 0V1.57416C12.9119 2.6161 11.0501 4.07176 9.53766 5.85231C8.02518 7.63287 6.89372 9.70097 6.21232 11.9304C7.20165 11.2071 8.38344 10.7893 9.61023 10.7291C10.4187 10.7323 11.2156 10.9208 11.9387 11.2801C12.6619 11.6393 13.2918 12.1596 13.7795 12.8003C14.9237 14.1555 15.5315 15.8787 15.4888 17.6471C15.508 18.6363 15.3195 19.6187 14.9355 20.5316C14.5514 21.4445 13.9803 22.268 13.2583 22.9495C12.5285 23.6389 11.6679 24.1771 10.7266 24.5327C9.78533 24.8883 8.78224 25.0542 7.77578 25.0207C6.71404 25.0314 5.66498 24.7909 4.71528 24.3191C3.76559 23.8473 2.94252 23.1577 2.3141 22.3074C0.850872 20.3497 0.114347 17.9494 0.229487 15.5137C0.234639 13.582 0.62824 11.6708 1.38716 9.89234C2.14608 8.1139 3.25503 6.50408 4.64887 5.15742C7.38304 2.27925 11.0522 0.452746 15.0094 0ZM33.7709 0V1.57416C31.6734 2.6161 29.8116 4.07176 28.2992 5.85231C26.7867 7.63287 25.6552 9.70097 24.9738 11.9304C25.9444 11.237 27.0946 10.8344 28.2883 10.7705C29.0968 10.7737 29.8937 10.9623 30.6168 11.3215C31.34 11.6808 31.9699 12.201 32.4576 12.8418C33.6465 14.2992 34.251 16.142 34.1548 18.0156C34.0586 19.8892 33.2684 21.6613 31.9364 22.9909C31.2111 23.6807 30.3542 24.2193 29.4163 24.575C28.4783 24.9307 27.4781 25.0964 26.4747 25.0621C25.413 25.0729 24.3639 24.8324 23.4142 24.3606C22.4645 23.8888 21.6415 23.1992 21.0131 22.3488C19.5575 20.3873 18.8219 17.9898 18.9284 15.5551C18.9282 13.6263 19.3152 11.7169 20.0669 9.93864C20.8186 8.16036 21.9198 6.54897 23.3061 5.19884C26.034 2.3054 29.7039 0.463849 33.6666 0H33.7709Z" fill="url(#paint0_linear_9841_935)"/>
<defs>
<linearGradient id="paint0_linear_9841_935" x1="14.5" y1="8.63707e-07" x2="15" y2="25" gradientUnits="userSpaceOnUse">
<stop stop-color="#F9CE34"/>
<stop offset="0.5" stop-color="#EE2A7B"/>
<stop offset="1" stop-color="#6228D7"/>
</linearGradient>
</defs>
</svg>
