<svg xmlns="http://www.w3.org/2000/svg" width="35" height="26" viewBox="0 0 35 26" fill="none">
<path d="M19.9906 26V24.4258C22.0881 23.3839 23.9499 21.9282 25.4623 20.1477C26.9748 18.3671 28.1063 16.299 28.7877 14.0696C27.7983 14.7929 26.6166 15.2107 25.3898 15.2709C24.5813 15.2677 23.7844 15.0792 23.0613 14.7199C22.3381 14.3607 21.7082 13.8404 21.2205 13.1997C20.0763 11.8445 19.4685 10.1213 19.5112 8.35294C19.492 7.36367 19.6805 6.3813 20.0645 5.46839C20.4486 4.55547 21.0197 3.73203 21.7417 3.05053C22.4715 2.36109 23.3321 1.82289 24.2734 1.46728C25.2147 1.11168 26.2178 0.945785 27.2242 0.979282C28.286 0.968574 29.335 1.20906 30.2847 1.68087C31.2344 2.15267 32.0575 2.84225 32.6859 3.69262C34.1491 5.65025 34.8857 8.05057 34.7705 10.4863C34.7654 12.418 34.3718 14.3292 33.6128 16.1077C32.8539 17.8861 31.745 19.4959 30.3511 20.8426C27.617 23.7207 23.9478 25.5473 19.9906 26ZM1.22914 26V24.4258C3.32659 23.3839 5.18836 21.9282 6.70084 20.1477C8.21333 18.3671 9.34479 16.299 10.0262 14.0696C9.05562 14.763 7.90537 15.1656 6.71166 15.2295C5.90316 15.2263 5.10632 15.0377 4.38317 14.6785C3.66003 14.3192 3.0301 13.799 2.54244 13.1582C1.35351 11.7008 0.748999 9.85804 0.845208 7.98443C0.941417 6.11082 1.73155 4.33873 3.06359 3.00911C3.78888 2.31933 4.64575 1.78072 5.58374 1.425C6.52173 1.06929 7.52188 0.90365 8.52527 0.937856C9.58701 0.927148 10.6361 1.16764 11.5858 1.63944C12.5355 2.11125 13.3585 2.80083 13.9869 3.6512C15.4425 5.61268 16.1781 8.01022 16.0716 10.4449C16.0718 12.3737 15.6848 14.2831 14.9331 16.0614C14.1814 17.8396 13.0802 19.451 11.6939 20.8012C8.96605 23.6946 5.29612 25.5362 1.33336 26H1.22914Z" fill="url(#paint0_linear_9926_1128)"/>
<defs>
<linearGradient id="paint0_linear_9926_1128" x1="20.5" y1="26" x2="20" y2="0.999999" gradientUnits="userSpaceOnUse">
<stop stop-color="#F9CE34"/>
<stop offset="0.5" stop-color="#EE2A7B"/>
<stop offset="1" stop-color="#6228D7"/>
</linearGradient>
</defs>
</svg>
