<svg xmlns="http://www.w3.org/2000/svg" version="1.1" width="111" height="130" viewBox="0 0 130 130"><rect x="0" y="0" width="130" height="130" fill="#ffffff"></rect><g transform="scale(5.2)"><g transform="translate(0,0)"><path fill-rule="evenodd" d="M8 0L8 1L9 1L9 2L8 2L8 5L9 5L9 6L8 6L8 7L9 7L9 8L8 8L8 9L7 9L7 8L6 8L6 9L7 9L7 10L4 10L4 8L0 8L0 11L2 11L2 12L3 12L3 13L1 13L1 12L0 12L0 13L1 13L1 15L0 15L0 16L1 16L1 15L3 15L3 17L4 17L4 16L5 16L5 15L3 15L3 13L4 13L4 14L5 14L5 13L10 13L10 14L9 14L9 15L8 15L8 14L6 14L6 15L7 15L7 16L6 16L6 17L8 17L8 18L9 18L9 17L8 17L8 16L9 16L9 15L10 15L10 17L11 17L11 18L12 18L12 19L9 19L9 21L8 21L8 25L10 25L10 23L11 23L11 25L14 25L14 24L15 24L15 23L16 23L16 22L17 22L17 23L18 23L18 24L17 24L17 25L25 25L25 24L23 24L23 23L24 23L24 22L25 22L25 15L24 15L24 14L25 14L25 12L23 12L23 11L21 11L21 10L20 10L20 9L23 9L23 10L24 10L24 9L25 9L25 8L24 8L24 9L23 9L23 8L20 8L20 9L19 9L19 10L20 10L20 11L21 11L21 12L18 12L18 10L17 10L17 9L18 9L18 8L17 8L17 6L16 6L16 7L15 7L15 5L17 5L17 2L15 2L15 3L14 3L14 2L13 2L13 1L14 1L14 0L13 0L13 1L12 1L12 0ZM16 0L16 1L17 1L17 0ZM10 1L10 2L9 2L9 3L10 3L10 6L9 6L9 7L10 7L10 8L9 8L9 9L8 9L8 10L9 10L9 12L10 12L10 13L11 13L11 14L10 14L10 15L12 15L12 16L11 16L11 17L13 17L13 18L15 18L15 19L13 19L13 20L11 20L11 21L12 21L12 22L13 22L13 23L15 23L15 21L16 21L16 20L15 20L15 19L16 19L16 18L15 18L15 16L14 16L14 15L16 15L16 16L18 16L18 15L20 15L20 14L18 14L18 13L17 13L17 14L14 14L14 13L13 13L13 15L12 15L12 12L13 12L13 11L12 11L12 12L11 12L11 9L12 9L12 10L13 10L13 9L14 9L14 12L15 12L15 11L16 11L16 12L17 12L17 11L16 11L16 9L15 9L15 8L14 8L14 6L13 6L13 5L14 5L14 4L13 4L13 5L12 5L12 4L11 4L11 3L10 3L10 2L11 2L11 1ZM10 6L10 7L11 7L11 8L12 8L12 9L13 9L13 6L12 6L12 7L11 7L11 6ZM2 9L2 11L3 11L3 12L4 12L4 13L5 13L5 12L7 12L7 11L5 11L5 12L4 12L4 10L3 10L3 9ZM9 9L9 10L10 10L10 9ZM21 12L21 16L24 16L24 15L22 15L22 14L24 14L24 13L22 13L22 12ZM13 16L13 17L14 17L14 16ZM17 17L17 20L20 20L20 17ZM21 17L21 20L22 20L22 21L23 21L23 19L22 19L22 17ZM23 17L23 18L24 18L24 17ZM18 18L18 19L19 19L19 18ZM14 20L14 21L13 21L13 22L14 22L14 21L15 21L15 20ZM19 21L19 24L20 24L20 21ZM21 22L21 24L22 24L22 22ZM0 0L0 7L7 7L7 0ZM1 1L1 6L6 6L6 1ZM2 2L2 5L5 5L5 2ZM18 0L18 7L25 7L25 0ZM19 1L19 6L24 6L24 1ZM20 2L20 5L23 5L23 2ZM0 18L0 25L7 25L7 18ZM1 19L1 24L6 24L6 19ZM2 20L2 23L5 23L5 20Z" fill="#000000"></path></g></g></svg>