<svg width="62" height="46" viewBox="0 0 62 46" fill="none" xmlns="http://www.w3.org/2000/svg">
<path d="M48.4463 44.4648C48.279 44.5257 48.0965 44.5368 47.8672 44.4531C47.6292 44.3623 47.4904 44.2289 47.3975 44.0654C47.2971 43.889 47.2356 43.6484 47.2119 43.3281V43.3271C46.9372 39.0745 46.6362 34.8199 46.3486 30.5703V30.5684C46.3341 30.3644 46.303 30.1782 46.2793 30L46.2295 29.6211L45.8506 29.5703C41.5368 28.9872 37.9996 27.2017 35.5273 23.7588L35.292 23.4209C29.6051 14.9939 33.6385 2.78484 44.9707 0.728516C52.8956 -0.708267 59.6616 5.335 61.0088 12.5908V12.5928L61.0664 12.917C61.3297 14.5232 61.2788 16.0121 61.2783 17.7705C61.0025 20.449 60.5941 23.0269 60.0146 25.3789C58.1701 32.7699 54.4539 38.688 49.042 44.041L49.0391 44.043C48.8228 44.26 48.629 44.3983 48.4463 44.4648ZM15.751 44.4912L15.5859 44.4414C15.35 44.3466 15.2114 44.2099 15.1191 44.042C15.0191 43.8598 14.9601 43.6154 14.9365 43.2969C14.6752 39.14 14.3875 34.9683 14.1133 30.8145V30.8135C14.0989 30.5387 14.0548 30.2674 14.0186 29.9883L13.9678 29.6006L13.5801 29.5557C11.0457 29.2617 8.74842 28.4853 6.72266 27.0586L6.7207 27.0576C1.92277 23.7038 -0.0443025 18.9796 0.62793 13.2617C1.33648 7.35759 4.69204 3.36333 10.29 1.36328C19.6666 -1.98374 27.8881 5.12379 28.9678 13.2676V13.2686L29.0312 13.8506C29.14 15.1576 28.9984 16.1839 28.9648 18.0547C28.506 22.4218 28.4236 22.3737 27.9316 24.4912L27.9307 24.4902C26.1232 32.0951 22.3034 38.575 16.7559 44.0518C16.5311 44.2714 16.3377 44.4046 16.1592 44.4668C16.0379 44.509 15.9073 44.5243 15.751 44.4912Z" fill="#D8F3F1" stroke="#1CBBB4"/>
</svg>
