<svg width="57" height="42" viewBox="0 0 57 42" fill="none" xmlns="http://www.w3.org/2000/svg">
<path d="M12.6151 1.04398C12.7665 0.988611 12.9316 0.978523 13.1391 1.05462C13.3544 1.13717 13.48 1.25845 13.5641 1.40709C13.6549 1.56746 13.7106 1.7862 13.732 2.0774C13.9806 5.94362 14.253 9.81256 14.5132 13.676V13.6778C14.5263 13.8632 14.5545 14.0325 14.5759 14.1945L14.621 14.539L14.9638 14.5852C18.8672 15.1153 22.0679 16.7386 24.305 19.8687L24.5179 20.1759C29.6638 27.8372 26.0141 38.937 15.76 40.8064C8.58906 42.1127 2.46676 36.6185 1.24772 30.0219V30.0201L1.19561 29.7254C0.957355 28.2651 1.00341 26.9115 1.00386 25.3129C1.25342 22.8777 1.62297 20.5341 2.14734 18.3958C3.81636 11.6763 7.17901 6.29591 12.076 1.42927L12.0787 1.42746C12.2744 1.23017 12.4498 1.10444 12.6151 1.04398ZM42.1998 1.01998L42.3492 1.06525C42.5627 1.15144 42.6881 1.27572 42.7716 1.42836C42.8621 1.59401 42.9155 1.8162 42.9369 2.10576C43.1733 5.88497 43.4336 9.67764 43.6817 13.454V13.4549C43.6948 13.7048 43.7347 13.9514 43.7674 14.2052L43.8134 14.5576L44.1642 14.5985C46.4575 14.8657 48.5362 15.5716 50.3693 16.8687L50.371 16.8696C54.7125 19.9187 56.4924 24.2136 55.8842 29.412C55.243 34.7797 52.2067 38.411 47.1413 40.2294C38.6568 43.2723 31.2174 36.8105 30.2404 29.4066V29.4057L30.1831 28.8766C30.0846 27.6884 30.2128 26.7553 30.2432 25.0545C30.6583 21.0842 30.7329 21.1279 31.1781 19.2028L31.1789 19.2037C32.8144 12.2898 36.2708 6.39864 41.2906 1.41945C41.494 1.21981 41.669 1.09871 41.8305 1.04216C41.9402 1.00379 42.0584 0.989886 42.1998 1.01998Z" fill="#D8F3F1" stroke="#1CBBB4"/>
</svg>
