<svg xmlns="http://www.w3.org/2000/svg" version="1.1" width="110" height="130" viewBox="0 0 130 130"><rect x="0" y="0" width="130" height="130" fill="#ffffff"></rect><g transform="scale(5.2)"><g transform="translate(0,0)"><path fill-rule="evenodd" d="M8 0L8 1L10 1L10 0ZM11 0L11 2L13 2L13 3L10 3L10 4L12 4L12 5L13 5L13 6L12 6L12 7L13 7L13 6L14 6L14 8L15 8L15 9L16 9L16 11L15 11L15 12L14 12L14 9L13 9L13 8L12 8L12 9L11 9L11 10L10 10L10 8L11 8L11 6L10 6L10 5L9 5L9 2L8 2L8 5L9 5L9 6L8 6L8 7L9 7L9 6L10 6L10 8L8 8L8 9L7 9L7 8L6 8L6 9L7 9L7 10L5 10L5 12L4 12L4 11L3 11L3 12L1 12L1 15L0 15L0 16L1 16L1 15L2 15L2 16L3 16L3 17L8 17L8 18L9 18L9 19L11 19L11 20L10 20L10 22L9 22L9 21L8 21L8 25L9 25L9 23L10 23L10 22L11 22L11 25L14 25L14 24L15 24L15 23L16 23L16 22L17 22L17 23L18 23L18 24L17 24L17 25L25 25L25 24L23 24L23 23L24 23L24 22L23 22L23 21L22 21L22 20L21 20L21 17L22 17L22 19L23 19L23 20L24 20L24 19L25 19L25 15L24 15L24 14L25 14L25 12L23 12L23 11L21 11L21 10L20 10L20 9L23 9L23 10L24 10L24 9L25 9L25 8L24 8L24 9L23 9L23 8L20 8L20 9L19 9L19 10L20 10L20 11L21 11L21 12L18 12L18 10L17 10L17 9L18 9L18 8L17 8L17 6L16 6L16 7L15 7L15 5L17 5L17 2L15 2L15 3L14 3L14 2L13 2L13 1L14 1L14 0L13 0L13 1L12 1L12 0ZM16 0L16 1L17 1L17 0ZM13 4L13 5L14 5L14 4ZM0 8L0 11L1 11L1 10L2 10L2 9L3 9L3 10L4 10L4 8ZM8 9L8 10L7 10L7 11L6 11L6 12L7 12L7 11L8 11L8 10L9 10L9 12L8 12L8 13L6 13L6 14L7 14L7 15L6 15L6 16L8 16L8 17L9 17L9 18L11 18L11 19L13 19L13 20L12 20L12 22L13 22L13 23L15 23L15 21L16 21L16 20L15 20L15 19L16 19L16 18L15 18L15 16L14 16L14 15L16 15L16 16L18 16L18 15L20 15L20 14L18 14L18 13L17 13L17 14L14 14L14 13L13 13L13 9L12 9L12 12L11 12L11 11L10 11L10 10L9 10L9 9ZM16 11L16 12L17 12L17 11ZM9 12L9 13L8 13L8 15L9 15L9 17L10 17L10 16L11 16L11 18L13 18L13 19L15 19L15 18L13 18L13 17L14 17L14 16L13 16L13 13L12 13L12 16L11 16L11 15L9 15L9 14L10 14L10 12ZM21 12L21 16L24 16L24 15L22 15L22 14L24 14L24 13L22 13L22 12ZM2 13L2 14L3 14L3 16L5 16L5 15L4 15L4 14L5 14L5 13L4 13L4 14L3 14L3 13ZM12 16L12 17L13 17L13 16ZM17 17L17 20L20 20L20 17ZM23 17L23 18L24 18L24 17ZM18 18L18 19L19 19L19 18ZM14 20L14 21L13 21L13 22L14 22L14 21L15 21L15 20ZM19 21L19 24L20 24L20 21ZM21 22L21 24L22 24L22 22ZM0 0L0 7L7 7L7 0ZM1 1L1 6L6 6L6 1ZM2 2L2 5L5 5L5 2ZM18 0L18 7L25 7L25 0ZM19 1L19 6L24 6L24 1ZM20 2L20 5L23 5L23 2ZM0 18L0 25L7 25L7 18ZM1 19L1 24L6 24L6 19ZM2 20L2 23L5 23L5 20Z" fill="#000000"></path></g></g></svg>