<svg xmlns="http://www.w3.org/2000/svg" width="40" height="37" viewBox="0 0 40 37" fill="none">
                                        <path d="M11.3955 0.5H11.3965C14.6723 0.500093 17.5747 1.92962 19.5752 4.16211L19.9473 4.57715L20.3193 4.16309C22.3207 1.93773 25.2238 0.500019 28.499 0.5C34.5317 0.5 39.3955 5.25805 39.3955 11.1055C39.3953 18.3575 34.5491 24.4782 29.5918 28.8311C27.1237 30.9982 24.6532 32.7051 22.7988 33.8701C21.8721 34.4523 21.1002 34.8982 20.5615 35.1982C20.2982 35.3449 20.0901 35.4557 19.9473 35.5312C19.8045 35.4557 19.5969 35.3447 19.334 35.1982C18.7953 34.8982 18.0234 34.4523 17.0967 33.8701C15.2422 32.7051 12.7719 30.9983 10.3037 28.8311C5.34639 24.4782 0.500175 18.3576 0.5 11.1055C0.5 5.44006 5.06495 0.790156 10.834 0.512695L11.3955 0.5Z" fill="#fbd4d5" stroke="#C82D4D"></path>
                                        <g clip-path="url(#clip0_8355_996)">
                                            <path d="M18.6253 24.2499H14.5003C14.0141 24.2499 13.5478 24.0568 13.204 23.7129C12.8601 23.3691 12.667 22.9028 12.667 22.4166V11.4166C12.667 10.9304 12.8601 10.464 13.204 10.1202C13.5478 9.77641 14.0141 9.58325 14.5003 9.58325H25.5003C25.9866 9.58325 26.4529 9.77641 26.7967 10.1202C27.1405 10.464 27.3337 10.9304 27.3337 11.4166V14.1666" stroke="#C82D4D" stroke-width="2" stroke-linecap="round" stroke-linejoin="round"></path>
                                            <path d="M23.667 7.75V11.4167" stroke="#C82D4D" stroke-width="2" stroke-linecap="round" stroke-linejoin="round"></path>
                                            <path d="M16.333 7.75V11.4167" stroke="#C82D4D" stroke-width="2" stroke-linecap="round" stroke-linejoin="round"></path>
                                            <path d="M12.667 15.0833H21.8337" stroke="#C82D4D" stroke-width="2" stroke-linecap="round" stroke-linejoin="round"></path>
                                            <path d="M21.833 21.4999C21.833 22.4724 22.2193 23.405 22.9069 24.0926C23.5946 24.7803 24.5272 25.1666 25.4997 25.1666C26.4721 25.1666 27.4048 24.7803 28.0924 24.0926C28.78 23.405 29.1663 22.4724 29.1663 21.4999C29.1663 20.5275 28.78 19.5948 28.0924 18.9072C27.4048 18.2196 26.4721 17.8333 25.4997 17.8333C24.5272 17.8333 23.5946 18.2196 22.9069 18.9072C22.2193 19.5948 21.833 20.5275 21.833 21.4999Z" stroke="#C82D4D" stroke-width="2" stroke-linecap="round" stroke-linejoin="round"></path>
                                            <path d="M25.5 20.125V21.5L25.9583 21.9583" stroke="#C82D4D" stroke-width="2" stroke-linecap="round" stroke-linejoin="round"></path>
                                        </g>
                                        <defs>
                                            <clipPath id="clip0_8355_996">
                                                <rect width="22" height="22" fill="white" transform="translate(9 5)"></rect>
                                            </clipPath>
                                        </defs>
                                    </svg>