<svg width="66" height="47" viewBox="0 0 66 47" fill="none" xmlns="http://www.w3.org/2000/svg">
<path d="M52.0619 46.9483C51.8803 47.0134 51.6821 47.0252 51.4331 46.9358C51.1747 46.8388 51.024 46.6963 50.9231 46.5217C50.8141 46.3332 50.7473 46.0762 50.7216 45.7341C50.4233 41.1912 50.0964 36.6452 49.7842 32.1056V32.1036C49.7684 31.8857 49.7346 31.6868 49.7089 31.4964L49.6548 31.0917L49.2434 31.0374C44.5593 30.4145 40.7185 28.5072 38.034 24.8293L37.7785 24.4684C31.6035 15.4663 35.9831 2.42408 48.288 0.227431C56.8931 -1.3074 64.2399 5.14827 65.7027 12.8992V12.9013L65.7653 13.2477C66.0512 14.9635 65.9959 16.554 65.9954 18.4324C65.6959 21.2937 65.2524 24.0475 64.6232 26.56C62.6204 34.4554 58.5852 40.7773 52.7087 46.4956L52.7056 46.4977C52.4707 46.7295 52.2603 46.8773 52.0619 46.9483ZM16.5602 46.9765L16.3809 46.9233C16.1248 46.8221 15.9743 46.676 15.874 46.4967C15.7655 46.302 15.7014 46.041 15.6758 45.7007C15.392 41.2602 15.0796 36.8038 14.7819 32.3665V32.3654C14.7663 32.0719 14.7184 31.7821 14.6791 31.4839L14.6239 31.0698L14.2029 31.0218C11.451 30.7077 8.95653 29.8784 6.75689 28.3543L6.75476 28.3532C1.54499 24.7706 -0.590925 19.724 0.139009 13.6159C0.908378 7.30888 4.55197 3.04205 10.6304 0.905512C20.8119 -2.66991 29.7391 4.92264 30.9115 13.6222V13.6233L30.9803 14.245C31.0984 15.6412 30.9447 16.7375 30.9082 18.736C30.41 23.4011 30.3205 23.3497 29.7863 25.6117L29.7853 25.6106C27.8227 33.7345 23.675 40.6566 17.6513 46.5071C17.4072 46.7417 17.1972 46.884 17.0034 46.9505C16.8717 46.9955 16.7299 47.0119 16.5602 46.9765Z" fill="url(#paint0_linear_644_3)"/>
<defs>
<linearGradient id="paint0_linear_644_3" x1="33" y1="0" x2="33" y2="47" gradientUnits="userSpaceOnUse">
<stop stop-color="#C42091"/>
<stop offset="1" stop-color="#6617CA"/>
</linearGradient>
</defs>
</svg>
