<svg xmlns="http://www.w3.org/2000/svg" width="24" height="25" viewBox="0 0 24 25" fill="none">
                                        <path d="M8.28564 7.41444C8.28564 5.36304 9.94849 3.7002 11.9999 3.7002C14.0513 3.7002 15.7141 5.36304 15.7141 7.41444C15.7141 7.56599 15.6539 7.71134 15.5468 7.8185C15.4396 7.92566 15.2943 7.98587 15.1427 7.98587C14.9912 7.98587 14.8458 7.92566 14.7387 7.8185C14.6315 7.71134 14.5713 7.56599 14.5713 7.41444C14.5713 6.73247 14.3004 6.07842 13.8181 5.59619C13.3359 5.11396 12.6819 4.84304 11.9999 4.84304C11.3179 4.84304 10.6639 5.11396 10.1816 5.59619C9.69941 6.07842 9.42849 6.73247 9.42849 7.41444C9.42849 7.56599 9.36829 7.71134 9.26112 7.8185C9.15396 7.92566 9.00862 7.98587 8.85707 7.98587C8.70552 7.98587 8.56017 7.92566 8.45301 7.8185C8.34585 7.71134 8.28564 7.56599 8.28564 7.41444ZM12.5713 12.5572C12.5713 12.4057 12.5111 12.2604 12.404 12.1532C12.2968 12.046 12.1514 11.9858 11.9999 11.9858C11.8483 11.9858 11.703 12.046 11.5958 12.1532C11.4887 12.2604 11.4285 12.4057 11.4285 12.5572V14.2715H9.7142C9.56265 14.2715 9.41731 14.3317 9.31014 14.4389C9.20298 14.546 9.14278 14.6914 9.14278 14.8429C9.14278 14.9945 9.20298 15.1398 9.31014 15.247C9.41731 15.3542 9.56265 15.4144 9.7142 15.4144H11.4285V17.1286C11.4285 17.2802 11.4887 17.4255 11.5958 17.5327C11.703 17.6399 11.8483 17.7001 11.9999 17.7001C12.1514 17.7001 12.2968 17.6399 12.404 17.5327C12.5111 17.4255 12.5713 17.2802 12.5713 17.1286V15.4144H14.2856C14.4371 15.4144 14.5825 15.3542 14.6896 15.247C14.7968 15.1398 14.857 14.9945 14.857 14.8429C14.857 14.6914 14.7968 14.546 14.6896 14.4389C14.5825 14.3317 14.4371 14.2715 14.2856 14.2715H12.5713V12.5572Z" fill="currentColor"></path>
                                        <path fill-rule="evenodd" clip-rule="evenodd" d="M5.20225 10.7719C5.28737 10.234 5.56165 9.74422 5.97574 9.39058C6.38982 9.03693 6.91653 8.84268 7.46108 8.84277H16.5384C17.083 8.84261 17.6098 9.03683 18.0239 9.39049C18.4381 9.74414 18.7124 10.234 18.7975 10.7719L19.9715 18.2004C20.1907 19.5884 19.117 20.8427 17.7124 20.8427H6.28738C4.88282 20.8427 3.80912 19.5884 4.02854 18.2004L5.20225 10.7719ZM7.46108 9.98562C7.18873 9.98552 6.92529 10.0826 6.71814 10.2594C6.511 10.4363 6.37375 10.6812 6.33109 10.9502L5.1571 18.3787C5.13137 18.5419 5.14134 18.7088 5.18632 18.8678C5.23131 19.0269 5.31024 19.1742 5.41767 19.2998C5.52511 19.4254 5.65849 19.5262 5.80864 19.5952C5.95878 19.6643 6.12211 19.7 6.28738 19.6998H17.7124C17.8777 19.6999 18.041 19.6642 18.1911 19.5951C18.3412 19.5261 18.4746 19.4253 18.582 19.2997C18.6894 19.1741 18.7684 19.0268 18.8134 18.8678C18.8584 18.7088 18.8684 18.5419 18.8427 18.3787L17.6687 10.9502C17.626 10.6811 17.4887 10.4362 17.2815 10.2593C17.0743 10.0825 16.8108 9.98546 16.5384 9.98562H7.46108Z" fill="currentColor"></path>
                                    </svg>